<svg width="598" height="440" viewBox="0 0 598 440" fill="none" xmlns="http://www.w3.org/2000/svg">
<path opacity="0.9" d="M235.965 145.613C186.285 144.657 149.649 109.18 108.808 156.913C76.4487 194.815 87.8803 238.403 120.825 270.178C187.85 334.849 302.704 361.463 387.025 323.716C470.773 286.232 506.262 172.776 432.417 104.987C404.835 79.6868 364.186 57.3612 328.147 75.4701C285.18 97.0433 296.456 146.783 235.965 145.613Z" fill="#E0EAFF"/>
<path d="M470.512 283.018L468.804 305.583C468.786 305.758 468.705 305.921 468.575 306.04C468.445 306.159 468.275 306.226 468.099 306.228H458.412C458.235 306.228 458.064 306.162 457.933 306.043C457.803 305.923 457.722 305.759 457.707 305.583L457.336 300.518L456.464 288.74L456.046 283.018H470.512Z" fill="#407BFF"/>
<path opacity="0.2" d="M470.512 283.018L468.804 305.583C468.786 305.758 468.705 305.921 468.575 306.04C468.445 306.159 468.275 306.226 468.099 306.228H458.412C458.235 306.228 458.064 306.162 457.933 306.043C457.803 305.923 457.722 305.759 457.707 305.583L457.336 300.518L456.464 288.74L456.046 283.018H470.512Z" fill="black"/>
<path d="M471.067 281.887L455.478 281.871C454.911 281.87 454.451 282.329 454.45 282.897L454.45 283.112C454.449 283.679 454.909 284.14 455.476 284.14L471.065 284.157C471.632 284.157 472.092 283.698 472.093 283.13L472.093 282.915C472.094 282.348 471.634 281.888 471.067 281.887Z" fill="#EBEBEB"/>
<path d="M177.423 254.086H408.432C410.988 254.085 413.519 254.587 415.881 255.564C418.242 256.542 420.388 257.975 422.195 259.782C424.003 261.59 425.436 263.735 426.413 266.097C427.391 268.458 427.893 270.989 427.891 273.545V361.94H157.929V273.545C157.927 270.986 158.431 268.452 159.41 266.089C160.39 263.725 161.826 261.577 163.637 259.77C165.448 257.962 167.598 256.529 169.964 255.554C172.33 254.579 174.865 254.08 177.423 254.086V254.086Z" fill="#407BFF"/>
<path opacity="0.3" d="M177.423 254.086H408.432C410.988 254.085 413.519 254.587 415.881 255.564C418.242 256.542 420.388 257.975 422.195 259.782C424.003 261.59 425.436 263.735 426.413 266.097C427.391 268.458 427.893 270.989 427.891 273.545V361.94H157.929V273.545C157.927 270.986 158.431 268.452 159.41 266.089C160.39 263.725 161.826 261.577 163.637 259.77C165.448 257.962 167.598 256.529 169.964 255.554C172.33 254.579 174.865 254.08 177.423 254.086V254.086Z" fill="white"/>
<path d="M200.49 254.086H414.501C419.411 254.086 424.121 256.037 427.593 259.509C431.065 262.982 433.016 267.691 433.016 272.601V361.94H181.975V272.59C181.978 267.681 183.93 262.975 187.402 259.505C190.874 256.035 195.581 254.086 200.49 254.086V254.086Z" fill="#407BFF"/>
<path opacity="0.6" d="M200.49 254.086H414.501C419.411 254.086 424.121 256.037 427.593 259.509C431.065 262.982 433.016 267.691 433.016 272.601V361.94H181.975V272.59C181.978 267.681 183.93 262.975 187.402 259.505C190.874 256.035 195.581 254.086 200.49 254.086V254.086Z" fill="white"/>
<path d="M421.274 306.192C420.688 306.192 420.079 306.192 419.506 306.192C407.035 307.088 396.941 317.648 396.153 330.656C395.972 333.528 396.246 336.41 396.965 339.197C399.712 350.373 401.036 361.852 400.907 373.36V423.853C400.888 424.995 401.322 426.099 402.114 426.923C402.907 427.747 403.993 428.223 405.136 428.249H488.466V306.192H421.274Z" fill="#407BFF"/>
<path opacity="0.4" d="M421.274 306.192C420.688 306.192 420.079 306.192 419.506 306.192C407.035 307.088 396.941 317.648 396.153 330.656C395.972 333.528 396.246 336.41 396.965 339.197C399.712 350.373 401.036 361.852 400.907 373.36V423.853C400.888 424.995 401.322 426.099 402.114 426.923C402.907 427.747 403.993 428.223 405.136 428.249H488.466V306.192H421.274Z" fill="white"/>
<path d="M513.645 332.423C513.645 317.324 501.402 305.212 486.697 306.251C474.214 307.147 464.132 317.707 463.332 330.715C463.151 333.587 463.425 336.469 464.144 339.256C466.891 350.432 468.215 361.911 468.086 373.419V423.912C468.067 425.055 468.501 426.158 469.293 426.982C470.086 427.806 471.172 428.282 472.315 428.308H504.567C505.71 428.282 506.796 427.806 507.588 426.982C508.381 426.158 508.815 425.055 508.796 423.912V371.496C508.7 360.701 510.009 349.94 512.69 339.483C513.318 337.182 513.639 334.808 513.645 332.423V332.423Z" fill="#407BFF"/>
<path opacity="0.6" d="M513.645 332.423C513.645 317.324 501.402 305.212 486.697 306.251C474.214 307.147 464.132 317.707 463.332 330.715C463.151 333.587 463.425 336.469 464.144 339.256C466.891 350.432 468.215 361.911 468.086 373.419V423.912C468.067 425.055 468.501 426.158 469.293 426.982C470.086 427.806 471.172 428.282 472.315 428.308H504.567C505.71 428.282 506.796 427.806 507.588 426.982C508.381 426.158 508.815 425.055 508.796 423.912V371.496C508.7 360.701 510.009 349.94 512.69 339.483C513.318 337.182 513.639 334.808 513.645 332.423V332.423Z" fill="white"/>
<path d="M453.764 347.522H233.816V428.32H453.764V347.522Z" fill="#407BFF"/>
<path opacity="0.4" d="M453.764 347.522H233.816V428.32H453.764V347.522Z" fill="white"/>
<path d="M239.885 340.869H452.379C453.132 340.869 453.877 341.017 454.573 341.305C455.269 341.594 455.901 342.016 456.433 342.548C456.966 343.081 457.388 343.713 457.676 344.408C457.964 345.104 458.113 345.85 458.113 346.603V361.94C458.113 362.693 457.964 363.439 457.676 364.135C457.388 364.83 456.966 365.462 456.433 365.995C455.901 366.527 455.269 366.95 454.573 367.238C453.877 367.526 453.132 367.674 452.379 367.674H239.885C239.432 367.674 238.997 367.494 238.677 367.174C238.357 366.853 238.177 366.419 238.177 365.966V342.577C238.177 342.124 238.357 341.69 238.677 341.369C238.997 341.049 239.432 340.869 239.885 340.869V340.869Z" fill="#407BFF"/>
<path opacity="0.2" d="M239.885 340.869H452.379C453.132 340.869 453.877 341.017 454.573 341.305C455.269 341.594 455.901 342.016 456.433 342.548C456.966 343.081 457.388 343.713 457.676 344.408C457.964 345.104 458.113 345.85 458.113 346.603V361.94C458.113 362.693 457.964 363.439 457.676 364.135C457.388 364.83 456.966 365.462 456.433 365.995C455.901 366.527 455.269 366.95 454.573 367.238C453.877 367.526 453.132 367.674 452.379 367.674H239.885C239.432 367.674 238.997 367.494 238.677 367.174C238.357 366.853 238.177 366.419 238.177 365.966V342.577C238.177 342.124 238.357 341.69 238.677 341.369C238.997 341.049 239.432 340.869 239.885 340.869V340.869Z" fill="white"/>
<path d="M147.654 428.308H489.754V428.367C489.754 429.197 489.424 429.993 488.837 430.58C488.25 431.167 487.454 431.497 486.624 431.497H150.784C149.954 431.497 149.158 431.167 148.571 430.58C147.984 429.993 147.654 429.197 147.654 428.367V428.308Z" fill="#407BFF"/>
<path opacity="0.2" d="M147.654 428.308H489.754V428.367C489.754 429.197 489.424 429.993 488.837 430.58C488.25 431.167 487.454 431.497 486.624 431.497H150.784C149.954 431.497 149.158 431.167 148.571 430.58C147.984 429.993 147.654 429.197 147.654 428.367V428.308Z" fill="white"/>
<path opacity="0.1" d="M449.201 413.496C442.452 414.953 437.674 415.013 434.294 414.427C435.058 414.217 435.712 413.721 436.121 413.042C436.21 412.836 436.242 412.61 436.215 412.388C436.187 412.165 436.101 411.954 435.966 411.776C435.902 411.657 435.807 411.558 435.691 411.489C435.576 411.419 435.444 411.382 435.309 411.381C434.556 411.381 433.565 412.456 432.824 413.4C433.191 412.451 433.191 411.399 432.824 410.45C432.721 410.304 432.57 410.2 432.398 410.154C432.225 410.108 432.042 410.124 431.881 410.199C431.713 410.25 431.558 410.338 431.428 410.455C431.298 410.573 431.196 410.718 431.128 410.88C430.879 411.916 430.972 413.005 431.391 413.985C431.207 414.009 431.027 414.053 430.853 414.117L426.015 407.654L427.963 405.875L426.613 402.554L425.358 403.617C424.164 401.765 422.3 398.731 420.007 394.897C425.024 384.206 429.492 370.863 429.79 356.923C430.196 337.811 406.067 328.051 387.313 323.381L391.315 293.589C393.086 289.335 394.496 284.94 395.531 280.45C396.577 278.615 397.22 276.579 397.419 274.477L397.036 266.115L389.284 264.921L388.699 268.767L388.89 270.38C388.522 270.161 388.107 270.036 387.68 270.015C387.253 269.995 386.828 270.079 386.441 270.26C386.128 269.87 385.741 269.546 385.301 269.308C384.861 269.07 384.378 268.923 383.88 268.875C383.382 268.827 382.879 268.879 382.402 269.029C381.925 269.179 381.483 269.423 381.101 269.747C380.517 269.145 379.747 268.758 378.915 268.648C378.008 268.524 377.087 268.746 376.335 269.269C375.069 264.288 373.062 258.339 370.649 257.73C369.568 257.436 368.466 257.224 367.352 257.097C364.736 256.631 360.902 255.974 356.948 255.496C355.754 255.341 354.559 255.209 353.365 255.102C352.934 254.994 352.54 254.875 352.17 254.743L354.117 254.325C356.806 255.259 359.73 255.259 362.419 254.325H369.849V254.086H216.95C214.194 259.603 211.8 265.293 209.783 271.12L212.327 272.124C210.977 274.979 209.735 277.893 208.636 280.951C207.428 284.228 206.497 287.6 205.853 291.033C205.523 292.884 205.332 294.756 205.279 296.635C205.202 298.873 205.542 301.105 206.283 303.217C206.716 304.496 207.335 305.704 208.122 306.801C208.98 307.95 210.036 308.937 211.24 309.715C212.349 310.417 213.557 310.948 214.824 311.292C215.948 311.551 217.098 311.687 218.252 311.698C220.231 311.691 222.196 311.381 224.081 310.779C224.619 310.611 225.12 310.396 225.634 310.205C226.983 310.579 228.369 310.799 229.767 310.862L236.612 314.004L240.434 307.123C240.852 311.543 241.151 314.804 241.473 316.476C243.612 329.891 247.53 338.48 254.004 342.935C260.825 347.63 280.499 344.512 293.149 343.927C296.398 346.698 299.647 349.517 302.812 352.288C297.747 368.092 285.659 393.033 281.394 401.634L280.57 401.073L277.906 405.516L280.546 407.619L278.324 410.414L272.352 418.083L271.575 417.605C271.424 417.511 271.246 417.47 271.07 417.487C270.893 417.505 270.726 417.579 270.596 417.7L264.564 423.147C264.417 423.271 264.302 423.427 264.228 423.604C264.155 423.781 264.125 423.973 264.142 424.164C264.158 424.355 264.22 424.539 264.323 424.701C264.425 424.863 264.565 424.998 264.731 425.094C267.705 426.862 269.258 428.308 273.164 430.231C273.919 430.587 274.653 430.986 275.362 431.425H285.145C283.708 429.719 282.573 427.78 281.789 425.692C282.393 426.141 283.106 426.422 283.855 426.504H284.07C284.261 426.484 284.444 426.418 284.605 426.312C284.765 426.206 284.897 426.063 284.99 425.895C285.048 425.799 285.079 425.69 285.079 425.578C285.079 425.467 285.048 425.357 284.99 425.262C284.691 424.664 283.306 424.282 282.051 424.067C283.126 423.876 284.166 423.506 284.381 422.98C284.476 422.777 284.488 422.455 284.046 422.12C282.852 421.2 281.227 422.407 280.355 423.219C280.187 423.027 279.994 422.858 279.782 422.717L287.355 413.006L290.736 415.706L295.275 411.071L293.34 409.757C303.335 396.99 312.637 383.695 321.208 369.931C334.348 385.054 345.505 405.433 350.127 414.439L348.778 415.359L352.206 420.137L355.383 417.748L357.772 421.69L362.371 429.299L361.643 429.849C361.501 429.958 361.399 430.11 361.351 430.283C361.304 430.455 361.314 430.638 361.38 430.804L361.631 431.437H375.571L376.24 430.924C379.011 428.809 381.603 426.994 384.482 424.951C384.425 425.275 384.464 425.609 384.596 425.911C384.728 426.213 384.946 426.469 385.222 426.647C388.268 428.511 390.001 429.395 393.369 431.485H405.601C404.362 429.966 403.506 428.172 403.104 426.253C403.922 426.984 404.935 427.462 406.019 427.627H406.27C406.477 427.593 406.672 427.509 406.839 427.382C407.005 427.255 407.138 427.089 407.226 426.898C407.284 426.792 407.315 426.673 407.315 426.552C407.315 426.431 407.284 426.311 407.226 426.205C406.819 425.453 404.968 425.011 403.475 424.76C404.777 424.557 406.127 424.091 406.413 423.434C406.509 423.207 406.533 422.849 406.031 422.455C405.85 422.309 405.641 422.202 405.417 422.14C405.193 422.079 404.959 422.064 404.729 422.096C403.697 422.368 402.773 422.947 402.077 423.757C401.93 423.588 401.762 423.439 401.575 423.315L400.775 422.813L405.004 416.578L408.85 418.823L410.964 416.589L408.528 415.049L409.949 412.863C410.511 412.026 411.144 411.119 411.729 410.127C412.792 411.25 413.712 412.182 414.441 412.922L413.246 413.95L416.83 416.159L418.633 414.511L420.676 417.235L421.536 418.429L420.341 418.967C420.159 419.046 420.012 419.189 419.928 419.37C419.845 419.551 419.83 419.756 419.888 419.946L422.444 428.774C422.515 428.994 422.633 429.196 422.788 429.368C422.944 429.54 423.134 429.676 423.346 429.769C423.559 429.861 423.788 429.908 424.02 429.905C424.251 429.902 424.479 429.851 424.69 429.753C428.273 428.033 429.969 427.03 434.58 424.975C437.411 423.697 444.817 420.699 448.735 418.931C452.653 417.163 450.993 413.113 449.201 413.496ZM234.748 300.828L225.192 302.417L225.096 302.56C223.098 302.765 221.08 302.636 219.124 302.178C218.706 302.055 218.305 301.883 217.929 301.664C217.71 301.527 217.522 301.343 217.38 301.127C217.319 300.976 217.271 300.82 217.237 300.661C217.194 300.42 217.166 300.177 217.153 299.932C217.108 297.753 217.345 295.577 217.858 293.458C218.545 290.75 219.427 288.095 220.498 285.514C221.692 282.647 223.03 279.804 224.499 276.973L228.859 278.694C228.859 278.694 231.607 273.45 234.557 266.904L234.772 267.907C234.904 268.504 235.023 269.102 235.142 269.675C237.47 281.421 239.161 293.284 240.207 305.212L234.748 300.828ZM284.655 425.501C284.678 425.534 284.69 425.574 284.69 425.614C284.69 425.655 284.678 425.694 284.655 425.728C284.593 425.842 284.504 425.94 284.396 426.012C284.288 426.085 284.164 426.131 284.034 426.146C283.066 426.043 282.159 425.623 281.454 424.951C281.359 424.748 281.263 424.533 281.155 424.318C282.673 424.593 284.405 424.987 284.655 425.501ZM283.819 422.478C284.106 422.693 284.058 422.813 284.034 422.861C283.831 423.35 282.135 423.769 280.845 423.828L280.654 423.565C281.442 422.861 282.876 421.75 283.819 422.478V422.478ZM406.951 426.361C406.98 426.418 406.996 426.481 406.996 426.546C406.996 426.61 406.98 426.674 406.951 426.731C406.885 426.872 406.787 426.995 406.665 427.091C406.542 427.186 406.399 427.251 406.246 427.28C405.529 427.4 404.359 426.815 402.973 425.716C402.913 425.465 402.842 425.226 402.77 424.987C404.383 425.25 406.569 425.668 406.951 426.361ZM404.801 422.431C404.984 422.399 405.171 422.407 405.35 422.455C405.53 422.502 405.697 422.588 405.84 422.705C406.234 423.016 406.151 423.219 406.115 423.291C405.864 423.888 404.048 424.414 402.603 424.485C402.526 424.311 402.434 424.143 402.328 423.984C402.974 423.225 403.837 422.683 404.801 422.431V422.431ZM324.302 316.739H324.242C324.051 316.736 323.866 316.8 323.716 316.918C314.937 314.255 303.625 312.964 293.782 312.355C290.198 310.444 287.952 309.381 287.952 309.381C288.98 286.924 286.758 269.579 283.891 257.252C290.138 258.315 295.346 258.733 295.346 258.733L295.872 255.388H295.991C302.296 256.823 308.677 257.896 315.104 258.602C311.114 262.675 306.312 275.002 306.312 275.002L310.135 277.738C309.263 280.796 308.462 283.866 307.746 286.996C307.029 290.125 306.396 293.207 305.918 296.444C305.667 298.057 305.476 299.705 305.369 301.425C305.309 302.285 305.285 303.157 305.285 304.077C305.285 304.531 305.285 305.033 305.285 305.499C305.314 306.284 305.443 307.063 305.667 307.816C306.167 309.438 307.13 310.879 308.438 311.961C309.467 312.798 310.641 313.438 311.903 313.848C313.796 314.453 315.769 314.771 317.756 314.792C319.965 314.834 322.173 314.702 324.361 314.398C324.35 315.186 324.326 315.951 324.302 316.739V316.739ZM314.746 305.009C314.674 304.967 314.613 304.91 314.566 304.842C314.652 304.876 314.727 304.934 314.781 305.009H314.746ZM318.329 305.965C317.228 305.868 316.145 305.615 315.116 305.212L314.913 305.105C314.913 304.842 314.913 304.603 314.913 304.316C314.913 303.695 315.02 303.038 315.116 302.369C315.295 301.019 315.534 299.61 315.821 298.188C316.394 295.345 317.123 292.454 317.875 289.552C318.329 287.832 318.819 286.112 319.321 284.391L322.379 286.577L322.582 286.195C323 288.895 323.334 291.391 323.585 293.733C324.087 298.296 324.326 302.285 324.385 306.144C322.373 306.233 320.357 306.173 318.353 305.965H318.329ZM370.733 423.458L370.422 423.542C370.028 422.538 369.514 420.818 370.542 420.197C370.628 420.129 370.731 420.088 370.84 420.077C370.859 420.07 370.88 420.066 370.9 420.066C370.921 420.066 370.941 420.07 370.96 420.077C371.366 420.472 371.175 422.216 370.757 423.458H370.733ZM371.342 423.374C372.095 422.025 373.086 420.543 373.648 420.496C373.681 420.495 373.715 420.504 373.744 420.521C373.773 420.538 373.798 420.562 373.815 420.591C373.9 420.69 373.961 420.807 373.992 420.934C374.023 421.061 374.024 421.193 373.994 421.32C373.863 421.881 373.182 422.574 372.095 423.267C371.892 423.303 371.641 423.35 371.366 423.374H371.342ZM398.816 398.815C397.407 402.673 396.284 405.433 395.531 407.177L394.146 406.34L392.7 409.303L396.164 411.334L394.265 414.141L392.151 417.246L391.864 417.067C391.7 416.958 391.501 416.912 391.305 416.938C391.11 416.965 390.93 417.062 390.801 417.211L390.323 417.772C390.12 416.864 389.535 416.303 388.925 416.578C383.168 419.241 378.856 422.168 373.014 423.076C373.657 422.663 374.151 422.056 374.424 421.344C374.466 421.157 374.465 420.964 374.422 420.777C374.378 420.591 374.293 420.417 374.173 420.269C374.109 420.178 374.022 420.107 373.921 420.061C373.821 420.015 373.71 419.996 373.6 420.006C372.943 420.077 372.083 421.2 371.414 422.323C371.617 421.248 371.653 420.149 371.235 419.755C371.079 419.6 370.781 419.48 370.315 419.755C369.025 420.543 369.574 422.478 370.016 423.589C369.782 423.687 369.558 423.807 369.347 423.948L362.431 412.492L366.301 409.613L364.33 404.823L363.948 405.086C359.11 388.632 353.254 372.495 346.412 356.768C345.5 354.744 344.417 352.802 343.175 350.962C355.335 352.312 369.897 353.471 378.832 368.068C385.065 378.063 392.015 387.593 399.628 396.581C399.366 397.358 399.103 398.11 398.84 398.815H398.816ZM406.139 369.525C403.821 364.747 401.695 359.969 399.999 355.454C401.085 356.089 402.108 356.825 403.057 357.652H403.116C403.391 357.891 403.642 358.129 403.881 358.38L403.953 358.464C404.423 358.955 404.843 359.491 405.207 360.065C405.251 360.156 405.303 360.244 405.362 360.327L405.649 360.877C405.649 360.984 405.756 361.104 405.792 361.211C405.828 361.319 405.924 361.546 405.983 361.725C406.043 361.904 406.079 362 406.115 362.131C406.151 362.262 406.222 362.609 406.258 362.848C406.294 363.087 406.318 363.35 406.33 363.6C406.386 365.577 406.322 367.556 406.139 369.525V369.525ZM431.773 413.961C431.364 413.035 431.255 412.003 431.463 411.011C431.511 410.893 431.585 410.787 431.68 410.702C431.776 410.618 431.889 410.556 432.012 410.521H432.251C432.315 410.518 432.378 410.532 432.435 410.561C432.492 410.59 432.539 410.634 432.573 410.689C432.98 411.25 432.681 412.91 432.227 414.033C432.086 413.999 431.942 413.975 431.797 413.961H431.773ZM432.717 414.093C433.481 413.054 434.592 411.704 435.285 411.704C435.362 411.704 435.437 411.725 435.502 411.765C435.567 411.805 435.62 411.863 435.655 411.931C435.758 412.065 435.824 412.224 435.847 412.391C435.87 412.559 435.849 412.729 435.787 412.886C435.263 413.614 434.481 414.114 433.601 414.284C433.311 414.235 433.024 414.171 432.741 414.093H432.717Z" fill="black"/>
<path d="M289.255 237.471C295.228 239.239 301.451 240.983 307.555 242.596C310.625 243.408 313.695 244.161 316.765 244.889C319.835 245.618 322.893 246.239 325.951 246.801C326.644 246.896 327.145 246.992 327.886 247.063L330.06 247.231C331.565 247.326 333.118 247.374 334.683 247.41C337.836 247.41 341.026 247.481 344.239 247.41C350.665 247.41 357.164 247.326 363.638 247.338L364.391 253.896C357.94 255.341 351.502 256.512 344.956 257.42C341.695 257.85 338.398 258.268 335.053 258.531C333.369 258.662 331.673 258.77 329.929 258.841C329.057 258.841 328.137 258.841 327.241 258.841C326.345 258.841 325.234 258.746 324.314 258.674C317.633 257.97 311 256.869 304.449 255.377C297.939 253.92 291.62 252.212 285.182 250.109L289.255 237.471Z" fill="#E4897B"/>
<path d="M435.978 426.517L443.252 419.314L428.918 400.154L421.644 407.357L435.978 426.517Z" fill="#71403E"/>
<path d="M396.307 423.721L405.146 428.893L418.465 409.219L409.626 404.059L396.307 423.721Z" fill="#71403E"/>
<path d="M418.467 409.231L411.598 419.361L402.759 414.2L409.627 404.059L418.467 409.231Z" fill="#542F2F"/>
<path d="M421.644 407.367L428.918 400.164L436.3 410.043L429.026 417.246L421.644 407.367Z" fill="#542F2F"/>
<path d="M414.823 363.66C415.122 372.799 412.338 383.967 409.269 393.177C408.623 395.148 407.955 397.059 407.31 398.815C404.514 406.424 402.89 409.781 402.89 409.781L415.695 417.247C416.502 415.725 417.412 414.26 418.419 412.863C419.506 411.25 420.736 409.279 422.002 407.093C428.859 395.626 437.842 376.884 438.272 356.923C438.941 325.698 374.233 319.487 374.233 319.487H343.653L352.23 343.831C352.23 343.831 414.262 347.021 414.823 363.66Z" fill="#407BFF"/>
<path opacity="0.2" d="M414.823 363.66C415.122 372.799 412.338 383.967 409.269 393.177C408.623 395.148 407.955 397.059 407.31 398.815C404.514 406.424 402.89 409.781 402.89 409.781L415.695 417.247C416.502 415.725 417.412 414.26 418.419 412.863C419.506 411.25 420.736 409.279 422.002 407.093C428.859 395.626 437.842 376.884 438.272 356.923C438.941 325.698 374.233 319.487 374.233 319.487H343.653L352.23 343.831C352.23 343.831 414.262 347.021 414.823 363.66Z" fill="black"/>
<path opacity="0.3" d="M407.333 398.816C410.37 403.973 414.086 408.697 418.382 412.864C419.469 411.251 420.7 409.28 421.966 407.094L409.244 393.178C408.623 395.149 407.954 397.06 407.333 398.816Z" fill="black"/>
<path d="M401.193 409.363L417.343 418.812L419.458 416.578L402.627 406.389L401.193 409.363Z" fill="#407BFF"/>
<path opacity="0.3" d="M396.773 337.787L398.075 351.058C407.13 353.889 414.094 357.771 414.799 363.003C416.304 351.297 408.121 344.369 396.773 337.787Z" fill="black"/>
<path d="M363.244 319.487C363.244 319.487 401.552 335.111 407.441 352.384C414.883 374.435 435.119 405.576 435.119 405.576L424.87 414.918C424.87 414.918 403.249 394.013 387.373 368.068C367.437 335.47 319.369 369.896 332.7 319.487H363.244Z" fill="#407BFF"/>
<path opacity="0.2" d="M363.688 319.069C363.688 319.069 401.997 334.693 407.886 351.966C415.328 374.017 435.563 405.158 435.563 405.158L425.314 414.5C425.314 414.5 403.693 393.595 387.818 367.65C367.881 335.052 319.813 369.478 333.144 319.069H363.688Z" fill="black"/>
<path d="M425.179 416.16L436.48 405.875L435.082 402.555L421.644 413.95L425.179 416.16Z" fill="#407BFF"/>
<path d="M332.078 317.051L331.755 320.777C331.6 321.064 331.946 321.351 332.424 321.351H374.483C374.854 321.351 375.164 321.172 375.188 320.933L375.559 317.218C375.559 316.955 375.26 316.74 374.854 316.74H332.711C332.588 316.738 332.467 316.765 332.357 316.819C332.247 316.873 332.151 316.952 332.078 317.051V317.051Z" fill="#407BFF"/>
<path d="M337.693 321.757H336.559C336.332 321.757 336.164 321.637 336.176 321.506L336.714 316.728C336.714 316.584 336.917 316.465 337.144 316.465H338.279C338.494 316.465 338.673 316.584 338.649 316.728L338.123 321.506C338.112 321.637 337.908 321.757 337.693 321.757Z" fill="#407BFF"/>
<path d="M371.259 321.757H370.136C369.909 321.757 369.742 321.637 369.754 321.506L370.279 316.728C370.279 316.584 370.494 316.465 370.721 316.465H371.844C372.071 316.465 372.238 316.584 372.226 316.728L371.701 321.506C371.689 321.637 371.498 321.757 371.259 321.757Z" fill="#407BFF"/>
<path d="M354.475 321.757H353.352C353.125 321.757 352.946 321.637 352.97 321.506L353.496 316.728C353.496 316.584 353.711 316.465 353.937 316.465H355.06C355.287 316.465 355.455 316.584 355.443 316.728L354.905 321.506C354.893 321.637 354.702 321.757 354.475 321.757Z" fill="#407BFF"/>
<g opacity="0.6">
<path opacity="0.6" d="M337.693 321.757H336.559C336.332 321.757 336.164 321.637 336.176 321.506L336.714 316.728C336.714 316.584 336.917 316.465 337.144 316.465H338.279C338.494 316.465 338.673 316.584 338.649 316.728L338.123 321.506C338.112 321.637 337.908 321.757 337.693 321.757Z" fill="black"/>
<path opacity="0.6" d="M371.26 321.756H370.137C369.91 321.756 369.743 321.637 369.755 321.506L370.28 316.728C370.28 316.584 370.495 316.465 370.722 316.465H371.845C372.072 316.465 372.239 316.584 372.227 316.728L371.702 321.506C371.69 321.637 371.498 321.756 371.26 321.756Z" fill="black"/>
<path opacity="0.6" d="M354.476 321.756H353.353C353.126 321.756 352.947 321.637 352.971 321.506L353.496 316.728C353.496 316.584 353.711 316.465 353.938 316.465H355.061C355.288 316.465 355.456 316.584 355.444 316.728L354.906 321.506C354.894 321.637 354.703 321.756 354.476 321.756Z" fill="black"/>
</g>
<path d="M414.5 427.639C413.066 427.639 411.012 425.883 409.865 424.796C409.847 424.765 409.838 424.73 409.838 424.694C409.838 424.658 409.847 424.623 409.865 424.593C409.882 424.56 409.908 424.534 409.94 424.517C409.972 424.5 410.008 424.493 410.044 424.497C410.558 424.497 415.073 424.975 415.754 426.193C415.813 426.301 415.843 426.423 415.843 426.546C415.843 426.669 415.813 426.79 415.754 426.898C415.664 427.086 415.531 427.249 415.364 427.374C415.198 427.498 415.004 427.581 414.798 427.615L414.5 427.639ZM410.474 424.891C412.266 426.54 413.819 427.424 414.703 427.28C414.858 427.257 415.004 427.195 415.128 427.098C415.251 427.002 415.348 426.875 415.408 426.731C415.44 426.674 415.457 426.611 415.457 426.546C415.457 426.481 415.44 426.417 415.408 426.36C414.966 425.56 412.111 425.07 410.474 424.891Z" fill="#407BFF"/>
<path d="M410.559 424.88C410.36 424.893 410.16 424.893 409.961 424.88C409.932 424.876 409.904 424.863 409.881 424.844C409.858 424.825 409.84 424.801 409.83 424.773C409.815 424.747 409.808 424.718 409.808 424.689C409.808 424.66 409.815 424.631 409.83 424.605C409.902 424.51 411.562 422.336 413.199 422.133C413.428 422.096 413.662 422.107 413.887 422.167C414.111 422.227 414.32 422.333 414.501 422.479C414.99 422.873 414.978 423.232 414.871 423.459C414.501 424.343 412.112 424.88 410.559 424.88ZM410.32 424.534C411.825 424.617 414.286 423.996 414.584 423.339C414.584 423.279 414.704 423.076 414.309 422.766C414.164 422.647 413.995 422.56 413.814 422.511C413.633 422.461 413.444 422.451 413.258 422.479C412.091 422.847 411.066 423.564 410.32 424.534Z" fill="#407BFF"/>
<path d="M440.445 415.085C440.417 415.087 440.389 415.081 440.364 415.069C440.339 415.056 440.317 415.037 440.302 415.013C440.284 414.984 440.274 414.951 440.274 414.917C440.274 414.883 440.284 414.85 440.302 414.822C440.529 414.463 442.512 411.393 443.778 411.393C443.913 411.393 444.046 411.429 444.163 411.496C444.281 411.563 444.378 411.659 444.447 411.776C444.58 411.958 444.665 412.171 444.692 412.394C444.719 412.618 444.688 412.845 444.602 413.054C444.101 414.248 441.807 414.822 440.481 415.085H440.445ZM443.766 411.728C442.954 411.728 441.52 413.603 440.816 414.654C442.703 414.248 443.981 413.603 444.28 412.911C444.342 412.755 444.363 412.587 444.34 412.421C444.317 412.256 444.251 412.099 444.148 411.967C444.113 411.896 444.059 411.835 443.991 411.793C443.924 411.751 443.846 411.728 443.766 411.728V411.728Z" fill="#407BFF"/>
<path d="M440.447 415.085C440.389 415.072 440.337 415.038 440.303 414.99C440.303 414.87 439.109 412.207 439.658 410.881C439.727 410.718 439.832 410.572 439.964 410.454C440.096 410.336 440.253 410.249 440.423 410.2C440.585 410.127 440.767 410.113 440.939 410.158C441.111 410.204 441.262 410.307 441.366 410.451C441.999 411.335 441.366 414.034 440.602 415.014C440.585 415.038 440.561 415.058 440.534 415.071C440.507 415.083 440.477 415.088 440.447 415.085V415.085ZM440.733 410.486H440.494C440.373 410.525 440.262 410.59 440.169 410.677C440.076 410.764 440.004 410.87 439.957 410.988C439.527 411.932 440.184 413.783 440.47 414.572C441.044 413.521 441.534 411.335 441.068 410.678C441.037 410.627 440.995 410.583 440.946 410.55C440.896 410.517 440.84 410.495 440.781 410.486H440.733Z" fill="#407BFF"/>
<path d="M410.056 423.315L400.368 417.128C400.203 417.017 400.003 416.972 399.807 417C399.61 417.029 399.431 417.13 399.305 417.283L393.332 424.247C393.192 424.427 393.09 424.634 393.034 424.855C392.978 425.076 392.968 425.307 393.007 425.532C393.045 425.757 393.13 425.971 393.256 426.161C393.382 426.351 393.546 426.513 393.739 426.636C397.155 428.739 398.911 429.575 403.175 432.298C405.791 433.971 410.88 437.506 414.905 439C418.931 440.493 420.615 436.61 419.074 435.595C412.146 431.199 412.254 428.105 411.191 424.737C410.995 424.142 410.593 423.637 410.056 423.315V423.315Z" fill="#407BFF"/>
<path opacity="0.5" d="M410.056 423.315L400.368 417.128C400.203 417.017 400.003 416.972 399.807 417C399.61 417.029 399.431 417.13 399.305 417.283L393.332 424.247C393.192 424.427 393.09 424.634 393.034 424.855C392.978 425.076 392.968 425.307 393.007 425.532C393.045 425.757 393.13 425.971 393.256 426.161C393.382 426.351 393.546 426.513 393.739 426.636C397.155 428.739 398.911 429.575 403.175 432.298C405.791 433.971 410.88 437.506 414.905 439C418.931 440.493 420.615 436.61 419.074 435.595C412.146 431.199 412.254 428.105 411.191 424.737C410.995 424.142 410.593 423.637 410.056 423.315V423.315Z" fill="black"/>
<path d="M439.166 414.189L428.69 418.967C428.511 419.046 428.365 419.188 428.282 419.366C428.199 419.544 428.182 419.746 428.237 419.935L430.793 428.762C430.864 428.983 430.982 429.185 431.137 429.357C431.293 429.528 431.483 429.665 431.695 429.758C431.908 429.85 432.137 429.897 432.369 429.894C432.6 429.891 432.828 429.84 433.039 429.742C436.622 428.034 438.33 427.018 442.941 424.964C445.772 423.674 453.178 420.676 457.084 418.908C460.99 417.14 459.473 413.174 457.67 413.556C449.654 415.3 444.387 415.061 440.946 414.118C440.362 413.937 439.734 413.962 439.166 414.189Z" fill="#407BFF"/>
<path opacity="0.5" d="M439.166 414.189L428.69 418.967C428.511 419.046 428.365 419.188 428.282 419.366C428.199 419.544 428.182 419.746 428.237 419.935L430.793 428.762C430.864 428.983 430.982 429.185 431.137 429.357C431.293 429.528 431.483 429.665 431.695 429.758C431.908 429.85 432.137 429.897 432.369 429.894C432.6 429.891 432.828 429.84 433.039 429.742C436.622 428.034 438.33 427.018 442.941 424.964C445.772 423.674 453.178 420.676 457.084 418.908C460.99 417.14 459.473 413.174 457.67 413.556C449.654 415.3 444.387 415.061 440.946 414.118C440.362 413.937 439.734 413.962 439.166 414.189Z" fill="black"/>
<path d="M379.119 257.718C383.336 258.793 386.286 276.15 386.286 276.15L374.663 284.057C374.663 284.057 363.518 266.546 366.768 261.899C370.136 257.073 372.967 256.153 379.119 257.718Z" fill="#407BFF"/>
<path opacity="0.6" d="M379.119 257.718C383.336 258.793 386.286 276.15 386.286 276.15L374.663 284.057C374.663 284.057 363.518 266.546 366.768 261.899C370.136 257.073 372.967 256.153 379.119 257.718Z" fill="black"/>
<path d="M332.664 319.499H374.221C383.992 259.426 379.119 257.718 379.119 257.718C379.119 257.718 372.417 256.345 365.418 255.485C364.223 255.341 363.028 255.198 361.834 255.09C355.547 254.642 349.236 254.642 342.949 255.09C341.754 255.15 340.559 255.234 339.365 255.341C334.631 255.766 329.925 256.46 325.27 257.42C333.38 292.145 333.356 302.573 332.664 319.499Z" fill="#407BFF"/>
<path opacity="0.6" d="M332.664 319.499H374.221C383.992 259.426 379.119 257.718 379.119 257.718C379.119 257.718 372.417 256.345 365.418 255.485C364.223 255.341 363.028 255.198 361.834 255.09C355.547 254.642 349.236 254.642 342.949 255.09C341.754 255.15 340.559 255.234 339.365 255.341C334.631 255.766 329.925 256.46 325.27 257.42C333.38 292.145 333.356 302.573 332.664 319.499Z" fill="black"/>
<path d="M398.422 279.017L397.156 268.768L405.876 274.454C405.876 274.454 405.387 281.011 401.504 282.732L398.422 279.017Z" fill="#F1BBAF"/>
<path d="M397.753 264.85L405.494 266.044L405.876 274.442L397.168 268.768L397.753 264.85Z" fill="#F1BBAF"/>
<path d="M339.389 255.341L339.831 256.392C340.07 256.978 345.863 270.583 357.08 279.674L359.827 281.884L361.941 279.041C368.248 270.5 366.361 259.391 365.429 255.485C364.235 255.341 363.04 255.198 361.846 255.09C355.559 254.642 349.247 254.642 342.96 255.09C341.742 255.15 340.547 255.234 339.389 255.341Z" fill="#EBEBEB"/>
<path d="M342.936 246.072C359.343 246.072 372.644 232.771 372.644 216.364C372.644 199.957 359.343 186.656 342.936 186.656C326.529 186.656 313.229 199.957 313.229 216.364C313.229 232.771 326.529 246.072 342.936 246.072Z" fill="#263238"/>
<path d="M344.812 233.84C346.006 239.908 347.201 251.041 342.937 255.09C342.937 255.09 348.515 268.397 359.206 277.046C365.895 267.991 361.81 255.09 361.81 255.09C355.049 253.478 355.216 248.449 356.399 243.73L344.812 233.84Z" fill="#F1BBAF"/>
<path d="M349.531 237.876L356.388 243.73C356.099 244.826 355.908 245.945 355.814 247.074C353.222 246.704 349.675 243.861 349.4 241.102C349.251 240.027 349.295 238.935 349.531 237.876V237.876Z" fill="#B37264"/>
<path d="M338.648 222.181C340.332 232.191 340.846 236.515 346.484 241.102C354.977 248.066 366.91 243.79 368.236 233.481C369.431 224.188 366.468 209.364 356.171 206.413C353.904 205.747 351.504 205.672 349.2 206.196C346.896 206.719 344.764 207.824 343.007 209.404C341.25 210.985 339.928 212.989 339.165 215.225C338.401 217.462 338.224 219.856 338.648 222.181V222.181Z" fill="#F1BBAF"/>
<path d="M340.546 230.745C340.546 230.745 353.22 221.249 342.267 208.969C329.999 209.638 335.494 234.52 340.546 230.745Z" fill="#263238"/>
<path d="M366.17 206.724C366.17 206.724 351.143 194.982 340.01 209.436C350.665 220.008 370.972 210.81 366.17 206.724Z" fill="#263238"/>
<path d="M336.976 231.738C337.714 233.552 339.115 235.017 340.894 235.835C343.284 236.886 344.741 234.915 344.323 232.514C343.952 230.364 342.28 227.21 339.784 227.151C337.287 227.091 336.092 229.492 336.976 231.738Z" fill="#F1BBAF"/>
<path d="M354.237 223.376C354.32 224.2 354.834 224.822 355.372 224.762C355.909 224.702 356.267 223.985 356.184 223.173C356.1 222.361 355.587 221.728 355.049 221.787C354.511 221.847 354.153 222.564 354.237 223.376Z" fill="#263238"/>
<path d="M363.518 222.396C363.602 223.22 364.103 223.841 364.641 223.782C365.178 223.722 365.549 223.017 365.453 222.193C365.358 221.369 364.868 220.748 364.33 220.807C363.793 220.867 363.422 221.572 363.518 222.396Z" fill="#263238"/>
<path d="M364.091 220.879L366.002 220.103C366.002 220.103 365.154 221.751 364.091 220.879Z" fill="#263238"/>
<path d="M361.213 224.068C362.142 225.866 363.316 227.526 364.701 229.001C364.313 229.343 363.856 229.597 363.362 229.745C362.867 229.893 362.346 229.933 361.834 229.861L361.213 224.068Z" fill="#B37264"/>
<path d="M357.879 233.207C356.097 232.924 354.49 231.971 353.388 230.543C353.36 230.514 353.345 230.475 353.345 230.435C353.345 230.395 353.36 230.357 353.388 230.328C353.417 230.3 353.455 230.285 353.495 230.285C353.536 230.285 353.574 230.3 353.603 230.328C354.659 231.682 356.185 232.591 357.879 232.872C357.9 232.874 357.92 232.879 357.938 232.889C357.956 232.898 357.973 232.91 357.986 232.926C357.999 232.942 358.009 232.96 358.016 232.979C358.022 232.999 358.024 233.019 358.023 233.039C358.024 233.06 358.022 233.08 358.016 233.1C358.009 233.119 357.999 233.137 357.986 233.153C357.973 233.168 357.956 233.181 357.938 233.19C357.92 233.2 357.9 233.205 357.879 233.207V233.207Z" fill="#263238"/>
<path d="M352.159 220.187C352.104 220.204 352.046 220.204 351.991 220.187C351.957 220.166 351.928 220.139 351.904 220.106C351.881 220.074 351.864 220.037 351.855 219.998C351.846 219.959 351.845 219.918 351.852 219.879C351.859 219.84 351.874 219.802 351.896 219.769C352.269 219.133 352.79 218.597 353.413 218.204C354.037 217.811 354.745 217.573 355.479 217.511C355.559 217.518 355.633 217.551 355.692 217.605C355.75 217.659 355.789 217.731 355.802 217.81C355.802 217.893 355.77 217.973 355.712 218.033C355.654 218.094 355.575 218.129 355.491 218.132C354.857 218.188 354.245 218.395 353.706 218.736C353.168 219.077 352.719 219.541 352.398 220.091C352.367 220.123 352.33 220.148 352.288 220.165C352.247 220.181 352.203 220.189 352.159 220.187V220.187Z" fill="#263238"/>
<path d="M367.221 217.499C367.176 217.499 367.131 217.489 367.09 217.47C367.049 217.452 367.012 217.425 366.982 217.391C366.589 216.888 366.082 216.485 365.502 216.217C364.923 215.949 364.287 215.824 363.649 215.85C363.608 215.857 363.566 215.855 363.526 215.845C363.485 215.834 363.448 215.816 363.415 215.79C363.383 215.764 363.356 215.731 363.336 215.695C363.317 215.658 363.306 215.617 363.303 215.576C363.296 215.495 363.321 215.415 363.372 215.353C363.424 215.29 363.497 215.25 363.578 215.241C364.318 215.2 365.058 215.338 365.734 215.644C366.41 215.95 367.002 216.414 367.46 216.997C367.489 217.025 367.512 217.058 367.527 217.095C367.543 217.132 367.551 217.172 367.551 217.212C367.551 217.252 367.543 217.292 367.527 217.329C367.512 217.366 367.489 217.399 367.46 217.427C367.428 217.457 367.39 217.479 367.349 217.492C367.307 217.504 367.264 217.507 367.221 217.499Z" fill="#263238"/>
<path d="M354.773 221.87L356.685 221.094C356.685 221.094 355.884 222.742 354.773 221.87Z" fill="#263238"/>
<path opacity="0.2" d="M335.064 273.546L329.688 278.109C330.883 284.177 331.6 289.242 332.078 293.733C333.105 289.23 335.661 276.998 335.064 273.546Z" fill="black"/>
<path d="M398.972 278.599C396.798 282.756 394.552 286.96 392.151 290.819C391.566 291.738 390.957 292.634 390.359 293.446C388.89 289.624 387.48 285.802 386.214 281.943C385.482 279.737 384.789 277.527 384.136 275.314C383.813 274.203 383.491 273.104 383.204 272.005C382.917 270.906 382.619 269.747 382.416 268.863L371.928 270.87C372.202 272.339 372.465 273.474 372.8 274.74C373.134 276.006 373.469 277.129 373.827 278.384C374.544 280.773 375.34 283.134 376.216 285.467C377.95 290.098 379.916 294.639 382.105 299.073L382.511 299.909C382.716 300.355 382.951 300.786 383.216 301.199C383.557 301.758 383.958 302.278 384.411 302.752C385.093 303.433 385.905 303.969 386.8 304.329C387.844 304.736 388.975 304.867 390.085 304.711C390.926 304.59 391.737 304.31 392.474 303.887C393.414 303.355 394.258 302.668 394.97 301.856C395.966 300.726 396.831 299.488 397.55 298.165C398.219 296.97 398.745 295.776 399.33 294.581C401.314 289.988 402.87 285.222 403.977 280.343L398.972 278.599ZM388.221 295.716L388.484 295.585C388.281 295.764 388.102 295.836 388.221 295.716Z" fill="#F1BBAF"/>
<path d="M335.244 306C332.462 306.248 329.664 306.248 326.882 306C325.78 305.91 324.697 305.656 323.669 305.248L323.466 305.14C323.466 304.889 323.466 304.638 323.466 304.352C323.466 303.731 323.574 303.074 323.657 302.405C323.848 301.055 324.087 299.645 324.374 298.224C324.947 295.381 325.676 292.49 326.417 289.599C327.157 286.709 328.041 283.806 328.901 280.903C329.761 278.001 330.657 275.086 331.517 272.267L321.328 268.839C319.292 274.807 317.561 280.875 316.144 287.019C315.415 290.113 314.782 293.243 314.304 296.468C314.065 298.081 313.874 299.729 313.767 301.449C313.707 302.309 313.671 303.193 313.683 304.113C313.683 304.555 313.683 305.057 313.683 305.522C313.716 306.308 313.848 307.087 314.077 307.84C314.569 309.466 315.534 310.909 316.848 311.985C317.878 312.823 319.052 313.467 320.313 313.884C322.203 314.482 324.171 314.8 326.154 314.828C329.516 314.857 332.873 314.553 336.176 313.92C342.426 312.739 348.558 311.004 354.5 308.736L353.031 303.647C347.146 304.737 341.209 305.522 335.244 306V306Z" fill="#F1BBAF"/>
<path d="M325.293 257.42C321.124 258.686 314.745 275.027 314.745 275.027L330.883 286.578C330.883 286.578 338.146 272.602 336.402 267.227C334.598 261.6 330.035 255.974 325.293 257.42Z" fill="#407BFF"/>
<path opacity="0.6" d="M325.293 257.42C321.124 258.686 314.745 275.027 314.745 275.027L330.883 286.578C330.883 286.578 338.146 272.602 336.402 267.227C334.598 261.6 330.035 255.974 325.293 257.42Z" fill="black"/>
<path d="M378.545 280.713C378.434 280.731 378.321 280.731 378.21 280.713L358.895 274.991H358.835L355.013 273.856C354.861 273.812 354.719 273.739 354.596 273.64C354.473 273.541 354.37 273.418 354.295 273.279C354.219 273.14 354.172 272.988 354.156 272.831C354.14 272.673 354.155 272.514 354.2 272.363C354.246 272.212 354.32 272.072 354.42 271.95C354.519 271.828 354.642 271.727 354.781 271.652C354.919 271.578 355.071 271.532 355.228 271.516C355.385 271.501 355.543 271.517 355.694 271.563L359.456 272.685H359.552L378.664 278.324L402.113 273.737C402.27 273.706 402.431 273.707 402.588 273.738C402.744 273.77 402.893 273.833 403.026 273.922C403.158 274.011 403.272 274.126 403.36 274.259C403.448 274.392 403.51 274.541 403.54 274.698C403.571 274.855 403.57 275.016 403.539 275.173C403.507 275.33 403.444 275.479 403.355 275.611C403.266 275.744 403.151 275.857 403.018 275.946C402.885 276.034 402.736 276.095 402.579 276.126L378.784 280.713C378.705 280.724 378.624 280.724 378.545 280.713Z" fill="#407BFF"/>
<path opacity="0.2" d="M378.545 280.713C378.434 280.731 378.321 280.731 378.21 280.713L358.895 274.991H358.835L355.013 273.856C354.861 273.812 354.719 273.739 354.596 273.64C354.473 273.541 354.37 273.418 354.295 273.279C354.219 273.14 354.172 272.988 354.156 272.831C354.14 272.673 354.155 272.514 354.2 272.363C354.246 272.212 354.32 272.072 354.42 271.95C354.519 271.828 354.642 271.727 354.781 271.652C354.919 271.578 355.071 271.532 355.228 271.516C355.385 271.501 355.543 271.517 355.694 271.563L359.456 272.685H359.552L378.664 278.324L402.113 273.737C402.27 273.706 402.431 273.707 402.588 273.738C402.744 273.77 402.893 273.833 403.026 273.922C403.158 274.011 403.272 274.126 403.36 274.259C403.448 274.392 403.51 274.541 403.54 274.698C403.571 274.855 403.57 275.016 403.539 275.173C403.507 275.33 403.444 275.479 403.355 275.611C403.266 275.744 403.151 275.857 403.018 275.946C402.885 276.034 402.736 276.095 402.579 276.126L378.784 280.713C378.705 280.724 378.624 280.724 378.545 280.713Z" fill="black"/>
<path d="M397.239 279.179C398.767 277.781 398.872 275.408 397.474 273.88C396.075 272.351 393.703 272.246 392.174 273.645C390.646 275.043 390.541 277.416 391.939 278.944C393.338 280.472 395.71 280.577 397.239 279.179Z" fill="white"/>
<path d="M386.453 275.6C386.425 276.169 386.567 276.734 386.86 277.222C387.153 277.71 387.584 278.101 388.099 278.344C388.614 278.587 389.19 278.672 389.754 278.588C390.317 278.503 390.843 278.254 391.264 277.871C391.686 277.488 391.984 276.988 392.122 276.436C392.259 275.883 392.23 275.302 392.037 274.766C391.844 274.23 391.496 273.763 391.038 273.425C390.58 273.086 390.032 272.891 389.463 272.865C388.701 272.829 387.956 273.097 387.392 273.61C386.828 274.123 386.49 274.839 386.453 275.6V275.6Z" fill="white"/>
<path d="M380.683 278.455C380.977 279.139 381.467 279.719 382.091 280.123C382.716 280.527 383.446 280.736 384.19 280.724C384.934 280.712 385.657 280.479 386.268 280.055C386.879 279.631 387.35 279.034 387.621 278.342C387.892 277.649 387.951 276.892 387.791 276.165C387.631 275.439 387.258 274.777 386.721 274.263C386.183 273.749 385.505 273.406 384.772 273.279C384.04 273.151 383.286 273.244 382.606 273.546C381.702 273.944 380.992 274.684 380.632 275.604C380.271 276.524 380.29 277.549 380.683 278.455V278.455Z" fill="white"/>
<path d="M376.372 279.901C376.599 280.423 376.977 280.866 377.457 281.173C377.936 281.481 378.496 281.639 379.066 281.628C379.635 281.617 380.189 281.438 380.656 281.112C381.124 280.786 381.484 280.329 381.691 279.799C381.899 279.268 381.944 278.688 381.822 278.132C381.7 277.575 381.415 277.068 381.004 276.673C380.593 276.279 380.074 276.015 379.513 275.915C378.952 275.816 378.375 275.885 377.853 276.114C377.506 276.265 377.193 276.482 376.931 276.754C376.668 277.026 376.463 277.348 376.325 277.699C376.187 278.051 376.121 278.427 376.129 278.805C376.137 279.183 376.219 279.555 376.372 279.901V279.901Z" fill="white"/>
<path d="M371.366 276.58C370.954 277.197 370.733 277.921 370.732 278.663C370.732 279.404 370.951 280.13 371.362 280.747C371.773 281.364 372.358 281.845 373.043 282.13C373.728 282.415 374.482 282.49 375.209 282.347C375.937 282.203 376.605 281.847 377.131 281.324C377.656 280.8 378.014 280.133 378.161 279.406C378.307 278.679 378.234 277.925 377.952 277.239C377.669 276.553 377.19 275.966 376.574 275.553C376.165 275.278 375.706 275.087 375.222 274.989C374.739 274.892 374.241 274.891 373.757 274.987C373.274 275.082 372.814 275.272 372.403 275.546C371.993 275.819 371.641 276.171 371.366 276.58V276.58Z" fill="white"/>
<path d="M367.831 273.713C367.515 274.186 367.346 274.742 367.346 275.311C367.345 275.879 367.514 276.436 367.829 276.909C368.145 277.382 368.594 277.752 369.119 277.97C369.645 278.189 370.223 278.246 370.781 278.136C371.339 278.026 371.852 277.754 372.256 277.352C372.659 276.951 372.934 276.439 373.046 275.881C373.159 275.324 373.104 274.745 372.888 274.219C372.672 273.692 372.304 273.242 371.833 272.924C371.197 272.5 370.419 272.345 369.669 272.492C368.919 272.64 368.258 273.079 367.831 273.713V273.713Z" fill="white"/>
<path d="M361.416 273.163C361.319 273.902 361.442 274.652 361.771 275.32C362.1 275.988 362.62 276.543 363.264 276.916C363.909 277.288 364.65 277.461 365.393 277.412C366.136 277.363 366.847 277.095 367.438 276.642C368.028 276.189 368.471 275.57 368.71 274.865C368.949 274.16 368.974 273.4 368.78 272.681C368.587 271.962 368.185 271.316 367.625 270.826C367.064 270.336 366.371 270.023 365.633 269.926C364.645 269.801 363.648 270.07 362.858 270.677C362.068 271.283 361.55 272.177 361.416 273.163V273.163Z" fill="white"/>
<path d="M362.518 273.659C363.114 272.185 362.403 270.507 360.93 269.91C359.456 269.314 357.777 270.025 357.181 271.499C356.584 272.972 357.295 274.651 358.769 275.247C360.243 275.844 361.921 275.133 362.518 273.659Z" fill="white"/>
<path d="M374.782 273.546C374.368 274.161 374.145 274.885 374.143 275.627C374.14 276.369 374.357 277.095 374.767 277.713C375.177 278.331 375.761 278.814 376.445 279.1C377.129 279.387 377.883 279.464 378.611 279.322C379.339 279.18 380.009 278.826 380.535 278.303C381.062 277.781 381.422 277.114 381.569 276.387C381.717 275.66 381.646 274.906 381.364 274.219C381.083 273.533 380.605 272.945 379.99 272.531C379.581 272.255 379.123 272.063 378.64 271.965C378.157 271.867 377.659 271.865 377.176 271.959C376.692 272.053 376.232 272.242 375.821 272.514C375.41 272.787 375.057 273.137 374.782 273.546V273.546Z" fill="white"/>
<path d="M376.109 270.32C375.783 270.804 375.608 271.374 375.606 271.957C375.605 272.541 375.776 273.112 376.098 273.598C376.421 274.084 376.88 274.463 377.419 274.688C377.957 274.914 378.55 274.974 379.123 274.862C379.695 274.75 380.222 274.471 380.636 274.06C381.05 273.649 381.333 273.124 381.449 272.553C381.564 271.981 381.508 271.388 381.287 270.848C381.066 270.308 380.69 269.846 380.206 269.52C379.884 269.303 379.523 269.152 379.143 269.075C378.763 268.998 378.372 268.996 377.991 269.071C377.611 269.145 377.249 269.294 376.926 269.508C376.602 269.722 376.325 269.998 376.109 270.32V270.32Z" fill="white"/>
<path d="M373.887 267.573C373.591 268.001 373.43 268.508 373.424 269.028C373.418 269.548 373.567 270.058 373.852 270.493C374.138 270.928 374.546 271.268 375.026 271.47C375.505 271.672 376.034 271.726 376.545 271.625C377.055 271.525 377.524 271.275 377.892 270.906C378.259 270.538 378.508 270.069 378.608 269.558C378.707 269.047 378.652 268.519 378.449 268.04C378.247 267.56 377.906 267.153 377.47 266.868C376.899 266.495 376.204 266.36 375.535 266.492C374.866 266.623 374.274 267.011 373.887 267.573Z" fill="white"/>
<path d="M377.529 268.29C377.236 268.719 377.077 269.226 377.072 269.746C377.068 270.266 377.219 270.776 377.506 271.21C377.793 271.644 378.202 271.982 378.682 272.182C379.162 272.382 379.691 272.435 380.201 272.333C380.711 272.231 381.179 271.979 381.546 271.61C381.912 271.24 382.16 270.77 382.258 270.259C382.355 269.749 382.299 269.22 382.095 268.742C381.891 268.263 381.549 267.856 381.113 267.573C380.54 267.201 379.845 267.068 379.175 267.202C378.506 267.336 377.915 267.726 377.529 268.29Z" fill="white"/>
<path d="M393.86 271.157C393.57 271.584 393.414 272.089 393.411 272.606C393.409 273.122 393.56 273.628 393.846 274.058C394.132 274.489 394.539 274.824 395.017 275.023C395.494 275.221 396.019 275.273 396.526 275.171C397.033 275.07 397.498 274.82 397.862 274.454C398.226 274.087 398.473 273.621 398.572 273.113C398.67 272.606 398.615 272.081 398.414 271.605C398.213 271.129 397.875 270.723 397.443 270.44C396.87 270.068 396.175 269.935 395.505 270.069C394.836 270.203 394.245 270.593 393.86 271.157V271.157Z" fill="white"/>
<path d="M371.247 270.738C370.929 271.211 370.759 271.767 370.758 272.337C370.757 272.907 370.924 273.464 371.24 273.938C371.556 274.412 372.005 274.782 372.531 275.001C373.057 275.22 373.636 275.278 374.195 275.167C374.754 275.057 375.267 274.783 375.67 274.381C376.073 273.978 376.348 273.465 376.46 272.907C376.571 272.348 376.515 271.769 376.297 271.243C376.079 270.716 375.71 270.266 375.236 269.95C374.603 269.526 373.827 269.371 373.079 269.519C372.331 269.667 371.672 270.105 371.247 270.738Z" fill="white"/>
<path d="M364.832 270.19C364.737 270.925 364.862 271.671 365.191 272.336C365.52 273 366.038 273.551 366.68 273.921C367.323 274.291 368.06 274.462 368.8 274.413C369.539 274.364 370.248 274.097 370.836 273.645C371.424 273.194 371.865 272.579 372.103 271.877C372.341 271.175 372.367 270.419 372.175 269.703C371.984 268.987 371.585 268.343 371.029 267.854C370.472 267.364 369.783 267.051 369.048 266.953C368.559 266.887 368.061 266.919 367.584 267.046C367.107 267.174 366.659 267.394 366.268 267.695C365.876 267.996 365.547 268.371 365.301 268.799C365.054 269.227 364.895 269.7 364.832 270.19V270.19Z" fill="white"/>
<path d="M378.82 272.625C378.725 273.361 378.85 274.108 379.179 274.773C379.508 275.437 380.027 275.99 380.67 276.359C381.313 276.729 382.052 276.9 382.792 276.85C383.532 276.8 384.24 276.532 384.828 276.08C385.416 275.627 385.856 275.011 386.093 274.308C386.331 273.605 386.354 272.848 386.162 272.132C385.969 271.415 385.568 270.773 385.009 270.284C384.451 269.796 383.76 269.484 383.025 269.388C382.536 269.323 382.039 269.355 381.563 269.483C381.086 269.61 380.64 269.831 380.249 270.132C379.858 270.432 379.53 270.808 379.285 271.236C379.04 271.664 378.882 272.136 378.82 272.625V272.625Z" fill="white"/>
<path d="M383.168 271.862C383.071 272.597 383.194 273.344 383.521 274.01C383.848 274.675 384.366 275.229 385.007 275.6C385.649 275.972 386.387 276.145 387.127 276.097C387.867 276.049 388.576 275.784 389.165 275.333C389.754 274.883 390.197 274.268 390.436 273.566C390.676 272.864 390.702 272.107 390.511 271.39C390.321 270.673 389.922 270.029 389.366 269.539C388.809 269.049 388.12 268.735 387.385 268.636C386.398 268.507 385.401 268.774 384.611 269.379C383.821 269.983 383.302 270.876 383.168 271.862Z" fill="white"/>
<path d="M388.221 272.113C388.123 272.851 388.247 273.601 388.576 274.269C388.905 274.937 389.424 275.493 390.069 275.865C390.714 276.237 391.454 276.41 392.197 276.361C392.94 276.313 393.652 276.045 394.243 275.591C394.833 275.138 395.276 274.52 395.515 273.815C395.754 273.109 395.778 272.349 395.585 271.63C395.392 270.911 394.99 270.266 394.429 269.775C393.869 269.285 393.176 268.972 392.438 268.876C391.948 268.81 391.45 268.842 390.973 268.97C390.496 269.097 390.049 269.317 389.657 269.618C389.265 269.919 388.937 270.294 388.69 270.722C388.444 271.15 388.284 271.623 388.221 272.113V272.113Z" fill="white"/>
<path d="M395.711 273.45C395.628 274.006 395.712 274.574 395.953 275.082C396.194 275.59 396.581 276.014 397.064 276.301C397.547 276.589 398.105 276.726 398.667 276.695C399.228 276.664 399.767 276.466 400.216 276.128C400.665 275.789 401.003 275.324 401.186 274.793C401.37 274.262 401.391 273.688 401.248 273.144C401.104 272.601 400.802 272.112 400.379 271.741C399.957 271.37 399.434 271.133 398.876 271.061C398.14 270.962 397.395 271.157 396.802 271.604C396.21 272.052 395.817 272.715 395.711 273.45V273.45Z" fill="white"/>
<path d="M360.399 269.198C360.326 269.763 360.422 270.336 360.674 270.847C360.927 271.357 361.326 271.781 361.819 272.064C362.313 272.348 362.88 272.479 363.448 272.441C364.016 272.402 364.56 272.196 365.011 271.849C365.462 271.502 365.8 271.028 365.982 270.489C366.164 269.949 366.182 269.368 366.033 268.818C365.885 268.268 365.577 267.775 365.148 267.4C364.719 267.026 364.189 266.787 363.624 266.714C363.249 266.663 362.868 266.688 362.502 266.786C362.136 266.884 361.794 267.053 361.494 267.284C361.194 267.515 360.943 267.803 360.755 268.132C360.567 268.46 360.446 268.823 360.399 269.198V269.198Z" fill="white"/>
<path d="M355.348 272.697L357.689 332.794L394.277 334.526L402.292 274.919L398.374 275.684L391.386 277.057L387.349 277.846L380.54 279.172L378.545 279.566L376.598 278.992L369.945 277.021L366.003 275.851L359.182 273.832H359.17L355.348 272.697Z" fill="#E6E6E6"/>
<path d="M355.348 272.697L357.689 332.794L361.499 332.973L359.182 273.832H359.17L355.348 272.697Z" fill="#407BFF"/>
<path d="M366.002 275.851L365.787 333.176L369.729 333.356L369.944 277.022L366.002 275.851Z" fill="#407BFF"/>
<path d="M376.598 278.993L374.018 333.558L377.948 333.75L380.54 279.172L378.545 279.566L376.598 278.993Z" fill="#407BFF"/>
<path d="M382.235 333.953L386.189 334.144L391.385 277.057L387.348 277.846L382.235 333.953Z" fill="#407BFF"/>
<path d="M390.467 334.347L394.277 334.526L402.293 274.92L398.375 275.684L390.467 334.347Z" fill="#407BFF"/>
<g opacity="0.2">
<path opacity="0.2" d="M355.348 272.697L357.689 332.794L361.499 332.973L359.182 273.832H359.17L355.348 272.697Z" fill="black"/>
<path opacity="0.2" d="M366.002 275.851L365.787 333.176L369.729 333.355L369.944 277.022L366.002 275.851Z" fill="black"/>
<path opacity="0.2" d="M376.597 278.992L374.017 333.558L377.947 333.749L380.539 279.172L378.544 279.566L376.597 278.992Z" fill="black"/>
<path opacity="0.2" d="M382.235 333.953L386.189 334.144L391.385 277.058L387.348 277.846L382.235 333.953Z" fill="black"/>
<path opacity="0.2" d="M390.466 334.347L394.276 334.526L402.292 274.919L398.374 275.684L390.466 334.347Z" fill="black"/>
</g>
<path d="M352.814 303.791L359.826 296.624L360.746 306.992C360.746 306.992 355.287 310.636 351.536 308.641L352.814 303.791Z" fill="#F1BBAF"/>
<path d="M368.368 295.585L368.655 304.305L360.723 307.004L359.827 296.636L368.368 295.585Z" fill="#F1BBAF"/>
<path d="M271.886 249.393C276.317 256.56 303.815 258.734 303.815 258.734L306.993 238.989C299.701 236.623 292.169 235.077 284.536 234.378C273.343 233.673 267.024 241.569 271.886 249.393Z" fill="#407BFF"/>
<path opacity="0.2" d="M271.886 249.393C276.317 256.56 303.815 258.734 303.815 258.734L306.993 238.989C299.701 236.623 292.169 235.077 284.536 234.378C273.343 233.673 267.024 241.569 271.886 249.393Z" fill="black"/>
<path d="M284.489 234.377C284.489 234.377 298.728 259.056 296.435 309.381L249.968 316.453C248.57 309.369 247.758 273.892 235.765 241.341C240.749 239.564 245.845 238.116 251.019 237.005C257.537 235.625 264.13 234.624 270.764 234.007C275.342 233.776 279.931 233.9 284.489 234.377V234.377Z" fill="#407BFF"/>
<path opacity="0.2" d="M284.489 234.377C284.489 234.377 298.728 259.056 296.435 309.381L249.968 316.453C248.57 309.369 247.758 273.892 235.765 241.341C240.749 239.564 245.845 238.116 251.019 237.005C257.537 235.625 264.13 234.624 270.764 234.007C275.342 233.776 279.931 233.9 284.489 234.377V234.377Z" fill="black"/>
<path d="M296.421 309.382C296.421 309.382 343.916 331.994 354.953 356.769C362.388 373.947 368.658 391.606 373.719 409.627L360.985 419.087C360.985 419.087 343.438 382.141 323.071 362.945C300.937 342.076 264.826 313.611 264.826 313.611L296.421 309.382Z" fill="#407BFF"/>
<path d="M361.942 247.792L371.498 245.152L370.817 254.314C369.22 254.876 367.526 255.106 365.837 254.989C364.149 254.872 362.502 254.41 360.998 253.633L361.942 247.792Z" fill="#E4897B"/>
<path d="M377.96 248.21L378.271 254.338L370.841 254.314L371.534 245.152L377.96 248.21Z" fill="#E4897B"/>
<path opacity="0.3" d="M247.268 253.311C248.689 260.084 247.172 266.952 243.863 270.536C243.37 268.147 242.836 265.698 242.263 263.189L247.268 253.311Z" fill="black"/>
<path d="M249.584 214.477C251.794 220.64 254.804 232.096 251.005 237.005C251.005 237.005 253.729 243.217 265.531 241.389C274.956 239.932 270.751 234.007 270.751 234.007C263.417 233.386 262.795 228.106 263.285 222.982L249.584 214.477Z" fill="#E4897B"/>
<path d="M252.141 233.566C252.141 233.566 255.294 238.511 266.475 241.247C265.915 243.52 266.01 245.906 266.75 248.127C266.75 248.127 253.311 243.815 250.026 237.018L252.141 233.566Z" fill="white"/>
<path d="M271.158 246.598C271.158 246.598 269.366 242.763 266.476 241.246C267.742 239 268.638 234.354 266.75 232.562C268.156 232.685 269.545 232.953 270.895 233.362C270.895 233.362 273.714 237.185 271.158 246.598Z" fill="white"/>
<path d="M255.163 217.941L263.273 222.97C263.144 224.16 263.12 225.359 263.202 226.553C260.43 226.553 256.262 224.164 255.545 221.369C255.212 220.258 255.083 219.097 255.163 217.941V217.941Z" fill="#CE6F64"/>
<path d="M267.121 191.195C271.779 192.39 276.032 204.335 270.86 207.978C265.687 211.622 258.281 188.95 267.121 191.195Z" fill="#263238"/>
<path d="M247.195 204.694C249.082 213.426 249.739 218.634 254.875 222.492C262.616 228.274 272.889 222.588 273.653 213.462C274.346 205.243 271.145 192.343 261.983 190.145C259.964 189.651 257.852 189.682 255.849 190.234C253.845 190.786 252.016 191.841 250.534 193.298C249.053 194.756 247.968 196.568 247.384 198.562C246.799 200.557 246.734 202.667 247.195 204.694Z" fill="#E4897B"/>
<path d="M260.944 205.123C261.063 205.84 261.529 206.318 261.995 206.318C262.461 206.318 262.759 205.601 262.652 204.884C262.544 204.168 262.067 203.69 261.601 203.69C261.135 203.69 260.836 204.407 260.944 205.123Z" fill="#263238"/>
<path d="M269.068 203.894C269.175 204.611 269.641 205.088 270.119 205.088C270.597 205.088 270.872 204.372 270.764 203.655C270.657 202.938 270.191 202.46 269.725 202.46C269.259 202.46 268.96 203.177 269.068 203.894Z" fill="#263238"/>
<path d="M266.547 204.633C267.736 206.699 269.203 208.592 270.907 210.259C270.472 210.689 269.949 211.019 269.373 211.226C268.797 211.432 268.183 211.51 267.574 211.454L266.547 204.633Z" fill="#DE5753"/>
<path d="M264.719 213.819C263.922 213.83 263.131 213.681 262.392 213.382C261.654 213.082 260.983 212.638 260.418 212.075C260.394 212.055 260.375 212.03 260.361 212.002C260.348 211.973 260.341 211.943 260.341 211.911C260.341 211.88 260.347 211.849 260.36 211.82C260.373 211.792 260.393 211.766 260.416 211.746C260.44 211.726 260.468 211.711 260.499 211.703C260.529 211.694 260.56 211.693 260.591 211.698C260.622 211.703 260.652 211.715 260.678 211.733C260.703 211.75 260.725 211.773 260.741 211.8C261.396 212.423 262.188 212.884 263.052 213.147C263.917 213.411 264.831 213.469 265.722 213.318C265.75 213.312 265.778 213.313 265.805 213.32C265.833 213.326 265.858 213.338 265.881 213.355C265.903 213.372 265.922 213.393 265.936 213.417C265.95 213.442 265.958 213.469 265.961 213.497C265.968 213.552 265.953 213.608 265.92 213.652C265.886 213.697 265.837 213.727 265.782 213.736C265.43 213.792 265.075 213.82 264.719 213.819V213.819Z" fill="#263238"/>
<path d="M258.018 202.878C257.951 202.895 257.881 202.895 257.815 202.878C257.766 202.851 257.722 202.816 257.687 202.772C257.652 202.729 257.626 202.68 257.61 202.626C257.595 202.573 257.59 202.517 257.596 202.462C257.603 202.406 257.62 202.353 257.647 202.304C257.956 201.701 258.404 201.181 258.955 200.786C259.506 200.391 260.143 200.134 260.813 200.035C260.925 200.028 261.035 200.066 261.12 200.139C261.205 200.213 261.258 200.317 261.267 200.429C261.273 200.484 261.269 200.54 261.253 200.594C261.237 200.647 261.21 200.696 261.174 200.739C261.138 200.781 261.094 200.816 261.044 200.841C260.994 200.866 260.94 200.88 260.884 200.883V200.883C260.354 200.97 259.851 201.18 259.417 201.498C258.984 201.815 258.631 202.231 258.388 202.71C258.347 202.769 258.291 202.816 258.226 202.845C258.161 202.875 258.089 202.886 258.018 202.878V202.878Z" fill="#263238"/>
<path d="M272.137 200.56C272.067 200.562 271.998 200.546 271.936 200.515C271.873 200.484 271.819 200.438 271.779 200.381C271.488 199.932 271.095 199.558 270.632 199.29C270.169 199.022 269.649 198.868 269.115 198.84C269.058 198.843 269.001 198.835 268.947 198.815C268.894 198.796 268.845 198.766 268.804 198.726C268.762 198.687 268.729 198.64 268.707 198.588C268.684 198.535 268.673 198.479 268.673 198.422C268.673 198.309 268.716 198.2 268.794 198.118C268.872 198.035 268.978 197.986 269.091 197.98C269.767 198.009 270.426 198.198 271.016 198.53C271.605 198.862 272.108 199.328 272.483 199.891C272.531 199.954 272.559 200.029 272.566 200.108C272.572 200.186 272.556 200.265 272.52 200.335C272.484 200.404 272.429 200.463 272.361 200.503C272.293 200.543 272.216 200.562 272.137 200.56Z" fill="#263238"/>
<path d="M246.789 254.326C245.165 256.715 243.421 259.295 241.808 261.839C240.196 264.384 238.607 267 237.03 269.616C234.004 274.721 231.326 280.025 229.015 285.491C227.941 288.07 227.058 290.725 226.375 293.434C225.859 295.557 225.618 297.737 225.658 299.921C225.658 300.267 225.742 300.434 225.754 300.637C225.782 300.797 225.826 300.953 225.885 301.103C226.033 301.32 226.224 301.503 226.447 301.641C226.822 301.865 227.223 302.041 227.641 302.166C230.14 302.693 232.712 302.774 235.238 302.405L237.627 308.545C236.821 308.995 235.987 309.394 235.131 309.74C234.307 310.086 233.459 310.409 232.575 310.683C230.686 311.285 228.716 311.595 226.733 311.603C225.583 311.597 224.437 311.461 223.317 311.197C222.028 310.863 220.799 310.331 219.674 309.62C218.473 308.842 217.421 307.854 216.568 306.706C215.784 305.605 215.16 304.398 214.716 303.122C213.987 301.007 213.651 298.776 213.725 296.54C213.777 294.657 213.968 292.781 214.298 290.926C214.944 287.494 215.875 284.121 217.082 280.844C218.215 277.697 219.51 274.611 220.964 271.599C222.373 268.624 223.89 265.71 225.491 262.879C227.092 260.047 228.752 257.252 230.508 254.517C232.264 251.781 234.008 249.13 236.027 246.394L246.789 254.326Z" fill="#E4897B"/>
<path d="M233.65 302.429L243.206 300.84L238.249 310.85C238.249 310.85 231.249 310.635 230.341 307.267L233.65 302.429Z" fill="#E4897B"/>
<path d="M249.585 305.893L245.082 313.98L238.249 310.85L243.206 300.84L249.585 305.893Z" fill="#E4897B"/>
<path d="M238.427 206.103C243.038 212.984 247.517 216.997 251.172 216.101C254.828 215.205 254.696 206.999 251.722 200.011C249.488 194.755 254.72 195.77 261.445 195.412C268.995 195.018 273.94 188.866 271.264 184.243C271.778 185.259 259.259 185.438 262.903 180.982C255.891 180.098 238.666 183.168 237.818 195.543C232.86 195.962 235.034 201.062 238.427 206.103Z" fill="#263238"/>
<path d="M237.903 196.105C237.947 195.57 237.878 195.032 237.698 194.527C237.518 194.021 237.233 193.56 236.861 193.173C236.49 192.787 236.04 192.484 235.541 192.285C235.043 192.086 234.509 191.996 233.973 192.019C235.425 193.236 236.743 194.606 237.903 196.105V196.105Z" fill="#263238"/>
<path d="M244.699 215.014C246.167 216.714 248.251 217.763 250.492 217.928C253.467 218.131 254.339 215.324 253.001 212.84C251.806 210.594 248.808 207.799 246.06 208.778C245.468 209.003 244.941 209.373 244.528 209.853C244.114 210.333 243.826 210.908 243.691 211.527C243.556 212.146 243.577 212.789 243.753 213.398C243.929 214.007 244.254 214.562 244.699 215.014V215.014Z" fill="#E4897B"/>
<path d="M235.752 241.293C227.188 244.363 218.217 271.072 218.217 271.072L237.329 278.658C240.974 271.635 244.24 264.421 247.112 257.049C251.114 246.441 244.222 238.295 235.752 241.293Z" fill="#407BFF"/>
<path opacity="0.2" d="M235.752 241.293C227.188 244.363 218.217 271.072 218.217 271.072L237.329 278.658C240.974 271.635 244.24 264.421 247.112 257.049C251.114 246.441 244.222 238.295 235.752 241.293Z" fill="black"/>
<path d="M371.39 430.232L378.366 424.905L367.795 407.381L360.807 412.709L371.39 430.232Z" fill="#E4897B"/>
<path d="M367.795 407.392L373.254 416.422L366.266 421.75L360.807 412.719L367.795 407.392Z" fill="#CE6F64"/>
<path d="M280.188 418.931L287.654 423.554L300.256 407.416L292.779 402.793L280.188 418.931Z" fill="#E4897B"/>
<path d="M300.244 407.428L293.757 415.742L286.829 410.414L292.778 402.793L300.244 407.428Z" fill="#CE6F64"/>
<path opacity="0.7" d="M296.421 309.382C296.421 309.382 343.916 331.994 354.953 356.769C362.388 373.947 368.658 391.606 373.719 409.627L360.985 419.087C360.985 419.087 343.438 382.141 323.071 362.945C300.937 342.076 264.826 313.611 264.826 313.611L296.421 309.382Z" fill="black"/>
<path d="M377.758 424.056L370.136 429.873C369.997 429.984 369.896 430.136 369.848 430.308C369.801 430.48 369.81 430.662 369.874 430.829L372.812 438.39C372.875 438.57 372.981 438.733 373.12 438.864C373.259 438.996 373.427 439.092 373.611 439.144C373.795 439.197 373.988 439.205 374.176 439.167C374.363 439.129 374.539 439.047 374.688 438.928C377.411 436.789 381.269 433.576 384.734 430.948C388.771 427.854 392.426 425.429 397.169 421.81C400.035 419.624 398.805 415.969 397.431 416.602C391.124 419.517 386.573 422.79 379.824 423.327C379.08 423.37 378.364 423.623 377.758 424.056Z" fill="#263238"/>
<path d="M379.071 424.581C379.014 424.58 378.96 424.558 378.916 424.521C378.892 424.486 378.88 424.445 378.88 424.402C378.88 424.359 378.892 424.318 378.916 424.283C379.119 423.864 380.947 420.209 382.129 420.078C382.242 420.066 382.355 420.083 382.458 420.13C382.561 420.176 382.649 420.249 382.715 420.341C382.838 420.488 382.924 420.662 382.965 420.849C383.007 421.036 383.003 421.23 382.954 421.416C382.655 422.706 380.469 423.948 379.191 424.557C379.175 424.572 379.155 424.581 379.134 424.586C379.113 424.59 379.092 424.588 379.071 424.581V424.581ZM382.165 420.496C381.532 420.556 380.338 422.431 379.561 423.9C381.269 423.004 382.368 422.061 382.536 421.332C382.571 421.206 382.575 421.074 382.545 420.946C382.516 420.819 382.455 420.701 382.368 420.603C382.355 420.561 382.327 420.525 382.29 420.501C382.253 420.478 382.209 420.467 382.165 420.472V420.496Z" fill="#407BFF"/>
<path d="M379.07 424.581C379.031 424.583 378.993 424.575 378.959 424.555C378.925 424.536 378.897 424.508 378.879 424.474C378.807 424.33 377.016 420.89 378.807 419.839C379.285 419.552 379.572 419.672 379.739 419.839C380.456 420.532 379.847 423.423 379.249 424.486C379.231 424.517 379.205 424.542 379.174 424.559C379.142 424.576 379.106 424.584 379.07 424.581V424.581ZM379.333 420.078C379.221 420.091 379.114 420.132 379.022 420.197C377.828 420.902 378.676 423.016 379.022 423.9C379.536 422.706 379.835 420.544 379.405 420.126C379.385 420.104 379.36 420.088 379.333 420.078V420.078Z" fill="#407BFF"/>
<path d="M360.699 420.174L374.794 409.698L372.751 404.836L357.282 415.408L360.699 420.174Z" fill="#407BFF"/>
<path d="M288.203 422.694L280.044 417.641C279.89 417.551 279.711 417.511 279.533 417.528C279.355 417.545 279.187 417.619 279.053 417.737L273.08 423.196C272.936 423.319 272.823 423.475 272.751 423.651C272.679 423.827 272.65 424.017 272.667 424.207C272.683 424.396 272.744 424.578 272.845 424.739C272.946 424.9 273.084 425.034 273.247 425.131C276.222 426.911 277.775 428.356 281.609 430.279C289.206 434.018 290.21 439.059 297.568 439.059C301.151 439.059 302.979 436.145 301.534 435.679C292.706 432.812 292.503 430.483 289.588 424.367C289.298 423.687 288.817 423.106 288.203 422.694V422.694Z" fill="#263238"/>
<path d="M292.325 426.576C291.023 426.576 289.243 425.082 288.263 424.187C288.238 424.152 288.225 424.11 288.225 424.067C288.225 424.024 288.238 423.982 288.263 423.948C288.283 423.911 288.312 423.881 288.348 423.86C288.384 423.838 288.425 423.828 288.467 423.828C288.932 423.828 293.006 424.27 293.543 425.333C293.596 425.431 293.623 425.539 293.623 425.65C293.623 425.76 293.596 425.869 293.543 425.966C293.452 426.137 293.32 426.282 293.16 426.39C293 426.498 292.816 426.566 292.623 426.588L292.325 426.576ZM289.076 424.294C290.521 425.56 291.811 426.265 292.54 426.146C292.669 426.13 292.793 426.084 292.901 426.011C293.009 425.938 293.098 425.841 293.161 425.727C293.181 425.693 293.191 425.654 293.191 425.614C293.191 425.574 293.181 425.535 293.161 425.501C292.838 424.927 290.664 424.485 289.076 424.294Z" fill="#407BFF"/>
<path d="M288.979 424.258C288.776 424.272 288.573 424.272 288.37 424.258C288.334 424.25 288.3 424.235 288.271 424.212C288.242 424.189 288.219 424.16 288.203 424.126C288.185 424.093 288.176 424.056 288.176 424.019C288.176 423.981 288.185 423.944 288.203 423.911C288.31 423.792 290.843 420.901 292.503 422.191C292.945 422.526 292.933 422.848 292.85 423.051C292.551 423.804 290.353 424.258 288.979 424.258ZM288.848 423.84C290.174 423.84 292.264 423.41 292.503 422.86C292.503 422.86 292.503 422.705 292.288 422.49C291.213 421.666 289.517 423.159 288.848 423.84V423.84Z" fill="#407BFF"/>
<path d="M279.937 311.89C279.937 311.89 349.219 309.847 346.926 330.357C343.784 358.369 298.452 414.069 298.452 414.069L288.346 404.68C288.346 404.68 308.534 364.807 312.786 347.033C314.793 338.671 273.08 350.21 262.485 342.924C256.01 338.468 252.092 329.867 249.954 316.453L279.937 311.89Z" fill="#407BFF"/>
<path opacity="0.6" d="M279.937 311.89C279.937 311.89 349.219 309.847 346.926 330.357C343.784 358.369 298.452 414.069 298.452 414.069L288.346 404.68C288.346 404.68 308.534 364.807 312.786 347.033C314.793 338.671 273.08 350.21 262.485 342.924C256.01 338.468 252.092 329.867 249.954 316.453L279.937 311.89Z" fill="black"/>
<path d="M286.388 405.505L299.241 415.742L303.78 411.119L289.04 401.061L286.388 405.505Z" fill="#407BFF"/>
<path d="M183.563 306.24H209.544V303.051H183.563V306.24Z" fill="#263238"/>
<path d="M223.58 303.038H209.544V306.227H223.58V303.038Z" fill="#407BFF"/>
<path d="M148.922 306.192C148.337 306.192 147.728 306.192 147.166 306.192C134.683 307.088 124.59 317.648 123.801 330.656C123.62 333.528 123.894 336.41 124.614 339.197C127.36 350.373 128.685 361.852 128.556 373.36V423.853C128.536 424.995 128.97 426.099 129.763 426.923C130.555 427.747 131.641 428.223 132.784 428.249H235.023V306.192H148.922Z" fill="#407BFF"/>
<path opacity="0.4" d="M148.922 306.192C148.337 306.192 147.728 306.192 147.166 306.192C134.683 307.088 124.59 317.648 123.801 330.656C123.62 333.528 123.894 336.41 124.614 339.197C127.36 350.373 128.685 361.852 128.556 373.36V423.853C128.536 424.995 128.97 426.099 129.763 426.923C130.555 427.747 131.641 428.223 132.784 428.249H235.023V306.192H148.922Z" fill="white"/>
<path d="M260.204 332.423C260.204 317.324 247.96 305.212 233.255 306.251C220.772 307.147 210.691 317.707 209.89 330.715C209.715 333.587 209.989 336.468 210.703 339.256C213.459 350.431 214.788 361.91 214.656 373.419V423.912C214.634 425.053 215.065 426.157 215.856 426.982C216.646 427.806 217.731 428.282 218.873 428.308H251.125C251.692 428.297 252.25 428.174 252.769 427.948C253.288 427.721 253.758 427.394 254.15 426.986C254.543 426.577 254.851 426.096 255.058 425.568C255.264 425.041 255.365 424.478 255.354 423.912V371.496C255.264 360.702 256.573 349.941 259.248 339.483C259.876 337.182 260.198 334.808 260.204 332.423Z" fill="#407BFF"/>
<path opacity="0.6" d="M260.204 332.423C260.204 317.324 247.96 305.212 233.255 306.251C220.772 307.147 210.691 317.707 209.89 330.715C209.715 333.587 209.989 336.468 210.703 339.256C213.459 350.431 214.788 361.91 214.656 373.419V423.912C214.634 425.053 215.065 426.157 215.856 426.982C216.646 427.806 217.731 428.282 218.873 428.308H251.125C251.692 428.297 252.25 428.174 252.769 427.948C253.288 427.721 253.758 427.394 254.15 426.986C254.543 426.577 254.851 426.096 255.058 425.568C255.264 425.041 255.365 424.478 255.354 423.912V371.496C255.264 360.702 256.573 349.941 259.248 339.483C259.876 337.182 260.198 334.808 260.204 332.423Z" fill="white"/>
</svg>
