<svg width="422" height="307" viewBox="0 0 422 307" fill="none" xmlns="http://www.w3.org/2000/svg">
<path d="M165.23 19.6406H164.388C164.381 17.1196 164.898 14.6247 165.904 12.3132C167.334 9.00394 169.701 6.18558 172.714 4.20557C175.727 2.22556 179.253 1.17048 182.858 1.17041V2.01265C179.419 2.01775 176.057 3.02507 173.182 4.91133C170.307 6.7976 168.044 9.48102 166.67 12.6332C165.712 14.8446 165.221 17.2305 165.23 19.6406Z" fill="#407BFF"/>
<path d="M165.23 24.8963H164.388V36.1991H165.23V24.8963Z" fill="#407BFF"/>
<path d="M237.577 4.11835H182.866C174.288 4.11835 167.335 11.0717 167.335 19.6492V36.1907C167.335 44.7681 174.288 51.7215 182.866 51.7215H237.577C246.155 51.7215 253.108 44.7681 253.108 36.1907V19.6492C253.108 11.0717 246.155 4.11835 237.577 4.11835Z" fill="#407BFF"/>
<path d="M220.076 48.1755C225.39 60.7164 239.851 65.5677 248.24 66.6542C240.011 55.2082 240.374 45.1435 240.374 45.1435L220.076 48.1755Z" fill="#407BFF"/>
<path d="M193.933 17.4767L186.429 15.649L181.097 21.2331L183.262 28.6447L190.774 30.4724L196.106 24.8884L193.933 17.4767Z" fill="#E0E0E0"/>
<path d="M191.305 16.8361L183.792 15.0085L178.461 20.5925L180.634 28.0042L188.138 29.8318L193.47 24.2478L191.305 16.8361Z" fill="white"/>
<path d="M235.346 29.807L208.739 23.3386C208.395 21.3687 207.538 19.5243 206.254 17.9916C204.969 16.4588 203.304 15.2919 201.424 14.6085C199.545 13.9251 197.519 13.7495 195.55 14.0992C193.581 14.449 191.739 15.3119 190.21 16.6007L199.113 18.7653L201.277 26.1769L195.946 31.7694L187.018 29.5627C187.78 31.4198 189.02 33.042 190.613 34.2644C192.205 35.4869 194.092 36.266 196.083 36.5227C198.074 36.7794 200.097 36.5044 201.947 35.7257C203.798 34.9471 205.409 33.6925 206.617 32.0894V32.0894L233.223 38.5578C234.38 38.8349 235.599 38.6433 236.615 38.0248C237.632 37.4063 238.362 36.4111 238.647 35.2562V35.2562C238.789 34.6816 238.816 34.0846 238.727 33.4994C238.638 32.9143 238.434 32.3524 238.128 31.8462C237.821 31.3399 237.417 30.8992 236.94 30.5493C236.462 30.1993 235.921 29.9471 235.346 29.807V29.807Z" fill="white"/>
<path d="M234.158 37.1004C235.777 37.1004 237.089 35.7882 237.089 34.1694C237.089 32.5507 235.777 31.2385 234.158 31.2385C232.539 31.2385 231.227 32.5507 231.227 34.1694C231.227 35.7882 232.539 37.1004 234.158 37.1004Z" fill="#407BFF"/>
<path d="M261.346 262.815H253.345V283.037H261.346V262.815Z" fill="#E0E0E0"/>
<path d="M262.929 276.08H251.761L250.987 295.553C250.966 296.049 251.046 296.544 251.222 297.008C251.398 297.472 251.666 297.896 252.009 298.254C252.353 298.612 252.766 298.896 253.223 299.091C253.679 299.285 254.171 299.385 254.667 299.385H260.066C260.561 299.384 261.052 299.283 261.508 299.088C261.963 298.893 262.375 298.609 262.718 298.251C263.061 297.893 263.328 297.469 263.503 297.006C263.679 296.542 263.758 296.048 263.738 295.553L262.929 276.08Z" fill="#263238"/>
<path d="M285.147 298.854C284.912 298.853 284.681 298.795 284.474 298.683C284.266 298.571 284.09 298.41 283.96 298.214C282.852 296.524 281.34 295.136 279.56 294.177C277.781 293.218 275.79 292.719 273.769 292.723H240.922C238.9 292.719 236.91 293.218 235.13 294.177C233.351 295.136 231.839 296.524 230.731 298.214C230.517 298.516 230.195 298.722 229.832 298.791C229.469 298.859 229.094 298.783 228.785 298.58C228.477 298.377 228.26 298.061 228.179 297.701C228.099 297.34 228.162 296.963 228.356 296.648C229.727 294.571 231.594 292.867 233.787 291.691C235.981 290.515 238.433 289.903 240.922 289.91H273.769C276.261 289.897 278.716 290.504 280.915 291.678C283.113 292.851 284.984 294.553 286.36 296.631C286.502 296.845 286.582 297.094 286.594 297.351C286.605 297.607 286.547 297.862 286.425 298.089C286.303 298.315 286.123 298.504 285.902 298.636C285.682 298.768 285.43 298.837 285.173 298.838L285.147 298.854Z" fill="#263238"/>
<path d="M270.83 264.23H243.878C242.421 264.231 241.008 263.728 239.879 262.807C238.749 261.886 237.972 260.604 237.679 259.176L236.837 255.049H277.904L277.062 259.176C276.768 260.61 275.986 261.896 274.85 262.818C273.713 263.739 272.293 264.238 270.83 264.23V264.23Z" fill="#263238"/>
<path d="M198.372 253.34H230.68C242.926 253.301 254.747 248.853 263.981 240.81C273.215 232.767 279.243 221.668 280.962 209.544L289.822 147.151H346.909L338.048 209.544C336.33 221.668 330.302 232.767 321.068 240.81C311.834 248.853 300.012 253.301 287.767 253.34H198.372Z" fill="#263238"/>
<path d="M198.372 258.073C197.733 258.1 197.095 257.997 196.497 257.772C195.899 257.546 195.353 257.201 194.891 256.758C194.429 256.316 194.062 255.784 193.811 255.196C193.56 254.608 193.431 253.975 193.431 253.336C193.431 252.696 193.56 252.063 193.811 251.475C194.062 250.887 194.429 250.355 194.891 249.913C195.353 249.47 195.899 249.125 196.497 248.9C197.095 248.674 197.733 248.571 198.372 248.598H230.773C241.855 248.509 252.537 244.45 260.882 237.157C269.227 229.865 274.68 219.823 276.254 208.853L285.114 146.46C285.276 145.33 285.839 144.297 286.701 143.548C287.562 142.8 288.664 142.386 289.805 142.384H346.892C347.571 142.384 348.241 142.53 348.858 142.812C349.476 143.094 350.025 143.505 350.47 144.018C350.915 144.531 351.244 145.133 351.436 145.784C351.628 146.434 351.678 147.119 351.583 147.791L342.723 210.184C338.849 237.48 315.216 258.073 287.75 258.073H198.372ZM293.941 151.867L285.653 210.184C284.544 217.923 281.823 225.344 277.664 231.966C273.506 238.587 268.004 244.262 261.515 248.623H287.767C298.866 248.56 309.574 244.514 317.942 237.221C326.309 229.928 331.779 219.873 333.357 208.887L341.451 151.892L293.941 151.867Z" fill="#263238"/>
<path opacity="0.2" d="M255.45 258.073C254.811 258.1 254.174 257.997 253.575 257.772C252.977 257.546 252.431 257.201 251.969 256.758C251.507 256.316 251.14 255.784 250.889 255.196C250.638 254.608 250.509 253.975 250.509 253.336C250.509 252.696 250.638 252.063 250.889 251.475C251.14 250.887 251.507 250.355 251.969 249.913C252.431 249.47 252.977 249.125 253.575 248.9C254.174 248.674 254.811 248.571 255.45 248.598H287.767C298.866 248.535 309.574 244.489 317.941 237.196C326.309 229.903 331.779 219.848 333.357 208.861L342.217 146.469C342.282 145.834 342.475 145.218 342.783 144.66C343.092 144.101 343.51 143.61 344.013 143.217C344.515 142.824 345.092 142.536 345.709 142.371C346.325 142.206 346.969 142.167 347.6 142.257C348.232 142.346 348.84 142.562 349.386 142.892C349.932 143.222 350.406 143.659 350.78 144.177C351.153 144.694 351.418 145.282 351.559 145.904C351.7 146.527 351.714 147.171 351.6 147.799L342.74 210.192C338.865 237.489 315.232 258.082 287.767 258.082L255.45 258.073Z" fill="white"/>
<path d="M233.695 298.728C233.695 297.922 233.456 297.134 233.008 296.463C232.56 295.793 231.924 295.27 231.179 294.962C230.434 294.653 229.614 294.573 228.824 294.73C228.033 294.887 227.307 295.275 226.736 295.845C226.166 296.416 225.778 297.142 225.621 297.933C225.464 298.723 225.544 299.543 225.853 300.288C226.161 301.033 226.684 301.669 227.354 302.117C228.025 302.565 228.813 302.804 229.619 302.804C230.7 302.804 231.737 302.375 232.501 301.61C233.266 300.846 233.695 299.809 233.695 298.728Z" fill="#263238"/>
<path d="M289.148 298.728C289.148 297.922 288.909 297.134 288.461 296.463C288.014 295.793 287.377 295.27 286.632 294.962C285.887 294.653 285.068 294.573 284.277 294.73C283.486 294.887 282.76 295.275 282.19 295.845C281.619 296.416 281.231 297.142 281.074 297.933C280.917 298.723 280.997 299.543 281.306 300.288C281.614 301.033 282.137 301.669 282.807 302.117C283.478 302.565 284.266 302.804 285.072 302.804C286.153 302.804 287.19 302.375 287.954 301.61C288.719 300.846 289.148 299.809 289.148 298.728Z" fill="#263238"/>
<path d="M285.147 298.854C284.912 298.853 284.681 298.795 284.474 298.683C284.266 298.571 284.09 298.41 283.96 298.214C282.852 296.524 281.34 295.136 279.56 294.177C277.781 293.218 275.79 292.719 273.769 292.723H240.922C238.9 292.719 236.91 293.218 235.13 294.177C233.351 295.136 231.839 296.524 230.731 298.214C230.517 298.516 230.195 298.722 229.832 298.791C229.469 298.859 229.094 298.783 228.785 298.58C228.477 298.377 228.26 298.061 228.179 297.701C228.099 297.34 228.162 296.963 228.356 296.648C229.727 294.571 231.594 292.867 233.787 291.691C235.981 290.515 238.433 289.903 240.922 289.91H273.769C276.261 289.897 278.716 290.504 280.915 291.678C283.113 292.851 284.984 294.553 286.36 296.631C286.502 296.845 286.582 297.094 286.594 297.351C286.605 297.607 286.547 297.862 286.425 298.089C286.303 298.315 286.123 298.504 285.902 298.636C285.682 298.768 285.43 298.837 285.173 298.838L285.147 298.854Z" fill="#263238"/>
<path d="M271.25 301.254C270.95 301.252 270.657 301.156 270.414 300.979C270.171 300.803 269.989 300.554 269.894 300.269C268.867 297.144 267.166 295.115 265.557 295.115H249.133C247.525 295.115 245.823 297.144 244.796 300.269C244.668 300.614 244.411 300.896 244.08 301.055C243.749 301.215 243.369 301.241 243.019 301.126C242.669 301.012 242.378 300.767 242.205 300.442C242.032 300.117 241.992 299.739 242.092 299.385C243.558 294.929 246.185 292.276 249.133 292.276H265.557C268.505 292.276 271.132 294.929 272.598 299.385C272.715 299.743 272.685 300.134 272.514 300.47C272.344 300.806 272.047 301.061 271.688 301.179C271.548 301.228 271.4 301.254 271.25 301.254V301.254Z" fill="#263238"/>
<path d="M247.517 301.128C247.517 300.322 247.278 299.534 246.83 298.864C246.382 298.193 245.745 297.671 245 297.362C244.255 297.054 243.436 296.973 242.645 297.13C241.854 297.288 241.128 297.676 240.558 298.246C239.988 298.816 239.599 299.542 239.442 300.333C239.285 301.124 239.366 301.944 239.674 302.688C239.983 303.433 240.505 304.07 241.175 304.518C241.846 304.966 242.634 305.205 243.44 305.205C244.521 305.205 245.558 304.775 246.323 304.011C247.087 303.246 247.517 302.21 247.517 301.128V301.128Z" fill="#263238"/>
<path d="M275.327 301.128C275.327 300.322 275.088 299.534 274.64 298.864C274.192 298.193 273.556 297.671 272.811 297.362C272.066 297.054 271.246 296.973 270.455 297.13C269.665 297.288 268.938 297.676 268.368 298.246C267.798 298.816 267.41 299.542 267.253 300.333C267.095 301.124 267.176 301.944 267.485 302.688C267.793 303.433 268.316 304.07 268.986 304.518C269.656 304.966 270.445 305.205 271.251 305.205C272.332 305.205 273.369 304.775 274.133 304.011C274.898 303.246 275.327 302.21 275.327 301.128V301.128Z" fill="#263238"/>
<path d="M169.61 245.187L183.953 251.411L175.733 261.004L163.739 255.808L169.61 245.187Z" fill="#FFB573"/>
<path opacity="0.2" d="M169.618 245.187L183.962 251.419L179.355 256.793L166.325 251.142L169.618 245.187Z" fill="black"/>
<path d="M177.77 265.999L176.153 265.628C175.678 265.52 175.237 265.297 174.868 264.978C174.5 264.659 174.215 264.255 174.039 263.8V263.8L173.003 264.28C172.405 264.564 171.729 264.638 171.083 264.491L148.958 259.438C149.016 257.45 150.768 255.226 150.768 255.226C150.768 255.226 160.614 256.911 163.461 254.561C163.573 254.482 163.705 254.436 163.842 254.429C163.979 254.421 164.116 254.453 164.236 254.519C166.021 255.361 173.062 258.402 177.577 257.972C177.716 257.961 177.857 257.983 177.987 258.036C178.117 258.089 178.233 258.171 178.325 258.277C178.417 258.382 178.484 258.508 178.519 258.644C178.555 258.779 178.558 258.921 178.528 259.059C178.108 261.351 177.855 263.67 177.77 265.999Z" fill="#263238"/>
<path d="M163.849 255.201C163.817 255.201 163.786 255.194 163.756 255.181C163.727 255.168 163.702 255.149 163.68 255.126C163.588 255.024 161.339 252.599 161.406 251.226C161.41 251.089 161.441 250.953 161.499 250.829C161.557 250.704 161.64 250.593 161.743 250.502C161.859 250.386 162.009 250.309 162.17 250.283C162.332 250.258 162.498 250.284 162.644 250.358C163.613 250.847 164.219 253.551 164.093 254.991C164.087 255.036 164.069 255.078 164.041 255.114C164.013 255.149 163.975 255.177 163.933 255.193L163.849 255.201ZM162.299 250.746C162.253 250.749 162.207 250.76 162.165 250.781C162.123 250.801 162.086 250.829 162.055 250.864C161.999 250.911 161.955 250.971 161.926 251.038C161.896 251.105 161.883 251.178 161.886 251.251C161.844 252.093 162.914 253.517 163.63 254.359C163.579 252.969 163.049 251.091 162.434 250.78C162.392 250.76 162.346 250.748 162.299 250.746V250.746Z" fill="#263238"/>
<path d="M162.106 255.302C161.166 255.381 160.224 255.185 159.394 254.738C159.284 254.657 159.193 254.553 159.126 254.434C159.059 254.315 159.019 254.183 159.006 254.048C158.974 253.881 158.996 253.709 159.071 253.557C159.145 253.405 159.268 253.281 159.419 253.205C160.379 252.717 162.923 253.82 164.009 254.772C164.044 254.802 164.069 254.841 164.082 254.885C164.094 254.929 164.094 254.976 164.081 255.019C164.067 255.063 164.041 255.102 164.006 255.131C163.971 255.161 163.928 255.179 163.883 255.185C163.293 255.256 162.7 255.296 162.106 255.302ZM160.025 253.567C159.881 253.563 159.738 253.588 159.604 253.643C159.52 253.694 159.427 253.77 159.453 254.005C159.461 254.077 159.485 254.146 159.521 254.208C159.557 254.27 159.605 254.325 159.663 254.368C160.303 254.881 162.106 254.873 163.209 254.789C162.263 254.129 161.17 253.71 160.025 253.567V253.567Z" fill="#263238"/>
<path d="M298.43 200.06L292.256 212.921C283.194 231.905 260.866 241.447 243.036 233.977C232.626 229.614 221.264 220.391 213.558 216.172C206.946 230.667 194.565 246.652 185.09 257.778L165.921 248.135C173.08 231.703 184.223 206.023 191.297 189.38C192.557 186.429 194.623 183.893 197.258 182.062C199.894 180.231 202.991 179.18 206.197 179.029C238.067 178.17 298.43 200.06 298.43 200.06Z" fill="#407BFF"/>
<path d="M278.637 66.936C275.041 65.7484 270.939 68.0309 270.888 76.0658C270.838 84.1007 278.14 88.4046 281.223 78.0198C283.076 71.7536 281.307 67.8035 278.637 66.936Z" fill="#E0E0E0"/>
<path d="M205.27 287.256L220.885 286.524L217.743 298.753L204.688 299.376L205.27 287.256Z" fill="#FFB573"/>
<path opacity="0.2" d="M205.279 287.256L220.894 286.524L219.133 293.379L204.95 294.053L205.279 287.256Z" fill="black"/>
<path d="M220.136 305.204H218.451C217.964 305.204 217.485 305.083 217.056 304.852C216.627 304.621 216.261 304.288 215.992 303.882L215.091 304.59C214.567 304.993 213.924 305.212 213.263 305.213H190.59C190.203 303.267 191.432 300.724 191.432 300.724C191.432 300.724 201.404 300.193 203.653 297.271C203.734 297.159 203.845 297.072 203.973 297.02C204.101 296.968 204.241 296.953 204.378 296.976C206.306 297.38 213.853 298.812 218.157 297.388C218.29 297.346 218.431 297.336 218.568 297.358C218.706 297.381 218.837 297.435 218.95 297.517C219.063 297.599 219.155 297.706 219.219 297.83C219.283 297.954 219.317 298.091 219.319 298.231C219.422 300.572 219.695 302.903 220.136 305.204V305.204Z" fill="#263238"/>
<path d="M204.116 297.768C204.068 297.77 204.02 297.755 203.982 297.725C203.864 297.65 201.143 295.814 200.899 294.424C200.872 294.29 200.873 294.152 200.902 294.019C200.931 293.885 200.987 293.759 201.067 293.649C201.153 293.51 201.281 293.402 201.433 293.34C201.584 293.278 201.751 293.265 201.91 293.304C202.954 293.573 204.15 296.066 204.344 297.515C204.349 297.561 204.34 297.608 204.319 297.65C204.298 297.692 204.266 297.727 204.226 297.751C204.192 297.767 204.154 297.773 204.116 297.768ZM201.716 293.75C201.66 293.756 201.607 293.775 201.56 293.806C201.513 293.837 201.474 293.878 201.446 293.927C201.404 293.988 201.376 294.057 201.363 294.129C201.35 294.202 201.352 294.277 201.371 294.348C201.514 295.19 202.87 296.327 203.763 296.993C203.409 295.645 202.466 293.935 201.8 293.767L201.716 293.75Z" fill="#263238"/>
<path d="M200.739 298.483C200.387 298.498 200.036 298.435 199.711 298.298C199.587 298.242 199.475 298.161 199.384 298.059C199.293 297.958 199.223 297.838 199.181 297.709C199.12 297.555 199.108 297.387 199.147 297.227C199.187 297.067 199.275 296.923 199.4 296.816C200.242 296.125 202.954 296.639 204.226 297.321C204.265 297.345 204.297 297.378 204.319 297.418C204.341 297.458 204.353 297.503 204.352 297.549C204.349 297.594 204.332 297.638 204.303 297.675C204.275 297.711 204.236 297.737 204.192 297.751C203.083 298.161 201.919 298.408 200.739 298.483ZM200.739 296.951C200.381 296.921 200.023 297.001 199.711 297.178C199.635 297.245 199.568 297.338 199.635 297.565C199.661 297.634 199.7 297.696 199.751 297.748C199.802 297.8 199.863 297.841 199.93 297.869C200.671 298.231 202.415 297.827 203.476 297.498C202.599 297.16 201.67 296.974 200.73 296.951H200.739Z" fill="#263238"/>
<path d="M307.357 194.964L307.256 208.55C307.096 228.586 290.108 246.45 269.827 247.983C257.985 248.825 241.983 249.129 232.769 248.943C231.43 262.975 227.042 279.508 222.662 291.485L202.718 290.095C202.196 273.09 201.429 248.977 200.789 232.983C200.536 226.75 204.402 220.619 210.348 217.688C240.206 202.966 307.357 194.964 307.357 194.964Z" fill="#407BFF"/>
<path opacity="0.1" d="M218.367 291.662C218.322 291.67 218.276 291.67 218.232 291.662C218.112 291.625 218.013 291.542 217.954 291.431C217.896 291.321 217.884 291.191 217.92 291.072C220.936 281.159 226.343 250.215 226.604 236.007C226.612 235.871 226.672 235.744 226.772 235.653C226.823 235.61 226.883 235.579 226.946 235.56C227.01 235.541 227.077 235.535 227.143 235.543C256.276 239.418 275.992 238.07 284.204 231.736C298.598 220.552 298.388 202.444 294.741 192.994C294.695 192.876 294.697 192.746 294.748 192.63C294.799 192.515 294.893 192.425 295.01 192.379C295.127 192.333 295.258 192.336 295.373 192.386C295.489 192.437 295.579 192.531 295.625 192.648C299.373 202.351 299.583 220.964 284.785 232.469C276.313 239.047 257.059 240.42 227.513 236.537C227.151 251.032 221.786 281.496 218.796 291.325C218.77 291.419 218.714 291.503 218.636 291.563C218.559 291.624 218.465 291.658 218.367 291.662Z" fill="black"/>
<path opacity="0.2" d="M212.783 217.839C209.361 224.698 205.395 231.271 200.924 237.497C201.025 240.302 201.134 243.275 201.244 246.366C208.302 235.223 212.791 217.822 212.791 217.822L212.783 217.839Z" fill="black"/>
<path d="M253.909 134.921L253.159 135.401L252.553 135.772L251.374 136.454C250.59 136.901 249.807 137.296 249.032 137.684C247.474 138.476 245.874 139.158 244.248 139.806C240.948 141.114 237.534 142.112 234.049 142.788C232.272 143.133 230.444 143.377 228.591 143.554C226.697 143.699 224.796 143.73 222.898 143.647C220.932 143.568 218.975 143.34 217.044 142.965C215.059 142.562 213.11 141.999 211.216 141.28L210.441 140.994C209.269 140.563 208.211 139.869 207.35 138.964C205.516 137.036 204.115 134.739 203.24 132.226C202.548 130.237 202.132 128.163 202.002 126.061C201.794 122.669 202.078 119.265 202.844 115.954C203.512 113.024 204.419 110.154 205.556 107.372C206.112 106.016 206.718 104.693 207.358 103.396L208.361 101.459C208.731 100.811 209.068 100.23 209.498 99.4969C210.113 98.461 211.052 97.6573 212.171 97.2107C213.29 96.764 214.525 96.6994 215.684 97.0269C216.843 97.3545 217.862 98.0557 218.581 99.0217C219.301 99.9878 219.681 101.164 219.663 102.369V103.211C219.663 103.725 219.579 104.407 219.546 105.014L219.402 106.892C219.301 108.138 219.242 109.418 219.183 110.614C219.124 111.81 219.099 113.057 219.091 114.236C219.082 115.415 219.091 116.586 219.167 117.698C219.222 119.659 219.525 121.606 220.068 123.492C220.222 124.041 220.479 124.556 220.826 125.008C221.062 125.252 221.171 125.135 221.045 124.857L217.179 122.54C219.079 122.884 221.015 122.983 222.94 122.835C223.994 122.758 225.044 122.618 226.081 122.414C227.151 122.229 228.246 122.001 229.349 121.698C230.452 121.395 231.556 121.041 232.676 120.671C233.796 120.3 234.908 119.828 236.045 119.39C237.182 118.953 238.26 118.422 239.363 117.917C239.902 117.664 240.441 117.394 240.955 117.133L241.713 116.746L242.067 116.569C242.143 116.527 242.32 116.426 242.261 116.476C244.707 114.932 247.666 114.422 250.488 115.059C253.31 115.697 255.763 117.429 257.307 119.875C258.852 122.321 259.362 125.28 258.724 128.102C258.087 130.924 256.355 133.377 253.909 134.921V134.921Z" fill="#FFB573"/>
<path d="M211.073 105.292L217.356 105.586C223.647 103.54 219.613 95.9091 219.613 95.9091L219.15 91.4621C219.012 90.6857 218.606 89.9823 218.003 89.4744C217.399 88.9665 216.637 88.6864 215.848 88.6828L211.46 88.4385C209.456 88.329 207.721 89.6682 207.62 91.4032L207.375 95.2943C207.307 96.4286 207.518 97.5623 207.99 98.5959L211.073 105.292Z" fill="#FFB573"/>
<path d="M264.462 107.246C261.809 103.691 253.209 104.525 248.24 110.143C246.185 110.059 238.134 117.344 231.968 118.902C225.803 120.46 221.356 127.914 223.074 132.117C226.25 139.874 228.406 143.588 234.141 144.211C239.877 144.835 247.423 141.12 253.513 136.564C259.602 132.007 269.145 113.554 264.462 107.246Z" fill="#E0E0E0"/>
<path d="M229.325 118.75C224.532 115.668 219.824 120.839 219.824 127.341C219.824 133.843 221.349 139.385 223.682 143.2C226.015 147.016 230.133 146.696 233.974 146.519C237.292 146.359 238.926 145.163 237.343 142.148C235.759 139.132 229.923 134.77 229.055 126.297C228.575 122.01 231.54 120.174 229.325 118.75Z" fill="#FAFAFA"/>
<path d="M228.094 179.012C227.066 180.074 226.325 184.184 228.414 190.34C229.854 194.611 235.522 192.48 235.522 192.48C235.522 192.48 236.516 200.22 243.574 201.879C255.205 204.608 299.077 203.875 306.531 198.089C283.151 197.845 228.094 179.012 228.094 179.012Z" fill="#FAFAFA"/>
<path d="M267.444 104.415C278.922 104.48 290.37 105.591 301.647 107.734C303.507 108.123 305.268 108.887 306.822 109.98C308.377 111.072 309.692 112.471 310.688 114.089C311.684 115.708 312.339 117.512 312.613 119.393C312.888 121.273 312.776 123.189 312.284 125.025C303.862 157.106 308.612 192.336 307.947 198.763C307.947 198.763 240.627 208.457 230.309 188.445C216.455 165.806 240.037 151.016 248.097 119.213C250.228 110.808 258.777 104.365 267.444 104.415Z" fill="#263238"/>
<path opacity="0.1" d="M267.444 104.415C278.922 104.48 290.37 105.591 301.647 107.734C303.507 108.123 305.268 108.887 306.822 109.98C308.377 111.072 309.692 112.471 310.688 114.089C311.684 115.708 312.339 117.512 312.613 119.393C312.888 121.273 312.776 123.189 312.284 125.025C303.862 157.106 308.612 192.336 307.947 198.763C307.947 198.763 240.627 208.457 230.309 188.445C216.455 165.806 240.037 151.016 248.097 119.213C250.228 110.808 258.777 104.365 267.444 104.415Z" fill="white"/>
<path opacity="0.4" d="M289.957 105.906L289.839 105.856L289.468 105.73L289.367 105.805C283.716 105.132 277.828 104.694 272.211 104.517C270.838 104.466 269.482 104.441 268.151 104.424C266.393 105.414 265.039 106.991 264.327 108.88C262.643 113.141 263.839 117.891 267.637 121.58L267.949 121.884L268.395 121.842C276.649 121.041 292.079 114.43 292.728 109.334C292.837 108.475 292.618 106.875 289.957 105.906Z" fill="#FAFAFA"/>
<path d="M313.885 129.447L314.5 130.626L315.047 131.704C315.409 132.42 315.729 133.136 316.066 133.852C316.732 135.275 317.321 136.715 317.919 138.164C319.065 141.061 320.134 144.001 321.027 147.016C321.49 148.515 321.869 150.031 322.324 151.564C322.779 153.097 323.057 154.646 323.377 156.221C324.043 159.397 324.527 162.609 324.826 165.84L324.91 166.682C325.027 167.926 324.877 169.181 324.472 170.363C323.827 172.212 322.845 173.926 321.574 175.416C320.496 176.682 319.232 177.778 317.827 178.667C315.714 179.985 313.393 180.936 310.962 181.48C307.318 182.284 303.577 182.568 299.853 182.322C296.553 182.13 293.27 181.696 290.033 181.025C288.449 180.714 286.891 180.326 285.342 179.914C283.792 179.501 282.309 179.071 280.676 178.465C279.494 178.045 278.491 177.234 277.834 176.165C277.178 175.097 276.907 173.836 277.066 172.592C277.225 171.348 277.806 170.196 278.711 169.328C279.616 168.459 280.791 167.927 282.04 167.819H282.36L286.571 167.465C288.011 167.364 289.435 167.221 290.841 167.078C292.248 166.935 293.646 166.775 295.01 166.598C296.375 166.421 297.706 166.21 298.994 165.958C301.269 165.592 303.492 164.953 305.614 164.054C306.389 163.675 306.936 163.212 306.886 163.119C306.835 163.027 306.684 163.119 306.423 163.338C306.101 163.653 305.843 164.028 305.665 164.442L305.311 168.939C304.679 166.48 304.014 164.021 303.205 161.536C302.809 160.298 302.363 159.009 301.917 157.813C301.47 156.617 301.074 155.287 300.552 154.082C299.575 151.606 298.607 149.113 297.554 146.645L295.971 142.965L294.438 139.503L294.244 139.048C293.118 136.467 293.035 133.549 294.013 130.908C294.99 128.267 296.953 126.106 299.488 124.88C302.024 123.653 304.935 123.456 307.613 124.33C310.291 125.203 312.526 127.079 313.851 129.565L313.885 129.447Z" fill="#FFB573"/>
<path d="M262.853 160.458H250.287C249.645 160.458 249.125 160.978 249.125 161.62V177.841C249.125 178.483 249.645 179.004 250.287 179.004H262.853C263.495 179.004 264.016 178.483 264.016 177.841V161.62C264.016 160.978 263.495 160.458 262.853 160.458Z" fill="#407BFF"/>
<path d="M262.853 164.055C263.617 164.025 264.38 164.15 265.095 164.423C265.81 164.695 266.462 165.108 267.014 165.639C267.565 166.169 268.003 166.806 268.303 167.509C268.602 168.213 268.757 168.97 268.757 169.735C268.757 170.5 268.602 171.258 268.303 171.961C268.003 172.665 267.565 173.302 267.014 173.832C266.462 174.362 265.81 174.776 265.095 175.048C264.38 175.321 263.617 175.446 262.853 175.416H262.777C262.013 175.446 261.25 175.321 260.535 175.048C259.82 174.776 259.168 174.362 258.617 173.832C258.065 173.302 257.627 172.665 257.327 171.961C257.028 171.258 256.873 170.5 256.873 169.735C256.873 168.97 257.028 168.213 257.327 167.509C257.627 166.806 258.065 166.169 258.617 165.639C259.168 165.108 259.82 164.695 260.535 164.423C261.25 164.15 262.013 164.025 262.777 164.055H262.878H262.853ZM262.878 162.37H262.777C261.786 162.337 260.797 162.503 259.872 162.859C258.946 163.216 258.101 163.755 257.388 164.444C256.674 165.134 256.107 165.96 255.72 166.873C255.332 167.787 255.133 168.769 255.133 169.761C255.133 170.753 255.332 171.735 255.72 172.648C256.107 173.562 256.674 174.388 257.388 175.077C258.101 175.767 258.946 176.306 259.872 176.662C260.797 177.018 261.786 177.185 262.777 177.151H262.878C263.87 177.185 264.858 177.018 265.784 176.662C266.71 176.306 267.554 175.767 268.268 175.077C268.981 174.388 269.548 173.562 269.936 172.648C270.323 171.735 270.523 170.753 270.523 169.761C270.523 168.769 270.323 167.787 269.936 166.873C269.548 165.96 268.981 165.134 268.268 164.444C267.554 163.755 266.71 163.216 265.784 162.859C264.858 162.503 263.87 162.337 262.878 162.37V162.37Z" fill="#407BFF"/>
<path d="M282.579 170.751L282.528 174.726C280.111 180.883 272.733 176.41 272.733 176.41L268.32 175.686C267.553 175.502 266.875 175.055 266.404 174.422C265.933 173.79 265.699 173.012 265.742 172.225V167.828C265.693 166.923 265.998 166.035 266.592 165.351C267.186 164.667 268.023 164.242 268.926 164.164H272.885C274.021 164.172 275.138 164.461 276.136 165.007L280.591 167.382C281.196 167.711 281.701 168.198 282.051 168.791C282.401 169.385 282.583 170.062 282.579 170.751V170.751Z" fill="#FFB573"/>
<path d="M304.266 111.061C308.629 110.218 314.373 116.678 314.255 124.183C315.821 125.505 318.533 136.53 322.003 141.87C325.473 147.209 323.688 155.682 319.611 157.611C312.031 161.174 307.921 162.454 303.272 159.034C298.623 155.615 293.283 147.656 292.508 140.101C291.413 129.025 296.526 112.518 304.266 111.061Z" fill="#E0E0E0"/>
<path d="M298.261 154.689C295.498 159.675 300.964 164.046 307.416 163.667C313.867 163.288 319.325 161.359 322.989 158.782C326.652 156.205 326.063 152.128 325.625 148.296C325.254 144.995 323.94 143.445 321.052 145.222C318.163 146.999 314.17 153.105 305.773 154.487C301.562 155.228 299.532 152.389 298.261 154.689Z" fill="#FAFAFA"/>
<path d="M266.298 108.5C267.315 106.801 268.876 105.495 270.729 104.795C271.506 103.089 271.673 101.168 271.2 99.3537L292.02 94.0981C289.957 100.752 288.34 106.007 290.647 109.435C286.487 111.642 278.856 115.592 270.855 114.876C262.854 114.16 264.825 111.254 266.298 108.5Z" fill="#FFB573"/>
<path opacity="0.2" d="M271.327 99.9937L286.706 100.036C281.602 104.862 274.215 106.344 271.032 104.062C271.471 102.752 271.573 101.353 271.327 99.9937V99.9937Z" fill="black"/>
<path d="M296.635 83.9324C293.671 93.2897 291.455 99.5728 284.937 102.209C271.991 107.431 266.711 100.609 266.82 90.5356C266.921 81.4647 271.756 67.6941 281.98 66.3297C284.248 66.0259 286.557 66.3025 288.689 67.1336C290.821 67.9647 292.707 69.3231 294.171 71.0818C295.636 72.8405 296.63 74.9419 297.061 77.1894C297.491 79.4369 297.345 81.7569 296.635 83.9324Z" fill="#FFB573"/>
<path d="M290.445 91.2938C286.596 89.6093 287.759 88.4386 287.759 88.4386C287.759 88.4386 290.875 84.9686 291.372 82.9472C291.869 80.9259 288.845 76.6052 289.915 74.3396C290.984 72.074 302.287 70.9707 307.079 76.7568C305.956 77.004 304.81 77.1282 303.66 77.1274C304.626 78.1925 305.249 79.5245 305.446 80.9491C305.642 82.3737 305.405 83.8246 304.763 85.1118C302.557 89.7694 294.547 93.1383 290.445 91.2938Z" fill="#E0E0E0"/>
<path d="M269.516 92.2704L279.463 92.422C279.463 92.422 278.056 94.8224 273.879 95.193C269.701 95.5636 269.516 92.2704 269.516 92.2704Z" fill="#263238"/>
<path d="M269.717 92.2704C270.029 92.9105 270.972 93.8707 273.827 93.618C275.385 93.5199 276.906 93.1073 278.3 92.4052C276.539 92.3884 273.01 92.3294 269.717 92.2704Z" fill="white"/>
<path opacity="0.2" d="M283.699 82.6518C284.867 82.4218 286.078 82.6641 287.068 83.3256C285.912 83.32 284.768 83.0912 283.699 82.6518Z" fill="black"/>
<path opacity="0.2" d="M283.589 83.4689C284.13 83.4771 284.662 83.6026 285.149 83.8367C285.636 84.0708 286.067 84.408 286.411 84.8249C285.385 84.5787 284.423 84.1164 283.589 83.4689V83.4689Z" fill="black"/>
<path opacity="0.2" d="M270.586 79.502C270.586 79.502 269.937 78.4492 269.272 78.8704C269.439 79.0568 269.641 79.2086 269.866 79.317C270.091 79.4254 270.336 79.4883 270.586 79.502V79.502Z" fill="black"/>
<path opacity="0.2" d="M270.357 80.2354C270.357 80.2354 269.844 79.2921 269.305 80.0333C269.436 80.1741 269.609 80.2696 269.798 80.3059C269.987 80.3423 270.183 80.3176 270.357 80.2354V80.2354Z" fill="black"/>
<path opacity="0.2" d="M275.756 71.4166C278.661 71.4423 281.543 71.9255 284.297 72.8484C281.425 72.5321 278.574 72.054 275.756 71.4166V71.4166Z" fill="black"/>
<path opacity="0.2" d="M274.417 72.7307C274.417 72.7307 281.004 73.4719 284.044 75.4511C280.758 74.8435 277.536 73.9328 274.417 72.7307Z" fill="black"/>
<path d="M297.874 93.7699C297.106 94.7138 296.159 95.4971 295.088 96.0752C294.017 96.6532 292.843 97.0147 291.633 97.1388C288.373 97.4505 287.295 94.3931 288.659 91.6222C289.881 89.0955 293.056 85.954 296.096 86.9309C299.137 87.9079 299.743 91.4032 297.874 93.7699Z" fill="#FFB573"/>
<path d="M281.054 82.5177C280.861 83.2926 280.296 83.8148 279.791 83.6884C279.286 83.5621 279.033 82.8462 279.227 82.0461C279.421 81.246 279.985 80.749 280.49 80.8838C280.995 81.0186 281.248 81.7513 281.054 82.5177Z" fill="#263238"/>
<path d="M272.825 80.5722C272.632 81.347 272.067 81.8692 271.562 81.7344C271.057 81.5997 270.804 80.8922 270.998 80.1005C271.192 79.3088 271.756 78.8035 272.261 78.9382C272.766 79.073 273.019 79.7973 272.825 80.5722Z" fill="#263238"/>
<path d="M275.336 81.8609L273.727 88.3714C273.727 88.3714 271.099 88.3714 269.912 86.8638C271.613 83.7222 275.336 81.8609 275.336 81.8609Z" fill="#ED893E"/>
<path d="M284.247 80.6227C284.321 80.6431 284.4 80.6431 284.474 80.6227C284.531 80.5997 284.584 80.5653 284.628 80.5217C284.672 80.4781 284.707 80.4261 284.73 80.3687C284.754 80.3114 284.766 80.2499 284.765 80.1879C284.764 80.126 284.751 80.0647 284.727 80.0079C284.453 79.3128 284.017 78.6928 283.456 78.1993C282.895 77.7057 282.225 77.3528 281.501 77.1695C281.438 77.1543 281.373 77.152 281.31 77.1628C281.247 77.1736 281.186 77.1972 281.132 77.2322C281.078 77.2672 281.032 77.3129 280.997 77.3664C280.961 77.4199 280.937 77.4802 280.925 77.5434C280.914 77.6067 280.915 77.6716 280.93 77.7342C280.944 77.7969 280.971 77.8559 281.009 77.9076C281.048 77.9594 281.096 78.0028 281.151 78.0352C281.207 78.0676 281.269 78.0883 281.332 78.096V78.096C281.902 78.2516 282.427 78.5382 282.866 78.9331C283.304 79.328 283.645 79.8201 283.859 80.37C283.896 80.4424 283.951 80.5039 284.019 80.5482C284.087 80.5925 284.165 80.6182 284.247 80.6227V80.6227Z" fill="#E0E0E0"/>
<path d="M268.96 77.1103C269.035 77.1286 269.113 77.1282 269.188 77.1091C269.263 77.09 269.332 77.0528 269.389 77.0008C269.806 76.5871 270.315 76.2776 270.874 76.0976C271.433 75.9176 272.027 75.8721 272.607 75.9648C272.666 75.9798 272.727 75.9826 272.788 75.9732C272.848 75.9638 272.906 75.9424 272.958 75.9102C273.01 75.8779 273.055 75.8356 273.09 75.7857C273.125 75.7357 273.15 75.6792 273.162 75.6195C273.19 75.499 273.17 75.3722 273.105 75.2667C273.041 75.1611 272.937 75.0852 272.817 75.0552C272.088 74.9232 271.338 74.9683 270.63 75.1867C269.922 75.4051 269.277 75.7904 268.749 76.3101C268.661 76.3985 268.612 76.5181 268.612 76.6428C268.612 76.7675 268.661 76.8871 268.749 76.9755C268.806 77.0382 268.879 77.0847 268.96 77.1103V77.1103Z" fill="#E0E0E0"/>
<path d="M218.931 106.075C223.521 103.228 223.05 98.3936 223.858 94.5446C224.001 93.8876 222.502 92.9275 221.618 93.7529C221.033 94.2155 220.546 94.7907 220.188 95.4446C219.829 96.0985 219.605 96.8178 219.529 97.5598C217.845 97.8125 213.558 100.137 214.231 104.862C215.597 105.827 217.269 106.259 218.931 106.075V106.075Z" fill="#FFB573"/>
<path d="M272.817 89.3736C272.817 89.3736 272.362 91.058 273.701 91.4202C275.041 91.7824 278.511 89.8452 281.366 91.6981C280.364 90.2832 277.222 88.2618 272.817 89.3736Z" fill="#E0E0E0"/>
<path d="M271.377 89.0951C271.377 89.0951 271.15 90.6533 269.979 90.7796C268.808 90.9059 266.779 88.8088 263.915 90.1479C264.923 89.2685 266.165 88.7009 267.49 88.514C268.815 88.3271 270.165 88.529 271.377 89.0951V89.0951Z" fill="#E0E0E0"/>
<path d="M268.303 120.898C279.252 119.828 298.211 109.949 289.637 106.799C284.238 111.086 275.167 112.796 270.897 112.804C269.314 111.28 268.817 107.026 270.729 104.795C266.257 104.416 260.639 113.444 268.303 120.898Z" fill="#FAFAFA"/>
<path d="M270.896 112.805C274.872 110.067 287.463 103.422 290.992 103.481C291.407 104.847 291.473 106.294 291.186 107.692C291.186 107.692 286.537 112.779 270.896 112.805Z" fill="#E0E0E0"/>
<path d="M270.897 112.804C270.897 112.804 271.512 104.222 270.737 102.411C270.085 102.665 269.51 103.083 269.067 103.624C268.624 104.166 268.329 104.813 268.21 105.502C268.21 105.502 269.035 111.49 270.897 112.804Z" fill="#E0E0E0"/>
<path d="M300.762 74.087C295.06 74.7693 278.165 73.1774 272.64 66.8101C267.115 60.4428 271.141 56.1222 277.053 59.8027C277.053 59.8027 273.128 54.463 279.437 55.8021C285.391 57.0655 292.441 67.4081 301.394 66.9702C309.016 66.5912 306.397 73.4385 300.762 74.087Z" fill="#E0E0E0"/>
<path d="M298.101 96.9705C295.448 99.1182 291.953 99.194 290.293 97.1473C288.634 95.1007 289.451 91.6981 292.087 89.5672C294.724 87.4363 298.236 87.3437 299.895 89.3903C301.554 91.437 300.746 94.8228 298.101 96.9705Z" fill="#263238"/>
<path d="M276.136 100.255C275.833 100.14 275.568 99.9426 275.372 99.6848C275.175 99.427 275.055 99.1193 275.024 98.7966C274.994 98.4739 275.054 98.1492 275.199 97.8591C275.344 97.5691 275.567 97.3253 275.843 97.1555C276.119 96.9857 276.437 96.8966 276.761 96.8983C277.085 96.9001 277.402 96.9926 277.676 97.1653C277.951 97.3381 278.171 97.5842 278.313 97.8758C278.454 98.1674 278.511 98.4928 278.477 98.8151C278.351 99.3128 278.036 99.7418 277.599 100.011C277.162 100.28 276.637 100.367 276.136 100.255V100.255Z" fill="#263238"/>
<path d="M297.924 91.3269C297.777 91.3259 297.632 91.2912 297.501 91.2255C297.369 91.1598 297.255 91.0648 297.166 90.9478C297.09 90.8494 297.035 90.7371 297.003 90.6174C296.972 90.4977 296.964 90.3728 296.98 90.2501C296.997 90.1273 297.037 90.0089 297.099 89.9018C297.161 89.7946 297.244 89.7007 297.342 89.6255C299.473 88 300.77 83.9573 300.585 79.5187C300.467 76.7056 299.482 69.7067 293.005 65.5713C292.9 65.5049 292.809 65.4185 292.737 65.317C292.666 65.2155 292.615 65.1008 292.587 64.9796C292.56 64.8584 292.557 64.733 292.578 64.6105C292.599 64.488 292.644 64.3709 292.71 64.2658C292.777 64.1608 292.863 64.0698 292.964 63.9981C293.066 63.9264 293.181 63.8754 293.302 63.8481C293.423 63.8207 293.549 63.8175 293.671 63.8386C293.793 63.8597 293.911 63.9047 294.016 63.971C299.12 67.2221 302.211 72.8651 302.489 79.4429C302.699 84.4963 301.141 89.0781 298.505 91.091C298.344 91.2342 298.139 91.3175 297.924 91.3269V91.3269Z" fill="#263238"/>
<path d="M280.827 100.255C279.444 100.253 278.063 100.16 276.692 99.9771C276.63 99.9698 276.57 99.9503 276.515 99.9195C276.461 99.8888 276.413 99.8476 276.374 99.7982C276.336 99.7488 276.308 99.6923 276.291 99.6319C276.275 99.5715 276.271 99.5085 276.279 99.4465C276.298 99.3235 276.364 99.2126 276.463 99.1371C276.562 99.0617 276.686 99.0277 276.81 99.0422C286.916 100.365 292.955 96.2123 293.014 96.1702C293.117 96.0976 293.244 96.0688 293.368 96.0901C293.492 96.1114 293.603 96.1811 293.675 96.2839C293.748 96.3866 293.777 96.514 293.755 96.638C293.734 96.762 293.664 96.8725 293.562 96.945C293.343 97.1051 288.778 100.255 280.827 100.255Z" fill="#263238"/>
<path d="M251.606 172.61L251.403 171.63C251.734 171.588 252.023 171.537 252.271 171.476C252.518 171.42 252.726 171.341 252.894 171.238C253.062 171.135 253.188 170.995 253.272 170.818C253.356 170.636 253.398 170.403 253.398 170.118C253.398 169.843 253.356 169.623 253.272 169.46C253.188 169.297 253.076 169.215 252.936 169.215C252.838 169.215 252.756 169.25 252.691 169.32C252.625 169.385 252.576 169.465 252.544 169.558C252.516 169.647 252.502 169.726 252.502 169.796C252.502 169.838 252.513 169.882 252.537 169.929C252.56 169.976 252.611 170.015 252.691 170.048C252.77 170.081 252.894 170.099 253.062 170.104C253.234 170.109 253.468 170.092 253.762 170.055H254.938C255.115 170.055 255.241 170.102 255.316 170.195C255.395 170.284 255.435 170.396 255.435 170.531C255.435 170.676 255.386 170.797 255.288 170.895C255.19 170.988 255.05 171.035 254.868 171.035H252.943C252.649 171.035 252.397 171 252.187 170.93C251.977 170.86 251.816 170.748 251.704 170.594C251.592 170.435 251.536 170.225 251.536 169.964C251.536 169.754 251.571 169.544 251.641 169.334C251.715 169.124 251.818 168.933 251.949 168.76C252.079 168.583 252.231 168.443 252.404 168.34C252.581 168.233 252.772 168.179 252.978 168.179C253.258 168.179 253.503 168.265 253.713 168.438C253.923 168.611 254.086 168.839 254.203 169.124C254.324 169.409 254.385 169.719 254.385 170.055C254.385 170.582 254.273 171.03 254.049 171.399C253.825 171.768 253.505 172.052 253.09 172.253C252.674 172.458 252.18 172.577 251.606 172.61ZM254.877 171.035L254.947 170.055C255.227 170.055 255.442 170.041 255.591 170.013C255.741 169.985 255.843 169.934 255.899 169.859C255.96 169.78 255.99 169.668 255.99 169.523C255.99 169.392 255.972 169.236 255.934 169.054C255.902 168.872 255.857 168.683 255.801 168.487C255.75 168.291 255.694 168.111 255.633 167.948L256.599 167.682C256.66 167.841 256.718 168.025 256.774 168.235C256.83 168.445 256.877 168.662 256.914 168.886C256.952 169.105 256.97 169.318 256.97 169.523C256.97 169.84 256.919 170.099 256.816 170.3C256.714 170.496 256.569 170.648 256.382 170.755C256.2 170.862 255.981 170.937 255.724 170.979C255.468 171.016 255.185 171.035 254.877 171.035ZM256.774 167.115C256.639 167.115 256.522 167.068 256.424 166.975C256.331 166.877 256.284 166.763 256.284 166.632C256.284 166.497 256.331 166.38 256.424 166.282C256.522 166.184 256.639 166.135 256.774 166.135C256.905 166.135 257.017 166.184 257.11 166.282C257.204 166.38 257.25 166.497 257.25 166.632C257.25 166.763 257.204 166.877 257.11 166.975C257.017 167.068 256.905 167.115 256.774 167.115ZM255.563 167.108C255.428 167.108 255.311 167.061 255.213 166.968C255.12 166.87 255.073 166.756 255.073 166.625C255.073 166.49 255.12 166.373 255.213 166.275C255.311 166.177 255.428 166.128 255.563 166.128C255.694 166.128 255.806 166.177 255.899 166.275C255.993 166.373 256.039 166.49 256.039 166.625C256.039 166.756 255.993 166.87 255.899 166.968C255.806 167.061 255.694 167.108 255.563 167.108ZM257.792 172.61L257.589 171.63C257.92 171.588 258.21 171.537 258.457 171.476C258.704 171.42 258.912 171.341 259.08 171.238C259.248 171.135 259.374 170.995 259.458 170.818C259.542 170.636 259.584 170.403 259.584 170.118C259.584 170.015 259.575 169.913 259.556 169.81C259.537 169.703 259.509 169.605 259.472 169.516C259.435 169.427 259.386 169.355 259.325 169.299C259.269 169.243 259.201 169.215 259.122 169.215C259.038 169.215 258.963 169.245 258.898 169.306C258.833 169.362 258.781 169.434 258.744 169.523C258.707 169.607 258.688 169.693 258.688 169.782C258.688 169.847 258.704 169.903 258.737 169.95C258.77 169.992 258.819 170.025 258.884 170.048C258.949 170.067 259.031 170.076 259.129 170.076C259.241 170.076 259.355 170.064 259.472 170.041C259.593 170.013 259.703 169.976 259.801 169.929L259.829 170.692C259.717 170.781 259.589 170.86 259.444 170.93C259.299 170.995 259.124 171.028 258.919 171.028C258.751 171.028 258.595 171.009 258.45 170.972C258.305 170.93 258.177 170.867 258.065 170.783C257.958 170.699 257.874 170.592 257.813 170.461C257.752 170.326 257.722 170.165 257.722 169.978C257.722 169.749 257.759 169.528 257.834 169.313C257.909 169.098 258.011 168.907 258.142 168.739C258.277 168.566 258.431 168.431 258.604 168.333C258.781 168.23 258.968 168.179 259.164 168.179C259.397 168.179 259.6 168.237 259.773 168.354C259.95 168.471 260.097 168.625 260.214 168.816C260.331 169.003 260.419 169.206 260.48 169.425C260.541 169.644 260.571 169.854 260.571 170.055C260.571 170.582 260.459 171.03 260.235 171.399C260.011 171.768 259.691 172.052 259.276 172.253C258.861 172.458 258.366 172.577 257.792 172.61ZM261.439 171L261.292 165.876H262.272L262.419 171H261.439Z" fill="white"/>
<path d="M330.864 178.006H89.6982V184.567H330.864V178.006Z" fill="#407BFF"/>
<path opacity="0.5" d="M330.864 178.006H89.6982V184.567H330.864V178.006Z" fill="white"/>
<path opacity="0.5" d="M330.864 178.006H275.95V184.567H330.864V178.006Z" fill="white"/>
<path d="M274.982 184.559H275.942V177.998H274.982V184.559Z" fill="white"/>
<path d="M326.762 184.567L334.039 306.717H331.15L322.416 188.93H284.389L275.663 306.717H272.774L280.043 184.567H326.762Z" fill="#407BFF"/>
<path opacity="0.5" d="M326.762 184.567L334.039 306.717H331.15L322.416 188.93H284.389L275.663 306.717H272.774L280.043 184.567H326.762Z" fill="white"/>
<path d="M140.712 184.567L147.989 306.717H145.1L136.375 188.93H98.3395L89.614 306.717H86.7251L94.002 184.567H140.712Z" fill="#407BFF"/>
<path opacity="0.2" d="M140.712 184.567L147.989 306.717H145.1L136.375 188.93H98.3395L89.614 306.717H86.7251L94.002 184.567H140.712Z" fill="white"/>
<path d="M198.733 161.01H109.911L101.851 107.132H190.682L198.733 161.01Z" fill="#407BFF"/>
<path opacity="0.3" d="M149.286 161.01H161.507L158.584 136.181L154.811 146.642L149.286 161.01Z" fill="black"/>
<path opacity="0.3" d="M198.734 161.01H197.715L189.663 107.132H190.682L198.734 161.01Z" fill="black"/>
<path d="M166.518 175.724H142.346V178.006H168.607L166.518 175.724Z" fill="#407BFF"/>
<path opacity="0.3" d="M166.518 175.724H142.346V178.006H168.607L166.518 175.724Z" fill="black"/>
<path d="M145.479 145.092L145.142 147.577H144.132C143.631 147.578 143.146 147.756 142.764 148.079C142.382 148.403 142.126 148.851 142.043 149.345L139.962 162.038C139.912 162.34 139.929 162.65 140.01 162.945C140.092 163.24 140.236 163.514 140.434 163.748C140.632 163.982 140.878 164.17 141.156 164.3C141.434 164.429 141.736 164.496 142.043 164.497H142.885V165.516H137.284V145.092H145.479Z" fill="#407BFF"/>
<path opacity="0.3" d="M145.479 145.092L145.142 147.577H144.132C143.631 147.578 143.146 147.756 142.764 148.079C142.382 148.403 142.126 148.851 142.043 149.345L139.962 162.038C139.912 162.34 139.929 162.65 140.01 162.945C140.092 163.24 140.236 163.514 140.434 163.748C140.632 163.982 140.878 164.17 141.156 164.3C141.434 164.429 141.736 164.496 142.043 164.497H142.885V165.516H137.284V145.092H145.479Z" fill="black"/>
<path d="M137.284 134.075L130.066 178.006H152.36L159.578 134.075H137.284ZM149.64 150.036L147.551 162.72C147.471 163.215 147.218 163.665 146.837 163.99C146.456 164.316 145.972 164.495 145.471 164.497H141.167C140.86 164.496 140.558 164.429 140.28 164.299C140.001 164.17 139.755 163.982 139.556 163.748C139.358 163.515 139.212 163.241 139.13 162.945C139.047 162.65 139.03 162.34 139.078 162.038L141.167 149.345C141.249 148.85 141.504 148.401 141.887 148.077C142.269 147.753 142.754 147.576 143.256 147.576H147.551C147.86 147.572 148.167 147.636 148.449 147.763C148.731 147.89 148.981 148.078 149.183 148.312C149.384 148.547 149.532 148.823 149.615 149.12C149.699 149.418 149.716 149.731 149.665 150.036H149.64Z" fill="#407BFF"/>
<path opacity="0.3" d="M152.386 178.006L151.308 177.863L158.5 134.075H159.604L152.386 178.006Z" fill="black"/>
<path opacity="0.3" d="M149.328 123.295H148.04L146.364 112.093H147.652L149.328 123.295Z" fill="black"/>
<path opacity="0.3" d="M151.728 123.295H150.431L148.764 112.093H150.052L151.728 123.295Z" fill="black"/>
<path opacity="0.3" d="M154.129 123.295H152.832L151.156 112.093H152.453L154.129 123.295Z" fill="black"/>
<path opacity="0.3" d="M156.529 123.295H155.232L153.556 112.093H154.853L156.529 123.295Z" fill="black"/>
<path opacity="0.3" d="M158.921 123.295H157.633L155.957 112.093H157.254L158.921 123.295Z" fill="black"/>
<path opacity="0.3" d="M146.928 123.295H145.639L143.963 112.093H145.252L146.928 123.295Z" fill="black"/>
<path opacity="0.3" d="M144.527 123.295H143.239L141.562 112.093H142.86L144.527 123.295Z" fill="black"/>
<path opacity="0.3" d="M142.127 123.295H140.839L139.163 112.093H140.46L142.127 123.295Z" fill="black"/>
<path opacity="0.3" d="M139.735 123.295H138.438L136.762 112.093H138.059L139.735 123.295Z" fill="black"/>
</svg>
