<svg width="303" height="344" viewBox="0 0 303 344" fill="none" xmlns="http://www.w3.org/2000/svg">
<path d="M80.6488 331.363C61.8681 330.984 36.6568 330.628 24.7251 335.713C11.9372 341.158 74.1233 343.291 83.7519 343.533C112.718 344.276 141.873 343.98 170.938 343.683C203.429 343.351 235.964 343.018 268.249 341.923C277.116 341.622 307.807 340.506 298.137 336.064C296.309 335.223 293.365 334.631 290.327 334.154C280.918 332.675 270.11 332.104 259.455 331.701C233.497 330.72 206.55 329.721 180.351 330.072C152.164 330.451 124.184 331.987 95.8864 331.649C91.1831 331.597 86.0184 331.472 80.6488 331.363Z" fill="#F6F2FF"/>
<path d="M281.626 236.253C281.506 236.462 281.389 236.676 281.269 236.879L281.166 237.06C281.033 237.294 280.899 237.525 280.763 237.765L280.745 237.797C280.603 238.051 280.449 238.306 280.3 238.559C280.115 238.872 279.927 239.185 279.735 239.497C279.543 239.808 279.358 240.121 279.17 240.432C278.793 241.053 278.408 241.671 278.013 242.286C277.817 242.594 277.619 242.902 277.421 243.207C277.224 243.512 277.023 243.819 276.822 244.124C276.622 244.428 276.419 244.732 276.215 245.035C276.036 245.303 275.855 245.57 275.671 245.837L275.565 245.994C275.371 246.276 275.175 246.558 274.978 246.84C274.773 247.136 274.567 247.429 274.358 247.723C274.352 247.73 274.346 247.738 274.341 247.747C274.164 247.995 273.988 248.245 273.807 248.491C273.736 248.592 273.664 248.692 273.591 248.792C273.497 248.927 273.398 249.062 273.294 249.198C273.161 249.386 273.024 249.572 272.885 249.755C272.792 249.882 272.7 250.007 272.602 250.133C272.474 250.306 272.344 250.478 272.214 250.652L271.885 251.088L271.615 251.44L271.098 252.111L271.025 252.206C270.836 252.446 270.648 252.685 270.46 252.925C270.392 253.011 270.318 253.097 270.255 253.185C270.092 253.388 269.93 253.592 269.766 253.795L269.523 254.096C269.372 254.283 269.222 254.469 269.07 254.66L268.889 254.88C268.696 255.117 268.501 255.352 268.303 255.585C268.073 255.867 267.84 256.141 267.605 256.416L267.508 256.531C267.299 256.775 267.091 257.019 266.881 257.263C266.583 257.607 266.283 257.947 265.981 258.288C265.548 258.782 265.109 259.271 264.665 259.756L264.638 259.786C264.148 260.323 263.649 260.855 263.153 261.384C263.097 261.445 263.039 261.505 262.981 261.564C262.783 261.773 262.585 261.981 262.385 262.188C262.128 262.457 261.868 262.724 261.608 262.989C261.579 263.017 261.552 263.045 261.522 263.075L261.088 263.515L260.728 263.877C260.497 264.109 260.265 264.338 260.031 264.568C259.277 265.311 258.511 266.045 257.733 266.771L257.621 266.875L257.601 266.894C256.167 268.23 254.696 269.536 253.189 270.811C252.97 270.999 252.748 271.185 252.525 271.368L252.435 271.443C251.983 271.821 251.524 272.195 251.065 272.571L250.887 272.712L250.767 272.81L250.421 273.092L249.887 273.515L249.864 273.532L249.48 273.834C249.312 273.965 249.145 274.096 248.976 274.224C248.834 274.34 248.679 274.456 248.529 274.57L248.068 274.92L248.051 274.934C247.811 275.116 247.572 275.296 247.33 275.475L247.151 275.609C246.97 275.75 246.785 275.881 246.602 276.017L246.226 276.29C245.917 276.516 245.606 276.741 245.294 276.966L245.131 277.083L244.635 277.433C244.541 277.499 244.448 277.574 244.353 277.633C244.117 277.799 243.88 277.966 243.647 278.129L243.41 278.291C243.092 278.511 242.773 278.729 242.452 278.944C242.178 279.131 241.904 279.314 241.627 279.497L241.486 279.59C241.193 279.785 240.898 279.978 240.603 280.17L240.387 280.311C240.105 280.496 239.815 280.679 239.528 280.861C239.242 281.043 238.924 281.243 238.62 281.425C238.566 281.459 238.511 281.491 238.459 281.527C238.195 281.69 237.931 281.852 237.667 282.013L237.477 282.13C237.167 282.319 236.856 282.505 236.545 282.694C236.501 282.721 236.458 282.745 236.415 282.772C235.801 283.138 235.182 283.499 234.558 283.856L234.432 283.928L233.726 284.33L233.391 284.518C233.068 284.698 232.744 284.878 232.418 285.056C232.123 285.219 231.828 285.378 231.53 285.537L231.28 285.678L230.42 286.134C230.006 286.351 229.591 286.566 229.173 286.78C228.839 286.95 228.503 287.121 228.167 287.289C155.232 323.799 90.2439 299.84 50.543 258.362C33.7694 240.839 21.5084 220.189 15.0693 199.653C15.0693 199.653 14.8165 198.77 14.4436 197.162C14.0919 195.652 13.6343 193.496 13.1852 190.841C13.1626 190.709 13.1386 190.573 13.1174 190.438C12.9639 189.515 12.8132 188.535 12.6654 187.499C12.6428 187.35 12.623 187.199 12.6004 187.046C12.5736 186.845 12.5454 186.64 12.5185 186.433C12.4973 186.268 12.4762 186.104 12.4536 185.937C12.431 185.769 12.4084 185.58 12.3858 185.399C12.342 185.038 12.2968 184.672 12.2544 184.302C12.2318 184.115 12.2106 183.928 12.1909 183.738C12.1711 183.548 12.1485 183.36 12.1287 183.174C12.1089 182.988 12.0877 182.792 12.0694 182.597L12.0101 182.015C11.9917 181.819 11.9719 181.621 11.955 181.424C11.938 181.226 11.9183 181.026 11.8999 180.826C11.8815 180.626 11.866 180.424 11.8491 180.221C11.8321 180.018 11.8166 179.815 11.7996 179.609C11.7996 179.585 11.7996 179.561 11.7996 179.538C11.7728 179.183 11.7459 178.823 11.7219 178.459C11.6617 177.593 11.6104 176.708 11.568 175.805C11.5581 175.588 11.5482 175.37 11.5397 175.151C11.4832 173.835 11.4498 172.486 11.4395 171.105C11.4395 170.876 11.4395 170.647 11.4395 170.417C11.4395 169.21 11.4573 167.985 11.4931 166.742C11.4931 166.533 11.5073 166.318 11.5143 166.117C11.5482 165.165 11.5953 164.204 11.6556 163.231L11.7022 162.518C11.7029 162.51 11.7029 162.503 11.7022 162.495C11.7191 162.257 11.7361 162.019 11.7558 161.779C11.7742 161.531 11.7954 161.284 11.8152 161.036C11.8604 160.499 11.9102 159.958 11.9649 159.414C11.9846 159.207 12.0072 158.991 12.0298 158.789C12.0524 158.587 12.0778 158.338 12.1047 158.112C12.1372 157.83 12.1697 157.535 12.2064 157.245C12.2205 157.128 12.2346 157.014 12.2502 156.899C12.2516 156.876 12.2544 156.852 12.2586 156.829L12.3053 156.459C12.3632 156.021 12.4239 155.581 12.4889 155.137C12.5086 154.987 12.5312 154.839 12.5538 154.688C12.5694 154.584 12.5849 154.481 12.6018 154.376L12.623 154.235C12.6237 154.233 12.6237 154.23 12.623 154.227C12.6583 153.998 12.6937 153.77 12.7318 153.539C12.9013 152.492 13.0896 151.441 13.2968 150.384C13.3457 150.136 13.3961 149.889 13.4479 149.642C13.5086 149.353 13.5693 149.064 13.6343 148.775C13.6753 148.576 13.7191 148.38 13.7642 148.183C13.8335 147.872 13.9055 147.562 13.9789 147.249C14.0199 147.076 14.0623 146.901 14.1046 146.727C14.2977 145.93 14.5043 145.131 14.7247 144.33C14.7784 144.134 14.8334 143.938 14.8885 143.745C14.9507 143.523 15.0156 143.302 15.0792 143.082C15.0814 143.071 15.0847 143.061 15.0891 143.051C15.1526 142.832 15.2162 142.615 15.2826 142.396C15.349 142.178 15.4238 141.946 15.4888 141.724C15.5538 141.501 15.63 141.274 15.7021 141.05C15.7642 140.855 15.8278 140.66 15.8927 140.464L15.9478 140.296L16.0241 140.071C16.0763 139.911 16.1314 139.751 16.1865 139.591C16.2543 139.392 16.3235 139.193 16.3941 138.995C16.4421 138.854 16.4916 138.721 16.5354 138.586L16.6851 138.175C16.7317 138.046 16.7797 137.916 16.8263 137.785C16.904 137.575 16.9845 137.362 17.065 137.153C17.1257 136.989 17.1879 136.829 17.2529 136.666C17.2684 136.624 17.2853 136.582 17.3023 136.538L17.4082 136.272C17.4788 136.09 17.5495 135.909 17.6257 135.729L17.6497 135.669C17.7472 135.43 17.8461 135.188 17.9478 134.95C18.0155 134.785 18.089 134.619 18.1582 134.454C18.2077 134.337 18.2585 134.218 18.3093 134.101C18.4266 133.83 18.5466 133.561 18.6667 133.292C18.7542 133.096 18.8432 132.898 18.935 132.704C19.0268 132.509 19.1328 132.272 19.2359 132.058C19.2952 131.931 19.3545 131.804 19.4166 131.678C19.4336 131.64 19.452 131.602 19.4703 131.566C19.5395 131.425 19.6116 131.275 19.6808 131.133C19.6963 131.099 19.7133 131.065 19.7302 131.031C19.8376 130.811 19.9463 130.594 20.0565 130.374C20.0642 130.362 20.0708 130.349 20.0762 130.336C20.089 130.313 20.1003 130.289 20.1116 130.265C20.2132 130.068 20.3135 129.872 20.4166 129.674L20.4816 129.549C20.6059 129.31 20.7321 129.072 20.8601 128.835C20.9948 128.586 21.1303 128.337 21.2669 128.089C21.378 127.887 21.491 127.685 21.6059 127.484C21.716 127.29 21.8262 127.095 21.9406 126.902L21.9886 126.817C22.0833 126.655 22.1779 126.493 22.2711 126.332C22.2881 126.301 22.3064 126.27 22.3248 126.24C22.5564 125.851 22.7918 125.464 23.031 125.08C23.1515 124.883 23.2739 124.689 23.3982 124.496C23.4002 124.491 23.403 124.486 23.4067 124.482C23.5324 124.283 23.6595 124.087 23.7908 123.888C23.9067 123.71 24.0239 123.533 24.1425 123.355C24.1694 123.317 24.1948 123.276 24.223 123.238C24.3219 123.087 24.4236 122.936 24.5267 122.785L24.6609 122.591C24.7696 122.433 24.8784 122.278 24.9871 122.124C25.0959 121.97 25.2032 121.815 25.312 121.661C25.3713 121.578 25.4334 121.493 25.4942 121.41C25.6015 121.259 25.7117 121.108 25.8218 120.959C25.948 120.788 26.0751 120.617 26.2032 120.446C26.2286 120.41 26.2555 120.377 26.2795 120.343C26.4066 120.173 26.5365 120.004 26.6651 119.835C26.8929 119.541 27.1222 119.248 27.3529 118.958C27.5054 118.77 27.6594 118.578 27.8147 118.384L27.9164 118.26C27.9871 118.172 28.0577 118.083 28.134 117.996C28.2921 117.808 28.4517 117.62 28.6127 117.432C28.7328 117.291 28.8543 117.15 28.9757 117.009C28.987 116.996 28.9983 116.985 29.0068 116.974C29.148 116.804 29.2978 116.637 29.4461 116.47C29.5746 116.329 29.7017 116.188 29.8316 116.039C29.9051 115.957 29.9729 115.875 30.052 115.793L30.439 115.37C30.5421 115.257 30.6466 115.145 30.7525 115.035C30.8584 114.925 30.9375 114.836 31.035 114.737C31.1762 114.586 31.3175 114.437 31.4672 114.286C31.5929 114.156 31.7186 114.026 31.8457 113.899C31.946 113.795 32.0449 113.695 32.148 113.593C32.2723 113.466 32.3994 113.339 32.5279 113.215C32.6564 113.091 32.768 112.98 32.8881 112.863C33.0081 112.746 33.1211 112.636 33.2383 112.523C33.5123 112.261 33.7892 112 34.0688 111.742L34.3329 111.496L34.3682 111.465C34.4954 111.351 34.6211 111.235 34.7496 111.121L35.0575 110.839C35.1027 110.798 35.1479 110.757 35.1987 110.718L35.5165 110.436L35.9176 110.089C36.8282 109.306 37.7726 108.539 38.7509 107.789L38.7749 107.769C39.0574 107.552 39.3399 107.337 39.6224 107.124L40.0545 106.806C40.4783 106.49 40.9203 106.18 41.361 105.871C41.3679 105.868 41.3741 105.864 41.3794 105.859L41.8285 105.549C42.1209 105.349 42.4175 105.149 42.7155 104.951L42.7409 104.934L43.207 104.627C43.6778 104.32 44.1538 104.017 44.6349 103.717L45.5756 103.145C45.7507 103.039 45.9273 102.936 46.1052 102.83L46.6024 102.541L47.06 102.277C47.5807 101.981 48.108 101.689 48.6419 101.402L49.1631 101.12L49.6899 100.837C50.0402 100.654 50.3961 100.474 50.7548 100.293L51.1785 100.082C52.1201 99.6181 53.081 99.1663 54.0612 98.7263C54.2505 98.6417 54.4384 98.5585 54.6262 98.4753C54.7787 98.4076 54.9327 98.3343 55.0881 98.2736L55.1982 98.2271C55.7321 97.9958 56.2726 97.7692 56.8197 97.5473C57.4515 97.2907 58.0913 97.0392 58.7391 96.7928L59.2306 96.6067L59.958 96.3373C71.7783 92.0248 81.2187 86.1553 89.292 79.6032C89.5952 79.3569 89.8974 79.1092 90.1987 78.86C90.4991 78.6118 90.7981 78.3622 91.0956 78.1112C92.4317 76.983 93.733 75.8369 94.9995 74.673C95.8469 73.9002 96.6779 73.1212 97.4923 72.3362C98.0366 71.8125 98.5756 71.2888 99.1095 70.7652C101.905 68.0081 104.553 65.2059 107.119 62.408C110.933 58.2562 114.56 54.1199 118.211 50.1726C120.764 47.4113 123.329 44.7445 125.979 42.23C135.018 33.6388 144.991 26.8413 158.686 24.245C161.063 23.7965 163.464 23.4834 165.878 23.3072C169.284 23.0613 172.703 23.0396 176.112 23.2423C181.024 23.5173 186.339 24.2295 192.124 25.424C197.869 26.6355 203.547 28.147 209.134 29.9523C212.025 30.8746 215.017 31.8999 218.109 33.0281C218.623 33.2161 219.135 33.4079 219.645 33.6035C221.861 34.4497 224.032 35.356 226.157 36.3225C227.58 36.9684 228.981 37.6406 230.36 38.3391C230.978 38.6513 231.59 38.9686 232.197 39.2911C233.93 40.2068 235.631 41.1643 237.301 42.1637C237.921 42.5332 238.537 42.9093 239.148 43.292C240.473 44.1174 241.776 44.9683 243.056 45.8445C268.376 63.1399 285.644 89.9855 294.082 119.927C294.158 120.197 294.233 120.467 294.307 120.738C294.362 120.932 294.414 121.127 294.467 121.321C294.595 121.784 294.718 122.248 294.839 122.712C294.908 122.973 294.98 123.235 295.042 123.496C295.104 123.757 295.184 124.046 295.251 124.32C295.565 125.571 295.863 126.827 296.147 128.086C296.269 128.635 296.389 129.185 296.507 129.735C296.566 130.009 296.624 130.284 296.681 130.56C296.733 130.809 296.784 131.059 296.836 131.31C296.957 131.9 297.072 132.49 297.184 133.082C297.235 133.345 297.285 133.609 297.333 133.873C297.746 136.086 298.111 138.31 298.429 140.545C298.463 140.776 298.494 141.007 298.527 141.238C298.621 141.897 298.708 142.555 298.788 143.213C298.816 143.432 298.843 143.65 298.868 143.869L298.877 143.932C298.909 144.201 298.941 144.47 298.972 144.74C299.167 146.421 299.335 148.107 299.477 149.797C299.503 150.079 299.525 150.361 299.548 150.643C299.568 150.902 299.587 151.16 299.606 151.418C299.63 151.724 299.651 152.028 299.671 152.334C299.691 152.601 299.708 152.867 299.723 153.131L299.761 153.735C299.775 153.967 299.789 154.2 299.801 154.431C299.809 154.572 299.818 154.725 299.825 154.874C299.87 155.72 299.908 156.567 299.939 157.413C299.939 157.513 299.946 157.614 299.95 157.716C299.959 157.939 299.965 158.163 299.972 158.387L299.993 159.133C300 159.396 300.005 159.659 300.011 159.923C300.023 160.509 300.033 161.094 300.039 161.68C300.039 161.954 300.039 162.229 300.039 162.502C300.039 162.849 300.039 163.196 300.039 163.545C300.039 163.762 300.039 163.982 300.039 164.2C300.039 164.777 300.033 165.353 300.021 165.929C300.013 166.485 300.001 167.04 299.986 167.595C299.979 167.877 299.971 168.159 299.96 168.441C299.943 168.994 299.923 169.547 299.9 170.101C299.9 170.128 299.9 170.154 299.9 170.181C299.89 170.435 299.877 170.689 299.866 170.943C299.838 171.526 299.807 172.109 299.772 172.693C299.757 172.975 299.74 173.25 299.722 173.529C299.702 173.862 299.68 174.196 299.655 174.53C299.618 175.044 299.582 175.556 299.541 176.069C299.518 176.351 299.495 176.633 299.47 176.915C299.446 177.197 299.422 177.479 299.397 177.761L299.316 178.607C299.291 178.89 299.264 179.172 299.233 179.454C299.212 179.675 299.189 179.895 299.165 180.115C299.154 180.225 299.141 180.336 299.13 180.446C299.014 181.523 298.887 182.597 298.748 183.669C298.641 184.515 298.526 185.356 298.402 186.19C298.366 186.446 298.328 186.701 298.289 186.955C298.289 186.986 298.281 187.017 298.275 187.046C298.236 187.321 298.192 187.595 298.15 187.867C298.107 188.139 298.069 188.385 298.027 188.643C297.979 188.942 297.928 189.242 297.878 189.541C297.784 190.105 297.688 190.655 297.589 191.212L297.436 192.047C297.386 192.329 297.333 192.601 297.28 192.881C297.226 193.16 297.174 193.435 297.12 193.711C297.011 194.267 296.898 194.82 296.784 195.374C296.726 195.65 296.668 195.926 296.609 196.202C296.549 196.484 296.49 196.755 296.428 197.03C296.366 197.305 296.308 197.582 296.244 197.856C296.181 198.13 296.12 198.409 296.056 198.682C295.993 198.956 295.928 199.232 295.863 199.506L295.668 200.324C295.592 200.636 295.516 200.947 295.436 201.259C295.377 201.498 295.317 201.737 295.256 201.975C295.117 202.519 294.976 203.062 294.832 203.604C294.757 203.886 294.684 204.154 294.607 204.429C294.531 204.704 294.458 204.974 294.383 205.246C294.308 205.518 294.23 205.789 294.153 206.06C294.075 206.33 293.997 206.602 293.917 206.872C293.844 207.12 293.771 207.368 293.698 207.616C293.599 207.946 293.499 208.279 293.397 208.604C293.329 208.833 293.256 209.063 293.185 209.292C293.037 209.771 292.884 210.249 292.732 210.726C292.695 210.84 292.658 210.952 292.621 211.063C292.466 211.542 292.309 212.018 292.15 212.492C291.968 213.031 291.783 213.57 291.595 214.108C291.501 214.374 291.406 214.64 291.312 214.906C291.22 215.166 291.126 215.425 291.03 215.686L291.021 215.71C290.934 215.95 290.846 216.189 290.757 216.428C290.743 216.469 290.729 216.507 290.715 216.546C290.622 216.793 290.53 217.041 290.432 217.287C290.335 217.532 290.233 217.814 290.131 218.076C290.03 218.339 289.942 218.57 289.849 218.817C289.829 218.867 289.809 218.921 289.787 218.972C289.699 219.199 289.61 219.427 289.52 219.652C289.417 219.914 289.312 220.175 289.206 220.437L288.887 221.22C288.59 221.947 288.284 222.672 287.97 223.393C287.836 223.706 287.7 224.019 287.562 224.331C287.449 224.588 287.335 224.846 287.219 225.104C287.103 225.361 286.988 225.618 286.873 225.874L286.616 226.438L286.534 226.615C286.386 226.936 286.237 227.257 286.086 227.576C286.069 227.614 286.05 227.655 286.031 227.693L285.999 227.762C285.924 227.92 285.849 228.079 285.773 228.237C285.752 228.282 285.729 228.327 285.708 228.378C285.567 228.672 285.425 228.961 285.284 229.25C285.27 229.282 285.256 229.312 285.239 229.344C285.214 229.4 285.187 229.455 285.158 229.509C285.033 229.766 284.907 230.021 284.78 230.278C284.721 230.395 284.663 230.512 284.605 230.63C284.593 230.649 284.585 230.667 284.575 230.684C284.444 230.949 284.31 231.213 284.175 231.475C284.074 231.677 283.969 231.876 283.866 232.077L283.764 232.273C283.69 232.414 283.613 232.555 283.538 232.706C283.527 232.727 283.517 232.749 283.506 232.768C283.454 232.871 283.4 232.973 283.346 233.073C283.239 233.275 283.133 233.475 283.026 233.674C282.941 233.835 282.855 233.994 282.769 234.155C282.735 234.22 282.699 234.283 282.666 234.346C282.595 234.476 282.524 234.605 282.455 234.731C282.198 235.232 281.911 235.741 281.626 236.253Z" fill="#F6F2FF"/>
<path d="M281.626 236.253C281.505 236.462 281.388 236.676 281.268 236.879L281.165 237.06C281.032 237.294 280.898 237.525 280.763 237.765L280.744 237.797C280.603 238.051 280.449 238.306 280.299 238.559C280.114 238.872 279.926 239.185 279.734 239.497C279.542 239.808 279.357 240.121 279.169 240.432C278.793 241.053 278.407 241.671 278.013 242.286C277.816 242.593 277.619 242.902 277.421 243.207C277.223 243.512 277.023 243.819 276.822 244.124C276.621 244.428 276.418 244.731 276.215 245.035C276.036 245.303 275.854 245.57 275.671 245.837L275.565 245.994C275.37 246.276 275.174 246.558 274.977 246.84C274.773 247.136 274.566 247.429 274.357 247.723C274.351 247.73 274.346 247.738 274.34 247.747C274.164 247.995 273.987 248.244 273.806 248.491C273.736 248.592 273.664 248.692 273.59 248.791C273.496 248.927 273.397 249.062 273.294 249.198C273.16 249.386 273.024 249.571 272.884 249.755C272.791 249.882 272.699 250.007 272.602 250.133C272.473 250.306 272.343 250.478 272.213 250.652L271.884 251.087L271.614 251.44L271.098 252.111L271.024 252.206C270.836 252.445 270.647 252.685 270.459 252.925C270.391 253.011 270.318 253.097 270.254 253.184C270.092 253.388 269.929 253.592 269.766 253.795L269.523 254.095C269.372 254.283 269.222 254.469 269.069 254.66L268.889 254.88C268.695 255.117 268.5 255.352 268.302 255.585C268.072 255.867 267.839 256.14 267.605 256.415L267.507 256.531C267.298 256.775 267.091 257.019 266.88 257.263C266.582 257.607 266.283 257.947 265.98 258.288C265.547 258.782 265.109 259.271 264.664 259.756L264.637 259.786C264.397 260.049 264.155 260.311 263.911 260.571C263.759 260.738 263.604 260.903 263.448 261.068C263.317 261.209 263.184 261.35 263.051 261.491L262.981 261.566C262.783 261.774 262.584 261.982 262.384 262.189C262.359 262.213 262.336 262.238 262.312 262.262L261.923 262.666C261.79 262.807 261.656 262.941 261.521 263.076L261.088 263.516L260.728 263.878L260.29 264.311C260.166 264.437 260.037 264.562 259.91 264.687C259.439 265.15 258.962 265.61 258.479 266.067L258.418 266.125C258.155 266.376 257.889 266.627 257.62 266.877C257.332 267.145 257.043 267.412 256.752 267.678C256.482 267.923 256.212 268.168 255.941 268.411C255.67 268.654 255.376 268.912 255.094 269.16L254.982 269.259C254.759 269.456 254.533 269.652 254.307 269.848C254.272 269.879 254.238 269.91 254.201 269.94C253.939 270.165 253.677 270.39 253.414 270.614L253.183 270.813L252.727 271.195L252.519 271.37L252.429 271.444C252.169 271.662 251.907 271.877 251.643 272.092C251.39 272.299 251.136 272.506 250.881 272.711L250.76 272.808L250.414 273.09L249.944 273.463C249.922 273.479 249.902 273.496 249.881 273.515C249.872 273.519 249.864 273.524 249.858 273.532L249.474 273.833L249.05 274.159L248.967 274.224L248.882 274.289L248.52 274.571L248.059 274.921L248.042 274.935C247.802 275.117 247.563 275.297 247.321 275.476L247.142 275.61C247.108 275.635 247.074 275.66 247.04 275.687L246.592 276.018L246.217 276.291C245.908 276.517 245.597 276.742 245.285 276.967L245.122 277.084L244.626 277.434C244.532 277.5 244.439 277.575 244.344 277.634L244.276 277.681C244.062 277.832 243.848 277.982 243.632 278.13L243.395 278.293C243.078 278.513 242.758 278.73 242.437 278.946C242.163 279.132 241.889 279.315 241.612 279.498L241.471 279.592C241.179 279.786 240.884 279.979 240.588 280.171L240.372 280.312C240.09 280.497 239.8 280.68 239.514 280.862C239.227 281.044 238.909 281.244 238.605 281.426C238.552 281.46 238.497 281.493 238.444 281.528C238.181 281.691 237.917 281.854 237.652 282.014L237.463 282.131C237.152 282.32 236.841 282.507 236.531 282.695C236.487 282.722 236.443 282.746 236.401 282.773C235.787 283.139 235.168 283.5 234.543 283.858L234.418 283.929L233.711 284.331L233.377 284.519C233.054 284.699 232.729 284.879 232.404 285.058C232.108 285.22 231.813 285.379 231.515 285.539L231.265 285.68L230.405 286.135C229.992 286.352 229.576 286.568 229.158 286.781C228.825 286.952 228.488 287.122 228.152 287.29C155.218 323.8 90.2293 299.841 50.5283 258.363C33.7547 240.84 21.4937 220.19 15.0546 199.654C15.0546 199.654 14.8018 198.771 14.429 197.163C14.0773 195.653 13.6197 193.497 13.1705 190.843C13.1479 190.71 13.1239 190.575 13.1027 190.439C12.9492 189.516 12.7986 188.536 12.6508 187.5C12.6282 187.351 12.6084 187.2 12.5858 187.048C12.559 186.846 12.5307 186.642 12.5039 186.434C12.4827 186.269 12.4615 186.106 12.4389 185.938C12.4163 185.77 12.3937 185.581 12.3711 185.4C12.3273 185.039 12.2821 184.673 12.2398 184.303C12.2172 184.116 12.196 183.93 12.1762 183.739C12.1564 183.549 12.1338 183.361 12.1141 183.175C12.0943 182.989 12.0731 182.793 12.0547 182.598L11.9954 182.016C11.9771 181.82 11.9573 181.622 11.9403 181.425C11.9234 181.228 11.9036 181.027 11.8852 180.827C11.8669 180.627 11.8514 180.425 11.8344 180.222C11.8175 180.019 11.8019 179.816 11.785 179.61C11.785 179.586 11.785 179.562 11.785 179.539C11.7581 179.184 11.7313 178.824 11.7073 178.461C11.647 177.594 11.5957 176.709 11.5533 175.807C11.5435 175.589 11.5336 175.371 11.5251 175.152C11.4686 173.836 11.4352 172.487 11.4248 171.106C11.4248 170.878 11.4248 170.648 11.4248 170.418C11.4248 169.212 11.4427 167.987 11.4785 166.743C11.4785 166.534 11.4926 166.32 11.4997 166.118C11.5336 165.167 11.5806 164.205 11.6409 163.233C11.655 163.006 11.6691 162.78 11.6847 162.554C11.6847 162.543 11.6847 162.53 11.6847 162.519C11.6854 162.512 11.6854 162.504 11.6847 162.497C11.7016 162.258 11.7186 162.02 11.7384 161.78C11.7567 161.532 11.7779 161.285 11.7977 161.037C11.8429 160.5 11.8928 159.959 11.9474 159.415C11.9672 159.208 11.9898 158.992 12.0124 158.79C12.035 158.589 12.0604 158.339 12.0872 158.113C12.1197 157.831 12.1522 157.537 12.1889 157.246C12.203 157.129 12.2172 157.015 12.2327 156.901C12.2341 156.877 12.237 156.853 12.2412 156.83L12.2878 156.461C12.3457 156.022 12.4064 155.582 12.4714 155.138C12.4912 154.988 12.5138 154.84 12.5364 154.689C12.5519 154.585 12.5674 154.482 12.5844 154.378L12.6056 154.237C12.6062 154.234 12.6062 154.231 12.6056 154.228C12.6056 154.196 12.6154 154.16 12.6211 154.127C12.6522 153.933 12.6818 153.736 12.7143 153.54C12.8838 152.494 13.0721 151.442 13.2793 150.385C13.3282 150.137 13.3786 149.89 13.4304 149.643C13.4911 149.354 13.5519 149.065 13.6168 148.776C13.6578 148.577 13.7016 148.381 13.7468 148.184C13.816 147.874 13.888 147.563 13.9615 147.25C14.0024 147.077 14.0448 146.902 14.0872 146.728C14.2802 145.931 14.4869 145.132 14.7072 144.331C14.7609 144.135 14.816 143.939 14.871 143.746C14.9332 143.524 14.9982 143.303 15.0617 143.083C15.064 143.072 15.0673 143.062 15.0716 143.052C15.1352 142.833 15.1987 142.616 15.2651 142.398C15.3315 142.179 15.4063 141.948 15.4713 141.725C15.5363 141.502 15.6126 141.275 15.6846 141.051C15.7467 140.856 15.8103 140.662 15.8753 140.465L15.9303 140.298L16.0066 140.072C16.0589 139.913 16.1139 139.752 16.169 139.593C16.2368 139.393 16.306 139.194 16.3766 138.996C16.4247 138.855 16.4741 138.722 16.5179 138.587L16.6676 138.177C16.7142 138.047 16.7622 137.917 16.8088 137.786C16.8865 137.576 16.967 137.363 17.0475 137.154C17.1083 136.991 17.1704 136.83 17.2354 136.668C17.2509 136.625 17.2679 136.583 17.2848 136.539L17.3908 136.273C17.4614 136.091 17.532 135.91 17.6083 135.73L17.6323 135.671C17.7297 135.431 17.8286 135.19 17.9303 134.951C17.9981 134.786 18.0715 134.62 18.1407 134.455C18.1902 134.338 18.241 134.219 18.2919 134.102C18.4091 133.832 18.5291 133.562 18.6492 133.293C18.7368 133.097 18.8258 132.899 18.9176 132.705C19.0094 132.51 19.1153 132.273 19.2184 132.059C19.2777 131.932 19.337 131.805 19.3992 131.68C19.4161 131.642 19.4345 131.603 19.4528 131.567C19.522 131.426 19.5941 131.276 19.6633 131.134C19.6788 131.1 19.6958 131.066 19.7127 131.032C19.7297 130.998 19.765 130.928 19.789 130.876C19.8723 130.709 19.9542 130.543 20.039 130.375C20.0467 130.363 20.0533 130.35 20.0588 130.337C20.0715 130.314 20.0828 130.29 20.0941 130.267C20.1958 130.069 20.2961 129.873 20.3992 129.676L20.4641 129.55C20.5884 129.311 20.7146 129.073 20.8426 128.837C20.9773 128.587 21.1129 128.339 21.2494 128.09C21.3605 127.888 21.4735 127.687 21.5884 127.485C21.6985 127.291 21.8101 127.098 21.9231 126.903L21.9712 126.818C22.0658 126.656 22.1618 126.495 22.2536 126.333C22.2706 126.302 22.2889 126.271 22.3073 126.242C22.5389 125.852 22.7743 125.466 23.0135 125.081C23.134 124.885 23.2564 124.69 23.3807 124.497C23.3827 124.492 23.3855 124.487 23.3892 124.483C23.5149 124.284 23.642 124.088 23.7733 123.889C23.8892 123.712 24.0064 123.534 24.1251 123.356C24.1519 123.318 24.1773 123.277 24.2055 123.239C24.3044 123.088 24.4061 122.937 24.5092 122.787L24.6434 122.592C24.7521 122.434 24.8609 122.279 24.9697 122.125C25.0784 121.971 25.1857 121.816 25.2945 121.663C25.3538 121.579 25.416 121.495 25.4767 121.412C25.584 121.261 25.6942 121.11 25.8044 120.96C25.9305 120.789 26.0577 120.618 26.1857 120.447C26.2112 120.412 26.238 120.378 26.262 120.344C26.3891 120.175 26.5191 120.005 26.6476 119.836C26.8754 119.542 27.1047 119.25 27.3354 118.959C27.488 118.771 27.6419 118.58 27.7973 118.385L27.899 118.261C27.9696 118.174 28.0402 118.085 28.1165 117.997C28.2746 117.809 28.4342 117.621 28.5953 117.433C28.7153 117.292 28.8368 117.151 28.9583 117.01C28.9696 116.997 28.9809 116.986 28.9893 116.975C29.1306 116.806 29.2803 116.638 29.4286 116.471C29.5571 116.33 29.6842 116.189 29.8142 116.04C29.8876 115.958 29.9554 115.876 30.0345 115.794L30.4215 115.371C30.5246 115.259 30.6291 115.146 30.735 115.036C30.841 114.926 30.9201 114.837 31.0175 114.738C31.1588 114.587 31.3 114.438 31.4497 114.287C31.5754 114.157 31.7011 114.027 31.8282 113.9C31.9285 113.796 32.0274 113.696 32.1305 113.594C32.2548 113.468 32.3819 113.341 32.5104 113.217C32.639 113.092 32.7505 112.981 32.8706 112.864C32.9906 112.747 33.1036 112.637 33.2208 112.524C33.4949 112.262 33.7717 112.001 34.0513 111.743L34.3508 111.461C34.4779 111.347 34.6036 111.231 34.7321 111.117L35.04 110.835C35.0852 110.794 35.1304 110.753 35.1813 110.713L35.499 110.431L35.9002 110.084C36.8126 109.303 37.757 108.536 38.7334 107.784L38.7574 107.764C39.0399 107.549 39.3224 107.341 39.6049 107.12L40.0371 106.801C40.4683 106.487 40.9038 106.176 41.3435 105.866C41.3504 105.864 41.3567 105.86 41.3619 105.855L41.811 105.545C42.1119 105.339 42.4169 105.133 42.7234 104.93L43.1895 104.622C43.6603 104.316 44.1363 104.013 44.6175 103.713L45.5581 103.14C45.7333 103.034 45.9098 102.932 46.0878 102.826L46.5849 102.537L47.0425 102.273C47.5632 101.977 48.0905 101.685 48.6244 101.397L49.1456 101.115L49.6724 100.833C50.0246 100.652 50.3795 100.47 50.7374 100.289L51.1611 100.077C52.1027 99.6137 53.0636 99.1619 54.0438 98.7219C54.233 98.6373 54.4209 98.5541 54.6087 98.4709C54.7613 98.4032 54.9152 98.3299 55.0706 98.2692L55.1808 98.2227C55.7156 97.9914 56.2561 97.7648 56.8022 97.5429C57.434 97.2863 58.0738 97.0348 58.7216 96.7884L59.2131 96.6023L59.9405 96.3329C71.7608 92.0204 81.2013 86.1509 89.2745 79.5988C89.5782 79.3534 89.8818 79.1052 90.1813 78.8556C90.4835 78.6074 90.7815 78.3578 91.0781 78.1068C92.4161 76.9786 93.7174 75.8325 94.982 74.6686C95.8294 73.8958 96.6604 73.1168 97.4749 72.3318C98.02 71.8114 98.5582 71.2854 99.092 70.7607C101.884 68.0079 104.531 65.2086 107.096 62.4134C110.91 58.2602 114.538 54.1225 118.19 50.1738C118.097 50.3515 115.131 56.1322 113.82 64.1354C112.435 72.604 112.901 83.5631 120.58 93.0188C126.18 99.9164 135.617 106.012 150.968 109.761C159.301 111.796 167.948 112.698 176.815 112.963C180.435 113.07 184.093 113.071 187.782 112.999C188.988 112.978 190.198 112.948 191.412 112.909C193.683 112.839 195.964 112.748 198.256 112.638C229.906 111.136 263.216 106.715 294.06 119.918C294.137 120.189 294.211 120.458 294.285 120.729C294.34 120.924 294.392 121.118 294.446 121.313C294.573 121.775 294.697 122.239 294.817 122.703C294.886 122.964 294.958 123.227 295.021 123.487C295.083 123.748 295.162 124.037 295.23 124.311C295.543 125.562 295.842 126.818 296.125 128.078C296.248 128.627 296.368 129.176 296.485 129.726C296.545 130 296.603 130.275 296.659 130.551C296.711 130.801 296.763 131.051 296.814 131.302C296.935 131.891 297.051 132.482 297.162 133.073C297.214 133.336 297.263 133.6 297.312 133.864C297.724 136.077 298.089 138.301 298.408 140.536C298.441 140.767 298.473 140.999 298.505 141.23C298.599 141.888 298.686 142.546 298.766 143.204C298.795 143.423 298.821 143.642 298.847 143.86L298.855 143.923C298.887 144.192 298.919 144.462 298.95 144.732C299.145 146.413 299.313 148.098 299.456 149.789C299.481 150.071 299.504 150.353 299.526 150.635C299.546 150.893 299.566 151.151 299.584 151.409C299.608 151.715 299.629 152.02 299.649 152.326C299.669 152.593 299.686 152.858 299.701 153.123L299.739 153.726C299.754 153.959 299.768 154.192 299.779 154.423C299.787 154.564 299.796 154.716 299.803 154.866C299.848 155.712 299.886 156.558 299.917 157.404C299.917 157.504 299.924 157.606 299.929 157.707C299.937 157.93 299.943 158.154 299.95 158.379L299.971 159.125C299.978 159.387 299.984 159.651 299.989 159.914C300.002 160.5 300.011 161.086 300.018 161.672C300.018 161.945 300.018 162.22 300.018 162.494C300.018 162.841 300.018 163.188 300.018 163.536C300.018 163.753 300.018 163.973 300.018 164.192C300.018 164.768 300.012 165.344 299.999 165.921C299.991 166.474 299.979 167.03 299.964 167.586C299.957 167.868 299.949 168.15 299.939 168.432C299.922 168.985 299.901 169.538 299.878 170.092C299.878 170.119 299.878 170.146 299.878 170.173C299.868 170.426 299.855 170.68 299.844 170.934C299.817 171.517 299.786 172.1 299.751 172.684C299.735 172.966 299.718 173.241 299.7 173.52C299.68 173.853 299.658 174.187 299.634 174.522C299.597 175.035 299.56 175.547 299.519 176.06C299.497 176.342 299.473 176.624 299.448 176.907C299.424 177.189 299.4 177.471 299.375 177.753L299.295 178.599C299.268 178.881 299.241 179.163 299.211 179.445C299.19 179.666 299.167 179.886 299.143 180.106C299.132 180.216 299.119 180.328 299.108 180.438C298.991 181.514 298.864 182.588 298.727 183.66C298.618 184.501 298.503 185.341 298.381 186.182C298.344 186.437 298.306 186.692 298.268 186.946C298.268 186.977 298.259 187.008 298.254 187.038C298.214 187.313 298.17 187.586 298.128 187.859C298.086 188.131 298.047 188.376 298.005 188.634C297.957 188.933 297.906 189.234 297.857 189.533C297.762 190.097 297.666 190.647 297.567 191.204L297.415 192.039C297.364 192.321 297.312 192.593 297.258 192.872C297.204 193.151 297.152 193.426 297.098 193.703C296.988 194.256 296.876 194.811 296.762 195.365C296.705 195.642 296.646 195.918 296.587 196.193C296.528 196.475 296.468 196.746 296.406 197.021C296.344 197.296 296.286 197.574 296.223 197.847C296.159 198.121 296.098 198.4 296.035 198.674C295.971 198.947 295.906 199.224 295.841 199.497L295.646 200.315C295.57 200.627 295.494 200.939 295.415 201.25C295.355 201.489 295.295 201.728 295.234 201.967C295.095 202.51 294.954 203.053 294.81 203.596C294.735 203.878 294.662 204.146 294.586 204.421C294.509 204.696 294.436 204.965 294.361 205.237C294.286 205.509 294.209 205.78 294.131 206.051C294.053 206.322 293.975 206.594 293.895 206.863C293.822 207.111 293.749 207.36 293.676 207.608C293.577 207.938 293.477 208.271 293.375 208.595C293.307 208.825 293.234 209.055 293.163 209.283C293.015 209.763 292.863 210.241 292.71 210.717C292.673 210.832 292.637 210.943 292.6 211.054C292.444 211.533 292.287 212.009 292.128 212.483C291.946 213.023 291.761 213.561 291.573 214.099C291.479 214.365 291.385 214.631 291.29 214.897C291.199 215.157 291.104 215.416 291.008 215.677L291 215.701C290.912 215.941 290.824 216.18 290.735 216.419C290.721 216.46 290.707 216.498 290.693 216.538C290.6 216.784 290.508 217.033 290.411 217.278C290.313 217.523 290.211 217.805 290.11 218.068C290.008 218.33 289.92 218.561 289.827 218.808C289.807 218.859 289.788 218.912 289.765 218.963C289.678 219.19 289.589 219.419 289.498 219.643C289.395 219.905 289.291 220.166 289.185 220.428L288.865 221.211C288.566 221.938 288.26 222.662 287.949 223.384C287.814 223.697 287.678 224.01 287.541 224.322C287.428 224.58 287.313 224.837 287.197 225.095C287.082 225.353 286.966 225.609 286.851 225.865L286.594 226.429L286.512 226.607C286.364 226.927 286.216 227.248 286.065 227.567C286.048 227.605 286.028 227.646 286.01 227.684L285.977 227.753C285.902 227.911 285.827 228.071 285.751 228.229C285.73 228.274 285.707 228.319 285.686 228.37C285.545 228.663 285.404 228.952 285.262 229.241C285.248 229.274 285.234 229.303 285.217 229.336C285.192 229.391 285.165 229.446 285.137 229.501C285.011 229.757 284.885 230.013 284.758 230.269C284.69 230.41 284.617 230.54 284.553 230.675C284.422 230.94 284.288 231.204 284.154 231.467C284.052 231.668 283.947 231.867 283.844 232.069L283.743 232.265C283.668 232.406 283.592 232.547 283.517 232.698C283.505 232.719 283.496 232.74 283.484 232.76C283.432 232.863 283.378 232.964 283.325 233.064C283.217 233.266 283.111 233.466 283.004 233.665C282.919 233.826 282.833 233.985 282.747 234.146C282.713 234.211 282.678 234.274 282.644 234.338C282.573 234.468 282.503 234.596 282.433 234.723C282.198 235.232 281.911 235.741 281.626 236.253Z" fill="#EDE4FF"/>
<path d="M281.626 236.253C281.506 236.462 281.388 236.676 281.268 236.879L281.165 237.06C281.032 237.294 280.898 237.525 280.763 237.765L280.744 237.797C280.603 238.051 280.449 238.307 280.299 238.559C280.114 238.872 279.926 239.185 279.734 239.497C279.542 239.808 279.357 240.122 279.169 240.432C278.793 241.053 278.407 241.671 278.013 242.286C277.816 242.594 277.619 242.903 277.421 243.207C277.223 243.512 277.023 243.819 276.822 244.124C276.621 244.428 276.418 244.732 276.215 245.035C276.036 245.303 275.855 245.57 275.671 245.837L275.565 245.994C275.37 246.276 275.174 246.558 274.977 246.84C274.773 247.136 274.566 247.429 274.357 247.723C274.351 247.73 274.346 247.738 274.34 247.747C274.164 247.995 273.987 248.245 273.807 248.491C273.736 248.592 273.664 248.692 273.59 248.792C273.496 248.927 273.397 249.063 273.294 249.198C273.16 249.386 273.024 249.572 272.884 249.755C272.791 249.882 272.699 250.007 272.602 250.133C272.473 250.306 272.343 250.478 272.213 250.652L271.884 251.088L271.615 251.44L271.098 252.112L271.024 252.206C270.836 252.446 270.648 252.686 270.459 252.925C270.391 253.011 270.318 253.097 270.254 253.185C270.092 253.388 269.93 253.592 269.766 253.795L269.523 254.096C269.372 254.283 269.222 254.469 269.069 254.66L268.889 254.88C268.696 255.117 268.5 255.352 268.302 255.585C268.072 255.867 267.839 256.141 267.605 256.416L267.507 256.531C267.298 256.775 267.091 257.019 266.88 257.263C266.582 257.607 266.283 257.947 265.981 258.288C265.548 258.781 265.108 259.276 264.664 259.757C264.414 260.029 264.164 260.301 263.911 260.572C263.759 260.738 263.604 260.904 263.448 261.068C263.351 261.174 263.252 261.278 263.153 261.384C263.118 261.42 263.084 261.455 263.051 261.49L262.981 261.564C262.783 261.773 262.584 261.981 262.385 262.188C262.359 262.212 262.337 262.237 262.313 262.261L261.923 262.664L261.608 262.989C261.578 263.017 261.551 263.045 261.522 263.075L261.088 263.515L260.728 263.877L260.29 264.31L260.03 264.568C259.989 264.606 259.948 264.647 259.91 264.685C259.439 265.149 258.962 265.609 258.479 266.066L258.419 266.124C258.155 266.375 257.889 266.625 257.621 266.875C257.332 267.143 257.043 267.41 256.752 267.677C256.482 267.922 256.212 268.167 255.941 268.41C255.67 268.652 255.376 268.911 255.094 269.159L254.982 269.257C254.759 269.455 254.533 269.651 254.307 269.847C254.272 269.878 254.238 269.909 254.201 269.939C253.713 270.361 253.222 270.779 252.727 271.194L252.519 271.369L252.429 271.443C252.169 271.661 251.907 271.876 251.643 272.091C251.391 272.298 251.136 272.505 250.881 272.71L250.761 272.807C250.491 273.026 250.217 273.241 249.944 273.457C249.922 273.474 249.902 273.491 249.881 273.509C249.872 273.513 249.864 273.519 249.858 273.526C249.591 273.736 249.322 273.945 249.053 274.154L248.97 274.219L248.885 274.284C248.612 274.495 248.337 274.707 248.061 274.914L248.045 274.928C247.804 275.11 247.566 275.291 247.324 275.47L247.145 275.604C247.111 275.628 247.077 275.653 247.043 275.68C246.769 275.881 246.497 276.083 246.22 276.285C245.911 276.51 245.6 276.736 245.288 276.96C245.069 277.115 244.851 277.272 244.629 277.427C244.535 277.493 244.442 277.568 244.347 277.627L244.279 277.674C243.988 277.88 243.693 278.083 243.398 278.286C243.08 278.506 242.761 278.724 242.44 278.939C242.12 279.156 241.798 279.37 241.474 279.585C241.182 279.779 240.887 279.973 240.591 280.164L240.375 280.305C240.093 280.49 239.803 280.673 239.517 280.855C239.23 281.037 238.912 281.238 238.608 281.419C238.555 281.453 238.5 281.486 238.447 281.521C238.184 281.685 237.92 281.847 237.655 282.008L237.466 282.125C237.155 282.314 236.844 282.5 236.534 282.689C236.49 282.716 236.446 282.739 236.404 282.766C235.79 283.132 235.171 283.493 234.546 283.851L234.421 283.923L233.714 284.325L233.38 284.512C233.057 284.693 232.732 284.872 232.407 285.051C232.111 285.213 231.816 285.372 231.518 285.532L231.268 285.673L230.408 286.128C229.995 286.345 229.579 286.561 229.161 286.774C228.828 286.945 228.491 287.116 228.155 287.283C155.221 323.793 90.2322 299.835 50.5312 258.356C33.7577 240.834 21.4967 220.183 15.0576 199.647C15.0576 199.647 14.8048 198.764 14.4319 197.157C14.0802 195.646 13.6226 193.49 13.1735 190.836C13.1509 190.703 13.1268 190.568 13.1057 190.433C12.9522 189.509 12.8015 188.53 12.6537 187.494C12.6311 187.344 12.6113 187.193 12.5887 187.041C12.5619 186.839 12.5336 186.635 12.5068 186.427C12.4856 186.262 12.4644 186.099 12.4418 185.931C12.4192 185.763 12.3966 185.574 12.374 185.394C12.3279 185.033 12.2841 184.667 12.2427 184.297C12.2201 184.109 12.1989 183.923 12.1791 183.732C12.1593 183.542 12.1368 183.354 12.117 183.168C12.0972 182.982 12.076 182.786 12.0577 182.592L11.9983 182.009C11.98 181.813 11.9602 181.616 11.9433 181.418C11.9263 181.221 11.9065 181.021 11.8882 180.82C11.8698 180.62 11.8543 180.418 11.8373 180.215C11.8204 180.012 11.8048 179.809 11.7879 179.603C11.7879 179.579 11.7879 179.555 11.7879 179.533C11.7596 179.174 11.7342 178.816 11.7102 178.454C11.65 177.587 11.5986 176.702 11.5562 175.8C11.5464 175.583 11.5365 175.364 11.528 175.145C11.4715 173.829 11.4381 172.48 11.4277 171.099C11.4277 170.871 11.4277 170.641 11.4277 170.411C11.4277 169.205 11.4456 167.98 11.4814 166.736C11.4814 166.527 11.4955 166.313 11.5026 166.111C11.5365 165.16 11.5836 164.198 11.6438 163.226C11.658 162.999 11.6721 162.773 11.6876 162.548C11.6876 162.536 11.6876 162.524 11.6876 162.512C11.6883 162.505 11.6883 162.497 11.6876 162.49C11.7046 162.251 11.7215 162.013 11.7413 161.773C11.7596 161.525 11.7808 161.278 11.8006 161.03C11.8458 160.493 11.8957 159.953 11.9503 159.408C11.9701 159.201 11.9927 158.985 12.0153 158.784C12.0379 158.582 12.0633 158.332 12.0901 158.107C12.1226 157.825 12.1551 157.53 12.1918 157.239C12.206 157.122 12.2201 157.008 12.2356 156.894C12.237 156.87 12.2399 156.847 12.2441 156.823L12.2907 156.454C12.3486 156.015 12.4093 155.575 12.4743 155.131C12.4941 154.982 12.5167 154.833 12.5393 154.683C12.5548 154.578 12.5704 154.475 12.5873 154.371L12.6085 154.23C12.6092 154.227 12.6092 154.224 12.6085 154.221C12.6085 154.189 12.6184 154.154 12.624 154.12C12.6551 153.927 12.6848 153.729 12.7172 153.533C12.8867 152.487 13.0751 151.435 13.2822 150.378C13.3312 150.13 13.3815 149.883 13.4333 149.637C13.4941 149.348 13.5548 149.058 13.6198 148.769C13.6607 148.571 13.7045 148.374 13.7497 148.177C13.8189 147.867 13.8909 147.557 13.9644 147.243C14.0053 147.07 14.0477 146.895 14.0901 146.722C14.2831 145.924 14.4898 145.125 14.7101 144.324C14.7638 144.128 14.8189 143.932 14.874 143.739C14.9361 143.518 15.0011 143.296 15.0646 143.076C15.0669 143.065 15.0702 143.055 15.0745 143.045C15.1381 142.827 15.2016 142.609 15.268 142.391C15.3344 142.172 15.4093 141.941 15.4742 141.718C15.5392 141.495 15.6155 141.268 15.6875 141.044C15.7496 140.849 15.8132 140.655 15.8782 140.459L15.9333 140.291L16.0095 140.065C16.0618 139.906 16.1169 139.745 16.172 139.586C16.2398 139.386 16.309 139.188 16.3796 138.989C16.4276 138.848 16.477 138.716 16.5208 138.58L16.6705 138.17C16.7171 138.04 16.7652 137.91 16.8118 137.779C16.8895 137.569 16.97 137.356 17.0505 137.147C17.1112 136.984 17.1734 136.823 17.2383 136.661C17.2539 136.619 17.2708 136.576 17.2878 136.533L17.3937 136.266C17.4643 136.084 17.5349 135.904 17.6112 135.723L17.6352 135.664C17.7327 135.424 17.8315 135.183 17.9332 134.945C18.001 134.78 18.0744 134.613 18.1437 134.448C18.1931 134.331 18.2439 134.213 18.2948 134.096C18.412 133.825 18.5321 133.556 18.6521 133.286C18.7397 133.09 18.8287 132.893 18.9205 132.698C19.0123 132.503 19.1182 132.267 19.2213 132.052C19.2806 131.925 19.34 131.798 19.4021 131.673C19.419 131.635 19.4374 131.597 19.4558 131.56C19.525 131.419 19.597 131.269 19.6662 131.127C19.6818 131.093 19.6987 131.059 19.7156 131.025C19.7326 130.992 19.7679 130.921 19.7919 130.869C19.8753 130.703 19.9572 130.536 20.0419 130.368C20.0496 130.356 20.0562 130.344 20.0617 130.33C20.0744 130.308 20.0857 130.284 20.097 130.26C20.1987 130.062 20.299 129.866 20.4021 129.669L20.4671 129.543C20.5913 129.305 20.7175 129.067 20.8456 128.83C20.9802 128.581 21.1158 128.332 21.2523 128.084C21.3634 127.882 21.4764 127.68 21.5913 127.479C21.7015 127.284 21.8131 127.091 21.926 126.896L21.9741 126.812C22.0687 126.649 22.1647 126.489 22.2565 126.327C22.2735 126.296 22.2919 126.264 22.3102 126.235C22.5418 125.846 22.7772 125.459 23.0164 125.074C23.1369 124.878 23.2594 124.683 23.3836 124.49C23.3856 124.485 23.3885 124.48 23.3921 124.476C23.5178 124.277 23.6449 124.081 23.7763 123.883C23.8921 123.705 24.0093 123.527 24.128 123.349C24.1548 123.311 24.1802 123.27 24.2085 123.232C24.3073 123.082 24.409 122.931 24.5121 122.78L24.6463 122.585C24.7551 122.427 24.8638 122.272 24.9726 122.118C25.0813 121.965 25.1887 121.809 25.2974 121.656C25.3567 121.573 25.4189 121.488 25.4796 121.405C25.587 121.254 25.6971 121.103 25.8073 120.953C25.9335 120.782 26.0606 120.611 26.1887 120.44C26.2141 120.405 26.2409 120.371 26.2649 120.337C26.392 120.168 26.522 119.999 26.6505 119.829C26.8784 119.535 27.1077 119.243 27.3383 118.952C27.4909 118.764 27.6448 118.573 27.8002 118.378L27.9019 118.254C27.9725 118.167 28.0431 118.078 28.1194 117.991C28.2776 117.802 28.4372 117.614 28.5982 117.426C28.7182 117.285 28.8397 117.144 28.9612 117.003C28.9725 116.991 28.9838 116.979 28.9923 116.968C29.1335 116.799 29.2832 116.631 29.4315 116.465C29.56 116.324 29.6871 116.183 29.8171 116.033C29.8905 115.951 29.9583 115.869 30.0374 115.788L30.4244 115.365C30.5275 115.252 30.632 115.139 30.738 115.029C30.8439 114.919 30.923 114.83 31.0204 114.731C31.1617 114.581 31.3029 114.431 31.4526 114.28C31.5784 114.15 31.704 114.021 31.8312 113.894C31.9314 113.789 32.0303 113.689 32.1334 113.588C32.2577 113.461 32.3848 113.334 32.5133 113.21C32.6419 113.086 32.7535 112.974 32.8735 112.857C32.9936 112.74 33.1066 112.63 33.2238 112.517C33.4978 112.255 33.7746 111.995 34.0543 111.736L34.3184 111.491L34.3537 111.46C34.4808 111.345 34.6065 111.23 34.735 111.116L35.0429 110.833C35.0881 110.793 35.1333 110.752 35.1842 110.712L35.502 110.43L35.9031 110.083C36.8155 109.302 37.7599 108.535 38.7364 107.783L38.7604 107.763C39.0428 107.548 39.3253 107.34 39.6078 107.119L40.04 106.8C40.4712 106.486 40.9067 106.174 41.3465 105.865C41.3533 105.863 41.3596 105.859 41.3648 105.854L41.814 105.544C42.1148 105.338 42.4199 105.132 42.7264 104.929C46.4738 111.458 50.5705 117.781 54.9986 123.87C58.1921 128.25 61.7682 132.77 65.706 137.201C71.6197 143.855 78.3512 150.316 85.8368 155.805C90.889 159.511 96.2885 162.779 102.003 165.372C112.186 169.992 123.398 172.474 135.529 171.493C187.265 167.31 267.965 162.531 286.867 225.892L286.61 226.456L286.528 226.634C286.38 226.954 286.231 227.276 286.08 227.594C286.063 227.632 286.044 227.673 286.025 227.711L285.993 227.78C285.918 227.938 285.843 228.098 285.767 228.256C285.746 228.301 285.723 228.346 285.702 228.397C285.561 228.69 285.419 228.979 285.278 229.268C285.264 229.301 285.25 229.33 285.233 229.363C285.207 229.418 285.181 229.473 285.152 229.528C285.027 229.784 284.901 230.04 284.774 230.296C284.715 230.413 284.657 230.53 284.599 230.649C284.587 230.667 284.579 230.686 284.569 230.702C284.438 230.968 284.303 231.231 284.169 231.494C284.068 231.695 283.963 231.894 283.86 232.096L283.758 232.292C283.683 232.433 283.607 232.574 283.532 232.725C283.521 232.746 283.511 232.767 283.5 232.787C283.448 232.89 283.394 232.991 283.34 233.091C283.233 233.293 283.127 233.493 283.02 233.692C282.935 233.853 282.849 234.012 282.763 234.173C282.729 234.238 282.693 234.301 282.659 234.365C282.589 234.495 282.518 234.623 282.449 234.75C282.198 235.232 281.911 235.741 281.626 236.253Z" fill="#E4DBFA"/>
<path d="M280.299 238.552C280.114 238.865 279.926 239.178 279.734 239.489C279.542 239.801 279.357 240.114 279.169 240.424C278.793 241.046 278.407 241.664 278.013 242.279C277.816 242.586 277.619 242.895 277.421 243.2C277.223 243.504 277.023 243.812 276.822 244.116C276.621 244.421 276.418 244.724 276.215 245.028C276.036 245.295 275.855 245.563 275.671 245.83L275.565 245.986C275.37 246.269 275.174 246.551 274.977 246.833C274.773 247.129 274.566 247.422 274.357 247.715C274.351 247.723 274.346 247.731 274.34 247.739C274.164 247.988 273.987 248.237 273.807 248.484C273.736 248.585 273.664 248.685 273.59 248.784C273.496 248.92 273.397 249.055 273.294 249.191C273.16 249.379 273.024 249.564 272.884 249.748C272.791 249.875 272.699 250 272.602 250.126C272.473 250.299 272.343 250.471 272.213 250.645L271.884 251.08L271.615 251.433L271.098 252.104L271.024 252.199C270.836 252.438 270.648 252.678 270.459 252.918C270.391 253.004 270.318 253.09 270.254 253.177C270.092 253.38 269.93 253.585 269.766 253.788L269.523 254.088C269.372 254.276 269.222 254.462 269.069 254.653L268.889 254.873C268.696 255.109 268.5 255.344 268.302 255.578C268.072 255.86 267.839 256.133 267.605 256.408L267.507 256.524C267.298 256.768 267.091 257.012 266.88 257.256C266.582 257.6 266.283 257.94 265.981 258.281C265.548 258.773 265.108 259.268 264.664 259.749C264.414 260.021 264.164 260.294 263.911 260.564C263.759 260.731 263.604 260.896 263.448 261.061C263.351 261.166 263.252 261.271 263.153 261.377C263.118 261.412 263.084 261.448 263.051 261.482L262.981 261.557C262.783 261.766 262.584 261.974 262.385 262.18C262.359 262.204 262.337 262.23 262.313 262.254L261.923 262.657L261.608 262.981C261.578 263.01 261.551 263.038 261.522 263.068L261.088 263.508L260.728 263.87L260.29 264.303L260.03 264.561C259.989 264.599 259.948 264.64 259.91 264.678C259.439 265.142 258.962 265.602 258.479 266.059L258.419 266.116C258.155 266.368 257.889 266.618 257.621 266.868C257.332 267.136 257.043 267.403 256.752 267.669C256.482 267.915 256.212 268.16 255.941 268.403C255.67 268.645 255.376 268.903 255.094 269.151L254.982 269.25C254.759 269.448 254.533 269.644 254.307 269.84C254.272 269.871 254.238 269.902 254.201 269.931C253.713 270.353 253.222 270.772 252.727 271.186L252.519 271.361L252.429 271.436C252.169 271.653 251.907 271.869 251.643 272.083C251.391 272.291 251.136 272.498 250.881 272.702L250.761 272.8C250.491 273.018 250.217 273.234 249.944 273.45C249.922 273.467 249.902 273.484 249.881 273.502C249.872 273.506 249.864 273.512 249.858 273.519C249.591 273.729 249.322 273.938 249.053 274.146L248.97 274.211L248.885 274.276C248.612 274.488 248.337 274.699 248.061 274.907L248.045 274.921C247.804 275.103 247.566 275.283 247.324 275.462L247.145 275.596C247.111 275.621 247.077 275.646 247.043 275.672C246.769 275.874 246.497 276.076 246.22 276.277C245.911 276.503 245.6 276.728 245.288 276.953C245.069 277.108 244.851 277.265 244.629 277.42C244.535 277.486 244.442 277.561 244.347 277.62L244.279 277.666C243.988 277.872 243.693 278.075 243.398 278.279C243.08 278.499 242.761 278.716 242.44 278.932C242.12 279.149 241.798 279.363 241.474 279.577C241.182 279.772 240.887 279.965 240.591 280.157L240.375 280.298C240.093 280.483 239.803 280.666 239.517 280.848C239.23 281.03 238.912 281.23 238.608 281.412C238.555 281.446 238.5 281.478 238.447 281.514C238.184 281.677 237.92 281.839 237.655 282L237.466 282.117C237.155 282.306 236.844 282.492 236.534 282.681C236.49 282.708 236.446 282.732 236.404 282.759C235.79 283.125 235.171 283.486 234.546 283.843L234.421 283.915L233.714 284.317L233.38 284.505C233.057 284.685 232.732 284.865 232.407 285.044C232.111 285.206 231.816 285.365 231.518 285.524L231.268 285.665L230.408 286.121C229.995 286.338 229.579 286.553 229.161 286.767C228.828 286.938 228.491 287.108 228.155 287.276C155.221 323.786 90.2322 299.827 50.5312 258.349C33.7577 240.826 21.4967 220.176 15.0576 199.64C15.0576 199.64 14.8048 198.757 14.4319 197.149C14.0802 195.639 13.6226 193.483 13.1735 190.829C13.1509 190.696 13.1268 190.561 13.1057 190.425C12.9522 189.502 12.8015 188.522 12.6537 187.486C12.6311 187.337 12.6113 187.186 12.5887 187.034C12.5619 186.832 12.5336 186.627 12.5068 186.42C12.4856 186.255 12.4644 186.091 12.4418 185.924C12.4192 185.756 12.3966 185.567 12.374 185.386C12.3279 185.025 12.2841 184.66 12.2427 184.289C12.2201 184.102 12.1989 183.915 12.1791 183.725C12.1593 183.535 12.1368 183.347 12.117 183.161C12.0972 182.975 12.076 182.779 12.0577 182.584L11.9983 182.002C11.98 181.806 11.9602 181.608 11.9433 181.411C11.9263 181.213 11.9065 181.013 11.8882 180.813C11.8698 180.613 11.8543 180.411 11.8373 180.208C11.8204 180.005 11.8048 179.802 11.7879 179.596C11.7879 179.572 11.7879 179.548 11.7879 179.525C11.7596 179.167 11.7342 178.809 11.7102 178.446C11.65 177.58 11.5986 176.695 11.5562 175.792C11.5464 175.575 11.5365 175.357 11.528 175.138C11.4715 173.822 11.4381 172.473 11.4277 171.092C11.4277 170.864 11.4277 170.634 11.4277 170.404C11.4277 169.198 11.4456 167.973 11.4814 166.729C11.4814 166.52 11.4955 166.306 11.5026 166.104C11.5365 165.152 11.5836 164.191 11.6438 163.219C11.658 162.991 11.6721 162.766 11.6876 162.54C11.6876 162.529 11.6876 162.516 11.6876 162.505C11.6883 162.497 11.6883 162.49 11.6876 162.482C11.7046 162.244 11.7215 162.006 11.7413 161.766C11.7596 161.518 11.7808 161.271 11.8006 161.023C11.8458 160.486 11.8957 159.945 11.9503 159.401C11.9701 159.194 11.9927 158.978 12.0153 158.776C12.0379 158.575 12.0633 158.325 12.0901 158.099C12.1226 157.817 12.1551 157.523 12.1918 157.232C12.206 157.115 12.2201 157.001 12.2356 156.886C12.237 156.863 12.2399 156.839 12.2441 156.816L12.2907 156.446C12.3486 156.008 12.4093 155.568 12.4743 155.124C12.4941 154.974 12.5167 154.826 12.5393 154.675C12.5548 154.571 12.5704 154.468 12.5873 154.364L12.6085 154.223C12.6092 154.22 12.6092 154.217 12.6085 154.214C12.6085 154.182 12.6184 154.146 12.624 154.113C12.6551 153.919 12.6848 153.722 12.7172 153.526C12.8867 152.479 13.0751 151.428 13.2822 150.371C13.3312 150.123 13.3815 149.876 13.4333 149.629C13.4941 149.34 13.5548 149.051 13.6198 148.762C13.6607 148.563 13.7045 148.367 13.7497 148.17C13.8189 147.859 13.8909 147.549 13.9644 147.236C14.0053 147.063 14.0477 146.888 14.0901 146.714C14.2831 145.917 14.4898 145.118 14.7101 144.317C14.7638 144.121 14.8189 143.925 14.874 143.732C14.9361 143.51 15.0011 143.289 15.0646 143.069C15.0669 143.058 15.0702 143.048 15.0745 143.038C15.1381 142.819 15.2016 142.602 15.268 142.383C15.3344 142.165 15.4093 141.934 15.4742 141.711C15.5392 141.488 15.6155 141.261 15.6875 141.037C15.6875 141.037 16.7072 154.701 27.4471 173.64C35.0952 187.128 47.674 203.292 68.3246 219.104C69.2473 219.809 70.1819 220.49 71.1282 221.148C125.922 259.188 220.203 216.569 280.299 238.552Z" fill="#BEB2DA"/>
<path d="M263.691 268.548C295.188 238.752 299.508 204.109 299.508 204.109" stroke="#E4DBFA" stroke-width="5" stroke-miterlimit="10" stroke-linecap="round"/>
<path d="M259.115 272.368C259.115 272.368 247.008 283.051 241.422 285.223" stroke="#E4DBFA" stroke-width="5" stroke-miterlimit="10" stroke-linecap="round"/>
<path d="M6.61135 184.9C6.61135 184.9 -9.80772 156.028 27.3735 105.425" stroke="#E4DBFA" stroke-width="5" stroke-miterlimit="10" stroke-linecap="round"/>
<path d="M21.6097 41.6912C12.391 67.3099 38.1686 91.5734 63.2329 80.8639C81.8468 72.9115 102.852 57.8372 106.078 29.8986C112.045 -21.7689 36.7435 1.30427 22.0405 40.5221C21.8917 40.917 21.7481 41.3067 21.6097 41.6912Z" fill="#F6F2FF"/>
<path d="M183.795 141.519C183.795 141.519 177.174 147.755 170.777 151.889C170.488 152.078 170.159 152.27 169.797 152.464C162.207 156.568 139.924 162.182 139.924 162.182C139.924 162.182 139.773 164.512 138.042 165.413C136.312 166.314 124.673 166.991 120.407 166.942C116.142 166.893 115.39 165.895 115.39 165.895L109.327 166.193C109.025 165.516 116.745 157.825 118.702 156.698C120.66 155.571 129.389 158.276 133 157.936C136.612 157.596 157.608 145.089 160.317 143.059C163.026 141.03 171.996 131.495 171.996 131.495L175.135 134.162L183.795 141.519Z" fill="#FECEB3"/>
<path d="M183.796 141.519C183.796 141.519 177.175 147.755 170.778 151.889C170.489 152.078 170.159 152.27 169.798 152.464C169.798 152.464 173.637 146.854 173.188 143.248C172.738 139.642 171.368 133.715 171.368 133.715C171.368 133.715 172.964 133.819 175.137 134.158L183.796 141.519Z" fill="#F59D4E"/>
<path d="M220.762 90.3985C220.762 90.3985 217.203 93.5222 218.361 95.7659C219.519 98.0097 210.956 93.8029 213.263 90.6552C215.569 87.5075 223.827 79.8864 224.155 83.8859C224.483 87.8854 220.762 90.3985 220.762 90.3985Z" fill="#72120C"/>
<path d="M196.577 69.6256C196.577 69.6256 194.288 75.1509 194.279 80.3647C194.269 85.5784 194.551 91.1376 196.99 94.164C199.43 97.1904 203.533 97.6897 203.533 97.6897C203.533 97.6897 203.544 104.157 202.509 105.752C201.473 107.347 204.671 115.841 206.993 115.297C209.315 114.752 212.212 113.915 213.898 109.451C215.585 104.988 216.553 107.289 216.553 107.289C216.553 107.289 214.758 96.7702 215.628 95.0201C216.498 93.2699 219.61 88.8474 220.226 86.2976C220.226 86.2976 222.614 86.4386 224.165 85.0538C225.716 83.6689 226.258 79.3874 223.875 79.1138C223.875 79.1138 225.771 72.1034 224.624 69.7003C223.477 67.2972 212.116 62.3797 210.128 62.2259C208.141 62.0722 196.577 69.6256 196.577 69.6256Z" fill="#FECEB3"/>
<path d="M217.033 82.2404C217.033 82.2404 218.222 76.6163 217.068 72.1246C215.914 67.633 217.338 62.5024 217.338 62.5024C217.338 62.5024 226.503 63.8069 225.828 70.6819C225.153 77.5569 223.876 79.1167 223.876 79.1167C223.876 79.1167 221.708 78.9009 219.112 81.8356C216.516 84.7704 217.033 82.2404 217.033 82.2404Z" fill="#72120C"/>
<path d="M229.432 79.9106C226.029 88.8672 220.762 90.4043 220.762 90.4043C220.762 90.4043 222.501 88.4483 221.919 82.9004C221.759 81.3702 220.961 78.891 219.889 76.1001C217.074 68.7668 212.368 59.2983 212.368 59.2983L210.127 57.4128C210.127 57.4128 215.899 55.0943 221.426 57.7259C225.447 59.6396 232.834 70.9555 229.432 79.9106Z" fill="#6D378F"/>
<path d="M225.268 69.2447C223.107 74.2991 219.889 76.1 219.889 76.1C217.074 68.7667 212.368 59.2982 212.368 59.2982L210.127 57.4127C210.127 57.4127 216.156 54.6133 221.426 57.7258L221.525 57.7836C223.433 58.9176 224.864 60.7045 225.552 62.8123C226.241 64.9201 226.139 67.2057 225.268 69.2447Z" fill="#121212"/>
<path d="M220.928 78.9753C219.098 74.5471 217.406 71.0299 215.226 68.6325C213.12 66.3169 210.565 65.0434 206.976 65.0011C202.243 64.9447 198.833 68.1967 197.023 70.4856C196.468 71.1763 195.969 71.9106 195.533 72.6814C195.533 72.6814 193.644 68.8737 191.832 64.9461C191.995 64.6869 192.118 64.4045 192.195 64.1084C192.229 63.9801 192.237 63.8465 192.221 63.7149C191.976 62.0114 194.072 59.511 192.153 59.8184C191.646 59.9016 190.965 60.5038 190.235 61.35C190.231 61.3557 190.227 61.361 190.222 61.3655C189.965 60.7703 189.725 60.202 189.516 59.6732L189.503 59.6449C189.401 59.3986 189.307 59.1636 189.221 58.9398C188.966 58.3166 188.756 57.6756 188.595 57.0219C188.333 55.5448 188.218 54.0454 188.252 52.5457C188.303 49.7802 188.841 46.6861 190.469 44.9303C193.141 42.0492 202.518 42.3665 209.097 51.457C215.617 60.4671 220.846 78.6933 220.928 78.9753Z" fill="#6D378F"/>
<path d="M215.232 68.6357C213.126 66.32 210.571 65.0466 206.982 65.0043C202.249 64.9479 198.839 68.1999 197.029 70.4888C196.814 70.3485 196.623 70.1742 196.464 69.9726C195.536 68.6314 193.639 66.0479 192.204 64.1116C191.163 62.7013 190.368 61.6422 190.368 61.6422L190.232 61.3475L189.509 59.6763L189.496 59.6481C189.436 59.3886 188.093 53.3753 193.734 50.8735C199.498 48.3153 208.859 55.2453 214.838 67.7557C214.983 68.0603 215.114 68.3536 215.232 68.6357Z" fill="#582279"/>
<path d="M216.866 70.7694C216.743 70.5819 211.007 64.1088 206.386 67.7374C201.873 71.2799 193.834 73.0851 190.72 66.4456C190.495 65.9611 190.307 65.4611 190.155 64.9493C190.104 64.7801 190.062 64.6137 190.028 64.4501C189.604 62.4137 190.494 60.844 192.163 59.8216C194.874 58.1589 201.133 59.2293 206.777 61.9483C211.16 64.0622 215.178 67.1719 216.866 70.7694Z" fill="#72120C"/>
<path d="M203.533 97.6897C203.533 97.6897 206.038 97.9055 209.03 96.8139C209.03 96.8139 210.754 95.8028 209.212 98.5979C207.67 101.393 203.338 102.008 203.338 102.008L203.533 97.6897Z" fill="#F59D4E"/>
<path d="M196.41 81.0033C196.539 80.3049 196.339 79.6829 195.963 79.614C195.588 79.5452 195.179 80.0556 195.051 80.754C194.923 81.4524 195.123 82.0744 195.498 82.1432C195.873 82.212 196.282 81.7017 196.41 81.0033Z" fill="#72120C"/>
<path d="M207.138 81.5253C207.269 80.8247 207.07 80.2 206.694 80.1299C206.317 80.0598 205.906 80.5709 205.775 81.2715C205.644 81.9721 205.843 82.5969 206.22 82.6669C206.596 82.737 207.008 82.2259 207.138 81.5253Z" fill="#72120C"/>
<path d="M206.027 75.9504C205.992 75.7981 206.211 75.6867 206.389 75.6515C206.954 75.5401 208.366 75.3793 208.777 76.444C209.112 77.3226 208.636 77.1139 208.57 76.9757C208.469 76.7627 208.201 76.3101 207.897 76.138C207.195 75.7389 206.108 76.2959 206.027 75.9504Z" fill="#72120C"/>
<path d="M195.632 76.1774C195.5 76.018 195.644 75.767 195.797 75.6288C196.278 75.1846 197.562 74.2101 198.634 75.2283C199.516 76.066 198.917 76.0885 198.767 75.963C198.534 75.7712 197.985 75.3904 197.578 75.358C196.64 75.2833 195.932 76.5412 195.632 76.1774Z" fill="#72120C"/>
<path d="M200.905 80.4377C200.889 81.2059 200.803 81.9711 200.648 82.7237C200.509 83.4744 200.32 84.2151 200.083 84.9407C200.016 85.124 199.953 85.3059 199.867 85.5048C199.842 85.5636 199.813 85.6211 199.782 85.6768L199.756 85.7234L199.744 85.7459C199.744 85.7459 199.731 85.7685 199.744 85.7572C199.758 85.7332 199.768 85.707 199.773 85.6796C199.778 85.6488 199.778 85.6174 199.773 85.5866C199.771 85.5662 199.766 85.5462 199.758 85.5273C199.755 85.5206 199.751 85.5144 199.747 85.509C199.777 85.5508 199.813 85.5878 199.854 85.619C199.913 85.6668 199.976 85.7102 200.042 85.7487C200.183 85.8305 200.334 85.9137 200.492 85.9913C201.169 86.2938 201.867 86.546 202.581 86.7458V86.8022C201.819 86.793 201.063 86.6616 200.343 86.413C200.162 86.3505 199.985 86.276 199.814 86.1901C199.636 86.1073 199.475 85.992 199.34 85.8503C199.3 85.8116 199.271 85.764 199.253 85.7114C199.236 85.6589 199.232 85.603 199.241 85.5485C199.247 85.5199 199.258 85.4924 199.272 85.4667L199.303 85.406C199.324 85.3659 199.343 85.3244 199.36 85.2819C199.43 85.1099 199.491 84.9308 199.552 84.7531C199.795 84.0395 200.012 83.3161 200.225 82.5926L200.861 80.418L200.905 80.4377Z" fill="#F59D4E"/>
<path d="M199.426 90.5128C201.098 90.7553 204.041 90.8611 206.644 89.3084C206.663 89.2961 206.686 89.2917 206.708 89.2962C206.73 89.3006 206.749 89.3137 206.762 89.3324C206.774 89.3511 206.778 89.3739 206.774 89.3959C206.769 89.4178 206.756 89.4371 206.738 89.4494C205.276 90.6058 202.427 92.2699 199.307 90.9316C199.251 90.9159 199.204 90.8788 199.176 90.8284C199.148 90.778 199.141 90.7185 199.157 90.663C199.172 90.6074 199.21 90.5604 199.26 90.5322C199.311 90.5041 199.37 90.4971 199.426 90.5128Z" fill="#F59D4E"/>
<path d="M208.386 84.3895C208.559 84.3895 208.698 84.2499 208.698 84.0778C208.698 83.9057 208.559 83.7661 208.386 83.7661C208.214 83.7661 208.074 83.9057 208.074 84.0778C208.074 84.2499 208.214 84.3895 208.386 84.3895Z" fill="#F59D4E"/>
<path d="M197.153 83.4109C197.325 83.4109 197.465 83.2714 197.465 83.0993C197.465 82.9271 197.325 82.7876 197.153 82.7876C196.981 82.7876 196.841 82.9271 196.841 83.0993C196.841 83.2714 196.981 83.4109 197.153 83.4109Z" fill="#F59D4E"/>
<path d="M209.558 84.9097C209.68 84.9097 209.779 84.8112 209.779 84.6897C209.779 84.5682 209.68 84.4697 209.558 84.4697C209.437 84.4697 209.338 84.5682 209.338 84.6897C209.338 84.8112 209.437 84.9097 209.558 84.9097Z" fill="#F59D4E"/>
<path d="M195.449 82.2066C195.571 82.2066 195.669 82.1081 195.669 81.9866C195.669 81.8651 195.571 81.7666 195.449 81.7666C195.327 81.7666 195.229 81.8651 195.229 81.9866C195.229 82.1081 195.327 82.2066 195.449 82.2066Z" fill="#F59D4E"/>
<path d="M195.556 85.0015C195.678 85.0015 195.777 84.903 195.777 84.7815C195.777 84.66 195.678 84.5615 195.556 84.5615C195.435 84.5615 195.336 84.66 195.336 84.7815C195.336 84.903 195.435 85.0015 195.556 85.0015Z" fill="#F59D4E"/>
<path d="M209.755 83.8565C209.877 83.8565 209.976 83.758 209.976 83.6365C209.976 83.515 209.877 83.4165 209.755 83.4165C209.634 83.4165 209.535 83.515 209.535 83.6365C209.535 83.758 209.634 83.8565 209.755 83.8565Z" fill="#F59D4E"/>
<path d="M207.04 85.4344C207.212 85.4344 207.352 85.2948 207.352 85.1227C207.352 84.9506 207.212 84.811 207.04 84.811C206.867 84.811 206.728 84.9506 206.728 85.1227C206.728 85.2948 206.867 85.4344 207.04 85.4344Z" fill="#F59D4E"/>
<path d="M208.644 86.313C208.864 86.313 209.043 86.1349 209.043 85.9153C209.043 85.6956 208.864 85.5176 208.644 85.5176C208.424 85.5176 208.246 85.6956 208.246 85.9153C208.246 86.1349 208.424 86.313 208.644 86.313Z" fill="#F59D4E"/>
<path d="M195.822 83.7495C196.042 83.7495 196.22 83.5714 196.22 83.3518C196.22 83.1322 196.042 82.9541 195.822 82.9541C195.602 82.9541 195.424 83.1322 195.424 83.3518C195.424 83.5714 195.602 83.7495 195.822 83.7495Z" fill="#F59D4E"/>
<path d="M210.285 85.9424C210.505 85.9424 210.683 85.7643 210.683 85.5447C210.683 85.325 210.505 85.147 210.285 85.147C210.065 85.147 209.887 85.325 209.887 85.5447C209.887 85.7643 210.065 85.9424 210.285 85.9424Z" fill="#F59D4E"/>
<path opacity="0.67" d="M216.866 70.7692C216.743 70.5817 211.007 64.1086 206.386 67.7372C201.873 71.2797 193.834 73.0849 190.719 66.4454C190.495 65.9609 190.306 65.4609 190.154 64.9491C190.104 64.7799 190.061 64.6135 190.027 64.4499C192.344 67.6639 197.723 67.9544 200.464 67.4114C205.294 66.4623 206.746 62.0412 206.777 61.9438C211.16 64.0621 215.178 67.1717 216.866 70.7692Z" fill="#540200"/>
<path d="M202.425 104.704C202.425 104.704 204.955 109.685 215.51 103.649C215.928 103.334 216.37 103.052 216.832 102.803C217.359 102.552 218.086 103.455 220.746 103.755C223.405 104.056 236.248 103.078 240.563 107.487C244.878 111.895 253.557 132.684 253.557 132.684L238.093 140.698L192.376 136.045L180.539 145.537L173.188 129.357C173.188 129.357 185.378 110.647 191.549 107.791C195.663 105.889 198.558 106.35 200.091 105.274C201.108 104.551 202.238 104.204 202.425 104.704Z" fill="url(#paint0_linear_138_1712)"/>
<g opacity="0.54">
<path opacity="0.54" d="M189.462 112.892C189.462 112.892 188.688 115.596 188.388 117.45C188.087 119.305 187.936 132.378 186.18 134.631C184.424 136.885 181.063 136.835 180.059 135.532C179.054 134.229 174.605 127.227 174.605 127.227L180.538 145.527L192.375 136.034L189.462 112.892Z" fill="#D2D7DB"/>
</g>
<g opacity="0.54">
<path opacity="0.54" d="M196.555 108.985C196.555 108.985 196.514 128.095 198.391 129.209C200.269 130.323 221.946 130.399 221.343 127.544C220.74 124.688 222.659 104.649 223.45 103.83L224.316 103.839C224.316 103.839 224.289 130.774 223.682 132.467C223.074 134.159 196.729 135.981 195.341 133.716C193.952 131.451 195.341 109.135 195.341 109.135L196.555 108.985Z" fill="#D2D7DB"/>
</g>
<g opacity="0.54">
<path opacity="0.54" d="M233.498 104.51C233.498 104.51 231.662 121.833 233.162 123.787C234.662 125.74 244.927 126.366 245.379 129.322C245.831 132.278 243.825 133.976 244.927 134.08C246.029 134.185 252.31 129.769 252.31 129.769C252.31 129.769 253.606 132.227 253.555 132.678C253.505 133.13 246.824 137.446 244.857 138.696C242.889 139.945 234.442 143.323 234.442 143.323C234.442 143.323 227.292 132.464 228.045 123.916C228.798 115.369 231.114 104.173 231.114 104.173L233.498 104.51Z" fill="#D2D7DB"/>
</g>
<path d="M195.964 307.333C196.247 309.206 196.529 311.056 196.812 312.833C198.153 321.38 199.374 328.268 199.374 328.268L209.875 330.295C209.875 330.295 209.328 329.687 208.806 327.817C208.1 325.292 207.439 320.464 208.221 311.716C208.297 310.881 208.386 310.009 208.488 309.1C208.665 307.533 209.027 305.838 209.218 304.119C209.849 298.461 209.964 292.753 209.964 292.753C209.964 292.753 193.942 273.518 193.367 282.289C193.086 286.5 194.46 297.273 195.964 307.333Z" fill="#FFEDAB"/>
<path d="M196.807 312.833C198.148 321.38 199.369 328.268 199.369 328.268L208.253 329.125L208.801 327.817C208.094 325.292 207.433 320.464 208.216 311.716C205.91 312.744 201.975 313.838 196.807 312.833Z" fill="#FFB113"/>
<path d="M212.266 336.608C212.255 337.201 212.153 337.788 211.964 338.35L177.032 338.463C177.032 338.463 176.15 338.126 175.828 336.377C175.743 335.895 175.704 335.406 175.712 334.917C175.732 331.881 188.873 329.276 193.226 327.161C198.855 324.432 198.443 326.122 198.443 326.122C198.443 326.122 203.311 328.164 208.753 326.188C208.753 326.188 210.715 322.662 211.992 333.09C212.2 334.251 212.291 335.429 212.266 336.608Z" fill="#333333"/>
<path d="M212.265 336.608C212.254 337.201 212.152 337.788 211.963 338.35L177.032 338.463C177.032 338.463 176.149 338.126 175.827 336.377L212.265 336.608Z" fill="#FFB113"/>
<path d="M193.246 330.649C193.184 330.648 193.124 330.624 193.078 330.581C193.033 330.537 193.006 330.478 193.004 330.416C192.958 329.443 192.667 328.497 192.156 327.667C192.119 327.614 192.104 327.548 192.115 327.484C192.126 327.42 192.162 327.363 192.215 327.326C192.269 327.289 192.334 327.274 192.399 327.285C192.463 327.296 192.52 327.332 192.557 327.385C193.125 328.289 193.448 329.324 193.495 330.389C193.497 330.421 193.492 330.453 193.481 330.483C193.47 330.513 193.453 330.54 193.432 330.564C193.41 330.587 193.384 330.607 193.356 330.62C193.327 330.634 193.295 330.641 193.263 330.643L193.246 330.649Z" fill="white"/>
<path d="M189.93 331.194C189.868 331.194 189.808 331.169 189.763 331.126C189.718 331.083 189.691 331.024 189.689 330.962C189.615 329.391 189.011 328.717 189.005 328.705C188.966 328.658 188.946 328.597 188.95 328.535C188.954 328.473 188.981 328.415 189.026 328.373C189.071 328.33 189.13 328.306 189.192 328.306C189.254 328.306 189.314 328.329 189.359 328.371C189.391 328.402 190.094 329.164 190.176 330.933C190.179 330.998 190.156 331.061 190.112 331.109C190.068 331.157 190.007 331.185 189.943 331.189L189.93 331.194Z" fill="white"/>
<path d="M196.609 329.667C196.547 329.666 196.487 329.642 196.442 329.598C196.397 329.555 196.37 329.495 196.368 329.433C196.262 326.775 194.759 326.67 194.744 326.67C194.712 326.669 194.68 326.661 194.651 326.647C194.622 326.633 194.596 326.614 194.575 326.59C194.553 326.566 194.536 326.538 194.526 326.508C194.515 326.478 194.51 326.446 194.512 326.414C194.516 326.349 194.545 326.289 194.592 326.246C194.64 326.202 194.703 326.18 194.768 326.182C194.847 326.182 196.732 326.315 196.855 329.413C196.857 329.445 196.851 329.477 196.84 329.507C196.829 329.537 196.812 329.565 196.791 329.588C196.769 329.612 196.743 329.631 196.713 329.644C196.684 329.657 196.653 329.665 196.621 329.666L196.609 329.667Z" fill="white"/>
<path d="M208.801 306.922C208.801 306.922 201.818 311.089 196.231 309.124L195.68 302.133L209.441 301.796L208.801 306.922Z" fill="#F59D4E"/>
<path d="M237.362 307.333C237.645 309.206 237.927 311.056 238.21 312.833C239.553 321.38 240.772 328.268 240.772 328.268L251.274 330.295C251.274 330.295 250.728 329.687 250.205 327.817C249.499 325.292 248.838 320.464 249.621 311.716C249.696 310.881 249.784 310.009 249.886 309.1C250.064 307.533 250.426 305.838 250.618 304.119C251.249 298.461 251.363 292.753 251.363 292.753C251.363 292.753 235.341 273.518 234.765 282.289C234.485 286.5 235.86 297.273 237.362 307.333Z" fill="#FFEDAB"/>
<path d="M238.205 312.833C239.548 321.38 240.767 328.268 240.767 328.268L249.653 329.125L250.201 327.817C249.494 325.292 248.833 320.464 249.616 311.716C247.308 312.744 243.374 313.838 238.205 312.833Z" fill="#FFB113"/>
<path d="M253.663 336.608C253.653 337.201 253.551 337.788 253.362 338.35L218.431 338.463C218.431 338.463 217.548 338.126 217.225 336.377C217.141 335.895 217.103 335.406 217.11 334.917C217.129 331.881 230.27 329.276 234.624 327.161C240.254 324.432 239.841 326.122 239.841 326.122C239.841 326.122 244.71 328.164 250.152 326.188C250.152 326.188 252.114 322.662 253.39 333.09C253.598 334.251 253.689 335.429 253.663 336.608Z" fill="#333333"/>
<path d="M253.663 336.608C253.653 337.201 253.551 337.788 253.362 338.35L218.431 338.463C218.431 338.463 217.548 338.126 217.225 336.377L253.663 336.608Z" fill="#FFB113"/>
<path d="M234.645 330.649C234.583 330.648 234.523 330.623 234.478 330.58C234.433 330.537 234.407 330.478 234.404 330.416C234.359 329.443 234.067 328.497 233.556 327.667C233.519 327.614 233.504 327.548 233.515 327.484C233.526 327.42 233.563 327.363 233.616 327.326C233.669 327.289 233.735 327.274 233.799 327.285C233.863 327.296 233.92 327.332 233.958 327.385C234.525 328.289 234.848 329.324 234.895 330.389C234.897 330.421 234.892 330.453 234.881 330.483C234.87 330.513 234.854 330.54 234.832 330.564C234.811 330.587 234.785 330.607 234.756 330.62C234.727 330.634 234.696 330.641 234.664 330.643L234.645 330.649Z" fill="white"/>
<path d="M231.333 331.194C231.27 331.194 231.211 331.169 231.166 331.126C231.121 331.083 231.094 331.024 231.091 330.962C231.018 329.391 230.413 328.716 230.406 328.705C230.363 328.658 230.34 328.595 230.342 328.53C230.344 328.466 230.372 328.405 230.419 328.361C230.466 328.317 230.528 328.293 230.593 328.295C230.657 328.297 230.718 328.324 230.762 328.371C230.792 328.402 231.497 329.163 231.578 330.933C231.581 330.998 231.558 331.061 231.514 331.108C231.471 331.156 231.41 331.185 231.345 331.189L231.333 331.194Z" fill="white"/>
<path d="M238.009 329.667C237.946 329.666 237.886 329.641 237.841 329.598C237.796 329.554 237.769 329.495 237.766 329.433C237.66 326.774 236.158 326.67 236.143 326.67C236.111 326.668 236.08 326.661 236.051 326.647C236.022 326.633 235.996 326.614 235.974 326.59C235.952 326.567 235.936 326.539 235.925 326.509C235.914 326.479 235.909 326.447 235.91 326.415C235.912 326.383 235.92 326.351 235.933 326.322C235.947 326.293 235.966 326.267 235.99 326.245C236.014 326.224 236.041 326.207 236.072 326.196C236.102 326.185 236.134 326.18 236.166 326.182C236.247 326.182 238.131 326.314 238.255 329.413C238.257 329.477 238.234 329.54 238.19 329.587C238.146 329.635 238.085 329.663 238.021 329.665L238.009 329.667Z" fill="white"/>
<path d="M250.202 306.923C250.202 306.923 243.219 311.09 237.631 309.124L237.082 302.133L250.844 301.795L250.202 306.923Z" fill="#F59D4E"/>
<path d="M251.155 297.977C251.061 299.848 250.996 300.889 250.996 300.889L236.398 306.375C236.398 306.375 235.8 303.869 234.896 299.974L234.675 299.016L234.511 298.304C234.372 297.7 234.227 297.072 234.076 296.42L234.014 296.147C231.534 285.328 227.851 268.731 226.692 260.608C224.885 247.983 217.523 220.821 217.523 220.821C217.523 220.821 215.629 232.206 214.951 251.591C214.318 269.766 210.996 296.757 210.592 300.059C210.564 300.279 210.55 300.394 210.55 300.394C205.807 305.691 194.287 302.986 194.287 302.986C194.287 302.986 194.2 301.012 194.046 297.719L193.989 296.54C193.979 296.328 193.97 296.117 193.958 295.894L193.924 295.169C193.907 294.8 193.889 294.42 193.869 294.03C193.858 293.77 193.845 293.507 193.833 293.237L193.813 292.839C193.269 281.509 192.334 262.921 191.423 248.886C190.018 227.246 187.861 155.413 188.086 149.512C188.31 143.612 189.29 115.666 189.516 111.832C189.58 110.749 189.672 109.908 189.771 109.259C189.865 108.65 190.1 108.071 190.457 107.568C190.814 107.066 191.284 106.653 191.828 106.363C193.328 105.562 195.501 104.539 196.163 104.919C197.217 105.521 195.762 125.357 196.251 129.64C196.739 133.923 223.078 131.444 222.929 129.34C222.781 127.236 223.305 105.971 223.983 103.827C224.661 101.683 230.152 102.439 231.808 103.191C233.463 103.943 232.577 104.357 232.577 104.357C230.487 106.798 231.165 128.807 231.165 128.807L243.622 156.014C244.752 157.592 245.662 159.758 246.402 162.395C250.849 178.234 249.126 211.109 250.996 236.037C252.801 260.162 251.614 288.882 251.155 297.977Z" fill="#68378F"/>
<path d="M250.996 236.044C249.215 212.311 250.693 181.373 246.999 164.794C246.964 164.626 246.915 164.419 246.858 164.193C246.717 163.576 246.56 162.976 246.399 162.402C246.32 162.109 242.266 140.423 242.266 140.423L206.827 142.566C206.827 142.566 195.087 172.852 196.253 173.829C197.42 174.807 230.08 181.192 233.165 181.043C233.832 181.011 234.361 180.301 234.792 179.2C235.134 178.33 236.759 173.595 237.254 172.801C238.659 170.545 243.17 171.391 244.174 173.303C247.084 178.813 242.492 221.692 243.283 234.315C244.074 246.939 247.536 287.715 244.174 291.071C239.857 295.382 234.014 296.148 234.014 296.148L234.076 296.422L234.511 298.306L234.675 299.018L234.896 299.976C234.896 299.976 245.33 299.21 251.155 297.979C251.614 288.882 252.801 260.163 250.996 236.044Z" fill="#582279"/>
<path d="M204.555 121.365L204.213 122.931L241.348 131.038L240.088 136.792L238.891 142.258L231.376 176.577L232.788 176.886L240.348 142.365L241.636 136.487L243.103 129.78L204.555 121.365Z" fill="#FFB113"/>
<path d="M204.213 122.931L194.24 168.469L231.376 176.577L238.892 142.258L240.088 136.792L241.348 131.038L204.213 122.931Z" fill="#F27204"/>
<path d="M235.176 297.878C235.176 297.878 247.635 296.233 251.418 292.023L251.355 298.985C251.355 298.985 240.006 302.793 237.95 301.795C235.893 300.796 235.176 297.878 235.176 297.878Z" fill="#42115F"/>
<path d="M174.605 127.228C174.605 127.228 177.926 136.439 182.178 143.324C182.178 143.324 182.793 144.124 182.541 144.624C182.29 145.125 179.28 147.906 178.604 147.606C177.927 147.305 168.934 131.3 170.59 128.971C172.245 126.641 174.331 125.71 174.605 127.228Z" fill="#333333"/>
<path d="M126.378 161.807C124.761 162.67 117.424 164.248 116.031 164.699C114.639 165.15 115.39 165.895 115.39 165.895" stroke="#FED194" stroke-miterlimit="10"/>
<path d="M139.924 162.18C139.924 162.18 140.05 161.729 139.798 160.528C139.798 160.528 139.272 160.104 141.88 160.076C144.489 160.048 151.343 159.057 151.343 159.057C151.343 159.057 141.354 161.907 139.924 162.18Z" fill="#F59D4E"/>
<path d="M114.408 165.945C114.408 165.945 114.113 164.768 114.973 163.85C115.833 162.932 126.753 161.722 127.38 161.422C127.38 161.422 124.459 162.601 122.455 163.062C113.98 165.018 115.182 165.131 115.393 165.895L114.408 165.945Z" fill="#F59D4E"/>
<path d="M208.731 135.881L189.867 152.038L190.47 153.241L209.785 136.961L208.731 135.881Z" fill="#070208"/>
<path d="M258.692 157.373C257.94 160.078 256.51 163.686 242.664 163.797C228.818 163.908 206.58 156.847 205.64 156.547C204.699 156.247 196.534 155.158 195.518 153.993C194.503 152.828 193.29 150.23 192.527 148.386C191.937 146.959 192.571 145.151 192.571 145.151C192.445 142.846 193.473 142.145 193.473 142.145C193.473 142.145 193.085 141.402 193.799 140.518C194.891 139.164 196.408 141.137 196.493 141.216C196.086 140.652 197.027 137.992 198.528 139.524C200.03 141.055 203.344 143.319 205.449 145.234C207.553 147.149 208.648 150.232 208.648 150.232C208.648 150.232 213.238 150.907 220.614 150.982C227.989 151.057 242.663 148.726 242.663 148.726L241.182 144.271L240.536 142.322C240.536 142.322 252.386 133.884 254.027 135.437C254.436 135.825 254.977 137.215 255.549 139.126C257.27 144.873 259.258 155.343 258.692 157.373Z" fill="#FECEB3"/>
<path d="M242.664 148.732C242.664 148.732 247.229 148.309 250.842 152.564C250.842 152.564 251.58 153.015 251.548 151.889C251.515 150.762 246.795 146.845 242.342 147.751L242.664 148.732Z" fill="#F59D4E"/>
<path d="M255.55 139.122C255.55 139.122 250.712 144.553 241.183 144.271L240.536 142.322C240.536 142.322 252.386 133.884 254.027 135.437C254.437 135.82 254.978 137.211 255.55 139.122Z" fill="#F59D4E"/>
<path d="M195.346 141.216C195.346 141.216 198.145 144.775 199.583 145.527" stroke="#FED194" stroke-miterlimit="10"/>
<path d="M193.48 142.145C193.834 142.554 194.165 142.974 194.493 143.399C194.821 143.823 195.14 144.253 195.461 144.682L196.408 145.977C196.486 146.085 196.568 146.191 196.647 146.298C196.726 146.405 196.805 146.514 196.889 146.618C196.972 146.723 197.05 146.831 197.136 146.933C197.22 147.037 197.311 147.136 197.407 147.229L197.237 147.116C197.181 147.078 197.133 147.03 197.081 146.988C196.975 146.9 196.881 146.805 196.784 146.706C196.596 146.513 196.413 146.314 196.236 146.109C195.883 145.702 195.555 145.276 195.233 144.84C194.911 144.404 194.608 143.967 194.314 143.516C194.02 143.065 193.729 142.62 193.48 142.145Z" fill="#F59D4E"/>
<path d="M192.571 145.15C192.903 145.542 193.211 145.949 193.512 146.36C193.813 146.772 194.102 147.192 194.388 147.614C194.673 148.036 194.953 148.46 195.212 148.903C195.472 149.346 195.735 149.779 195.97 150.236C195.638 149.844 195.328 149.438 195.029 149.026C194.729 148.614 194.438 148.194 194.153 147.771C193.868 147.348 193.588 146.924 193.33 146.483C193.071 146.042 192.806 145.607 192.571 145.15Z" fill="#F59D4E"/>
<path d="M196.932 139.408C196.932 139.408 196.911 140.718 198.216 142.145C199.521 143.572 201.323 145.276 201.251 145.53C201.179 145.783 201.064 145.865 200.403 145.327C199.742 144.788 196.549 141.441 196.449 141.134C196.186 140.279 196.932 139.408 196.932 139.408Z" fill="#F59D4E"/>
<path d="M234.888 297.751C234.888 297.751 238.227 299.437 243.731 298.521C249.235 297.606 251.358 294.776 251.358 294.776C251.358 294.776 252.446 292.988 252.77 294.635C253.095 296.282 254.194 303.237 253.389 304.257C252.584 305.277 234.745 310.321 233.973 306.213C233.2 302.105 231.586 295.415 234.888 297.751Z" fill="#7C48A0"/>
<path d="M254.196 130.323C253.745 129.571 252.792 130.887 252.792 130.887C249.552 133.585 245.734 135.504 241.634 136.494L240.346 142.372C246.963 142.426 255.882 137.122 256.375 136.078C256.905 134.944 254.648 131.074 254.196 130.323Z" fill="#333333"/>
<path d="M71.5942 120.969L98.4593 167.856H95.1868L68.1338 120.969H71.5942Z" fill="#070208"/>
<path d="M95.186 167.856H156.028V165.376H94.0547L95.186 167.856Z" fill="#070208"/>
<path d="M160.694 167.855H80.0234V337.707H160.694V167.855Z" fill="#D5301D"/>
<path opacity="0.62" d="M160.694 196.769V337.707H80.0234V289.874C102.537 277.934 147.427 247.078 160.694 196.769Z" fill="#AD2217"/>
<path d="M217.522 220.827C217.522 220.827 215.628 232.212 214.95 251.598C214.318 269.773 210.996 296.764 210.592 300.066C207.936 300.771 205.308 301.243 204.116 301.194C201.632 301.079 194.046 297.73 194.046 297.73L193.989 296.551L193.958 295.905L193.924 295.18L193.869 294.041L193.832 293.248L193.812 292.851C193.812 292.851 206.147 294.426 207.049 280.002C207.952 265.578 212.017 204.715 214.5 209.224C216.983 213.732 217.522 220.827 217.522 220.827Z" fill="#582279"/>
<path d="M194.115 295.599C194.115 295.599 207.842 294.557 211.924 288.631L210.964 297.433C210.964 297.433 200.879 304.127 197.569 301.795C194.258 299.462 194.115 295.599 194.115 295.599Z" fill="#42115F"/>
<path d="M194.115 295.6C194.115 295.6 197.267 297.705 202.835 297.33C208.403 296.955 210.805 294.227 210.805 294.227C210.805 294.227 212.066 292.479 212.218 294.227C212.369 295.976 212.768 303.343 211.866 304.321C210.963 305.298 192.701 308.681 192.351 304.321C192.001 299.96 191.064 292.817 194.115 295.6Z" fill="#7C48A0"/>
<path d="M201.066 106.129C201.128 106.303 201.203 106.472 201.292 106.635C201.333 106.717 201.377 106.798 201.425 106.876C201.473 106.953 201.52 107.032 201.573 107.107C201.773 107.411 202.01 107.688 202.28 107.932C202.411 108.055 202.548 108.17 202.692 108.278L202.917 108.419C202.989 108.472 203.065 108.519 203.145 108.56C203.301 108.646 203.462 108.722 203.627 108.787L203.874 108.884C203.959 108.912 204.047 108.932 204.131 108.956L204.387 109.027L204.651 109.07L204.914 109.115C205.001 109.128 205.09 109.134 205.179 109.142C205.539 109.168 205.9 109.173 206.26 109.155C206.989 109.121 207.715 109.038 208.433 108.908C209.157 108.791 209.874 108.626 210.585 108.448C211.295 108.271 211.997 108.054 212.703 107.821C213.4 107.586 214.082 107.312 214.748 107C215.081 106.844 215.406 106.671 215.721 106.481C216.04 106.294 216.34 106.076 216.614 105.828C216.379 106.12 216.109 106.383 215.81 106.609C215.513 106.84 215.203 107.052 214.88 107.244C214.232 107.623 213.556 107.953 212.858 108.231C211.465 108.794 210.015 109.207 208.534 109.462C207.787 109.591 207.032 109.665 206.274 109.687C205.891 109.691 205.509 109.672 205.128 109.632C205.034 109.619 204.938 109.609 204.846 109.592L204.563 109.531L204.281 109.467L203.999 109.374C203.26 109.133 202.598 108.702 202.08 108.124C201.826 107.841 201.611 107.525 201.439 107.185C201.265 106.852 201.14 106.497 201.066 106.129Z" fill="#AEB6B7"/>
<defs>
<linearGradient id="paint0_linear_138_1712" x1="213.372" y1="102.76" x2="213.372" y2="145.537" gradientUnits="userSpaceOnUse">
<stop stop-color="#242424"/>
<stop offset="1" stop-color="#121212"/>
</linearGradient>
</defs>
</svg>
