<svg width="349" height="215" viewBox="0 0 349 215" fill="none" xmlns="http://www.w3.org/2000/svg">
<path d="M315.631 93.8028C315.81 93.9533 315.972 94.1238 316.113 94.3109C316.297 94.507 316.467 94.7159 316.621 94.9359C316.809 95.195 317.043 95.4694 317.251 95.8149C317.493 96.179 317.715 96.5555 317.917 96.9429C318.158 97.3823 318.374 97.8353 318.562 98.2996C318.996 99.3685 319.306 100.483 319.487 101.623C319.65 102.764 319.681 103.92 319.579 105.068C319.532 105.568 319.456 106.065 319.35 106.556C319.266 106.986 319.156 107.41 319.02 107.827C318.918 108.172 318.797 108.511 318.659 108.843C318.564 109.098 318.452 109.345 318.324 109.585C318.234 109.798 318.123 110.003 317.993 110.194C317.937 110.194 318.41 109.295 318.847 107.771C318.966 107.358 319.063 106.939 319.137 106.516C319.231 106.03 319.299 105.54 319.34 105.047C319.429 103.917 319.393 102.781 319.233 101.658C319.052 100.541 318.754 99.4458 318.344 98.391C318.141 97.9083 317.953 97.451 317.729 97.0395C317.537 96.6528 317.325 96.2763 317.094 95.9114C316.24 94.5599 315.559 93.8384 315.631 93.8028Z" fill="#E0E0E0"/>
<path d="M41.3838 101.343C41.4749 101.188 41.5822 101.044 41.7039 100.911C41.9478 100.601 42.2577 100.22 42.6236 99.7682C43.3959 98.8028 44.4629 97.4614 45.5859 95.9421C46.7088 94.4229 47.6793 93.0205 48.3754 91.9941L49.1985 90.7797C49.2917 90.6262 49.3989 90.4817 49.5186 90.3478C49.4575 90.5175 49.3738 90.6782 49.2697 90.8255C49.0969 91.1303 48.8378 91.5571 48.5075 92.0805C47.8469 93.1323 46.8968 94.5601 45.7637 96.0793C44.6306 97.5986 43.5534 98.9298 42.7455 99.8698C42.339 100.337 42.0088 100.713 41.7699 100.967C41.657 101.108 41.5274 101.234 41.3838 101.343Z" fill="#E0E0E0"/>
<path d="M33.1211 115.57C33.3338 115.565 33.5465 115.58 33.7562 115.616L35.4838 115.829C36.937 116.017 38.944 116.292 41.1594 116.612C43.3748 116.932 45.3818 117.232 46.8299 117.466L48.5473 117.745C48.759 117.774 48.968 117.82 49.1723 117.882C48.9579 117.888 48.7435 117.872 48.5321 117.836L46.8096 117.623C45.3564 117.435 43.3443 117.156 41.1289 116.835C38.9135 116.515 36.9065 116.216 35.4584 115.987L33.7461 115.702C33.5341 115.678 33.3248 115.634 33.1211 115.57Z" fill="#E0E0E0"/>
<path d="M48.8071 117.719C48.9206 117.52 49.0515 117.331 49.1984 117.155C49.4829 116.769 49.8589 116.271 50.3111 115.666C51.2511 114.406 52.5417 112.663 53.9136 110.697C55.2855 108.731 56.4847 106.922 57.3383 105.616L58.3545 104.056C58.4696 103.859 58.6004 103.673 58.7458 103.497C58.6569 103.708 58.5498 103.91 58.4257 104.102C58.2072 104.483 57.882 105.032 57.4704 105.697C56.6473 107.039 55.4685 108.868 54.0915 110.834C52.7145 112.801 51.4087 114.538 50.4331 115.773C49.925 116.388 49.5439 116.886 49.2593 117.221C49.125 117.401 48.9736 117.568 48.8071 117.719V117.719Z" fill="#E0E0E0"/>
<path d="M170.093 96.7244C169.994 96.628 169.908 96.5186 169.839 96.3992C169.661 96.1299 169.447 95.7996 169.183 95.383C168.614 94.5192 167.827 93.2489 166.876 91.6687C164.971 88.5032 162.476 84.047 159.788 79.093C157.1 74.1389 154.646 69.6878 152.807 66.5122L150.622 62.7318L150.033 61.7156C149.956 61.5987 149.894 61.4723 149.85 61.3396C149.95 61.4371 150.035 61.5483 150.104 61.6699L150.759 62.6861C151.328 63.5499 152.116 64.8201 153.066 66.4055C154.971 69.571 157.471 74.0271 160.179 78.9812C162.888 83.9353 165.316 88.4015 167.156 91.6026L169.341 95.3881C169.58 95.7996 169.773 96.1451 169.93 96.4043C169.996 96.5044 170.051 96.6118 170.093 96.7244V96.7244Z" fill="#E0E0E0"/>
<path d="M207.363 78.4786C207.25 78.5648 207.127 78.6365 206.997 78.692L205.92 79.2153L201.931 81.1766C198.562 82.8382 193.933 85.1805 188.827 87.7821C183.72 90.3836 179.061 92.6803 175.657 94.2706C173.955 95.0633 172.572 95.6933 171.592 96.11L170.479 96.5775C170.353 96.6437 170.218 96.69 170.078 96.7147C170.191 96.6299 170.314 96.5583 170.443 96.5012L171.521 95.9576L175.514 93.9963C178.883 92.3398 183.507 89.9974 188.619 87.3908C193.73 84.7842 198.379 82.4926 201.784 80.9023C203.486 80.1096 204.868 79.4796 205.849 79.0629L206.961 78.5954C207.088 78.5362 207.224 78.4968 207.363 78.4786V78.4786Z" fill="#E0E0E0"/>
<path d="M344.085 212.888C344.085 212.965 267.869 213.021 173.899 213.021C79.9291 213.021 3.68213 212.965 3.68213 212.888C3.68213 212.812 79.8682 212.756 173.899 212.756C267.93 212.756 344.085 212.817 344.085 212.888Z" fill="#263238"/>
<path d="M148.036 212.888L80.4983 212.578C76.5991 212.554 72.8684 210.985 70.1236 208.216C67.3789 205.446 65.8437 201.702 65.8545 197.802L66.571 28.4849C66.5938 24.5839 68.1626 20.8512 70.9334 18.1052C73.7042 15.3591 77.4509 13.8239 81.3519 13.8361L148.89 14.146C152.787 14.1702 156.516 15.7375 159.261 18.5049C162.005 21.2722 163.542 25.0142 163.534 28.9117L162.817 198.229C162.797 202.132 161.229 205.867 158.458 208.616C155.687 211.364 151.939 212.9 148.036 212.888V212.888Z" fill="#455A64"/>
<path d="M148.793 19.9892L135.699 19.9282C134.837 19.9442 134.017 20.3014 133.417 20.9215C132.818 21.5415 132.49 22.3739 132.503 23.236V25.6139C132.51 26.0407 132.432 26.4647 132.275 26.8615C132.118 27.2583 131.884 27.6203 131.586 27.9266C131.289 28.2328 130.934 28.4775 130.542 28.6465C130.15 28.8155 129.729 28.9056 129.302 28.9116L103.775 28.7947C102.913 28.7694 102.096 28.4041 101.503 27.7786C100.91 27.1531 100.589 26.3182 100.609 25.4564V23.0785C100.624 22.2223 100.302 21.3947 99.711 20.7747C99.1204 20.1547 98.3095 19.7922 97.4537 19.7656H92.8502L81.3923 19.6792C78.6603 19.6657 76.0347 20.7377 74.0928 22.6596C72.151 24.5814 71.0518 27.1957 71.037 29.9278L70.3409 195.196C70.3288 197.928 71.4021 200.553 73.3249 202.494C75.2477 204.435 77.8625 205.532 80.5946 205.546L148 205.856C149.354 205.862 150.695 205.601 151.947 205.089C153.2 204.577 154.339 203.823 155.3 202.87C156.261 201.917 157.025 200.785 157.549 199.537C158.072 198.289 158.345 196.95 158.351 195.597L159.047 30.3343C159.053 28.9817 158.792 27.6413 158.28 26.3894C157.768 25.1375 157.015 23.9987 156.063 23.0381C155.11 22.0774 153.978 21.3138 152.731 20.7906C151.484 20.2675 150.146 19.9951 148.793 19.9892V19.9892Z" fill="#FAFAFA"/>
<path d="M70.9556 49.7696H82.0019L91.8592 59.632L81.6106 69.8806L71.0724 59.3373L70.9556 49.7696Z" fill="#EBEBEB"/>
<path d="M94.1107 55.3029L88.5723 49.7696H101.031L94.1107 55.3029Z" fill="#EBEBEB"/>
<path d="M98.9531 59.8251L108.653 50.1252H142.544C142.544 50.1252 147.732 73.2951 127.301 88.1725L98.9531 59.8251Z" fill="#EBEBEB"/>
<path d="M94.8019 62.9148L84.4263 73.2955L113.14 102.009L123.515 91.2826L94.8019 62.9148Z" fill="#EBEBEB"/>
<path d="M70.8286 79.1794L77.3324 72.4317L70.9556 66.0549L70.8286 79.1794Z" fill="#EBEBEB"/>
<path d="M81.2253 76.4097L71.2358 86.3992V100.281L91.86 121.383L109.334 105.123L81.2253 76.4097Z" fill="#EBEBEB"/>
<path d="M131.188 91.084C131.188 91.084 152.589 75.3936 145.669 50.1252H158.976L158.813 121.444L131.188 91.084Z" fill="#EBEBEB"/>
<path d="M127.163 95.1998L116.818 106.002L148.544 137.734L158.249 127.45L127.163 95.1998Z" fill="#EBEBEB"/>
<path d="M112.494 108.96L96.2295 125.107L128.759 157.408L144.993 141.712L112.494 108.96Z" fill="#EBEBEB"/>
<path d="M103.968 189.866L128.835 164.094L152.487 188.204L103.968 189.866Z" fill="#EBEBEB"/>
<path d="M132.711 160.766L158.625 135.107C158.625 136.245 158.401 188.311 158.401 188.311L132.711 160.766Z" fill="#EBEBEB"/>
<path d="M110.543 146.356L125.232 161.046L96.2294 190.973L82.8306 174.902L110.543 146.356Z" fill="#EBEBEB"/>
<path d="M70.8545 176.985C72.2416 176.848 107.764 143.582 107.764 143.582L70.8545 105.336V176.985Z" fill="#EBEBEB"/>
<path d="M70.3418 184.566L78.8933 176.985L90.7373 190.974H70.3418V185.623" fill="#EBEBEB"/>
<path d="M81.3926 39.6989C80.4888 39.0321 79.6393 38.2947 78.8521 37.4937V37.4937C78.8521 37.1075 78.8521 37.387 78.8521 37.3006L78.8876 37.2701L78.9486 37.2142L79.0756 37.0974L79.3195 36.8687L79.7819 36.4419L80.5796 35.7305C80.8212 35.4837 81.0946 35.2701 81.3926 35.0954C81.2113 35.3717 80.9924 35.6214 80.7422 35.8372L79.9801 36.5892L79.5278 37.0262L79.2839 37.2599L79.162 37.3768L79.0959 37.4327L79.0655 37.4632V37.2701C79.9032 38.0179 80.6813 38.83 81.3926 39.6989V39.6989Z" fill="#263238"/>
<path d="M151.639 35.822C151.64 35.9319 151.608 36.0397 151.548 36.1316C151.487 36.2234 151.401 36.2952 151.299 36.3377C151.198 36.3803 151.086 36.3917 150.978 36.3705C150.87 36.3493 150.771 36.2964 150.693 36.2187C150.616 36.1409 150.563 36.0417 150.542 35.9338C150.52 35.8259 150.532 35.7142 150.574 35.6128C150.617 35.5113 150.689 35.4249 150.781 35.3644C150.872 35.304 150.98 35.2722 151.09 35.2732C151.236 35.2732 151.375 35.331 151.478 35.4339C151.581 35.5369 151.639 35.6764 151.639 35.822V35.822Z" fill="#263238"/>
<path d="M151.482 37.3307C151.559 37.4081 151.612 37.5068 151.634 37.6143C151.655 37.7218 151.644 37.8332 151.602 37.9344C151.56 38.0357 151.489 38.1223 151.398 38.1832C151.307 38.2441 151.2 38.2766 151.09 38.2766C150.981 38.2766 150.874 38.2441 150.783 38.1832C150.692 38.1223 150.621 38.0357 150.579 37.9344C150.537 37.8332 150.526 37.7218 150.547 37.6143C150.569 37.5068 150.622 37.4081 150.699 37.3307C150.804 37.2283 150.944 37.171 151.09 37.171C151.237 37.171 151.377 37.2283 151.482 37.3307Z" fill="#263238"/>
<path d="M151.639 39.6175C151.626 39.7546 151.562 39.8818 151.46 39.9745C151.358 40.0671 151.225 40.1184 151.088 40.1184C150.95 40.1184 150.817 40.0671 150.715 39.9745C150.613 39.8818 150.549 39.7546 150.536 39.6175C150.529 39.5407 150.538 39.4631 150.562 39.3899C150.586 39.3166 150.626 39.2492 150.678 39.1921C150.73 39.135 150.793 39.0893 150.863 39.0581C150.934 39.0268 151.01 39.0107 151.088 39.0107C151.165 39.0107 151.241 39.0268 151.312 39.0581C151.382 39.0893 151.446 39.135 151.497 39.1921C151.549 39.2492 151.589 39.3166 151.613 39.3899C151.637 39.4631 151.646 39.5407 151.639 39.6175V39.6175Z" fill="#263238"/>
<path d="M127.829 38.0731H104.06V40.0548H127.829V38.0731Z" fill="#263238"/>
<path d="M125.243 73.6254C125.243 64.3677 115.517 58.5041 105.599 63.1431C103.355 64.1915 101.519 65.9506 100.376 68.148C97.8809 72.9801 98.9835 78.4982 101.245 83.0814L108.968 102.649C109.212 103.272 109.638 103.808 110.191 104.185C110.744 104.563 111.398 104.765 112.067 104.765C112.737 104.765 113.391 104.563 113.944 104.185C114.497 103.808 114.923 103.272 115.167 102.649L122.733 82.9797C125.354 76.984 125.243 73.6254 125.243 73.6254ZM115.944 81.7044C109.278 85.5813 102.52 78.4169 106.173 71.344C106.655 70.4113 107.389 69.633 108.292 69.0982C114.964 65.2213 121.721 72.3856 118.063 79.4585C117.584 80.3927 116.849 81.1715 115.944 81.7044V81.7044Z" fill="#407BFF"/>
<path d="M327.353 144.314H45.4434V185.68H327.353V144.314Z" fill="#407BFF"/>
<g opacity="0.5">
<path opacity="0.5" d="M327.353 144.314H45.4434V185.68H327.353V144.314Z" fill="black"/>
</g>
<path d="M85.1539 212.521C100.133 211.513 111.459 198.552 110.451 183.573C109.443 168.593 96.4828 157.267 81.5034 158.276C66.524 159.284 55.1981 172.244 56.2061 187.223C57.2142 202.203 70.1745 213.529 85.1539 212.521Z" fill="#263238"/>
<path d="M56.1493 184.938C56.1493 184.963 56.1493 184.989 56.1493 185.009C56.0976 188.579 56.7495 192.124 58.0679 195.442C59.3862 198.76 61.3452 201.785 63.8329 204.346C66.3205 206.907 69.2883 208.953 72.5666 210.367C75.8449 211.781 79.3696 212.535 82.9394 212.587C86.5093 212.638 90.0543 211.987 93.3722 210.668C96.6901 209.35 99.7159 207.391 102.277 204.903C104.838 202.416 106.883 199.448 108.297 196.169C109.711 192.891 110.465 189.366 110.517 185.797C110.517 185.771 110.517 185.746 110.517 185.725L56.1493 184.938Z" fill="#263238"/>
<path d="M64.2433 185.125C64.1874 188.9 65.2522 192.607 67.303 195.776C69.3539 198.945 72.2986 201.435 75.7647 202.931C79.2309 204.427 83.0627 204.861 86.7756 204.178C90.4885 203.496 93.9156 201.728 96.6234 199.097C99.3312 196.467 101.198 193.093 101.988 189.401C102.778 185.71 102.455 181.867 101.061 178.359C99.6664 174.851 97.263 171.835 94.1544 169.693C91.0459 167.551 87.3719 166.379 83.5972 166.325C78.5381 166.253 73.6575 168.193 70.0283 171.719C66.399 175.244 64.3182 180.066 64.2433 185.125Z" fill="#FAFAFA"/>
<path d="M83.5976 166.32C78.5381 166.247 73.6567 168.187 70.0271 171.712C66.3976 175.238 64.3172 180.061 64.2437 185.121L102.408 185.674C102.48 180.614 100.538 175.731 97.0108 172.102C93.4833 168.472 88.6584 166.393 83.5976 166.32Z" fill="#E0E0E0"/>
<path d="M71.7024 185.233C71.6685 187.532 72.3173 189.79 73.5667 191.72C74.8161 193.651 76.61 195.168 78.7215 196.079C80.8331 196.99 83.1673 197.254 85.4291 196.838C87.6908 196.422 89.7784 195.345 91.4278 193.742C93.0772 192.14 94.2143 190.084 94.6952 187.836C95.1761 185.587 94.9794 183.246 94.1297 181.109C93.2801 178.972 91.8157 177.135 89.9219 175.83C88.0282 174.526 85.79 173.812 83.4906 173.78C81.9645 173.758 80.449 174.036 79.0307 174.6C77.6123 175.163 76.3189 176.001 75.2242 177.064C74.1296 178.128 73.2551 179.397 72.6508 180.798C72.0466 182.2 71.7243 183.706 71.7024 185.233V185.233Z" fill="#263238"/>
<path d="M292.779 212.511C307.767 211.642 319.212 198.786 318.343 183.798C317.474 168.81 304.619 157.365 289.63 158.234C274.642 159.104 263.197 171.959 264.066 186.947C264.936 201.935 277.791 213.38 292.779 212.511Z" fill="#263238"/>
<path d="M264.018 184.938C264.018 184.963 264.018 184.989 264.018 185.009C263.966 188.579 264.618 192.124 265.936 195.442C267.254 198.76 269.213 201.785 271.701 204.346C274.189 206.907 277.156 208.953 280.435 210.367C283.713 211.781 287.238 212.535 290.808 212.587C294.377 212.638 297.923 211.987 301.24 210.668C304.558 209.35 307.584 207.391 310.145 204.903C312.706 202.416 314.751 199.448 316.165 196.169C317.579 192.891 318.334 189.366 318.385 185.797C318.385 185.771 318.385 185.746 318.385 185.725L264.018 184.938Z" fill="#263238"/>
<path d="M272.111 185.125C272.056 188.9 273.12 192.607 275.171 195.776C277.222 198.945 280.167 201.435 283.633 202.931C287.099 204.427 290.931 204.861 294.644 204.178C298.357 203.496 301.784 201.728 304.492 199.097C307.199 196.467 309.066 193.093 309.856 189.401C310.646 185.71 310.323 181.867 308.929 178.359C307.535 174.851 305.131 171.835 302.023 169.693C298.914 167.551 295.24 166.379 291.465 166.325C286.406 166.253 281.526 168.193 277.896 171.719C274.267 175.244 272.186 180.066 272.111 185.125Z" fill="#FAFAFA"/>
<path d="M291.465 166.32C286.405 166.247 281.524 168.187 277.894 171.712C274.265 175.238 272.184 180.061 272.111 185.121L310.275 185.674C310.347 180.614 308.406 175.731 304.878 172.102C301.35 168.472 296.526 166.393 291.465 166.32Z" fill="#E0E0E0"/>
<path d="M279.555 185.233C279.521 187.532 280.17 189.79 281.419 191.72C282.669 193.651 284.463 195.168 286.574 196.079C288.686 196.99 291.02 197.254 293.282 196.838C295.543 196.422 297.631 195.345 299.28 193.742C300.93 192.14 302.067 190.084 302.548 187.836C303.029 185.587 302.832 183.246 301.982 181.109C301.133 178.972 299.668 177.135 297.774 175.83C295.881 174.526 293.643 173.812 291.343 173.78C289.817 173.758 288.302 174.036 286.883 174.6C285.465 175.163 284.171 176.001 283.077 177.064C281.982 178.128 281.108 179.397 280.503 180.798C279.899 182.2 279.577 183.706 279.555 185.233V185.233Z" fill="#263238"/>
<path d="M118.957 121.042C118.957 121.042 78.9284 123.994 64.0814 127.323C53.6245 129.665 33.4627 133.715 33.7066 146.397L35.3071 155.492C35.3071 155.492 27.8328 158.907 27.8328 167.626C27.8328 176.345 26.0087 189.861 43.4674 190.404C46.3433 190.491 51.8055 190.404 51.8055 190.404C51.8055 190.404 48.457 153.221 82.6122 152.134C117.362 151.026 115.055 190.064 115.055 190.064H260.085C260.085 190.064 254.13 152.032 291.537 151.956C328.944 151.88 323.253 190.313 323.253 190.313C323.253 190.313 337.013 191.502 343.415 179.937C349.817 168.373 348.156 160.121 348.156 160.121L347.942 152.809C347.902 151.609 347.407 150.47 346.558 149.621C345.709 148.772 344.569 148.277 343.369 148.236V148.236C343.369 148.236 345.869 129.833 342.033 126.647C338.197 123.461 317.176 104.239 317.176 104.239L318.192 103.614C318.569 103.376 318.871 103.036 319.062 102.634C319.253 102.231 319.327 101.782 319.273 101.34C319.22 100.898 319.043 100.479 318.761 100.133C318.48 99.7877 318.107 99.5288 317.684 99.3867C309.702 96.6429 293.92 91.2112 290.211 89.9156C289.655 89.7181 289.076 89.5951 288.488 89.5497C286.273 89.382 280.003 88.9857 268.494 88.8638C254.475 88.7113 198.817 88.8638 198.817 88.8638C198.817 88.8638 179.661 90.4389 168.991 95.1338C157.802 100.073 118.957 121.042 118.957 121.042Z" fill="#407BFF"/>
<g opacity="0.4">
<path opacity="0.4" d="M37.9845 166.61C36.5313 166.316 34.3058 166.29 33.1981 167.271C32.3749 168.002 32.1565 169.186 32.0345 170.279C31.8011 171.775 31.8355 173.301 32.1361 174.786C32.2894 175.527 32.5942 176.229 33.0314 176.847C33.4685 177.465 34.0287 177.986 34.6767 178.378C36.0079 179.1 37.827 178.983 38.8584 177.87C39.8035 176.854 39.9102 175.329 39.8746 173.973C39.8391 172.011 39.9966 170.35 39.6358 168.424C39.5563 168.015 39.3823 167.631 39.1277 167.301C39.0011 167.104 38.8308 166.939 38.6298 166.818C38.4289 166.697 38.2029 166.624 37.9692 166.605" fill="black"/>
</g>
<path d="M35.3169 155.493C39.5647 155.493 43.6854 155.259 47.9282 154.984C48.3903 155.005 48.8456 154.867 49.2187 154.593C49.3894 154.381 49.5164 154.137 49.5922 153.875C49.6681 153.614 49.6914 153.34 49.6608 153.069C49.6608 150.793 49.5693 148.201 47.8418 146.718C46.7849 145.813 45.3368 145.529 43.9496 145.402C40.505 145.029 37.0205 145.375 33.7163 146.418L35.3169 155.493Z" fill="#FAFAFA"/>
<path d="M123.565 188.901C123.565 188.901 123.565 188.779 123.535 188.535C123.504 188.291 123.494 187.931 123.464 187.468C123.413 186.523 123.337 185.146 123.24 183.368C123.144 181.589 123.022 179.41 122.768 176.889C122.505 174.036 122.004 171.209 121.269 168.44C120.341 165.094 118.965 161.889 117.178 158.913C115.155 155.475 112.465 152.476 109.267 150.092C102.413 145.214 93.15 142.47 83.4603 142.338C73.7706 142.206 64.5027 145.27 57.816 150.407C54.6108 152.778 51.8031 155.644 49.4982 158.897C47.4857 161.722 45.8494 164.796 44.6305 168.043C43.6251 170.727 42.9345 173.518 42.5727 176.361C42.2893 178.505 42.206 180.67 42.3237 182.829C42.4071 184.194 42.5768 185.551 42.8318 186.894C42.9131 187.346 42.9792 187.697 43.0198 187.941C43.0605 188.185 43.0757 188.302 43.0757 188.302C43.0757 188.302 43.0452 188.185 42.9944 187.951L42.7759 186.935C42.4994 185.594 42.316 184.236 42.2272 182.87C42.089 180.704 42.1571 178.529 42.4304 176.376C42.7806 173.519 43.4627 170.712 44.4629 168.013C45.6775 164.74 47.3139 161.64 49.3305 158.791C51.6407 155.511 54.4608 152.622 57.6839 150.234C64.4011 145.072 73.6893 141.977 83.4552 142.104C93.2211 142.231 102.499 145 109.409 149.924C112.626 152.332 115.33 155.359 117.361 158.826C119.147 161.826 120.514 165.055 121.426 168.424C122.157 171.206 122.649 174.045 122.895 176.91C123.134 179.45 123.24 181.615 123.322 183.393C123.403 185.172 123.459 186.554 123.499 187.499C123.499 187.961 123.53 188.317 123.54 188.566C123.55 188.815 123.565 188.901 123.565 188.901Z" fill="white"/>
<path d="M125.09 189.531V189.226L125.059 188.327C125.034 187.524 124.998 186.35 124.947 184.816C124.861 181.732 124.734 177.225 124.571 171.488C124.409 165.752 124.221 158.785 124.002 150.808C123.946 148.811 123.896 146.743 123.835 144.635C123.799 143.557 123.847 142.478 123.977 141.408L124.206 139.772L124.541 138.131C125.067 135.889 125.825 133.707 126.802 131.622C127.808 129.436 129.052 127.367 130.511 125.453V125.453L155.627 109.631L162.41 105.363C164.697 103.843 167.097 102.503 169.59 101.354C172.139 100.153 174.755 99.0997 177.425 98.1984C178.756 97.7309 180.123 97.3498 181.49 96.9433C182.857 96.5368 184.249 96.2015 185.662 95.9271C190.988 94.7877 196.402 94.1077 201.845 93.8947C207.067 93.6444 212.299 93.6614 217.52 93.9455H217.667L217.632 94.0928L210.884 124.28C209.638 126.327 208.615 128.502 207.835 130.768C207.068 132.918 206.723 135.195 206.819 137.475C206.992 139.706 207.053 141.891 207.109 144.01C207.165 146.128 207.19 148.181 207.231 150.178C207.348 158.155 207.378 165.111 207.398 170.843C207.419 176.574 207.398 181.081 207.398 184.16C207.398 185.685 207.398 186.869 207.398 187.671C207.398 188.063 207.398 188.363 207.398 188.571C207.398 188.779 207.398 188.876 207.398 188.876C207.398 188.876 207.398 188.769 207.398 188.571C207.398 188.373 207.398 188.063 207.398 187.671C207.398 186.869 207.398 185.695 207.398 184.16C207.398 181.081 207.353 176.574 207.317 170.848C207.282 165.122 207.231 158.145 207.094 150.178C207.053 148.186 207.009 146.132 206.962 144.015C206.901 141.896 206.84 139.721 206.662 137.491C206.559 135.182 206.904 132.875 207.678 130.697C208.453 128.413 209.475 126.22 210.727 124.158V124.193C212.795 114.9 215.056 104.758 217.449 94.0014L217.566 94.1538C212.357 93.8731 207.137 93.8596 201.926 94.1132C196.497 94.3233 191.096 95.0033 185.783 96.1456C184.376 96.4251 183.004 96.8163 181.627 97.1618C180.25 97.5073 178.904 97.9494 177.562 98.4118C174.892 99.3145 172.276 100.37 169.727 101.572C167.247 102.714 164.858 104.046 162.583 105.556L155.795 109.824L130.679 125.611V125.585C129.223 127.486 127.982 129.543 126.98 131.718C126.004 133.788 125.248 135.954 124.724 138.182C123.581 142.536 124.155 146.819 124.165 150.808L124.673 171.488C124.81 177.22 124.917 181.732 124.988 184.811C125.024 186.335 125.044 187.524 125.064 188.327C125.064 188.716 125.064 189.016 125.064 189.226C125.09 189.43 125.09 189.531 125.09 189.531Z" fill="#263238"/>
<path d="M217.337 94.7832H217.576L218.272 94.7578L220.97 94.6917L230.975 94.4986L264.703 93.9194H264.769L264.81 93.9702L269.536 99.7576C274.322 105.636 278.885 111.226 283.031 116.307L284.555 118.187C285.049 118.817 285.473 119.498 285.82 120.219C286.45 121.556 286.792 123.01 286.824 124.488C286.857 125.965 286.579 127.433 286.008 128.796L284.484 132.353L279.82 143.145L278.539 146.072L278.199 146.834C278.123 147.002 278.077 147.088 278.077 147.088C278.077 147.088 278.107 146.997 278.173 146.824C278.24 146.651 278.356 146.382 278.488 146.051C278.778 145.371 279.19 144.375 279.723 143.104L284.296 132.282C285.17 129.985 286.71 127.566 286.603 124.619C286.58 123.122 286.234 121.646 285.587 120.295C285.246 119.594 284.83 118.931 284.347 118.319L282.823 116.439L269.312 99.9049L264.592 94.1175L264.693 94.1683L230.96 94.6765L220.955 94.7933H218.257H217.566L217.337 94.7832Z" fill="#263238"/>
<path d="M200.29 139.639C200.29 139.639 200.432 139.639 200.691 139.578C201.072 139.511 201.435 139.365 201.758 139.152C202.27 138.817 202.653 138.319 202.845 137.739C202.962 137.378 203.01 136.999 202.988 136.621C202.976 136.199 202.868 135.786 202.673 135.412C202.446 134.986 202.108 134.629 201.696 134.378C201.284 134.127 200.813 133.991 200.33 133.984H196.906H189.055C188.392 133.985 187.754 134.235 187.267 134.685C186.791 135.118 186.488 135.708 186.413 136.347C186.336 136.964 186.45 137.59 186.738 138.14C187.033 138.658 187.49 139.063 188.039 139.294C188.582 139.48 189.159 139.551 189.731 139.502H191.393H194.38L198.704 139.543L199.878 139.568C200.016 139.565 200.154 139.576 200.29 139.599C200.153 139.615 200.016 139.623 199.878 139.624H198.704L194.38 139.665H191.393H189.731C189.441 139.665 189.162 139.665 188.852 139.665C188.541 139.646 188.236 139.575 187.948 139.456C187.345 139.209 186.843 138.767 186.52 138.201C186.197 137.607 186.071 136.926 186.159 136.255C186.239 135.542 186.578 134.884 187.112 134.405C187.646 133.926 188.338 133.661 189.055 133.659H196.906H200.335C200.854 133.67 201.36 133.82 201.8 134.095C202.24 134.37 202.598 134.758 202.835 135.219C203.039 135.619 203.148 136.06 203.155 136.509C203.172 136.906 203.115 137.302 202.988 137.678C202.773 138.282 202.359 138.794 201.814 139.131C201.478 139.345 201.097 139.479 200.701 139.522C200.569 139.578 200.431 139.617 200.29 139.639V139.639Z" fill="#263238"/>
<path d="M275.49 139.639C275.49 139.639 275.633 139.639 275.892 139.578C276.273 139.511 276.636 139.365 276.959 139.152C277.471 138.817 277.854 138.319 278.046 137.739C278.163 137.378 278.211 136.999 278.188 136.621C278.176 136.199 278.069 135.786 277.873 135.412C277.646 134.986 277.309 134.629 276.897 134.378C276.485 134.127 276.013 133.991 275.531 133.984H272.106H264.256C263.593 133.985 262.955 134.235 262.467 134.685C261.992 135.118 261.689 135.708 261.614 136.347C261.537 136.964 261.65 137.59 261.939 138.14C262.234 138.658 262.691 139.063 263.24 139.294C263.783 139.48 264.359 139.551 264.932 139.502H266.593H269.581L273.905 139.543L275.079 139.568C275.217 139.565 275.354 139.576 275.49 139.599C275.354 139.615 275.216 139.623 275.079 139.624H273.905L269.581 139.665H266.593H264.932C264.642 139.665 264.363 139.665 264.053 139.665C263.742 139.646 263.436 139.575 263.148 139.456C262.546 139.209 262.043 138.767 261.721 138.201C261.398 137.607 261.272 136.926 261.36 136.255C261.44 135.542 261.779 134.884 262.313 134.405C262.847 133.926 263.539 133.661 264.256 133.659H272.106H275.536C276.055 133.67 276.561 133.82 277.001 134.095C277.441 134.37 277.798 134.758 278.036 135.219C278.239 135.619 278.349 136.06 278.356 136.509C278.373 136.906 278.316 137.302 278.188 137.678C277.974 138.282 277.56 138.794 277.015 139.131C276.678 139.345 276.298 139.479 275.902 139.522C275.77 139.578 275.632 139.617 275.49 139.639Z" fill="#263238"/>
<path d="M341.387 127.374H326.347C325.336 127.373 324.344 127.649 323.478 128.171C322.612 128.693 321.905 129.442 321.434 130.336V130.336C321.046 131.076 320.83 131.893 320.802 132.728C320.774 133.563 320.934 134.394 321.271 135.158L327.165 148.557L342.226 148.409C342.226 148.409 345.432 131.423 341.387 127.374Z" fill="#FAFAFA"/>
<path d="M132.508 125.478L210.111 124.045L260.618 123.121L277.273 113.502C277.59 113.318 277.864 113.068 278.077 112.77C278.29 112.472 278.437 112.132 278.508 111.772C278.58 111.413 278.574 111.043 278.492 110.686C278.41 110.329 278.252 109.993 278.031 109.701L267.66 96.0791C267.127 95.3777 266.441 94.8078 265.653 94.4132C264.866 94.0185 263.998 93.8097 263.118 93.8027L206.626 93.3454C206.626 93.3454 185.356 92.1056 168.594 101.475C150.967 111.368 132.508 125.478 132.508 125.478Z" fill="#263238"/>
<path d="M168.07 94.7535C168.07 94.7535 171.963 96.5268 169.432 98.168C166.902 99.8092 127.584 124.59 127.584 124.59L118.545 120.499C134.555 111.592 150.724 102.929 168.07 94.7535Z" fill="#455A64"/>
<path d="M128.855 125.22L128.611 125.281L127.894 125.438L125.135 126.007C122.737 126.485 119.262 127.155 114.973 127.897C106.335 129.381 94.3845 131.109 81.0873 132.257C77.7591 132.546 74.4818 132.765 71.3722 132.989C68.2626 133.212 65.2037 133.39 62.3278 133.649C56.571 134.157 51.4187 134.99 47.2319 136.235C43.904 137.161 40.7014 138.488 37.6947 140.188C36.6124 140.758 35.8401 141.316 35.2964 141.652L34.6765 142.043L34.458 142.17C34.5232 142.118 34.591 142.068 34.6613 142.023L35.2659 141.606C35.8045 141.255 36.5667 140.681 37.6439 140.082C40.6323 138.335 43.8278 136.969 47.1557 136.017C51.3527 134.742 56.5201 133.883 62.2821 133.37C65.1631 133.095 68.1914 132.902 71.3316 132.694C74.4717 132.486 77.7185 132.242 81.0415 131.952C94.3337 130.804 106.3 129.107 114.922 127.669C119.236 126.952 122.712 126.312 125.115 125.865L127.884 125.357L128.606 125.225L128.855 125.22Z" fill="#263238"/>
<path d="M347.398 159.969C347.398 160.045 342.226 160.101 335.849 160.101C329.472 160.101 324.294 160.045 324.294 159.969C324.294 159.893 329.467 159.837 335.849 159.837C342.231 159.837 347.398 159.898 347.398 159.969Z" fill="#263238"/>
<path d="M252.773 173.169C252.773 173.246 223.577 173.302 187.567 173.302C151.558 173.302 122.356 173.246 122.356 173.169C122.356 173.093 151.547 173.037 187.567 173.037C223.587 173.037 252.773 173.098 252.773 173.169Z" fill="#263238"/>
<path d="M48.3648 160.407C48.3648 160.483 44.2339 160.539 39.1426 160.539C34.0513 160.539 29.9204 160.483 29.9204 160.407C29.9204 160.33 34.0513 160.275 39.1426 160.275C44.2339 160.275 48.3648 160.336 48.3648 160.407Z" fill="#263238"/>
<path d="M316.785 103.711C316.785 103.711 313.32 107.588 314.681 110.434C316.043 113.279 330.123 123.248 330.123 123.248L340.341 125.164L316.785 103.711Z" fill="#455A64"/>
<path d="M219.634 96.7656L217.337 121.582L258.454 120.408L275.023 110.774L264.297 96.7656H219.634Z" fill="#455A64"/>
<path d="M142.244 122.852C142.244 122.852 167.05 104.936 176.836 101.374C186.282 97.9391 191.205 97.0753 200.077 96.801C208.557 96.5571 213.725 96.801 213.725 96.801L207.17 122.029L142.244 122.852Z" fill="#455A64"/>
<path d="M138.615 122.913C138.616 122.141 138.821 121.384 139.21 120.718C139.599 120.052 140.159 119.501 140.831 119.122L146.532 115.921C148.156 115.007 149.988 114.527 151.852 114.529C152.999 114.53 154.139 114.712 155.23 115.067C156.418 115.478 157.453 116.242 158.195 117.256C158.938 118.27 159.354 119.486 159.387 120.743C159.419 121.587 159.28 122.429 158.979 123.218C158.679 124.007 158.221 124.727 157.635 125.335C157.05 125.944 156.347 126.427 155.569 126.757C154.792 127.088 153.956 127.257 153.112 127.257H142.949C141.799 127.254 140.697 126.795 139.884 125.981C139.072 125.166 138.615 124.063 138.615 122.913V122.913Z" fill="#407BFF"/>
<path d="M138.616 122.913C138.616 122.913 138.616 123.106 138.682 123.462C138.759 123.985 138.931 124.489 139.19 124.95C139.601 125.676 140.206 126.273 140.938 126.673C141.394 126.912 141.89 127.067 142.401 127.13C142.984 127.173 143.57 127.185 144.154 127.166L152.848 127.135C153.672 127.157 154.493 127.023 155.267 126.739C156.083 126.433 156.826 125.959 157.446 125.346C158.066 124.733 158.549 123.995 158.864 123.182C159.184 122.324 159.314 121.407 159.245 120.494C159.177 119.594 158.912 118.721 158.468 117.935C158.025 117.149 157.414 116.47 156.679 115.947C155.97 115.456 155.17 115.111 154.327 114.93C152.009 114.383 149.576 114.617 147.406 115.596C146.751 115.891 146.151 116.262 145.557 116.582L143.859 117.527L140.938 119.143C140.203 119.538 139.596 120.136 139.19 120.865C138.934 121.327 138.762 121.831 138.682 122.354C138.631 122.71 138.636 122.903 138.621 122.903C138.602 122.717 138.602 122.53 138.621 122.344C138.678 121.811 138.837 121.293 139.088 120.819C139.488 120.061 140.101 119.435 140.851 119.021L143.753 117.369L145.44 116.409C146.029 116.084 146.629 115.708 147.299 115.393C149.51 114.375 151.998 114.125 154.367 114.681C155.241 114.855 156.072 115.201 156.811 115.698C157.579 116.242 158.218 116.949 158.682 117.768C159.146 118.588 159.423 119.5 159.494 120.438C159.568 121.391 159.433 122.348 159.098 123.243C158.77 124.093 158.265 124.863 157.617 125.502C156.968 126.142 156.192 126.636 155.338 126.952C154.535 127.241 153.685 127.378 152.833 127.354L144.139 127.328C143.547 127.341 142.955 127.322 142.366 127.272C141.831 127.198 141.314 127.026 140.841 126.764C140.093 126.346 139.479 125.721 139.073 124.966C138.825 124.491 138.668 123.974 138.611 123.441C138.598 123.265 138.6 123.089 138.616 122.913V122.913Z" fill="#263238"/>
<path d="M329.725 189.129C329.725 189.129 329.725 189.012 329.725 188.778C329.725 188.545 329.766 188.194 329.796 187.762C329.827 187.33 329.878 186.746 329.908 186.085C329.939 185.425 329.959 184.653 329.984 183.794C330.01 182.935 329.984 181.97 329.984 180.923C329.984 179.876 329.908 178.733 329.766 177.514C329.535 174.75 329.043 172.014 328.298 169.343C327.858 167.785 327.317 166.257 326.677 164.77C325.997 163.164 325.178 161.62 324.228 160.157C322.11 156.931 319.416 154.123 316.281 151.874C312.83 149.369 308.977 147.468 304.889 146.255C300.651 144.959 296.038 144.487 291.343 144.451C286.763 144.409 282.205 145.072 277.827 146.417C275.754 147.072 273.742 147.903 271.811 148.902C269.97 149.88 268.222 151.023 266.588 152.316C263.549 154.696 260.842 157.471 258.539 160.568C257.526 161.989 256.632 163.492 255.866 165.06C255.168 166.513 254.55 168.004 254.017 169.526C252.393 174.112 251.405 178.899 251.08 183.753C250.999 185.476 251.009 186.802 251.055 187.727C251.08 188.174 251.1 188.514 251.111 188.743C251.121 188.972 251.111 189.093 251.111 189.093C251.111 189.093 251.111 188.977 251.07 188.743C251.029 188.509 251.019 188.159 250.984 187.727C250.916 186.401 250.916 185.073 250.984 183.748C251.264 178.867 252.227 174.049 253.844 169.435C254.378 167.906 254.992 166.407 255.684 164.943C256.456 163.363 257.353 161.848 258.366 160.411C260.677 157.294 263.392 154.499 266.44 152.098C268.085 150.794 269.843 149.641 271.694 148.653C273.638 147.646 275.664 146.808 277.751 146.148C282.153 144.787 286.74 144.117 291.348 144.161C296.063 144.197 300.697 144.669 304.97 145.98C309.086 147.205 312.962 149.123 316.433 151.651C318.041 152.834 319.543 154.153 320.925 155.594C322.237 156.945 323.407 158.428 324.416 160.019C325.368 161.496 326.19 163.053 326.87 164.674C327.508 166.16 328.047 167.688 328.48 169.247C329.222 171.931 329.703 174.681 329.918 177.458C330.056 178.677 330.056 179.82 330.112 180.872C330.167 181.924 330.112 182.905 330.112 183.748C330.112 184.592 330.035 185.379 330.005 186.045C329.974 186.71 329.908 187.264 329.868 187.722C329.827 188.179 329.796 188.509 329.776 188.738C329.756 188.966 329.725 189.129 329.725 189.129Z" fill="white"/>
<path d="M206.082 125.479H205.965H205.62L204.294 125.509L199.421 125.595C195.305 125.672 189.625 125.824 183.344 125.997C177.064 126.17 171.378 126.286 167.263 126.317C165.205 126.317 163.538 126.317 162.385 126.317H161.059H160.718C160.678 126.325 160.636 126.325 160.596 126.317C160.637 126.31 160.678 126.31 160.718 126.317H161.059L162.385 126.286L167.258 126.2C171.373 126.124 177.059 125.971 183.339 125.804C189.619 125.636 195.305 125.509 199.421 125.479C201.453 125.479 203.145 125.479 204.294 125.479H205.62H205.965H206.082Z" fill="white"/>
<path d="M199.345 133.115C197.865 133.249 196.379 133.293 194.894 133.247C193.409 133.293 191.923 133.249 190.443 133.115C191.923 132.984 193.409 132.94 194.894 132.983C196.379 132.94 197.865 132.984 199.345 133.115V133.115Z" fill="white"/>
<path d="M200.981 105.927C201.006 105.993 195.483 108.294 188.639 111.064C181.794 113.833 176.225 116.028 176.195 115.957C176.164 115.886 181.693 113.589 188.537 110.82C195.381 108.051 200.95 105.861 200.981 105.927Z" fill="white"/>
<path d="M189.782 107.669C189.813 107.74 184.549 110.057 178.03 112.847C171.511 115.636 166.206 117.847 166.175 117.781C166.145 117.715 171.409 115.398 177.928 112.603C184.447 109.808 189.752 107.593 189.782 107.669Z" fill="white"/>
<path d="M260.796 104.966C260.826 105.032 255.298 107.334 248.454 110.103C241.61 112.872 236.041 115.062 236.01 114.996C235.98 114.93 241.508 112.628 248.357 109.859C255.207 107.09 260.755 104.895 260.796 104.966Z" fill="white"/>
<path d="M249.577 106.699C249.608 106.77 244.344 109.087 237.83 111.877C231.316 114.666 226.001 116.877 225.97 116.811C225.94 116.745 231.204 114.428 237.723 111.633C244.242 108.838 249.577 106.654 249.577 106.699Z" fill="white"/>
<path d="M261.878 125.454C261.878 125.525 250.888 125.652 237.331 125.733C223.775 125.814 212.785 125.819 212.785 125.733C212.785 125.647 223.77 125.535 237.331 125.459C250.893 125.382 261.878 125.398 261.878 125.454Z" fill="white"/>
<path d="M274.047 132.693C274.047 132.765 270.968 132.851 267.162 132.886C263.356 132.922 260.277 132.886 260.277 132.82C260.277 132.754 263.356 132.658 267.162 132.622C270.968 132.587 274.047 132.617 274.047 132.693Z" fill="white"/>
<path d="M63.6082 128.933C63.5112 128.966 63.4105 128.987 63.3084 128.994L62.4497 129.106C62.0737 129.147 61.6164 129.203 61.088 129.294C60.5596 129.386 59.9549 129.452 59.2944 129.584C57.9682 129.818 56.3981 130.163 54.6807 130.6C52.8203 131.113 50.9871 131.721 49.1881 132.419C47.2776 133.176 45.5043 134.004 43.919 134.822C42.3337 135.641 40.9618 136.464 39.8541 137.2C39.2799 137.551 38.782 137.907 38.3297 138.217C37.8775 138.527 37.5066 138.781 37.2017 139.004L36.4955 139.512C36.4146 139.575 36.3278 139.629 36.2363 139.675C36.3037 139.6 36.3786 139.532 36.4599 139.472L37.1408 138.928C37.4355 138.694 37.8013 138.42 38.2434 138.1C38.6854 137.78 39.1681 137.424 39.7677 137.084C40.8855 136.326 42.2676 135.498 43.8326 134.65C47.2587 132.818 50.8877 131.394 54.6452 130.407C56.3727 129.96 57.953 129.63 59.2893 129.421C59.9549 129.299 60.5596 129.238 61.0931 129.167C61.6266 129.096 62.1093 129.05 62.4599 129.025L63.3288 128.959C63.4212 128.944 63.5146 128.935 63.6082 128.933Z" fill="white"/>
<path d="M154.346 116.947C154.346 116.947 154.199 116.749 153.838 116.475C153.351 116.102 152.771 115.868 152.162 115.799C151.247 115.723 150.326 115.821 149.448 116.089C146.354 116.868 143.481 118.347 141.049 120.413C139.84 121.429 139.2 122.176 139.164 122.14C139.287 121.946 139.43 121.766 139.591 121.602C140.011 121.135 140.455 120.691 140.922 120.27C142.474 118.888 144.238 117.763 146.145 116.937C147.193 116.479 148.279 116.116 149.392 115.855C150.299 115.591 151.248 115.508 152.187 115.611C152.825 115.698 153.422 115.972 153.904 116.399C154.033 116.514 154.147 116.643 154.245 116.785C154.326 116.886 154.357 116.942 154.346 116.947Z" fill="white"/>
<path d="M317.938 103.528C317.229 103.7 316.501 103.775 315.773 103.752C314.918 103.726 314.068 103.621 313.233 103.437C312.13 103.178 311.048 102.838 309.996 102.421C308.822 101.979 307.572 101.405 306.221 100.841L304.112 99.992C303.385 99.7023 302.618 99.4534 301.846 99.1688C298.454 98.0203 294.996 97.0786 291.49 96.3488C285.117 95.0222 278.646 94.2201 272.142 93.9505C270.892 93.8845 269.764 93.8845 268.768 93.8591H266.227L264.622 93.8946H264.058C264.105 93.8857 264.153 93.8857 264.2 93.8946L264.617 93.8642L266.227 93.7778L268.768 93.7321C269.784 93.7321 270.892 93.7321 272.142 93.793C278.664 94.0059 285.155 94.788 291.541 96.1303C295.054 96.852 298.518 97.7956 301.912 98.9554C302.684 99.24 303.436 99.494 304.183 99.7887L306.292 100.658C307.643 101.242 308.888 101.811 310.052 102.263C311.09 102.682 312.158 103.022 313.248 103.279C314.071 103.477 314.912 103.596 315.758 103.635C316.292 103.653 316.827 103.635 317.358 103.579L317.77 103.528H317.938Z" fill="#263238"/>
<path d="M73.4711 104.229C71.4387 93.1112 70.0719 91.4039 68.9236 87.5778C67.7752 83.7518 65.9511 81.2671 63.6799 80.3881C62.1555 79.7987 54.4983 77.0396 51.8358 77.9542C49.2309 78.8804 46.751 80.1263 44.453 81.6634C42.6696 82.8463 41.3182 84.5757 40.6015 86.5921L36.5366 98.0602L43.6908 105.174L47.2781 97.552L51.1702 106.698L50.596 115.92L72.9173 121.926C74.9294 118.674 74.6246 110.534 73.4711 104.229Z" fill="#407BFF"/>
<g opacity="0.2">
<path opacity="0.2" d="M67.6736 92.1005C66.6879 97.8879 66.5304 98.706 65.5447 104.473C65.2042 106.46 64.2134 109.554 62.8009 110.997C61.7542 112.059 60.7278 113.08 59.2695 113.426C57.9179 113.746 55.8601 113.782 54.5898 113.223C53.3195 112.664 52.2322 110.174 52.7555 108.899C54.6508 109.305 55.2351 109.915 56.8661 108.899C58.2888 107.994 60.3111 105.992 61.0835 104.493C64.3404 98.1928 65.2398 97.9692 67.6889 92.1005" fill="black"/>
</g>
<path d="M51.5003 103.314C51.1393 102.828 50.8101 102.319 50.5146 101.79L48.218 98.0148L45.8603 94.3005C45.5088 93.8008 45.1914 93.2779 44.9102 92.7355C45.0324 92.8467 45.14 92.9731 45.2303 93.1115C45.4233 93.3605 45.6926 93.7314 46.0128 94.1938C46.6631 95.1186 47.5371 96.4143 48.4415 97.8725C49.346 99.3308 50.1335 100.682 50.6772 101.673C50.9516 102.181 51.1853 102.567 51.3073 102.852C51.3953 102.995 51.4605 103.151 51.5003 103.314V103.314Z" fill="#263238"/>
<path d="M67.0793 113.695C66.9176 113.78 66.7472 113.846 66.5712 113.894C66.363 113.963 66.1509 114.021 65.9361 114.066C65.6553 114.142 65.3703 114.202 65.0825 114.244C64.3376 114.377 63.583 114.446 62.8265 114.452C61.8982 114.454 60.9716 114.374 60.0573 114.214C59.1439 114.042 58.2477 113.788 57.3795 113.457C56.6771 113.182 55.9975 112.853 55.3471 112.471C55.0625 112.313 54.839 112.141 54.6154 112.003C54.4304 111.883 54.2523 111.752 54.0819 111.612C53.927 111.506 53.7854 111.381 53.6602 111.241C53.6906 111.201 54.3207 111.693 55.4385 112.308C56.0939 112.662 56.773 112.969 57.471 113.228C59.1863 113.867 61.0009 114.199 62.8315 114.209C63.5775 114.209 64.3227 114.16 65.0621 114.061C66.3019 113.883 67.0641 113.645 67.0793 113.695Z" fill="#263238"/>
<path d="M58.1214 96.3736C58.0807 96.5717 55.6824 101.348 55.6824 101.348L44.3617 95.3828L43.2083 90.5049C43.018 89.7216 42.5252 89.0456 41.8377 88.6247C41.1502 88.2038 40.324 88.0724 39.5398 88.2591L36.2015 89.6259C36.0638 89.6797 35.9416 89.7668 35.8459 89.8794C35.7501 89.992 35.6838 90.1266 35.6527 90.2712C35.607 90.5151 35.6527 90.7793 36.0948 90.7234C36.923 90.6573 38.6353 90.4744 38.6353 90.4744L37.8478 93.2538C37.6399 93.9822 37.7199 94.7626 38.0713 95.4336L38.5795 96.3939L39.6821 98.1774H39.6566C39.6566 98.1774 50.6623 109.483 56.8409 110.22C60.5552 110.662 64.7624 100.25 64.7624 100.25L58.1214 96.3736Z" fill="#F4CCA6"/>
<path d="M38.5537 90.662C38.5537 90.662 38.6401 90.5451 38.8281 90.4181C39.0798 90.2427 39.38 90.1504 39.6868 90.1538C39.847 90.1628 40.0018 90.2148 40.135 90.3042C40.2682 90.3936 40.3749 90.5171 40.4439 90.662C40.5506 90.8906 40.4794 91.043 40.4439 91.0329C40.4083 91.0227 40.4439 90.8906 40.3219 90.7178C40.247 90.6082 40.1482 90.5169 40.0329 90.4509C39.9176 90.3849 39.7888 90.3459 39.6563 90.3368C39.3813 90.3407 39.1113 90.4104 38.8687 90.54C38.7112 90.6162 38.569 90.6823 38.5537 90.662Z" fill="#AA6550"/>
<path d="M39.9815 92.3952C39.9815 92.3952 39.9053 92.3037 39.7986 92.1666C39.6622 91.9915 39.4814 91.8562 39.2749 91.7749C39.0685 91.6936 38.844 91.6692 38.6249 91.7042C38.4521 91.7042 38.3454 91.7652 38.3352 91.7448C38.3251 91.7245 38.4165 91.6483 38.5995 91.5873C38.8412 91.5167 39.0995 91.5283 39.334 91.6202C39.5685 91.7122 39.7658 91.8793 39.8951 92.0954C39.9866 92.2682 39.9968 92.3901 39.9815 92.3952Z" fill="#AA6550"/>
<path d="M60.4686 81.2977L57.4199 95.8246L65.5497 100.708L68.6695 91.7801C68.6695 91.7801 67.3586 80.937 60.4686 81.2977Z" fill="#407BFF"/>
<path d="M65.5294 100.708C65.3016 100.611 65.0809 100.499 64.8688 100.372L63.0803 99.3561L56.983 95.8349L56.9067 95.7892V95.7028C57.1252 94.6205 57.359 93.4519 57.6028 92.2527C57.9687 90.4439 58.3244 88.7264 58.6191 87.1716C58.7867 86.3891 58.9239 85.6473 59.0764 84.941C59.2142 84.2881 59.4327 83.6549 59.7268 83.0559C60.1527 82.1663 60.9066 81.4761 61.8303 81.1302C62.0804 81.0441 62.3433 81.0011 62.6077 81.0032C62.6986 80.9969 62.7899 81.0073 62.877 81.0337C62.5304 81.0453 62.1876 81.1104 61.8608 81.2267C60.988 81.5949 60.2847 82.2764 59.8893 83.1372C59.6146 83.7291 59.4117 84.3517 59.2847 84.9918C59.1475 85.6879 59.0052 86.4349 58.8528 87.2123C58.5378 88.7874 58.1923 90.5048 57.8366 92.2934C57.5927 93.4976 57.3539 94.6612 57.1354 95.7434L57.0744 95.6113L63.1362 99.2138L64.8892 100.281C65.1141 100.405 65.3282 100.548 65.5294 100.708V100.708Z" fill="#263238"/>
<path d="M68.0144 91.3484C68.0591 91.8005 68.0455 92.2565 67.9737 92.7051C67.8673 93.791 67.6736 94.8666 67.3945 95.9214C67.1155 96.9774 66.7554 98.0103 66.3173 99.0108C66.1583 99.4362 65.9448 99.8393 65.6821 100.21C65.8065 99.7762 65.961 99.3518 66.1445 98.9396C66.9158 96.9179 67.4677 94.8193 67.7908 92.6797C67.837 92.2317 67.9117 91.787 68.0144 91.3484V91.3484Z" fill="#263238"/>
<path d="M23.9351 172.153L23.8437 179.907C23.8437 179.907 15.9273 182.422 15.7749 183.855L30.8048 184.566L31.445 172.488L23.9351 172.153Z" fill="#455A64"/>
<path d="M28.5493 179.475C28.692 179.526 28.8108 179.628 28.883 179.761C28.9552 179.894 28.9757 180.049 28.9406 180.196C28.8958 180.341 28.7969 180.463 28.6644 180.537C28.5319 180.611 28.376 180.631 28.2292 180.593C28.0786 180.537 27.9535 180.429 27.8777 180.287C27.8018 180.146 27.7805 179.982 27.8177 179.825C27.8815 179.68 27.9992 179.565 28.146 179.504C28.2928 179.444 28.4574 179.442 28.6052 179.5" fill="#E0E0E0"/>
<path d="M30.8054 184.566V183.346L16.3852 183.118C16.3852 183.118 15.6993 183.377 15.7552 183.855L30.8054 184.566Z" fill="#E0E0E0"/>
<path d="M23.6054 179.82C23.6054 179.892 23.9712 179.942 24.3167 180.196C24.6623 180.45 24.8248 180.766 24.9163 180.74C25.0078 180.715 24.9163 180.288 24.4641 179.988C24.0119 179.688 23.5901 179.749 23.6054 179.82Z" fill="#263238"/>
<path d="M21.9946 180.395C21.9946 180.466 22.2893 180.608 22.5027 180.928C22.7161 181.248 22.7924 181.584 22.8686 181.584C22.9448 181.584 23.0058 181.172 22.706 180.776C22.4062 180.379 21.9997 180.329 21.9946 180.395Z" fill="#263238"/>
<path d="M21.0085 182.239C21.0746 182.239 21.1965 181.899 21.0085 181.487C20.8205 181.076 20.5004 180.903 20.4699 180.979C20.4395 181.055 20.6376 181.264 20.7697 181.604C20.9018 181.944 20.9272 182.229 21.0085 182.239Z" fill="#263238"/>
<path d="M23.8187 178.052C23.8492 178.124 24.1896 178.052 24.6063 178.083C25.0229 178.113 25.3329 178.281 25.3735 178.22C25.4142 178.159 25.1195 177.88 24.6317 177.829C24.1439 177.778 23.7882 177.997 23.8187 178.052Z" fill="#263238"/>
<g opacity="0.3">
<path opacity="0.3" d="M23.9207 173.688L23.9004 175.07L31.2934 175.354L31.3594 174.11L23.9207 173.688Z" fill="black"/>
</g>
<path d="M23.8696 176.488C24.1123 176.568 24.3725 176.581 24.6216 176.523C24.8953 176.488 25.1633 176.418 25.4194 176.315C25.5723 176.258 25.7202 176.188 25.8614 176.106C25.9492 176.065 26.0299 176.01 26.1002 175.944C26.1512 175.894 26.1839 175.828 26.1931 175.757C26.2023 175.686 26.1875 175.614 26.151 175.553C26.1161 175.5 26.0695 175.456 26.0149 175.424C25.9602 175.393 25.899 175.374 25.836 175.37C25.7404 175.365 25.6447 175.373 25.5515 175.395C25.3901 175.426 25.2319 175.472 25.0789 175.532C24.8203 175.636 24.5788 175.778 24.3625 175.954C23.9967 176.264 23.8544 176.533 23.89 176.548C23.9255 176.564 24.1034 176.35 24.4692 176.101C24.6844 175.958 24.9165 175.842 25.1602 175.756C25.3028 175.707 25.4489 175.67 25.5972 175.644C25.7598 175.608 25.897 175.614 25.9326 175.685C25.9681 175.756 25.9326 175.725 25.9326 175.771C25.8799 175.818 25.822 175.859 25.7598 175.893C25.6226 175.969 25.4854 176.04 25.3533 176.101C25.1139 176.205 24.8656 176.286 24.6115 176.345C24.3614 176.377 24.1136 176.424 23.8696 176.488V176.488Z" fill="#263238"/>
<path d="M23.9767 176.599C24.1278 176.391 24.2079 176.14 24.2054 175.883C24.2336 175.605 24.2129 175.325 24.1444 175.054C24.1034 174.893 24.0455 174.736 23.9716 174.587C23.9359 174.486 23.8745 174.396 23.7935 174.325C23.7124 174.255 23.6145 174.207 23.5093 174.186C23.4429 174.183 23.3772 174.2 23.3203 174.234C23.2634 174.269 23.2178 174.319 23.1891 174.379C23.1443 174.465 23.1134 174.557 23.0977 174.653C23.0723 174.821 23.0723 174.993 23.0977 175.161C23.1255 175.445 23.2233 175.717 23.3822 175.954C23.6566 176.36 23.9615 176.462 23.9666 176.437C23.9716 176.411 23.743 176.249 23.5347 175.862C23.4155 175.641 23.3461 175.397 23.3314 175.146C23.3232 174.999 23.3352 174.852 23.367 174.709C23.3975 174.551 23.4635 174.424 23.5245 174.445C23.5855 174.465 23.7176 174.572 23.7735 174.704C23.8424 174.837 23.8985 174.977 23.9411 175.121C24.0141 175.366 24.0518 175.621 24.0529 175.878C24.0123 176.315 23.9208 176.584 23.9767 176.599Z" fill="#263238"/>
<path d="M54.5745 116.002C54.5745 116.002 31.0896 106.145 23.8236 105.733C19.2506 105.469 15.8158 108.396 16.4357 113.111C16.7457 115.474 23.2342 143.089 23.2342 143.089L33.1221 138.577L28.3661 119.477L47.6743 128.857L54.5745 116.002Z" fill="#263238"/>
<path d="M25.4144 114.645C25.3381 114.711 26.1155 115.712 26.9387 117.039C27.7618 118.365 28.3106 119.508 28.402 119.472C28.4935 119.437 28.0718 118.212 27.2334 116.861C26.395 115.509 25.5007 114.584 25.4144 114.645Z" fill="#455A64"/>
<path d="M23.4933 115.743C23.4425 115.829 24.6264 116.581 26.0338 117.607C27.4413 118.634 28.4982 119.533 28.5744 119.462C28.6506 119.391 27.6344 118.339 26.2218 117.323C24.8093 116.307 23.5339 115.661 23.4933 115.743Z" fill="#455A64"/>
<path d="M72.8923 121.926C72.8923 121.926 69.9401 125.732 67.1252 126.773C63.5684 128.079 37.4211 140.421 37.4211 140.421C37.4211 140.421 32.6753 175.679 33.0513 174.205L22.1016 173.941L23.2905 141.468C23.4328 137.312 26.766 132.535 30.3482 130.411L54.5749 116.001L72.8923 121.926Z" fill="#263238"/>
<path d="M23.0815 147.413C23.1163 147.267 23.1316 147.116 23.1272 146.966C23.1272 146.641 23.1679 146.219 23.1933 145.691C23.2555 144.128 23.4014 142.569 23.6303 141.021C23.951 138.734 24.7622 136.543 26.0082 134.599C26.7792 133.481 27.7305 132.499 28.8231 131.692C30.0089 130.828 31.2496 130.043 32.5374 129.34C37.8065 126.322 42.3541 123.242 45.7178 121.134C47.3946 120.067 48.7665 119.218 49.7014 118.639L50.7887 117.968C50.9203 117.896 51.0445 117.811 51.1597 117.714C51.0197 117.765 50.8852 117.83 50.7583 117.907C50.4991 118.044 50.118 118.248 49.6353 118.522C48.6648 119.066 47.2828 119.889 45.5705 120.925C42.1712 122.988 37.5982 126.032 32.3596 129.055C31.0585 129.766 29.8059 130.562 28.6097 131.438C27.4897 132.269 26.5175 133.283 25.7338 134.436C24.4804 136.431 23.6808 138.678 23.3914 141.016C23.1822 142.574 23.0736 144.144 23.0663 145.716C23.0663 146.224 23.0663 146.666 23.0663 146.997C23.0589 147.136 23.064 147.275 23.0815 147.413V147.413Z" fill="#455A64"/>
<path d="M63.2279 125.641C63.025 125.326 62.8009 125.026 62.5572 124.741C62.0525 124.007 61.7021 123.179 61.5274 122.305C61.3527 121.432 61.3574 120.532 61.541 119.66C61.6539 119.303 61.7422 118.938 61.8052 118.568C61.5585 118.862 61.3845 119.21 61.2971 119.584C61.0369 120.486 60.9985 121.438 61.1853 122.358C61.3677 123.279 61.7724 124.14 62.3641 124.868C62.8265 125.453 63.2076 125.671 63.2279 125.641Z" fill="#455A64"/>
<path d="M26.1254 173.942C26.1433 173.884 26.1536 173.825 26.1559 173.764C26.1559 173.622 26.1965 173.449 26.2219 173.231C26.2778 172.723 26.3489 172.052 26.4404 171.198C26.6182 169.389 26.8723 166.813 27.1873 163.643C27.3347 162.047 27.5023 160.299 27.6954 158.424C27.8885 156.549 28.0663 154.542 28.2035 152.429C28.3407 150.315 28.5643 148.105 28.9505 145.823C29.3276 143.483 30.0109 141.202 30.9829 139.04C31.9979 136.903 33.3384 134.937 34.9563 133.212C36.4724 131.607 38.1324 130.144 39.9155 128.842C42.9714 126.69 46.1453 124.71 49.4222 122.912C52.2016 121.317 54.4169 119.955 55.8854 118.929C56.6272 118.421 57.1861 118.009 57.5621 117.72L57.9839 117.389C58.0787 117.315 58.1244 117.274 58.1211 117.267C58.0645 117.29 58.0115 117.321 57.9635 117.359L57.5215 117.664C57.1353 117.933 56.5612 118.329 55.8142 118.822C54.3204 119.808 52.0949 121.134 49.3003 122.704C45.9966 124.476 42.8001 126.441 39.7275 128.588C37.9206 129.893 36.2399 131.365 34.7073 132.983C33.0605 134.732 31.6975 136.727 30.6679 138.898C29.6918 141.087 29.0084 143.395 28.6354 145.762C28.2543 148.049 28.0613 150.269 27.9038 152.368C27.7462 154.466 27.5887 156.488 27.3956 158.363C27.2026 160.238 27.0806 161.986 26.9434 163.587C26.6741 166.762 26.4353 169.339 26.3083 171.152C26.2405 172.026 26.1897 172.704 26.1559 173.185C26.1559 173.403 26.1304 173.581 26.1203 173.718C26.1101 173.856 26.1152 173.942 26.1254 173.942Z" fill="#455A64"/>
<path d="M51.9226 60.0793C51.5538 59.1296 50.8587 58.3425 49.9619 57.8592C49.0651 57.3759 48.0255 57.2281 47.0295 57.4422C46.5913 57.6025 46.1331 57.7016 45.6678 57.7369C45.1038 57.6403 44.5495 57.494 44.0113 57.2999C43.4015 57.2011 42.7766 57.3325 42.2582 57.6687C41.7399 58.0049 41.365 58.5218 41.2066 59.1189C40.7293 59.003 40.2325 58.9924 39.7507 59.0881C39.2689 59.1837 38.8138 59.3833 38.417 59.6728C38.028 59.9741 37.7517 60.3976 37.6328 60.8751C37.5139 61.3526 37.5592 61.8562 37.7616 62.3048C37.9597 62.6757 38.2697 62.9704 38.4678 63.3515C38.7676 63.9765 38.6304 64.7285 38.8388 65.3839C39.0343 65.8606 39.3601 66.2725 39.7788 66.5727C40.1976 66.8728 40.6924 67.049 41.2066 67.081C42.2411 67.1342 43.2762 66.9876 44.2552 66.6491" fill="#263238"/>
<path d="M47.1918 80.1749C47.0648 79.1892 46.9835 78.4981 46.9835 78.4981C46.9835 78.4981 43.7062 78.4981 42.4105 74.4333C41.755 72.4008 41.3181 69.0066 41.0538 66.2019C40.9961 65.6044 41.0599 65.0014 41.2415 64.4293C41.423 63.8571 41.7186 63.3277 42.1103 62.8728C42.502 62.418 42.9817 62.0471 43.5206 61.7827C44.0595 61.5183 44.6463 61.3657 45.2457 61.3342L53.9446 60.882L54.1326 62.2285L56.4242 78.9554C56.507 79.5619 56.4692 80.1787 56.3128 80.7705C56.1564 81.3623 55.8846 81.9173 55.513 82.4037C55.1414 82.8901 54.6773 83.2982 54.1474 83.6046C53.6175 83.9109 53.0323 84.1096 52.4253 84.189V84.189C51.818 84.2703 51.2005 84.231 50.6083 84.0731C50.0162 83.9152 49.4611 83.6419 48.9748 83.269C48.4886 82.896 48.0807 82.4307 47.7748 81.8998C47.4688 81.3688 47.2707 80.7826 47.1918 80.1749V80.1749Z" fill="#F4CCA6"/>
<path d="M42.2684 68.5955C42.2899 68.7345 42.3643 68.8598 42.4761 68.945C42.5879 69.0303 42.7283 69.0689 42.868 69.0528C42.9372 69.0485 43.0047 69.0301 43.0664 68.9987C43.1282 68.9673 43.1829 68.9236 43.2271 68.8703C43.2714 68.817 43.3043 68.7552 43.3238 68.6888C43.3433 68.6223 43.349 68.5525 43.3406 68.4838C43.3216 68.3436 43.2478 68.2168 43.1354 68.131C43.023 68.0453 42.8811 68.0077 42.741 68.0265C42.6718 68.0308 42.6043 68.0492 42.5426 68.0806C42.4808 68.112 42.4261 68.1557 42.3818 68.209C42.3376 68.2623 42.3047 68.3241 42.2852 68.3905C42.2657 68.457 42.26 68.5268 42.2684 68.5955Z" fill="#263238"/>
<path d="M42.0449 67.8432C42.1211 67.8991 42.4768 67.5383 43.0611 67.4469C43.6454 67.3554 44.0773 67.579 44.1535 67.4977C44.2297 67.4164 44.0926 67.3453 43.8893 67.2436C43.6138 67.1085 43.3025 67.064 43.0001 67.1166C42.701 67.1613 42.4245 67.3022 42.2125 67.518C42.0449 67.6806 42.0042 67.8178 42.0449 67.8432Z" fill="#263238"/>
<path d="M47.7147 67.6704C47.7361 67.809 47.8107 67.9338 47.9227 68.0183C48.0346 68.1027 48.1751 68.1402 48.3143 68.1227C48.3834 68.1189 48.451 68.1011 48.513 68.0703C48.5749 68.0396 48.63 67.9965 48.6747 67.9436C48.7194 67.8908 48.7529 67.8294 48.773 67.7632C48.7932 67.697 48.7996 67.6274 48.7919 67.5586C48.7705 67.4197 48.6961 67.2944 48.5843 67.2092C48.4725 67.1239 48.332 67.0853 48.1923 67.1014C48.1227 67.105 48.0546 67.123 47.9923 67.1541C47.9299 67.1851 47.8746 67.2287 47.8298 67.2821C47.7851 67.3355 47.7517 67.3975 47.7319 67.4643C47.7121 67.5311 47.7062 67.6013 47.7147 67.6704V67.6704Z" fill="#263238"/>
<path d="M47.7044 67.0503C47.7806 67.1113 48.1363 66.7454 48.7206 66.6591C49.305 66.5727 49.7369 66.7861 49.8131 66.7048C49.8893 66.6235 49.7521 66.5575 49.5488 66.4507C49.2719 66.3201 48.9621 66.2758 48.6597 66.3237C48.3616 66.3718 48.0862 66.5122 47.8721 66.7251C47.7044 66.8877 47.6688 67.0198 47.7044 67.0503Z" fill="#263238"/>
<path d="M46.2974 71.6437C45.9787 71.6007 45.6557 71.6007 45.3371 71.6437C45.1897 71.6437 45.0474 71.6437 45.0068 71.5472C44.9601 71.4 44.9601 71.2421 45.0068 71.0949C45.0881 70.7189 45.1745 70.3226 45.2659 69.911C45.514 68.9009 45.6839 67.8732 45.774 66.837C45.4411 67.8315 45.188 68.8509 45.017 69.8856C44.9357 70.3023 44.8544 70.6986 44.7832 71.0797C44.7122 71.268 44.7122 71.4757 44.7832 71.664C44.8129 71.7122 44.8529 71.7531 44.9004 71.7839C44.9478 71.8146 45.0015 71.8344 45.0576 71.8419C45.142 71.8525 45.2273 71.8525 45.3117 71.8419C45.6473 71.8178 45.9785 71.7512 46.2974 71.6437V71.6437Z" fill="#263238"/>
<path d="M46.9834 78.4983C48.9471 78.2164 50.7941 77.395 52.3186 76.1254C52.3186 76.1254 51.4141 79.2147 47.1917 79.4739L46.9834 78.4983Z" fill="#AA6550"/>
<path d="M48.0504 71.7707C47.9538 71.7707 48.0504 72.4007 47.5931 72.9291C47.1358 73.4576 46.4549 73.4931 46.46 73.5795C46.4651 73.6659 46.6277 73.6811 46.9122 73.6405C47.2784 73.5913 47.6143 73.4107 47.8573 73.1324C48.0953 72.8687 48.2195 72.5218 48.2028 72.167C48.1876 71.9028 48.091 71.7605 48.0504 71.7707Z" fill="#263238"/>
<path d="M47.1971 64.8246C47.2784 64.972 47.8425 64.8246 48.5284 64.7789C49.2144 64.7331 49.7885 64.85 49.8546 64.6976C49.9206 64.5451 49.7682 64.4943 49.5243 64.3775C49.2009 64.2363 48.8493 64.1716 48.4968 64.1884C48.1443 64.2051 47.8004 64.3029 47.4919 64.474C47.2683 64.6112 47.1616 64.7535 47.1971 64.8246Z" fill="#263238"/>
<path d="M41.9884 66.1463C42.1104 66.258 42.4966 66.0599 42.9589 65.9786C43.4213 65.8973 43.8532 65.9278 43.9243 65.7753C43.9548 65.7042 43.8685 65.5823 43.6754 65.4908C43.4155 65.3752 43.126 65.3432 42.8472 65.3993C42.5689 65.4484 42.313 65.5835 42.1155 65.7855C41.9681 65.9481 41.9326 66.0904 41.9884 66.1463Z" fill="#263238"/>
<path d="M40.5965 64.3677C40.5965 64.3677 42.8983 65.1451 45.5404 63.3769C47.2731 62.2184 49.3767 61.4918 49.9 61.8068C50.4234 62.1219 50.7638 64.012 52.6692 64.3474C52.6692 64.3474 53.0046 68.0058 54.4425 67.6908C55.4587 67.4672 54.8693 63.4328 54.4425 61.131C54.3534 60.686 54.1178 60.2837 53.7734 59.9881C53.429 59.6925 52.9956 59.5207 52.5422 59.5L49.8644 59.3933L46.5211 60.3282L42.9338 61.3038L40.2002 62.447L40.5965 64.3677Z" fill="#263238"/>
<path d="M54.1226 66.2021C54.1734 66.1665 56.3938 64.9978 56.8054 67.4215C57.2169 69.8452 54.7018 69.7537 54.6815 69.6877C54.6612 69.6216 54.1226 66.2021 54.1226 66.2021Z" fill="#F4CCA6"/>
<path d="M55.2656 68.641C55.2656 68.641 55.3164 68.6664 55.3926 68.6867C55.4996 68.7122 55.6123 68.6958 55.7076 68.641C55.8458 68.5148 55.9486 68.3545 56.0056 68.1762C56.0627 67.998 56.0721 67.8078 56.0328 67.6248C56.0035 67.4164 55.9289 67.217 55.8144 67.0405C55.7775 66.969 55.7241 66.9074 55.6588 66.8606C55.5934 66.8138 55.5179 66.7831 55.4383 66.7712C55.3879 66.7669 55.3375 66.7802 55.2958 66.8089C55.2541 66.8377 55.2237 66.88 55.2097 66.9287C55.2097 66.9998 55.2097 67.0456 55.2097 67.0557C55.2097 67.0659 55.1538 67.0202 55.1538 66.9185C55.1581 66.8563 55.1832 66.7972 55.2249 66.7509C55.2836 66.6895 55.3637 66.6531 55.4485 66.6492C55.5519 66.6512 55.653 66.6798 55.742 66.7323C55.831 66.7848 55.905 66.8595 55.9566 66.949C56.0956 67.1409 56.1847 67.3645 56.2158 67.5994C56.2662 67.8133 56.2515 68.0374 56.1736 68.2429C56.0958 68.4484 55.9583 68.626 55.7788 68.7528C55.7169 68.7822 55.6492 68.7974 55.5806 68.7974C55.5121 68.7974 55.4444 68.7822 55.3825 68.7528C55.2808 68.702 55.2605 68.6512 55.2656 68.641Z" fill="#AA6550"/>
<path d="M41.7598 58.2248C41.7598 58.2248 41.8411 58.3569 42.0138 58.55C42.2612 58.8238 42.5768 59.0272 42.9284 59.1394C43.4508 59.3081 44.009 59.3327 44.5442 59.2105C45.2097 59.0488 45.8633 58.8416 46.5004 58.5906C47.1601 58.3309 47.8647 58.2048 48.5735 58.2197C49.1729 58.2414 49.7401 58.4967 50.1537 58.9311C50.4355 59.2146 50.6066 59.5894 50.6364 59.9879C50.6576 60.1325 50.6327 60.28 50.5653 60.4097C50.5399 60.4097 50.5653 60.2572 50.5348 59.9981C50.4714 59.6381 50.2932 59.3083 50.0267 59.0581C49.6352 58.6829 49.1158 58.4704 48.5735 58.4636C47.897 58.4641 47.2265 58.5917 46.597 58.8396C45.9492 59.0973 45.2813 59.3012 44.6001 59.4493C44.0249 59.5683 43.4279 59.5225 42.8776 59.3172C42.504 59.18 42.179 58.9362 41.9427 58.616C41.7598 58.3823 41.7598 58.2299 41.7598 58.2248Z" fill="#455A64"/>
<path d="M49.9459 60.547C49.9459 60.547 49.824 60.42 49.5699 60.2422C49.2075 60.0204 48.7905 59.9043 48.3657 59.9068C47.7215 59.9044 47.0865 60.0596 46.5162 60.359C45.8033 60.744 45.0668 61.0834 44.311 61.3752C43.5939 61.5978 42.8387 61.6707 42.0923 61.5894C41.3459 61.5081 40.6241 61.2744 39.9717 60.9027C39.577 60.6806 39.216 60.4035 38.8996 60.0796C38.7764 59.9694 38.6732 59.8388 38.5947 59.6934C39.0446 60.091 39.5351 60.4401 40.0581 60.735C41.3429 61.4093 42.8418 61.5499 44.2297 61.1263C44.9748 60.8249 45.704 60.4857 46.4145 60.11C47.021 59.8031 47.697 59.6595 48.3758 59.6934C48.8372 59.7111 49.2814 59.8728 49.6461 60.1558C49.7794 60.2568 49.883 60.392 49.9459 60.547V60.547Z" fill="#455A64"/>
<path d="M42.4204 101.835L30.6221 91.7798L26.73 92.6588C26.73 92.6588 30.8304 101.185 33.7978 104.31C33.7978 104.31 36.7296 108.232 41.5668 106.535C46.404 104.838 42.4204 101.835 42.4204 101.835Z" fill="#F4CCA6"/>
<path d="M29.7286 80.7034H24.7135C24.5243 80.7136 24.3397 80.766 24.1732 80.8565C24.0068 80.9471 23.8626 81.0736 23.7511 81.2269C23.6397 81.3802 23.5638 81.5564 23.529 81.7427C23.4942 81.929 23.5014 82.1207 23.55 82.3039L28.5955 92.1257C28.6912 92.3127 28.8368 92.4697 29.0161 92.5791C29.1955 92.6885 29.4016 92.7461 29.6117 92.7456H35.709C35.8524 92.7296 35.9896 92.6784 36.1083 92.5965C36.227 92.5146 36.3237 92.4047 36.3896 92.2764C36.4555 92.1481 36.4886 92.0055 36.486 91.8613C36.4834 91.7171 36.4452 91.5757 36.3747 91.4499L31.5121 81.8314C31.3465 81.4981 31.0927 81.2167 30.7782 81.0178C30.4637 80.8189 30.1006 80.7101 29.7286 80.7034V80.7034Z" fill="#455A64"/>
<path d="M29.3929 81.2981H24.3778C24.2339 81.2972 24.0921 81.3333 23.9662 81.4031C23.8403 81.4728 23.7345 81.5738 23.659 81.6964C23.5834 81.8189 23.5407 81.9588 23.5349 82.1026C23.5291 82.2464 23.5604 82.3893 23.6258 82.5175L28.5494 92.1259C28.646 92.3122 28.7918 92.4685 28.9709 92.5778C29.1501 92.6871 29.3558 92.7452 29.5656 92.7458H35.6121C35.6951 92.7423 35.776 92.7185 35.8477 92.6765C35.9194 92.6346 35.9797 92.5756 36.0234 92.5049C36.067 92.4342 36.0926 92.3539 36.098 92.271C36.1034 92.188 36.0883 92.1051 36.0542 92.0293L31.1865 82.4159C31.022 82.0804 30.7667 81.7978 30.4497 81.6002C30.1326 81.4026 29.7665 81.2979 29.3929 81.2981V81.2981Z" fill="#263238"/>
<path d="M28.9656 85.3122L25.917 86.5317L25.2666 88.9909L26.735 92.6493L32.1058 93.442L30.5306 91.8312L30.7288 90.4238C30.7288 90.4238 32.2531 89.9512 32.2531 89.7226C32.2531 89.4939 32.0651 88.7064 31.8365 88.681C31.2349 88.8183 30.6453 89.0035 30.0733 89.2348C30.0733 89.2348 31.9381 87.7562 31.8873 87.5174C31.8365 87.2786 31.6332 86.6739 31.2623 86.6028C30.8914 86.5317 27.8732 87.9595 27.8732 87.9595L27.3651 89.0722L26.9383 87.2887C26.9383 87.2887 29.6262 86.5367 28.9656 85.3122Z" fill="#F4CCA6"/>
<path d="M29.3523 91.0845C29.3523 91.0845 29.276 90.9829 29.2455 90.7796C29.2134 90.5208 29.2427 90.2581 29.331 90.0127C29.4193 89.7673 29.5641 89.5461 29.7537 89.3671C29.9061 89.235 30.023 89.1892 30.0331 89.2045C29.8012 89.4612 29.6109 89.7527 29.4691 90.0683C29.3787 90.3991 29.3393 90.7418 29.3523 91.0845V91.0845Z" fill="#AA6550"/>
<path d="M27.8989 90.5507C27.9584 90.288 27.9992 90.0214 28.0209 89.753C28.0332 89.4529 28.0845 89.1557 28.1733 88.8689C28.2314 88.6846 28.3327 88.517 28.4688 88.38C28.605 88.2429 28.772 88.1405 28.9558 88.0813C29.6824 87.8171 30.3429 87.6037 30.8206 87.4461C31.0759 87.3496 31.3395 87.2765 31.6081 87.2277C31.3716 87.3626 31.1212 87.4717 30.8612 87.5529C30.3887 87.7358 29.7281 87.9695 29.0117 88.2286C28.8444 88.2863 28.6917 88.3799 28.5645 88.503C28.4517 88.6227 28.3652 88.7646 28.3105 88.9197C28.2175 89.1944 28.1578 89.4793 28.1327 89.7682C28.1228 90.0447 28.0423 90.3141 27.8989 90.5507V90.5507Z" fill="#AA6550"/>
<path d="M27.1972 90.0018C27.1491 89.8031 27.1491 89.5959 27.1972 89.3972C27.2531 89.072 27.3293 88.8179 27.375 88.823C27.4227 89.0217 27.4227 89.2289 27.375 89.4277C27.3191 89.7529 27.2429 90.0069 27.1972 90.0018Z" fill="#AA6550"/>
<path d="M27.1167 83.1525C27.1167 83.2791 27.1543 83.4029 27.2246 83.5082C27.295 83.6135 27.395 83.6955 27.5119 83.744C27.6289 83.7924 27.7576 83.8051 27.8818 83.7804C28.006 83.7557 28.1201 83.6947 28.2096 83.6052C28.2992 83.5157 28.3602 83.4016 28.3849 83.2774C28.4096 83.1532 28.3969 83.0245 28.3484 82.9075C28.3 82.7905 28.2179 82.6905 28.1126 82.6202C28.0073 82.5498 27.8836 82.5123 27.7569 82.5123C27.6727 82.5116 27.5891 82.5277 27.5111 82.5596C27.4332 82.5916 27.3623 82.6387 27.3027 82.6983C27.2431 82.7579 27.196 82.8287 27.1641 82.9067C27.1321 82.9847 27.116 83.0682 27.1167 83.1525Z" fill="#FAFAFA"/>
<path d="M9.54595 180.004C10.3418 180.25 11.0797 180.655 11.7153 181.194C12.3509 181.733 12.8712 182.394 13.245 183.139C13.9857 184.635 14.3734 186.281 14.3781 187.95C14.4797 191.162 13.1484 194.617 11.5784 197.427C8.57546 195.496 7.37632 191.507 6.88853 189.475C6.12637 186.233 6.71069 179.912 9.54595 179.999" fill="#407BFF"/>
<path d="M15.4353 202.203C15.1222 201.325 15.0467 200.381 15.2162 199.464C15.3857 198.548 15.7943 197.693 16.4007 196.985C17.0195 196.289 17.771 195.723 18.6112 195.321C19.4514 194.918 20.3634 194.688 21.2938 194.643C22.1474 194.582 23.1026 194.693 23.687 195.323C23.9438 195.634 24.1131 196.007 24.1774 196.404C24.2417 196.802 24.1987 197.209 24.0528 197.584C23.7491 198.332 23.253 198.986 22.6149 199.48C20.5164 201.268 18.1587 202.61 15.4353 202.203" fill="#407BFF"/>
<path d="M13.4328 212.401C13.4098 212.182 13.4098 211.96 13.4328 211.741C13.4328 211.268 13.4735 210.663 13.4989 209.937C13.5188 207.935 13.8619 205.95 14.5151 204.058C15.1981 202.162 16.3731 200.482 17.9194 199.19C18.3887 198.811 18.9002 198.487 19.4438 198.225C19.6369 198.128 19.7995 198.083 19.9011 198.037C20.0027 197.991 20.0637 197.981 20.0687 197.991C18.8152 198.611 17.6971 199.474 16.7796 200.529C15.862 201.585 15.1631 202.812 14.7234 204.139C14.0876 206.013 13.7332 207.97 13.6716 209.947C13.6208 210.704 13.5751 211.319 13.5345 211.746C13.5187 211.967 13.4847 212.186 13.4328 212.401V212.401Z" fill="#263238"/>
<path d="M9.52558 184.856C9.556 184.947 9.57977 185.041 9.59672 185.135C9.64075 185.345 9.69665 185.615 9.76439 185.943C9.90666 186.645 10.0997 187.666 10.3233 188.926C10.7755 191.467 11.3395 194.947 11.8934 198.819C12.4472 202.691 12.8588 206.207 13.123 208.758C13.2551 210.033 13.3517 211.064 13.4126 211.781C13.4363 212.12 13.4567 212.394 13.4736 212.604C13.4882 212.698 13.4882 212.794 13.4736 212.888C13.4482 212.795 13.4312 212.7 13.4228 212.604C13.3974 212.396 13.3618 212.126 13.3161 211.786C13.2246 211.049 13.1027 210.028 12.9502 208.778C12.6454 206.237 12.2033 202.721 11.6596 198.849C11.116 194.978 10.5672 191.507 10.1607 188.967C9.95748 187.722 9.79488 186.706 9.65261 185.969C9.6018 185.633 9.56115 185.364 9.52558 185.156C9.51231 185.056 9.51231 184.956 9.52558 184.856V184.856Z" fill="#263238"/>
<path d="M11.1057 204.8C10.5079 202.932 9.47401 201.233 8.08947 199.844C6.70492 198.455 5.00955 197.416 3.1436 196.812C2.18836 196.512 0.989218 196.406 0.348999 197.173C-0.29122 197.94 0.054295 199.109 0.547162 199.978C1.60729 201.773 3.17552 203.213 5.05383 204.118C6.93214 205.022 9.0363 205.349 11.1006 205.059" fill="#407BFF"/>
<path d="M3.99205 199.749C4.19643 199.785 4.39712 199.839 4.59162 199.911C4.82521 199.98 5.0543 200.063 5.27757 200.16C5.54179 200.277 5.85174 200.379 6.16677 200.552C6.51499 200.722 6.85418 200.91 7.18299 201.116C7.56999 201.349 7.94479 201.601 8.30591 201.873C9.9687 203.122 11.3013 204.758 12.1879 206.639C12.3805 207.047 12.5501 207.466 12.696 207.894C12.8296 208.263 12.9399 208.639 13.0263 209.022C13.1052 209.337 13.1663 209.655 13.2092 209.977C13.2533 210.217 13.2822 210.46 13.2955 210.704C13.3166 210.91 13.32 211.117 13.3057 211.324C13.2498 211.324 13.2143 210.434 12.8535 209.057C12.7574 208.684 12.642 208.316 12.508 207.955C12.3622 207.536 12.1925 207.125 11.9999 206.725C11.5493 205.822 11.0024 204.97 10.3688 204.185C9.71726 203.402 8.98492 202.69 8.18396 202.061C7.83306 201.79 7.46843 201.537 7.09153 201.304C6.76363 201.091 6.42439 200.896 6.07531 200.719C4.83044 200.044 3.97173 199.795 3.99205 199.749Z" fill="#263238"/>
</svg>
