<svg width="348" height="344" viewBox="0 0 348 344" fill="none" xmlns="http://www.w3.org/2000/svg">
<rect x="69" width="4" height="77" rx="2" fill="#A7A7A7"/>
<path d="M142.434 39.0722C152.357 31.1085 162.055 22.819 172.872 16.1344C201.881 -1.78856 235.476 1.62003 265.042 16.7337C280.013 24.3844 293.536 34.4903 306.401 45.2209C319.024 55.7541 331.136 66.1012 338.869 80.9159C367.089 134.98 322.505 190.434 279.622 219.784C276.421 221.973 273.168 224.077 269.865 226.098C221.494 255.681 158.313 274.623 101.97 260.082C91.086 257.273 80.544 253.143 70.7264 247.672C48.9982 235.543 31.0862 217.508 17.6473 196.698C8.55568 182.622 0.899102 166.968 0.0686152 150.24C-0.903111 130.657 8.48789 108.438 25.5962 97.8982C37.0366 90.847 51.073 89.118 64.0458 85.4979C90.74 78.0503 116.84 59.1712 138.389 42.2946C139.741 41.2266 141.089 40.1525 142.434 39.0722Z" fill="url(#paint0_linear_138_1901)"/>
<rect x="234" y="1" width="4" height="35" rx="2" fill="#9A9AAD"/>
<rect x="287" y="1" width="4" height="82" rx="2" fill="#9A9AAD"/>
<rect x="149" y="1" width="4" height="88" rx="2" fill="#290466"/>
<path d="M150.864 325.882C138.563 325.349 122.051 324.848 114.236 331.999C105.861 339.659 146.59 342.658 152.896 342.999C171.868 344.044 190.963 343.627 209.999 343.21C231.28 342.743 252.589 342.275 273.734 340.735C279.541 340.311 299.643 338.742 293.309 332.493C292.112 331.311 290.184 330.478 288.194 329.806C282.031 327.726 274.952 326.924 267.974 326.357C250.973 324.976 233.324 323.572 216.164 324.065C197.703 324.598 179.377 326.759 160.844 326.284C157.763 326.21 154.381 326.034 150.864 325.882Z" fill="#EBF0FF"/>
<path d="M60.4268 254H42.5732C41.7083 254 41 254.643 41 255.429V262.572C41 263.358 41.7083 264 42.5732 264H44.1443C43.8955 263.747 43.7558 263.411 43.7536 263.062V257.033C43.7536 256.248 44.4619 255.606 45.3268 255.606H58.0166C58.8826 255.606 59.5898 256.248 59.5898 257.033V263.062C59.5881 263.411 59.4482 263.747 59.1991 264H60.4268C61.2917 264 62 263.358 62 262.572V255.429C62 254.643 61.2917 254 60.4268 254Z" fill="#20307B"/>
<path d="M67.3182 284H35.8586C35.2287 283.994 34.623 283.767 34.1553 283.363C33.6875 282.959 33.39 282.405 33.3187 281.805L32.021 271.832C31.8255 270.329 33.0186 269 34.5609 269H68.4402C69.9647 269 71.1516 270.302 70.9842 271.788L69.8664 281.762C69.805 282.371 69.5107 282.936 69.0403 283.349C68.5698 283.762 67.9564 283.994 67.3182 284Z" fill="#20307B"/>
<path d="M72 271H30V262.273C30 261.67 30.2077 261.092 30.5774 260.666C30.9471 260.24 31.4486 260 31.9716 260H70.0274C70.2866 260 70.5432 260.059 70.7827 260.173C71.0221 260.287 71.2397 260.455 71.4229 260.666C71.6061 260.877 71.7514 261.128 71.8504 261.404C71.9495 261.68 72.0003 261.975 72 262.274V271Z" fill="#FEBD57"/>
<path d="M73.9718 269.126L73.8839 268.762H66.3546V267.184H73.5023L73.1808 265.846C73.15 265.719 73.0951 265.599 73.0189 265.492C72.8685 265.282 72.6503 265.127 72.3995 265.054C72.2807 265.018 72.1571 265 72.0329 265H30.8378C30.6158 265 30.3978 265.058 30.2065 265.168C30.0657 265.25 29.9447 265.36 29.8518 265.492C29.7676 265.608 29.7099 265.741 29.6825 265.881L29.422 267.183H34.901V268.761H29.1005L29.0201 269.16C28.8861 269.823 29.4392 270.436 30.1744 270.436H34.901V272.119C34.901 273.157 35.8184 274 36.9524 274H40.2995C41.4324 274 42.3509 273.158 42.3509 272.119V270.436H58.9068V272.119C58.9068 273.157 59.8253 274 60.9582 274H64.3075C65.4393 274 66.3578 273.158 66.3578 272.119V270.436H72.8292C73.5795 270.437 74.1336 269.797 73.9718 269.126ZM42.3477 267.183H58.9035V268.761H42.3477V267.183Z" fill="#1A4EA2"/>
<path d="M69 260H36V262H69V260Z" fill="#1A4EA2"/>
<g opacity="0.82">
<path d="M232.584 44.0748H239.668V38.2546C239.673 37.342 239.52 36.4354 239.214 35.5752C238.656 34.0577 237.687 33.1396 236.647 33.1396H235.608C234.566 33.1396 233.597 34.0577 233.039 35.5752C232.734 36.4355 232.582 37.3421 232.587 38.2546L232.584 44.0748Z" fill="#991900"/>
<path d="M239.668 40.15C239.647 40.1473 239.626 40.1473 239.605 40.15L232.526 41.4192C232.285 41.463 232.115 41.8423 232.149 42.2569C232.183 42.6716 232.406 42.9804 232.648 42.9367L239.727 41.6675C239.97 41.6251 240.138 41.2444 240.104 40.8312C240.071 40.4504 239.882 40.1627 239.668 40.15Z" fill="#E03500"/>
<path d="M239.668 37.4861C239.647 37.4833 239.626 37.4833 239.605 37.4861L232.526 38.7553C232.285 38.799 232.115 39.1784 232.149 39.593C232.183 40.0076 232.406 40.3165 232.648 40.2727L239.727 39.0035C239.97 38.9612 240.138 38.5804 240.104 38.1672C240.071 37.7865 239.882 37.4988 239.668 37.4861Z" fill="#E03500"/>
<path d="M239.385 34.8489C239.364 34.8461 239.344 34.8461 239.323 34.8489L232.606 36.0532C232.364 36.0969 232.195 36.4763 232.228 36.8895C232.262 37.3027 232.485 37.6144 232.727 37.5707L239.437 36.3705C239.679 36.3268 239.848 35.9475 239.814 35.5328C239.788 35.1507 239.598 34.863 239.385 34.8489Z" fill="#E03500"/>
<path opacity="0.52" d="M247.248 58.1054C247.249 59.6268 246.937 61.1321 246.332 62.5281C245.726 63.9241 244.84 65.181 243.728 66.2209C242.615 67.2607 241.301 68.0614 239.866 68.5732C238.432 69.085 236.907 69.2971 235.386 69.1962C233.866 69.0954 232.383 68.6837 231.029 67.9869C229.674 67.29 228.478 66.3228 227.513 65.1451C226.548 63.9675 225.836 62.6045 225.421 61.1408C225.006 59.6771 224.896 58.1437 225.099 56.6359C225.109 56.5682 225.117 56.4949 225.127 56.4357C225.126 56.4216 225.126 56.4074 225.127 56.3934C225.187 56.0106 225.266 55.6312 225.366 55.2567C225.383 55.1918 225.401 55.1284 225.418 55.0663L225.46 54.9253C225.504 54.7843 225.548 54.6432 225.602 54.5022C225.624 54.4388 225.645 54.3767 225.668 54.3161L226.045 53.4064L226.138 53.2132L226.658 52.2782C226.692 52.2204 226.727 52.1654 226.763 52.1104L227.134 51.5703C228.722 49.1813 232.847 46.4835 232.847 44.8673V43.0171C232.848 42.9774 232.851 42.9378 232.857 42.8986C232.885 42.7447 232.966 42.6056 233.087 42.5053C233.207 42.4051 233.359 42.3501 233.515 42.35H238.733C238.82 42.3499 238.907 42.367 238.989 42.4004C239.07 42.4339 239.143 42.483 239.205 42.545C239.268 42.607 239.317 42.6806 239.35 42.7616C239.384 42.8426 239.401 42.9294 239.401 43.0171V44.8631C239.401 45.6726 240.433 46.75 241.661 47.9248C242.888 49.0995 244.319 50.3716 245.114 51.5661C245.189 51.6704 245.265 51.7748 245.336 51.8834C245.367 51.9271 245.398 51.9736 245.427 52.0244C245.508 52.1471 245.587 52.2726 245.662 52.3995C245.692 52.4475 245.721 52.4968 245.749 52.5476C245.778 52.5984 245.823 52.6731 245.86 52.738C245.896 52.8029 245.913 52.8367 245.939 52.879C246.001 52.9946 246.06 53.1089 246.117 53.2259C246.258 53.5178 246.392 53.8182 246.509 54.1243C246.571 54.2822 246.629 54.443 246.683 54.6052C246.806 54.9754 246.909 55.352 246.991 55.7334C247.021 55.8744 247.047 56.0154 247.073 56.1494C247.148 56.5735 247.198 57.0015 247.224 57.4313C247.24 57.6654 247.248 57.884 247.248 58.1054Z" fill="#FEBD57"/>
<path opacity="0.8" d="M241.965 55.7534C241.727 54.2688 240.404 52.6963 237.447 52.3064C237.367 51.4898 237.321 50.6423 237.288 49.8234C237.241 48.4648 237.248 47.1929 237.266 46.2979C237.281 45.5205 237.307 45.0272 237.308 45.007L237.131 44.9999C237.131 45.0784 237.104 45.5633 237.088 46.2979C237.067 47.1917 237.059 48.4541 237.105 49.8055C237.132 50.6209 237.183 51.4696 237.261 52.285C236.422 52.1962 235.576 52.1962 234.737 52.285C234.817 51.4673 234.863 50.6209 234.893 49.8032C234.941 48.4517 234.931 47.1882 234.91 46.2979C234.895 45.5847 234.872 45.1009 234.867 45.0059L234.691 45.013C234.691 45.013 234.691 45.0249 234.691 45.0403C234.691 45.1592 234.717 45.6216 234.729 46.3038C234.748 47.1977 234.756 48.4695 234.709 49.8258C234.68 50.6435 234.631 51.4898 234.551 52.3124C231.592 52.6999 230.269 54.2724 230.033 55.7594C229.893 56.6271 230.209 57.49 230.782 57.8122C230.965 57.9104 231.167 57.9718 231.376 57.9923C231.586 58.0127 231.797 57.9919 231.997 57.931C232.703 57.7408 233.372 57.1703 233.789 56.406C234.27 55.5228 234.555 54.0561 234.719 52.4657C235.569 52.3722 236.427 52.3722 237.276 52.4657C237.442 54.0561 237.726 55.5228 238.207 56.406C238.625 57.1703 239.294 57.7408 239.997 57.931C240.197 57.9919 240.409 58.0128 240.618 57.9923C240.828 57.9718 241.031 57.9105 241.213 57.8122C241.793 57.4817 242.11 56.6211 241.965 55.7534ZM233.633 56.3216C233.238 57.0467 232.609 57.5851 231.951 57.761C231.807 57.8023 231.657 57.8235 231.506 57.824C231.284 57.8256 231.065 57.7706 230.873 57.6648C230.367 57.3795 230.081 56.5689 230.207 55.7772C230.434 54.3616 231.701 52.8627 234.534 52.4788C234.377 54.0418 234.1 55.4717 233.638 56.3216H233.633ZM241.123 57.6648C240.932 57.7709 240.713 57.826 240.491 57.824C240.34 57.8233 240.189 57.8021 240.045 57.761C239.387 57.5851 238.76 57.0479 238.364 56.3216C237.9 55.4717 237.624 54.0418 237.462 52.4788C240.296 52.8627 241.564 54.3616 241.789 55.7772C241.922 56.5689 241.636 57.3795 241.129 57.6648H241.123Z" stroke="white" stroke-width="3.68" stroke-miterlimit="10"/>
<g opacity="0.43">
<path opacity="0.43" d="M225.022 57.4482C225.635 52.8945 229.319 48.18 236.124 48.18C242.929 48.18 246.474 53.1159 247.225 57.4482C247.102 55.3246 246.366 53.2818 245.107 51.5661C243.519 49.1771 239.394 46.4793 239.394 44.8631V43.0171C239.394 42.8402 239.323 42.6705 239.198 42.5454C239.073 42.4203 238.903 42.35 238.726 42.35H233.508C233.331 42.35 233.161 42.4203 233.036 42.5454C232.91 42.6705 232.84 42.8402 232.84 43.0171V44.8631C232.84 46.4793 228.714 49.1771 227.127 51.5661C225.873 53.2837 225.142 55.3262 225.022 57.4482Z" fill="#FF8C3E"/>
</g>
</g>
<g opacity="0.52">
<path opacity="0.52" d="M82.248 100.105C82.248 103.051 81.076 105.876 78.9899 107.959C76.9037 110.042 74.0743 111.213 71.124 111.213C68.1737 111.213 65.3443 110.042 63.2582 107.959C61.172 105.876 60 103.051 60 100.105C59.9993 99.6134 60.0323 99.122 60.0989 98.6345C60.1088 98.5668 60.1172 98.4935 60.1271 98.4343C60.1258 98.4202 60.1258 98.406 60.1271 98.392C60.188 98.0072 60.2691 97.6259 60.3701 97.2497C60.387 97.1848 60.4054 97.1213 60.4223 97.0593C60.4393 96.9972 60.4506 96.962 60.4633 96.9182C60.5085 96.7772 60.5523 96.6362 60.6045 96.4952C60.6257 96.4317 60.6483 96.3696 60.6709 96.3076L61.048 95.3994L61.1412 95.2062L61.6596 94.2712C61.6949 94.2134 61.7302 94.1584 61.7655 94.1034L62.137 93.5632C63.7231 91.1743 67.8487 88.4764 67.8487 86.8603V85.0143C67.8491 84.9746 67.8524 84.935 67.8586 84.8958C67.8872 84.7419 67.9688 84.6029 68.0893 84.5027C68.2097 84.4025 68.3614 84.3475 68.5181 84.3472H73.7355C73.8233 84.347 73.9103 84.3641 73.9914 84.3976C74.0725 84.4311 74.1463 84.4802 74.2083 84.5422C74.2704 84.6042 74.3196 84.6778 74.3531 84.7588C74.3866 84.8398 74.4038 84.9266 74.4036 85.0143V86.8603C74.4036 87.6698 75.4361 88.7472 76.6634 89.922C77.8908 91.0967 79.3216 92.3688 80.1153 93.5632C80.1916 93.6676 80.2664 93.772 80.3385 93.8805C80.3695 93.9243 80.3992 93.9708 80.4303 94.0216C80.5108 94.1443 80.5899 94.2698 80.6647 94.3953C80.6944 94.4447 80.7241 94.494 80.7523 94.5363C80.7806 94.5786 80.8257 94.6632 80.8611 94.7281C80.8964 94.793 80.9161 94.8268 80.9416 94.8691C81.0023 94.9848 81.063 95.099 81.1195 95.2161C81.2608 95.508 81.3949 95.8084 81.5122 96.1144C81.5743 96.2723 81.6322 96.4331 81.6859 96.5939C81.8087 96.9642 81.9115 97.3408 81.9938 97.7221C82.0235 97.8631 82.0503 98.0041 82.0757 98.1452C82.1508 98.5692 82.2008 98.9972 82.2254 99.4271C82.2396 99.6654 82.248 99.884 82.248 100.105Z" fill="#FEBD57"/>
<path opacity="0.52" d="M77.7808 97.2906C77.5152 95.5291 76.0393 93.662 72.7385 93.2008C72.6509 92.232 72.5973 91.2264 72.562 90.2548C72.5097 88.6414 72.5182 87.1339 72.538 86.072C72.5549 85.1497 72.5817 84.5644 72.5831 84.5404L72.3868 84.532C72.3868 84.625 72.3572 85.2004 72.3388 86.072C72.3162 87.1325 72.3063 88.6302 72.3586 90.2336C72.3882 91.2011 72.4433 92.208 72.5323 93.1754C71.5965 93.0701 70.6518 93.0701 69.716 93.1754C69.805 92.2052 69.8572 91.2011 69.8897 90.2308C69.9434 88.6273 69.9307 87.1282 69.9095 86.072C69.8925 85.2258 69.8671 84.6518 69.8615 84.539V84.532L69.6652 84.5404C69.6652 84.5404 69.6652 84.5545 69.6652 84.5729C69.6652 84.7139 69.6934 85.2625 69.7075 86.072C69.7287 87.1325 69.7372 88.64 69.6849 90.2505C69.6524 91.2208 69.5973 92.2249 69.5084 93.2008C66.2076 93.6591 64.7317 95.5263 64.4661 97.2906C64.3108 98.32 64.6639 99.3439 65.3037 99.7261C65.5076 99.842 65.7334 99.9144 65.9668 99.9387C66.2002 99.963 66.4361 99.9386 66.6596 99.8671C67.4463 99.6415 68.1934 98.9645 68.6581 98.0577C69.1934 97.0099 69.5055 95.2696 69.6962 93.3827C70.644 93.2718 71.6015 93.2718 72.5492 93.3827C72.7329 95.2696 73.0506 97.0099 73.5874 98.0577C74.052 98.9645 74.7992 99.6415 75.5845 99.8671C75.8082 99.9388 76.0443 99.9633 76.278 99.939C76.5116 99.9147 76.7377 99.8422 76.9418 99.7261C77.583 99.3439 77.9361 98.32 77.7808 97.2906ZM68.4844 97.9646C68.0437 98.8235 67.3418 99.4638 66.6073 99.6725C66.4466 99.7214 66.2796 99.7465 66.1116 99.7472C65.8632 99.7493 65.6189 99.6835 65.4054 99.5568C64.8404 99.2198 64.5212 98.258 64.6624 97.3188C64.9153 95.6391 66.3291 93.8608 69.4886 93.4053C69.3092 95.2598 68.9999 96.9563 68.4844 97.9646ZM76.8415 99.5568C76.6281 99.6838 76.3838 99.7497 76.1353 99.7472C75.9673 99.7463 75.8003 99.7212 75.6396 99.6725C74.9051 99.4638 74.2046 98.8263 73.7625 97.9646C73.247 96.9563 72.9391 95.2598 72.7583 93.4053C75.9192 93.8608 77.3344 95.6391 77.5858 97.3188C77.7271 98.258 77.4079 99.224 76.8415 99.5568V99.5568Z" stroke="white" stroke-width="3.68" stroke-miterlimit="10"/>
<g opacity="0.43">
<path opacity="0.43" d="M60.0225 99.4482C60.6354 94.8945 64.3175 90.18 71.1239 90.18C77.9302 90.18 81.4739 95.1159 82.2253 99.4482C82.1012 97.3247 81.3655 95.2821 80.1067 93.5661C78.5192 91.1771 74.3936 88.4793 74.3936 86.8631V85.0171C74.3936 84.8402 74.3232 84.6705 74.1979 84.5454C74.0726 84.4203 73.9027 84.35 73.7255 84.35H68.5081C68.3309 84.35 68.161 84.4203 68.0357 84.5454C67.9104 84.6705 67.8401 84.8402 67.8401 85.0171V86.8631C67.8401 88.4793 63.7145 91.1771 62.1255 93.5661C60.8717 95.2836 60.1414 97.3262 60.0225 99.4482Z" fill="#FF8C3E"/>
</g>
<path d="M67.5831 86.0748H74.6635V80.2547C74.6692 79.3421 74.5163 78.4355 74.2115 77.5752C73.6466 76.0577 72.6847 75.1396 71.6424 75.1396H70.6043C69.5633 75.1396 68.5944 76.0577 68.0365 77.5752C67.7312 78.4354 67.5778 79.342 67.5831 80.2547V86.0748Z" fill="#991900"/>
<path d="M74.6651 82.15C74.6445 82.1472 74.6236 82.1472 74.603 82.15L67.524 83.4193C67.2811 83.463 67.113 83.8423 67.1469 84.257C67.1808 84.6716 67.404 84.9804 67.6441 84.9367L74.7244 83.6675C74.9659 83.6252 75.1354 83.2444 75.1015 82.8312C75.0719 82.4504 74.8812 82.1599 74.6651 82.15Z" fill="#E03500"/>
<path d="M74.6651 79.4804C74.6445 79.4776 74.6236 79.4776 74.603 79.4804L67.524 80.7497C67.2811 80.7934 67.113 81.1727 67.1469 81.5873C67.1808 82.002 67.404 82.3108 67.6441 82.2671L74.7244 80.9979C74.9659 80.9556 75.1354 80.5748 75.1015 80.1616C75.0719 79.7864 74.8812 79.4988 74.6651 79.4804Z" fill="#E03500"/>
<path d="M74.3824 76.8489C74.3617 76.8461 74.3408 76.8461 74.3202 76.8489L67.6099 78.049C67.3684 78.0927 67.1989 78.4721 67.2328 78.8853C67.2667 79.2985 67.4899 79.6102 67.7314 79.5664L74.4417 78.3663C74.6832 78.3226 74.8527 77.9432 74.8188 77.5286C74.7877 77.1493 74.5985 76.863 74.3824 76.8489Z" fill="#E03500"/>
</g>
<path d="M300.297 103.76C300.297 106.706 299.125 109.531 297.039 111.614C294.953 113.697 292.124 114.867 289.173 114.867C286.223 114.867 283.394 113.697 281.307 111.614C279.221 109.531 278.049 106.706 278.049 103.76C278.049 103.268 278.082 102.777 278.148 102.289C278.158 102.221 278.167 102.148 278.176 102.089C278.175 102.074 278.175 102.06 278.176 102.045C278.236 101.665 278.315 101.288 278.415 100.917C278.432 100.852 278.45 100.789 278.467 100.725C278.484 100.662 278.496 100.629 278.508 100.584C278.554 100.443 278.597 100.302 278.65 100.161C278.671 100.098 278.692 100.036 278.716 99.9735L279.093 99.0653C279.123 99.0004 279.155 98.9355 279.186 98.8721L279.705 97.9371L279.811 97.7678L280.182 97.2291C281.768 94.8401 285.894 92.1423 285.894 90.5262V88.6801C285.894 88.6405 285.897 88.6009 285.904 88.5617C285.932 88.4078 286.014 88.2688 286.134 88.1686C286.255 88.0684 286.406 88.0134 286.563 88.0131H291.781C291.868 88.0129 291.955 88.03 292.036 88.0635C292.118 88.097 292.191 88.1461 292.253 88.2081C292.315 88.27 292.365 88.3436 292.398 88.4247C292.432 88.5057 292.449 88.5925 292.449 88.6801V90.5163C292.449 91.3258 293.481 92.4032 294.708 93.578C295.936 94.7527 297.367 96.0248 298.16 97.2193C298.237 97.3222 298.312 97.428 298.384 97.5366C298.415 97.5803 298.444 97.6268 298.474 97.6776C298.556 97.8003 298.634 97.9258 298.71 98.0513L298.797 98.1923C298.834 98.2558 298.871 98.3193 298.906 98.3841C298.941 98.449 298.961 98.4828 298.987 98.5251C299.047 98.6394 299.108 98.755 299.165 98.8721C299.306 99.164 299.44 99.4644 299.557 99.7704C299.619 99.9283 299.677 100.089 299.731 100.25C299.853 100.62 299.956 100.997 300.039 101.378C300.069 101.519 300.095 101.66 300.119 101.794C300.194 102.218 300.244 102.646 300.269 103.076C300.289 103.32 300.297 103.539 300.297 103.76Z" fill="#FEBD57"/>
<path d="M295.833 100.952C295.568 99.1909 294.093 97.3238 290.792 96.8626C290.704 95.8938 290.651 94.8882 290.615 93.9166C290.563 92.3032 290.571 90.7957 290.591 89.7337C290.608 88.8114 290.635 88.2262 290.636 88.2022L290.44 88.1938C290.44 88.2868 290.41 88.8622 290.392 89.7337C290.368 90.7943 290.358 92.292 290.412 93.8954C290.441 94.8628 290.497 95.8698 290.586 96.8372C289.65 96.7319 288.705 96.7319 287.769 96.8372C287.857 95.8669 287.91 94.8628 287.943 93.8926C287.995 92.2891 287.984 90.79 287.963 89.7337C287.946 88.8876 287.92 88.3136 287.915 88.2008L287.718 88.2093C287.718 88.2093 287.718 88.2234 287.718 88.2417C287.718 88.3827 287.747 88.9299 287.761 89.7408C287.782 90.8013 287.79 92.3089 287.738 93.9194C287.704 94.8897 287.651 95.8938 287.56 96.8697C284.261 97.328 282.785 99.1952 282.519 100.959C282.364 101.989 282.717 103.013 283.357 103.395C283.561 103.512 283.786 103.584 284.02 103.609C284.253 103.633 284.489 103.608 284.713 103.536C285.5 103.312 286.247 102.635 286.711 101.728C287.247 100.68 287.559 98.9399 287.749 97.0516C288.697 96.9425 289.655 96.9425 290.602 97.0516C290.786 98.9399 291.102 100.68 291.641 101.728C292.105 102.635 292.852 103.312 293.638 103.536C293.861 103.608 294.098 103.633 294.331 103.609C294.565 103.584 294.791 103.512 294.995 103.395C295.632 102.999 295.985 101.975 295.833 100.952ZM286.538 101.626C286.097 102.485 285.395 103.126 284.661 103.334C284.499 103.383 284.332 103.408 284.163 103.409C283.915 103.411 283.671 103.345 283.457 103.219C282.892 102.882 282.573 101.92 282.714 100.981C282.966 99.3009 284.381 97.5226 287.54 97.0671C287.358 98.9145 287.049 100.611 286.533 101.619L286.538 101.626ZM294.895 103.219C294.681 103.346 294.437 103.411 294.189 103.409C294.021 103.408 293.854 103.383 293.693 103.334C292.958 103.126 292.258 102.488 291.816 101.626C291.3 100.618 290.992 98.9216 290.81 97.0671C293.972 97.5226 295.386 99.3009 295.639 100.981C295.776 101.913 295.457 102.875 294.891 103.209L294.895 103.219Z" stroke="white" stroke-width="3.68" stroke-miterlimit="10"/>
<g opacity="0.43">
<path opacity="0.43" d="M278.07 103.103C278.685 98.5493 282.367 93.8348 289.173 93.8348C295.979 93.8348 299.523 98.7707 300.275 103.103C300.152 100.98 299.419 98.937 298.163 97.2194C296.575 94.8319 292.45 92.134 292.45 90.5179V88.6719C292.45 88.5843 292.433 88.4975 292.399 88.4166C292.365 88.3356 292.316 88.2621 292.254 88.2002C292.192 88.1382 292.119 88.0891 292.037 88.0556C291.956 88.0221 291.87 88.0048 291.782 88.0048H286.564C286.387 88.0048 286.217 88.075 286.092 88.2001C285.966 88.3252 285.895 88.4948 285.895 88.6719V90.5165C285.895 92.1326 281.769 94.8304 280.182 97.218C278.926 98.9362 278.193 100.979 278.07 103.103Z" fill="#FF8C3E"/>
</g>
<path d="M285.632 89.7295H292.713V83.9093C292.719 82.9968 292.566 82.0902 292.261 81.2299C291.703 79.7124 290.734 78.7943 289.692 78.7943H288.654C287.613 78.7943 286.644 79.7124 286.084 81.2299C285.78 82.0902 285.627 82.9968 285.632 83.9093V89.7295Z" fill="#991900"/>
<path d="M292.714 85.8047C292.693 85.8019 292.673 85.8019 292.652 85.8047L285.572 87.074C285.33 87.1177 285.162 87.4971 285.194 87.9117C285.227 88.3263 285.452 88.6351 285.693 88.5914L292.773 87.3222C293.015 87.2799 293.184 86.8991 293.15 86.4859C293.119 86.1051 292.93 85.8174 292.714 85.8047Z" fill="#E03500"/>
<path d="M292.714 83.1407C292.693 83.1379 292.673 83.1379 292.652 83.1407L285.572 84.4099C285.33 84.4536 285.162 84.833 285.194 85.2476C285.227 85.6622 285.452 85.9697 285.693 85.9274L292.773 84.6581C293.015 84.6158 293.184 84.235 293.15 83.8218C293.119 83.4411 292.93 83.1534 292.714 83.1407Z" fill="#E03500"/>
<path d="M292.43 80.5034C292.41 80.5007 292.39 80.5007 292.37 80.5034L285.664 81.7078C285.421 81.7501 285.253 82.1309 285.287 82.5441C285.32 82.9573 285.544 83.2675 285.784 83.2252L292.495 82.0251C292.737 81.9814 292.906 81.602 292.873 81.1874C292.837 80.8038 292.648 80.5161 292.43 80.5034Z" fill="#E03500"/>
<path d="M87 342L72.0758 284H39.6597L29 342H32.2135L34.1748 332.656H81.0409L83.7865 342H87ZM76.7648 314.239H37.2305L39.4258 301.01H73.6921L76.7648 314.239ZM70.5199 287.351L72.9131 297.661H39.9814L41.6919 287.351H70.5199ZM78.181 329.304H34.7304L36.6748 317.588H77.5427L80.2629 329.304H78.181Z" fill="#ECA639"/>
<path d="M68 298H29V301H68V298Z" fill="#F49C4A"/>
<path d="M71 315H26V317H71V315Z" fill="#F49C4A"/>
<path d="M75 329H25V333H75V329Z" fill="#F49C4A"/>
<path d="M64 298H68V301H64.8625C64.5394 299.886 64.2502 298.875 64 298Z" fill="#CD7D00"/>
<path d="M70.9984 317H68.5661C68.3766 316.336 68.1863 315.666 68 315H71L70.9984 317Z" fill="#CD7D00"/>
<path d="M75 329V333H72.0671C71.7287 331.808 71.371 330.461 71 329H75Z" fill="#CD7D00"/>
<path d="M25 329H27C26.8364 330.563 26.6841 331.919 26.549 333H25V329Z" fill="#D27C2C"/>
<path d="M26 315H31C30.7784 315.669 30.5531 316.338 30.3291 317H26V315Z" fill="#D27C2C"/>
<path d="M34 298C33.7935 298.877 33.5555 299.888 33.2916 301H29V298H34Z" fill="#D27C2C"/>
<path d="M65.3089 284H31.2116L20 344H23.3795L33.3492 287.324H63.6681L77.6205 344H81L65.3089 284Z" fill="#FEBD57"/>
<path d="M166.129 259.365C166.129 259.365 169.58 263.675 169.276 265.789C168.973 267.903 175.499 267.083 176.56 265.181C177.621 263.278 176.364 260.396 176.364 260.396C176.364 260.396 174.042 258.725 172.166 254.828C170.29 250.932 166.129 259.365 166.129 259.365Z" fill="#FFC890"/>
<path d="M182.961 263.132C183.281 263.445 183.544 263.812 183.739 264.215L163.152 286.241C163.152 286.241 162.446 286.623 161.293 285.929C160.98 285.735 160.689 285.509 160.425 285.253C158.769 283.685 165.105 274.083 166.519 270.261C168.355 265.325 169.032 266.446 169.032 266.446C169.032 266.446 173.032 264.431 175.166 259.993C175.166 259.993 174.387 256.949 180.87 261.493C181.627 261.958 182.329 262.508 182.961 263.132Z" fill="#454B6B"/>
<path d="M182.96 263.132C183.281 263.445 183.544 263.812 183.739 264.215L163.152 286.24C163.152 286.24 162.445 286.622 161.293 285.929L182.96 263.132Z" fill="#3A138D"/>
<path d="M168.447 272.035C168.414 272.073 168.368 272.098 168.317 272.104C168.267 272.11 168.216 272.097 168.176 272.067C167.6 271.594 166.902 271.292 166.163 271.194C166.138 271.193 166.114 271.185 166.092 271.173C166.07 271.161 166.052 271.144 166.037 271.123C166.023 271.103 166.013 271.08 166.009 271.055C166.005 271.031 166.006 271.005 166.013 270.981C166.024 270.928 166.054 270.881 166.097 270.848C166.14 270.814 166.193 270.797 166.248 270.8C167.058 270.899 167.823 271.228 168.451 271.749C168.47 271.767 168.485 271.789 168.495 271.813C168.506 271.837 168.511 271.863 168.511 271.89C168.511 271.916 168.506 271.942 168.495 271.966C168.485 271.99 168.47 272.012 168.451 272.031L168.447 272.035Z" fill="white"/>
<path d="M166.786 274.4C166.753 274.439 166.707 274.463 166.657 274.469C166.607 274.475 166.557 274.462 166.516 274.433C165.609 273.674 164.882 273.709 164.875 273.709C164.85 273.711 164.825 273.708 164.802 273.7C164.779 273.691 164.758 273.677 164.74 273.66C164.723 273.642 164.71 273.621 164.702 273.597C164.694 273.574 164.691 273.549 164.694 273.524C164.699 273.471 164.722 273.42 164.76 273.382C164.798 273.344 164.848 273.32 164.902 273.314C164.937 273.314 165.772 273.259 166.791 274.115C166.811 274.133 166.826 274.155 166.836 274.18C166.847 274.204 166.852 274.23 166.852 274.256C166.852 274.283 166.847 274.309 166.836 274.333C166.826 274.357 166.811 274.379 166.791 274.397L166.786 274.4Z" fill="white"/>
<path d="M169.896 269.416C169.863 269.455 169.816 269.48 169.766 269.486C169.715 269.492 169.664 269.478 169.623 269.448C168.102 268.152 167.156 269.044 167.146 269.054C167.129 269.073 167.107 269.09 167.084 269.101C167.06 269.113 167.034 269.119 167.008 269.121C166.981 269.122 166.955 269.118 166.93 269.109C166.905 269.1 166.883 269.086 166.863 269.068C166.83 269.027 166.814 268.974 166.818 268.922C166.823 268.869 166.847 268.82 166.887 268.786C166.937 268.738 168.12 267.617 169.896 269.128C169.915 269.147 169.93 269.168 169.941 269.193C169.951 269.217 169.956 269.243 169.956 269.269C169.956 269.296 169.951 269.322 169.941 269.346C169.93 269.37 169.915 269.392 169.896 269.41V269.416Z" fill="white"/>
<path d="M158.016 224.707C158.016 224.707 171.567 247.901 173.913 255.093C173.913 255.093 171.057 258.039 166.93 259.204C166.93 259.204 152.973 250.865 143.94 238.079C134.908 225.292 124.937 217.461 133.347 214.398C141.758 211.335 155.413 216.41 158.016 224.707Z" fill="#43208E"/>
<path d="M147.237 265.921C147.237 265.921 150.689 270.231 150.384 272.345C150.079 274.459 156.607 273.64 157.669 271.737C158.731 269.835 157.471 266.952 157.471 266.952C157.471 266.952 155.149 265.281 153.273 261.385C151.398 257.488 147.237 265.921 147.237 265.921Z" fill="#FFC890"/>
<path d="M164.069 269.684C164.39 269.997 164.654 270.363 164.848 270.767L144.263 292.797C144.263 292.797 143.557 293.179 142.404 292.485C142.091 292.291 141.799 292.065 141.534 291.809C139.879 290.241 146.215 280.639 147.63 276.817C149.466 271.881 150.142 273.002 150.142 273.002C150.142 273.002 154.142 270.988 156.275 266.549C156.275 266.549 155.497 263.506 161.98 268.049C162.736 268.513 163.437 269.061 164.069 269.684Z" fill="#454B6B"/>
<path d="M164.068 269.684C164.39 269.997 164.654 270.363 164.848 270.767L144.263 292.797C144.263 292.797 143.556 293.179 142.404 292.485L164.068 269.684Z" fill="#3A138D"/>
<path d="M149.555 278.591C149.522 278.63 149.476 278.654 149.425 278.66C149.375 278.666 149.324 278.653 149.284 278.623C148.708 278.15 148.01 277.847 147.271 277.75C147.246 277.748 147.222 277.741 147.2 277.729C147.179 277.716 147.16 277.699 147.146 277.679C147.132 277.659 147.122 277.635 147.118 277.611C147.113 277.587 147.115 277.561 147.121 277.537C147.133 277.485 147.163 277.438 147.206 277.404C147.248 277.371 147.301 277.354 147.356 277.356C148.166 277.456 148.931 277.785 149.56 278.305C149.579 278.323 149.594 278.345 149.605 278.369C149.615 278.393 149.62 278.419 149.62 278.446C149.62 278.472 149.615 278.498 149.605 278.522C149.594 278.547 149.579 278.568 149.56 278.587L149.555 278.591Z" fill="white"/>
<path d="M147.898 280.956C147.865 280.995 147.819 281.02 147.769 281.026C147.718 281.032 147.668 281.018 147.627 280.989C146.721 280.23 145.994 280.265 145.987 280.265C145.962 280.267 145.937 280.264 145.914 280.256C145.891 280.247 145.869 280.233 145.852 280.216C145.835 280.198 145.821 280.177 145.813 280.153C145.805 280.13 145.802 280.105 145.805 280.08C145.81 280.027 145.833 279.976 145.871 279.938C145.91 279.9 145.96 279.876 146.014 279.87C146.048 279.87 146.882 279.815 147.902 280.671C147.921 280.69 147.936 280.711 147.947 280.736C147.957 280.76 147.963 280.786 147.963 280.812C147.963 280.839 147.957 280.865 147.947 280.889C147.936 280.913 147.921 280.935 147.902 280.953L147.898 280.956Z" fill="white"/>
<path d="M151.005 275.972C150.972 276.011 150.926 276.035 150.876 276.041C150.826 276.048 150.775 276.034 150.734 276.005C149.212 274.708 148.265 275.6 148.257 275.61C148.239 275.629 148.218 275.645 148.194 275.657C148.171 275.668 148.145 275.675 148.118 275.676C148.092 275.677 148.066 275.673 148.041 275.664C148.016 275.655 147.994 275.642 147.974 275.624C147.941 275.583 147.925 275.53 147.929 275.478C147.934 275.425 147.959 275.377 147.998 275.342C148.049 275.294 149.233 274.174 151.007 275.684C151.026 275.703 151.041 275.724 151.051 275.749C151.062 275.773 151.067 275.799 151.067 275.825C151.067 275.852 151.062 275.878 151.051 275.902C151.041 275.926 151.026 275.948 151.007 275.966L151.005 275.972Z" fill="white"/>
<path d="M156.775 146.906C156.775 146.906 154.62 148.56 154.264 143.486C153.908 138.412 164.426 136.341 163.773 139.114C163.121 141.887 156.775 146.906 156.775 146.906Z" fill="#1E0000"/>
<path d="M187.418 146.712C187.21 147.135 171.551 142.958 169.985 142.022C169.431 141.69 168.692 140.471 167.899 138.826C166.455 135.839 164.83 131.469 163.803 128.578C163.253 127.027 161.947 123.239 160.413 118.751C159.375 115.726 158.232 112.387 157.146 109.214C155.169 103.432 153.384 98.2051 152.768 96.4197C151.932 94.0054 151.437 88.7183 151.401 84.3747C151.374 81.1185 151.604 78.3952 152.141 77.8142C153.393 76.4576 154.542 81.8786 155.899 84.3804C157.256 86.8822 159.135 95.221 159.656 96.888C159.834 97.4521 162.009 101.133 164.817 105.773C170.28 114.788 178.137 127.424 178.343 127.816C178.53 128.172 181.325 128.71 183.537 129.086C185.02 129.338 186.24 129.509 186.24 129.509C186.24 129.509 189.617 131.176 190.452 133.992C191.287 136.808 187.628 146.295 187.418 146.712Z" fill="#FECEB3"/>
<path d="M164.811 105.769C163.822 105.701 162.829 105.848 161.902 106.202C159.925 103.285 157.019 100.023 156.172 98.2803C154.885 95.6389 156.474 94.278 155.793 89.8977C155.621 88.6688 155.122 87.5083 154.349 86.5369C153.575 85.5655 152.555 84.8186 151.395 84.3738C151.368 81.1175 151.599 78.3943 152.135 77.8132C153.388 76.4566 154.536 81.8776 155.894 84.3794C157.251 86.8812 159.129 95.2201 159.651 96.887C159.829 97.4539 162.004 101.133 164.811 105.769Z" fill="#2D1AA2"/>
<path d="M161.902 106.203C159.954 106.899 158.214 108.253 157.142 109.214C156.803 108.226 156.468 107.239 156.153 106.297C156.124 106.211 156.093 106.125 156.064 106.039C155.902 105.569 155.744 105.106 155.59 104.65L155.523 104.458C155.494 104.375 155.465 104.29 155.439 104.207C155.412 104.124 155.374 104.022 155.344 103.934C155.19 103.487 155.042 103.049 154.896 102.626C154.857 102.509 154.817 102.392 154.778 102.278C154.666 101.948 154.556 101.629 154.45 101.319C154.408 101.193 154.365 101.068 154.321 100.945C154.268 100.785 154.214 100.629 154.16 100.476C154.127 100.373 154.091 100.271 154.057 100.171L154.035 100.108C154.012 100.043 153.991 99.9792 153.97 99.9158C153.97 99.9017 153.96 99.889 153.956 99.8763C153.923 99.779 153.889 99.6831 153.857 99.5942C153.857 99.5787 153.847 99.5646 153.843 99.5505L153.762 99.3136C153.725 99.2106 153.691 99.1091 153.658 99.009C153.631 98.9328 153.604 98.8567 153.578 98.7819C153.535 98.6536 153.492 98.5281 153.45 98.4068L153.384 98.2108L153.333 98.0613C153.332 98.0561 153.332 98.0509 153.333 98.0458C153.306 97.971 153.282 97.9047 153.258 97.8286C153.245 97.7919 153.232 97.7566 153.221 97.7214C153.173 97.5804 153.125 97.4393 153.08 97.3152C153.025 97.1545 152.973 97.005 152.926 96.8682C152.912 96.8231 152.896 96.7808 152.882 96.7399C152.841 96.6242 152.806 96.5199 152.773 96.4254C151.937 94.011 151.443 88.724 151.406 84.3804C152.567 84.8252 153.586 85.5721 154.36 86.5435C155.133 87.5149 155.632 88.6754 155.804 89.9044C156.485 94.2846 154.896 95.6455 156.183 98.2869C157.019 100.024 159.926 103.286 161.902 106.203Z" fill="#0F2470"/>
<g opacity="0.4">
<path opacity="0.4" d="M153.069 97.3096C153.113 97.4379 153.161 97.5733 153.21 97.7157L153.069 97.3096Z" fill="#FF9D6C"/>
</g>
<g opacity="0.4">
<path opacity="0.4" d="M160.409 118.751C159.371 115.726 158.228 112.387 157.142 109.214C158.214 108.253 159.954 106.899 161.902 106.203C162.924 107.71 163.696 109.126 163.803 110.191C164.019 112.363 162.071 116.465 160.409 118.751Z" fill="#FF9D6C"/>
</g>
<path d="M161.436 110.849C161.436 113.795 160.264 116.62 158.178 118.703C156.092 120.786 153.262 121.957 150.312 121.957C147.362 121.957 144.532 120.786 142.446 118.703C140.36 116.62 139.188 113.795 139.188 110.849C139.187 110.357 139.22 109.866 139.287 109.379C139.297 109.309 139.305 109.238 139.315 109.177C139.314 109.163 139.314 109.149 139.315 109.135C139.379 108.754 139.462 108.376 139.565 108.004C139.583 107.94 139.602 107.875 139.619 107.813C139.636 107.751 139.647 107.716 139.66 107.672C139.704 107.531 139.749 107.39 139.801 107.249C139.822 107.187 139.843 107.124 139.866 107.063L140.244 106.155C140.274 106.088 140.305 106.025 140.338 105.96L140.856 105.025C140.89 104.969 140.927 104.912 140.962 104.857L141.332 104.317C142.92 101.928 147.045 99.2318 147.045 97.6156V95.7682C147.046 95.729 147.049 95.6899 147.055 95.6511C147.083 95.4971 147.165 95.3579 147.285 95.2577C147.406 95.1575 147.558 95.1026 147.715 95.1025H152.932C153.109 95.1025 153.278 95.1727 153.403 95.2975C153.528 95.4223 153.599 95.5916 153.599 95.7682V97.6156C153.599 98.4237 154.631 99.5025 155.858 100.677C157.086 101.852 158.517 103.123 159.31 104.317C159.387 104.422 159.461 104.527 159.533 104.634L159.624 104.775C159.706 104.898 159.783 105.024 159.86 105.151C159.889 105.199 159.918 105.249 159.946 105.292C159.974 105.334 160.021 105.419 160.056 105.482C160.091 105.545 160.111 105.582 160.137 105.623C160.197 105.739 160.258 105.854 160.315 105.971C160.456 106.263 160.597 106.564 160.707 106.87C160.769 107.028 160.826 107.188 160.881 107.349C161.003 107.72 161.105 108.096 161.189 108.477C161.22 108.618 161.247 108.759 161.271 108.893C161.345 109.318 161.395 109.746 161.42 110.177C161.426 110.408 161.436 110.628 161.436 110.849Z" fill="#FEBD57"/>
<path d="M156.967 108.034C156.701 106.273 155.227 104.406 151.926 103.945C151.838 102.974 151.785 101.97 151.749 100.999C151.697 99.3853 151.706 97.8778 151.725 96.8144C151.742 95.8921 151.769 95.3069 151.771 95.2829L151.574 95.2744C151.574 95.3689 151.545 95.9443 151.525 96.8144C151.502 97.8763 151.492 99.374 151.546 100.978C151.576 101.944 151.631 102.952 151.72 103.919C150.784 103.812 149.839 103.812 148.904 103.919C148.991 102.948 149.045 101.945 149.077 100.975C149.129 99.3712 149.118 97.8721 149.097 96.8144C149.08 95.9683 149.055 95.3957 149.049 95.2815L148.851 95.2899C148.851 95.2899 148.851 95.304 148.851 95.3224C148.851 95.4634 148.881 96.012 148.895 96.8215C148.916 97.8834 148.925 99.391 148.871 101.001C148.839 101.97 148.785 102.976 148.694 103.952C145.395 104.41 143.919 106.277 143.654 108.041C143.498 109.071 143.851 110.093 144.491 110.476C144.695 110.593 144.921 110.665 145.154 110.69C145.388 110.714 145.624 110.689 145.847 110.617C146.632 110.391 147.38 109.715 147.846 108.809C148.381 107.761 148.693 106.021 148.884 104.132C149.831 104.021 150.789 104.021 151.737 104.132C151.92 106.021 152.237 107.761 152.775 108.809C153.24 109.715 153.987 110.391 154.771 110.617C154.994 110.689 155.231 110.714 155.465 110.69C155.699 110.666 155.925 110.593 156.129 110.476C156.771 110.086 157.122 109.064 156.967 108.034ZM147.67 108.707C147.23 109.567 146.529 110.206 145.795 110.416C145.633 110.464 145.466 110.489 145.298 110.49C145.049 110.492 144.805 110.427 144.591 110.301C144.027 109.964 143.707 109 143.847 108.063C144.1 106.382 145.515 104.603 148.675 104.148C148.497 106.004 148.187 107.699 147.67 108.709V108.707ZM156.029 110.301C155.815 110.427 155.571 110.493 155.323 110.49C155.155 110.489 154.988 110.464 154.827 110.416C154.093 110.206 153.392 109.57 152.95 108.707C152.434 107.699 152.127 106.004 151.944 104.148C155.107 104.603 156.521 106.382 156.773 108.063C156.915 109 156.595 109.964 156.029 110.301V110.301Z" stroke="white" stroke-width="3.68" stroke-miterlimit="10"/>
<g opacity="0.43">
<path opacity="0.43" d="M139.209 110.192C139.823 105.637 143.505 100.923 150.312 100.923C157.118 100.923 160.662 105.859 161.413 110.192C161.289 108.068 160.553 106.025 159.295 104.309C157.707 101.92 153.581 99.222 153.581 97.6073V95.7612C153.581 95.5842 153.511 95.4144 153.386 95.2891C153.261 95.1637 153.091 95.0931 152.913 95.0928H147.695C147.517 95.0931 147.347 95.1637 147.222 95.2891C147.097 95.4144 147.027 95.5842 147.027 95.7612V97.6073C147.027 99.222 142.901 101.92 141.313 104.309C140.06 106.027 139.33 108.07 139.209 110.192Z" fill="#FF8C3E"/>
</g>
<path d="M146.768 96.8189H153.849V90.9973C153.854 90.0848 153.701 89.1782 153.397 88.3178C152.839 86.8018 151.868 85.8823 150.827 85.8823H149.789C148.748 85.8823 147.778 86.8018 147.22 88.3178C146.915 89.1782 146.762 90.0848 146.768 90.9973V96.8189Z" fill="#991900"/>
<path d="M153.851 92.8927C153.831 92.8906 153.811 92.8906 153.791 92.8927L146.71 94.1619C146.469 94.2042 146.301 94.585 146.333 94.9982C146.366 95.4114 146.59 95.7216 146.832 95.6793L153.912 94.4101C154.154 94.3664 154.323 93.987 154.289 93.5724C154.254 93.1959 154.069 92.9138 153.851 92.8927Z" fill="#E03500"/>
<path d="M153.851 90.2345C153.831 90.2324 153.811 90.2324 153.791 90.2345L146.71 91.5037C146.469 91.546 146.301 91.9268 146.333 92.34C146.366 92.7532 146.59 93.0634 146.832 93.0211L153.912 91.7519C154.154 91.7082 154.323 91.3288 154.289 90.9142C154.254 90.5306 154.069 90.2429 153.851 90.2345Z" fill="#E03500"/>
<path d="M153.569 87.5934C153.548 87.5913 153.528 87.5913 153.508 87.5934L146.796 88.7935C146.555 88.8372 146.387 89.2166 146.419 89.6312C146.452 90.0458 146.678 90.3547 146.918 90.3109L153.629 89.1108C153.871 89.0671 154.039 88.6877 154.006 88.2745C153.971 87.8938 153.786 87.6061 153.569 87.5934Z" fill="#E03500"/>
<path d="M157.005 114.922C156.963 116.05 156.299 120.213 156.299 120.213C154.617 121.284 152.679 121.883 150.686 121.949C148.693 122.014 146.719 121.544 144.97 120.587C143.222 119.63 141.763 118.221 140.747 116.508C139.73 114.795 139.194 112.84 139.193 110.849C139.193 110.357 139.226 109.866 139.292 109.378C139.302 109.309 139.311 109.237 139.32 109.177C139.319 109.163 139.319 109.148 139.32 109.134C139.357 109.095 139.395 109.054 139.436 109.013C140.217 108.214 141.456 107.246 142.029 108.422C142.902 110.21 142.342 116.124 144.391 118.153C146.44 120.182 149.785 121.06 150.906 119.638C152.028 118.216 152.548 112.869 156.088 113.433C156.376 113.557 156.619 113.766 156.783 114.033C156.947 114.299 157.024 114.61 157.005 114.922Z" fill="#FF8C3E"/>
<path d="M187.418 146.713C187.211 147.136 171.551 142.959 169.985 142.022C169.431 141.691 168.693 140.471 167.899 138.826C170.27 139.955 176.217 143.26 180.046 141.99C184.819 140.406 184.037 133.617 183.527 129.083C185.01 129.335 186.23 129.506 186.23 129.506C186.23 129.506 189.607 131.173 190.442 133.989C191.277 136.806 187.629 146.295 187.418 146.713Z" fill="#FF9D6C"/>
<path d="M182.544 145.739C182.544 145.739 185.49 140.969 186.235 138.124C186.979 135.28 186.235 129.521 186.235 129.521H187.175C187.175 129.521 189.171 134.598 188.379 138.591C187.586 142.583 184.485 146.206 184.485 146.206L182.544 145.739Z" fill="#1E0000"/>
<path d="M218.327 143.486C215.24 146.153 188.602 153.394 183.433 146.906L183.599 146.688C183.599 146.688 189.249 136.402 186.88 129.664C186.88 129.664 186.163 128.732 187.814 128.589C188.982 128.488 205.892 129.174 215.816 129.585C219.93 129.757 222.838 129.88 222.923 129.88C223.21 129.88 221.415 140.82 218.327 143.486Z" fill="#3A3A3A"/>
<path d="M218.327 143.486C215.24 146.153 188.602 153.394 183.433 146.906L183.599 146.689C183.599 146.689 189.249 136.402 186.88 129.664C186.88 129.664 186.163 128.732 187.814 128.589C187.814 128.589 189.932 134.23 189.252 137.243C188.571 140.255 195.626 138.337 199.952 136.416C202.619 135.232 210.237 131.977 215.816 129.585C219.93 129.757 222.838 129.88 222.923 129.88C223.21 129.88 221.415 140.821 218.327 143.486Z" fill="#333333"/>
<path d="M236.042 131.872C235.982 133.592 216.876 138.982 218.121 134.954C218.462 133.851 218.523 132.143 218.431 130.245C218.19 125.212 216.878 118.839 216.878 118.839C213.648 119.098 210.399 118.959 207.204 118.423C201.978 117.534 202.161 111.255 201.745 109.596C201.33 107.938 200.322 108.706 198.601 107.699C196.881 106.692 197.059 105.093 200.025 102.249C202.991 99.4041 202.399 95.6726 203.586 91.8804C204.772 88.0882 209.335 83.1058 215.927 81.7491C217.211 81.4868 229.99 87.7921 231.593 92.532C233.196 97.2718 232.126 106.041 232.126 106.041C232.126 106.041 232.6 115.935 233.136 119.963C233.353 121.611 233.89 123.617 234.444 125.528C235.24 128.29 236.076 130.857 236.042 131.872Z" fill="#FECEB3"/>
<path d="M204.079 101.24C204.541 101.24 204.915 100.65 204.915 99.9216C204.915 99.1934 204.541 98.603 204.079 98.603C203.617 98.603 203.243 99.1934 203.243 99.9216C203.243 100.65 203.617 101.24 204.079 101.24Z" fill="#12133F"/>
<path d="M201.943 110.862C202.149 110.937 202.366 110.976 202.585 110.976H202.746H202.908C203.015 110.976 203.124 110.961 203.231 110.952C203.662 110.9 204.09 110.822 204.511 110.717C204.935 110.614 205.359 110.493 205.782 110.368L206.416 110.178C206.63 110.113 206.84 110.048 207.06 109.996C206.871 110.116 206.675 110.222 206.479 110.329C206.282 110.436 206.075 110.522 205.87 110.611C205.665 110.7 205.446 110.77 205.241 110.851C205.037 110.931 204.818 110.979 204.594 111.04C204.154 111.148 203.702 111.204 203.248 111.209C203.02 111.211 202.791 111.187 202.568 111.138C202.34 111.097 202.126 111.003 201.943 110.862Z" fill="#D12C00"/>
<path opacity="0.45" d="M206 100.998C206 103.76 204.657 106 203 106C202.725 106 202.453 105.938 202.202 105.82C200.927 105.236 200 103.299 200 100.999C200 98.2381 201.343 96 203 96C203.554 96.0137 204.082 96.2452 204.477 96.6472C205.386 97.5062 206 99.1366 206 100.998Z" fill="#FF9D6C"/>
<path d="M219.457 100.184L206.745 99.6634C206.463 98.0289 205.672 96.7414 204.66 96.2915C205.567 97.1221 206.179 98.6889 206.179 100.493C206.179 103.159 204.84 105.321 203.189 105.321C202.914 105.321 202.643 105.262 202.394 105.148C202.786 105.534 203.311 105.756 203.862 105.77C205.514 105.77 206.852 103.611 206.852 100.943H219.45L219.457 100.184Z" fill="#FF9D6C"/>
<path d="M203.196 95.6656C204.847 95.6656 206.186 97.8275 206.186 100.494C206.186 103.161 204.847 105.322 203.196 105.322C201.545 105.322 200.207 103.16 200.207 100.494C200.207 97.8289 201.545 95.6656 203.196 95.6656ZM203.196 95.2425C201.279 95.2425 199.779 97.5497 199.779 100.497C199.779 103.445 201.286 105.748 203.196 105.748C205.105 105.748 206.614 103.439 206.614 100.493C206.614 97.5469 205.112 95.2383 203.196 95.2383V95.2425Z" fill="#D12C00"/>
<path d="M206.44 100.294L206.299 98.9951L219.457 99.5352V100.294H206.44Z" fill="#D12C00"/>
<path d="M222.511 99.459C222.511 99.459 225.102 100.676 224.566 103.426C224.029 106.176 219.844 107.784 218.162 107.213C218.162 107.213 217.375 107.285 218.985 108.284C220.595 109.284 222.634 108.82 224.423 108.534C226.213 108.248 227.772 111.214 229.782 112.249C231.791 113.284 232.498 112.569 232.498 112.569L232.423 109.678C232.423 109.678 235.835 96.8176 233.438 93.2454C231.041 89.6732 222.511 99.459 222.511 99.459Z" fill="#FF9D6C"/>
<path d="M236.043 131.872C235.982 133.591 216.876 138.981 218.121 134.953C218.463 133.851 218.523 132.143 218.431 130.245C220.701 130.42 230.719 130.867 234.442 125.527C235.24 128.29 236.077 130.857 236.043 131.872Z" fill="#FF9D6C"/>
<path d="M186.234 145.354C186.234 145.354 187.26 142.541 191.528 143.82C195.796 145.099 196.48 162.06 195.2 163.724C193.921 165.388 190.931 165.473 190.931 165.473L186.234 145.354Z" fill="#1E0000"/>
<path d="M201.946 150.639L198.957 161.551C195.057 162.883 191.018 163.77 186.918 164.194C181.982 164.685 177.482 166.053 172.404 163.725C170.664 162.926 168.858 161.695 166.941 159.848C159.427 152.601 153.876 141.938 153.876 141.938C153.876 141.938 159.684 136.141 161.561 137.425C163.438 138.708 176.163 149.104 176.163 149.104C177.839 149.049 183.004 147.209 186.374 145.944C188.157 145.276 189.438 144.768 189.438 144.768L201.946 150.639Z" fill="#FECEB3"/>
<path d="M201.946 150.639L198.957 161.551C195.057 162.883 191.018 163.769 186.918 164.194C181.982 164.685 177.482 166.053 172.404 163.724C176.596 164.466 191.744 162.032 190.192 154.479C188.64 146.925 186.379 145.945 186.379 145.945C188.161 145.277 189.442 144.769 189.442 144.769L201.946 150.639Z" fill="#FF9D6C"/>
<path d="M188.378 145.181C188.378 145.181 188.912 145.06 189.158 145.377C190.192 146.714 192.491 150.978 192.347 156.131C192.171 162.509 190.57 163.724 190.57 163.724C190.57 163.724 191.89 164.161 192.354 164.161C192.819 164.161 196.959 164.838 197.721 161.961C198.484 159.085 200.442 151.409 199.022 147.688C197.603 143.968 189.787 142.016 188.378 145.181Z" fill="#1E0000"/>
<path d="M246.535 172.802C246.301 174.225 245.984 175.397 245.575 176.216C243.099 181.152 229.012 200.171 223.974 200.598C218.936 201.025 193.066 194.118 191.87 190.368C190.674 186.618 201.178 164.701 201.178 164.701C201.178 164.701 192.723 168.708 190.931 165.467C190.931 165.467 193.32 166.491 193.833 162.057C194.346 157.623 192.383 140.404 186.234 145.348C186.322 144.948 186.464 144.561 186.658 144.199C187.021 143.511 187.671 142.72 188.798 142.449C190.932 141.937 196.566 140.233 200.324 138.527C203.323 137.166 209.424 133.849 215.109 132.655C216.478 132.349 217.877 132.203 219.279 132.22C225.853 132.39 233.343 131.735 235.062 127.629C235.062 127.629 235.759 126.251 236.616 127.104C237.473 127.957 243.02 136.056 245.069 144.752C246.224 149.653 247.025 157.451 247.062 164.213C247.075 167.464 246.915 170.478 246.535 172.802Z" fill="url(#paint1_linear_138_1901)"/>
<path d="M246.535 172.802C245.352 174.118 243.469 175.471 242.559 174.379C241.397 172.987 237.948 150.575 240.369 148.724C240.369 148.724 243.082 152.672 243.489 159.525C243.735 163.658 245.607 164.331 247.057 164.214C247.075 167.465 246.915 170.478 246.535 172.802Z" fill="#333333"/>
<path d="M215.108 132.659C215.108 132.659 227.857 134.283 231.169 143.972C234.481 153.662 233.376 178.325 230.297 182.613C227.218 186.902 206.179 189.402 202.692 187.489C199.205 185.575 197.985 178.436 203.737 172.749C209.49 167.061 223.107 163.636 221.936 157.167L202.982 165.042C202.982 165.042 199.959 165.559 198.215 168.925C196.47 172.292 192.706 190.105 197.727 192.368C202.749 194.632 227.388 193.355 231.865 187.668C236.342 181.98 240.176 171.564 239.711 162.526C239.246 153.487 237.386 142.754 233.608 139.853C229.83 136.952 221.423 128.601 215.108 132.659Z" fill="#333333"/>
<path d="M238.433 204.148C237.423 206.828 235.058 210.682 232.383 214.398C228.776 219.407 224.605 224.184 222.42 225.584C218.617 228.021 183.507 230.238 178.553 230.379C175.816 230.459 165.446 229.443 156.752 228.517C149.867 227.785 144.041 227.107 143.877 227.082C143.903 227.109 143.925 227.14 143.942 227.173C144.946 228.866 156.613 253.214 157.446 260.202C157.446 260.202 151.916 267.084 145.453 267.228C145.453 267.228 144.112 265.9 141.987 263.733C135.456 257.074 121.523 242.473 116.376 234.036C109.556 222.852 106.324 215.468 111.494 211.455C116.663 207.441 126.5 201.058 145.815 196.184C165.129 191.311 177.406 187.224 180.419 185.073C183.431 182.922 195.13 173.65 199.007 165.586L201.176 164.702C201.126 164.826 198.549 171.038 197.428 176.564C197.004 178.668 196.788 180.67 197.004 182.205C197.795 187.795 200.092 191.524 207.918 191.02C215.744 190.517 228.02 188.297 231.396 184.928C234.772 181.559 237.642 165.572 235.492 152.596C233.342 139.62 224.745 131.561 215.113 132.652C215.254 132.521 220.451 127.656 228.883 133.456C237.427 139.336 240.945 148.584 241.663 153.888C242.38 159.192 241.804 171.453 243.458 171.165C244.617 170.937 245.751 170.601 246.848 170.162C246.848 170.162 248.543 168.8 248.766 169.945C248.989 171.09 240.8 197.837 238.433 204.148Z" fill="#68378F"/>
<path d="M243.102 102.011C241.179 108.178 232.73 111.141 232.423 111.247H232.414C227.719 110.297 227.14 100.291 227.14 100.291C224.649 100.883 222.215 99.2826 222.215 99.2826C219.308 97.9795 218.003 105.206 216.772 104.853C215.54 104.501 219.783 97.9203 218.184 97.1503C217.784 96.9748 217.371 96.8287 216.95 96.7131C215.047 96.1377 212.184 95.3748 210.529 92.3512C208.453 88.5604 212.159 82.9885 212.159 82.9885C207.142 85.5932 204.074 90.6433 204.074 90.6433C195.779 82.5372 207.675 78.5955 213.496 76.6508C221.547 73.9642 224.654 79.1399 224.654 79.1399C230.586 76.71 236.048 84.2337 236.048 84.2337C238.503 86.4732 240.355 88.5787 241.63 90.6433C243.928 94.3735 244.364 97.971 243.102 102.011Z" fill="#292929"/>
<path d="M212.162 82.9912C212.162 82.9912 214.563 81.571 215.872 81.4526C215.872 81.4526 207.863 81.3341 204.955 85.0671C202.046 88.8 202.84 89.2894 202.84 89.2894L204.075 90.646C204.075 90.646 206.606 86.5436 212.162 82.9912Z" fill="#333333"/>
<path d="M227.141 100.294C224.649 100.886 222.216 99.2857 222.216 99.2857C219.309 97.9827 218.004 105.209 216.772 104.856C215.541 104.504 219.783 97.9234 218.185 97.1534C217.784 96.978 217.372 96.8319 216.95 96.7162C215.008 94.6248 215.87 87.9727 215.87 87.9727C219.789 100.294 227.141 100.294 227.141 100.294Z" fill="#333333"/>
<path d="M243.102 102.011C241.18 108.178 232.731 111.141 232.423 111.247C232.794 111.069 241.877 105.27 242.578 99.4362C243.276 93.6245 241.668 90.7208 241.627 90.6475C243.928 94.3734 244.365 97.9709 243.102 102.011Z" fill="#333333"/>
<path d="M227.14 100.294C227.14 100.294 230.204 100.353 231.158 97.5283C231.158 97.5283 231.906 96.8232 231.824 98.3998C231.742 99.9765 229.369 106.101 232.422 111.247C232.422 111.247 228.314 111.683 227.14 100.294Z" fill="#333333"/>
<path d="M219.365 103.858C219.711 104.725 220.705 105.268 221.455 104.502C221.901 104.031 222.157 103.412 222.173 102.765C222.163 101.856 221.241 101.377 220.427 101.721C220.083 101.877 219.791 102.129 219.588 102.447C219.347 102.811 219.203 103.265 219.306 103.688C219.321 103.746 219.341 103.803 219.365 103.858Z" fill="#FF9D6C"/>
<path d="M216.875 118.839C216.875 118.839 221.395 118.303 223.594 116.917C223.594 116.917 220.628 121.429 217.52 122.39L216.875 118.839Z" fill="#1E0000"/>
<path d="M163.772 139.11C163.489 136.03 156.134 141.39 155.237 144.371C154.34 147.353 156.775 146.91 156.775 146.91C153.41 149.225 150.125 137.44 146.832 134.329C143.538 131.218 139.577 127.175 138.866 126.108C138.154 125.042 136.641 121.221 136.641 118.998C136.641 116.775 137.976 116.333 137.976 116.333C137.976 116.333 138.376 112.201 139.445 109.933C140.226 108.276 141.172 108.163 141.624 108.744C141.807 109 141.9 109.309 141.89 109.623C141.89 110.955 142.596 116.998 143.315 118.021C144.034 119.043 150.257 122.33 150.659 122.33C150.833 122.33 151.083 122.103 151.314 121.677C151.614 121.126 151.879 120.24 151.905 119.087C151.949 117.043 153.997 114.422 155.331 114.021C156.666 113.621 156.355 115.572 155.999 117.265C155.643 118.957 156.706 120.733 156.578 122.464C156.451 124.196 155.642 130.463 156.134 131.885C156.625 133.306 161.696 135.975 163.119 137.244C164.543 138.513 163.772 139.11 163.772 139.11Z" fill="#2D1AA2"/>
<path d="M137.976 116.324C137.976 116.324 137.976 119.479 139.177 121.7C140.377 123.921 138.024 123.542 136.976 117.328C136.976 117.338 137.305 116.372 137.976 116.324Z" fill="#0F2470"/>
<path d="M142.514 118.95C140.513 115.884 141.624 108.74 141.624 108.74C141.807 108.995 141.9 109.304 141.89 109.618C141.89 110.951 142.596 116.994 143.315 118.016C144.034 119.039 150.257 122.326 150.659 122.326C150.833 122.326 151.083 122.099 151.315 121.673C151.614 126.218 144.517 122.016 142.514 118.95Z" fill="#0F2470"/>
<path d="M199.007 165.593L201.176 164.706C201.176 164.706 220.559 157.887 221.46 157.288C222.361 156.688 222.06 158.537 219.906 160.437C219.906 160.437 215.429 163.353 197.731 167.88L199.007 165.593Z" fill="#393939"/>
<path d="M237.709 167.328C237.541 173.97 235.52 184.311 229.626 188.514C223.732 192.716 203.779 194.988 198.89 189.36C194.096 183.829 197.306 176.834 197.426 176.58C197.003 178.684 196.787 180.687 197.003 182.221C197.794 187.812 200.09 191.54 207.916 191.037C215.742 190.533 228.019 188.314 231.394 184.944C234.77 181.575 237.64 165.589 235.49 152.613C233.341 139.637 224.743 131.578 215.111 132.669C215.266 132.599 220.813 130.155 228.7 136.426C236.699 142.775 237.877 160.685 237.709 167.328Z" fill="#0F2470"/>
<path d="M232.382 214.397C228.774 219.407 224.604 224.183 222.419 225.584C218.615 228.021 183.506 230.237 178.551 230.378C175.814 230.459 165.444 229.442 156.751 228.517C149.865 227.785 144.039 227.107 143.875 227.081C143.902 227.108 143.924 227.139 143.94 227.173C144.945 228.865 156.611 253.213 157.444 260.201C157.444 260.201 151.915 267.083 145.452 267.227C145.452 267.227 144.11 265.9 141.986 263.732C141.986 263.732 145.839 263.137 148.254 258.555C150.624 254.06 140.429 222.497 137.542 218.37C137.493 218.3 137.446 218.238 137.401 218.184L137.388 218.167C137.337 218.114 137.302 218.047 137.287 217.975C137.24 217.604 138.253 217.494 140.065 217.572C150.388 218.02 186.648 224.599 200.301 223.598C216.718 222.394 232.382 214.397 232.382 214.397Z" fill="#582279"/>
<path d="M143.943 227.181C143.92 227.151 143.898 227.121 143.878 227.089C143.905 227.116 143.927 227.147 143.943 227.181V227.181Z" stroke="#333333" stroke-width="0.85" stroke-miterlimit="10"/>
<path d="M156.751 228.524C149.866 227.792 144.04 227.114 143.876 227.088C142.165 224.461 138.357 219.446 137.543 218.377C137.47 218.283 137.422 218.221 137.401 218.191L137.389 218.174C137.35 218.108 137.318 218.043 137.287 217.982C136.404 216.225 137.711 216.406 140.065 217.579C144.516 219.797 152.7 225.591 156.751 228.524Z" fill="#1E0000"/>
<path d="M226.344 131.978C226.344 131.978 233.709 131.373 235.061 127.637C235.061 127.637 233.602 131.022 225.787 131.727L226.344 131.978Z" fill="#1E0000"/>
<path d="M215.108 132.661C215.108 132.661 192.871 142.267 193.075 146.422C193.075 146.422 191.477 141.379 186.658 144.205C187.021 143.517 187.671 142.726 188.798 142.455C190.932 141.943 196.566 140.239 200.325 138.533C203.322 137.172 209.423 133.855 215.108 132.661Z" fill="#595959"/>
<path d="M194.298 148.161C194.298 148.161 198.459 158.379 195.216 164.238" stroke="#FFFEFD" stroke-width="2.56" stroke-miterlimit="10" stroke-linecap="round"/>
<path d="M203.82 93.8192C204.69 93.5323 205.637 93.5919 206.464 93.9856C206.865 94.1808 207.214 94.468 207.482 94.8236C207.751 95.1793 207.931 95.5933 208.008 96.0319" stroke="#12133F" stroke-width="2.11" stroke-miterlimit="10" stroke-linecap="round"/>
<path d="M186.234 145.354C186.379 144.783 186.61 144.238 186.918 143.735C187.073 143.482 187.26 143.248 187.473 143.04C187.689 142.827 187.948 142.661 188.232 142.554C188.796 142.372 189.336 142.171 189.887 141.966L191.529 141.341C193.72 140.51 195.908 139.671 198.094 138.825L204.66 136.31L207.941 135.041C209.035 134.618 210.128 134.195 211.21 133.748C209.091 134.744 206.909 135.618 204.74 136.504C202.57 137.389 200.38 138.23 198.196 139.082C196.012 139.933 193.818 140.746 191.609 141.55L189.952 142.138C189.401 142.331 188.839 142.525 188.282 142.69C187.726 142.855 187.315 143.3 186.99 143.775C186.665 144.264 186.411 144.795 186.234 145.354Z" fill="#1E0000"/>
<path d="M150.309 92.0576C150.316 92.1818 150.288 92.3055 150.228 92.4144C150.12 92.5408 149.977 92.6322 149.817 92.6767C148.675 93.1153 147.416 93.2056 146.145 93.1576C146.634 93.3698 147.106 93.6192 147.557 93.9036C147.923 94.1321 148.292 94.4014 148.488 94.809C148.66 95.1686 148.676 95.5917 148.669 95.9979C148.672 96.0964 148.66 96.1947 148.634 96.2898C148.627 96.3117 148.618 96.333 148.607 96.3533C148.531 96.4733 148.42 96.5662 148.288 96.6184C147.66 96.9153 146.977 97.0791 146.282 97.0993C146.58 97.3023 146.864 97.5266 147.129 97.7705C147.433 98.0221 147.665 98.3503 147.799 98.7211C147.909 99.1274 147.954 99.5488 147.93 99.9692C147.935 100.095 147.92 100.221 147.885 100.341C147.841 100.458 147.76 100.557 147.655 100.624C146.711 101.302 145.625 101.188 144.597 100.982C144.182 100.899 143.757 100.8 143.382 100.498C142.943 100.115 142.674 99.574 142.634 98.9932C142.609 98.6205 142.659 98.2465 142.78 97.893C142.901 97.5396 143.092 97.2137 143.34 96.9343C143.363 96.9089 143.385 96.8863 143.409 96.8638C143.04 96.7992 142.684 96.6774 142.353 96.5027C142.09 96.3646 141.862 96.1702 141.684 95.9334C141.506 95.6966 141.383 95.4234 141.323 95.1334C141.323 95.1122 141.316 95.0897 141.313 95.0685C141.22 94.29 141.704 93.5511 142.302 93.1054C142.466 92.9817 142.64 92.8726 142.823 92.7797C142.601 92.7241 142.383 92.652 142.172 92.5639C141.574 92.3058 141.053 91.8588 140.88 91.3243C140.857 91.2611 140.841 91.1959 140.832 91.1297C140.71 90.3512 141.336 89.6136 142.103 89.1666C142.41 88.9867 142.736 88.8405 143.074 88.7308C142.692 88.6664 142.32 88.5482 141.97 88.3797C141.562 88.1805 141.225 87.8617 141.004 87.4658C140.917 87.3039 140.859 87.1276 140.834 86.9454C140.73 86.1656 141.258 85.428 141.906 84.9809C142.33 84.6836 142.811 84.478 143.319 84.3773C143.776 84.2941 144.235 84.4563 144.682 84.572C145.717 84.8429 146.711 85.2503 147.638 85.7834C148.038 86.0118 148.44 86.2826 148.653 86.6902C148.843 87.0498 148.86 87.4729 148.853 87.879C148.859 88.0014 148.836 88.1235 148.783 88.2344L148.766 88.2612C148.68 88.3688 148.565 88.4511 148.436 88.4995C147.748 88.796 147.01 88.9587 146.261 88.979C147.157 89.2296 148.029 89.56 148.867 89.9662C149.337 90.1961 149.813 90.4654 150.066 90.873C150.299 91.2298 150.319 91.6515 150.309 92.0576Z" fill="#1A4EA2"/>
<path d="M148.776 88.2602C148.69 88.3678 148.576 88.4502 148.446 88.4986C147.758 88.795 147.02 88.9577 146.271 88.978L143.079 88.7298C142.696 88.6654 142.324 88.5472 141.974 88.3787C141.567 88.1796 141.229 87.8607 141.008 87.4648C143.802 88.1009 147.668 87.9852 148.776 88.2602Z" fill="#0F2470"/>
<path d="M150.229 92.4147C150.121 92.5411 149.978 92.6324 149.818 92.677C148.675 93.1156 147.417 93.2058 146.145 93.1579L142.826 92.7757C142.604 92.7202 142.386 92.648 142.175 92.5599C141.578 92.3019 141.057 91.8548 140.883 91.3203C140.883 91.3203 147.165 93.3186 150.229 92.4147Z" fill="#0F2470"/>
<path d="M148.642 96.29C148.635 96.312 148.626 96.3333 148.615 96.3535C148.54 96.4736 148.428 96.5664 148.296 96.6186C147.668 96.9156 146.985 97.0793 146.291 97.0995L143.424 96.8598C143.055 96.7952 142.698 96.6734 142.367 96.4988C142.105 96.3606 141.876 96.1662 141.698 95.9294C141.52 95.6926 141.397 95.4194 141.337 95.1294C142.587 95.5482 145.89 96.7004 148.642 96.29Z" fill="#0F2470"/>
<path d="M186.235 189.158C186.235 189.158 171.438 199.34 182.363 204.639C182.36 204.639 178.245 198.717 186.235 189.158Z" fill="#8059D7"/>
<path d="M183.941 189.158C183.941 189.158 183.689 189.353 183.283 189.705" stroke="#FFFEFD" stroke-width="1.71" stroke-miterlimit="10" stroke-linecap="round"/>
<path d="M181.965 190.927C178.815 194.029 173.647 200.611 180.212 205.379" stroke="#FFFEFD" stroke-width="1.71" stroke-miterlimit="10" stroke-linecap="round" stroke-dasharray="10.78 10.78"/>
<path d="M180.959 205.875C181.194 206.022 181.44 206.166 181.698 206.308" stroke="#FFFEFD" stroke-width="1.71" stroke-miterlimit="10" stroke-linecap="round"/>
<path d="M270.581 339.211L241.822 229.18H179.318L158.773 339.211H164.968L168.749 321.484H259.1L264.392 339.211H270.581ZM250.849 286.542H174.635L178.872 261.446H244.929L250.849 286.542ZM238.811 235.534L243.427 255.093H179.938L183.235 235.537L238.811 235.534ZM253.582 315.124H169.814L173.563 292.898H252.349L257.593 315.124H253.582Z" fill="#F9A12D"/>
<path d="M232.382 255.094H160.152V261.45H232.382V255.094Z" fill="#FEBD57"/>
<path d="M240.749 286.545H153.782V292.901H240.749V286.545Z" fill="#FEBD57"/>
<path d="M246.723 315.127H150.374V321.484H246.723V315.127Z" fill="#FEBD57"/>
<path d="M226.119 255.094H232.382V261.45H227.469C226.962 259.09 226.509 256.948 226.119 255.094Z" fill="#FF8C3E"/>
<path d="M240.749 292.901H234.462C233.972 290.786 233.481 288.662 232.999 286.545H240.749V292.901Z" fill="#FF8C3E"/>
<path d="M246.723 315.127V321.484H241.77C241.205 319.589 240.596 317.451 239.968 315.127H246.723Z" fill="#FF8C3E"/>
<path d="M150.374 315.127H156.834C156.306 317.612 155.813 319.767 155.378 321.484H150.374V315.127Z" fill="#FF8C3E"/>
<path d="M153.782 286.542H162.257C161.882 288.667 161.501 290.795 161.127 292.898H153.794L153.782 286.542Z" fill="#FF8C3E"/>
<path d="M167.611 255.094C167.304 256.951 166.95 259.093 166.556 261.45H160.152V255.094H167.611Z" fill="#FF8C3E"/>
<path d="M227.79 229.18H163.083L141.805 343.91H148.219L167.138 235.537H224.676L251.153 343.91H257.566L227.79 229.18Z" fill="#FEBD57"/>
<defs>
<linearGradient id="paint0_linear_138_1901" x1="173.859" y1="4" x2="173.859" y2="265.083" gradientUnits="userSpaceOnUse">
<stop stop-color="#F6F2FF"/>
<stop offset="1" stop-color="#F6F2FF" stop-opacity="0"/>
</linearGradient>
<linearGradient id="paint1_linear_138_1901" x1="216.649" y1="126.825" x2="216.649" y2="200.617" gradientUnits="userSpaceOnUse">
<stop stop-color="#242424"/>
<stop offset="1" stop-color="#121212"/>
</linearGradient>
</defs>
</svg>
